<?xml version="1.0" standalone="no"?>
<!DOCTYPE svg PUBLIC "-//W3C//DTD SVG 20010904//EN"
 "http://www.w3.org/TR/2001/REC-SVG-20010904/DTD/svg10.dtd">
<svg version="1.0" xmlns="http://www.w3.org/2000/svg"
 width="560.000000pt" height="560.000000pt" viewBox="0 0 560.000000 560.000000"
 preserveAspectRatio="xMidYMid meet">
<metadata>
Created by potrace 1.14, written by Peter Selinger 2001-2017
</metadata>
<g transform="translate(0.000000,560.000000) scale(0.100000,-0.100000)"
fill="#000000" stroke="none">
<path d="M455 5589 c-32 -18 -365 -351 -382 -383 -10 -20 -13 -42 -8 -72 6
-40 25 -61 326 -361 176 -175 321 -319 322 -320 2 -1 114 109 251 246 l248
248 -314 313 c-177 177 -327 319 -345 327 -39 16 -71 16 -98 2z"/>
<path d="M3948 5510 c-2 -5 -214 -222 -473 -483 -258 -261 -487 -493 -508
-515 l-38 -39 43 -45 c24 -24 115 -120 203 -213 88 -92 180 -189 205 -215 25
-26 108 -113 185 -195 77 -81 192 -201 255 -268 63 -66 133 -139 155 -162 87
-92 355 -374 445 -467 l95 -100 515 521 c283 286 514 523 513 526 -1 5 -196
216 -252 273 -13 12 -48 -20 -274 -247 l-260 -262 -32 33 -32 33 236 239 c130
131 247 249 261 262 24 23 24 24 5 42 -11 10 -78 80 -150 156 -71 76 -158 167
-193 204 l-64 66 -125 -127 c-69 -70 -129 -127 -133 -127 -3 0 -19 14 -35 30
l-29 30 127 128 c70 70 127 130 127 133 0 3 -21 28 -47 56 -27 27 -118 123
-203 212 -85 90 -181 191 -213 224 -290 307 -301 318 -309 297z"/>
<path d="M1035 4625 c-192 -192 -244 -249 -235 -260 6 -7 230 -232 498 -500
l487 -487 1 -96 c2 -79 8 -114 32 -187 16 -49 62 -191 102 -315 39 -124 80
-249 91 -278 24 -66 24 -155 1 -205 -15 -32 -187 -218 -438 -472 -67 -68 -99
-87 -164 -99 -28 -5 -67 -21 -180 -73 -41 -19 -88 -37 -105 -40 -16 -3 -59
-19 -95 -35 -59 -26 -97 -61 -428 -391 -200 -199 -378 -384 -396 -412 -54 -81
-78 -158 -82 -260 -3 -85 1 -115 25 -209 12 -50 79 -186 91 -186 5 0 15 -6 22
-13 17 -18 110 -61 178 -83 38 -13 85 -18 155 -19 110 0 171 18 261 74 54 33
742 715 783 776 28 41 71 138 71 160 0 6 25 68 54 136 30 68 57 138 60 155 13
73 39 106 263 327 293 290 287 285 348 292 28 3 59 4 70 1 21 -4 108 -32 135
-43 8 -3 22 -7 30 -9 8 -2 23 -7 35 -13 21 -10 226 -85 235 -86 3 0 10 -3 15
-6 6 -4 28 -12 50 -19 22 -7 54 -18 70 -25 46 -20 147 -55 175 -61 53 -12 135
-11 184 2 l51 13 262 -261 262 -262 246 246 c135 135 245 249 245 252 0 3
-111 117 -246 252 l-245 245 36 36 c41 41 47 30 -72 153 -84 88 -95 99 -303
319 -68 73 -152 161 -185 195 -33 34 -121 128 -197 207 -75 79 -167 176 -205
215 -37 39 -129 136 -203 214 -185 195 -200 212 -320 337 -58 60 -126 132
-152 160 l-47 52 -61 -61 -60 -60 -454 454 c-250 249 -465 463 -479 476 l-25
23 -247 -246z"/>
<path d="M2776 4321 l-58 -58 29 -30 c15 -16 98 -103 183 -193 85 -89 173
-182 195 -205 22 -23 114 -120 205 -215 91 -95 179 -187 195 -205 17 -17 75
-79 130 -136 178 -187 429 -450 478 -503 27 -28 76 -79 110 -114 l60 -63 35
33 c19 18 43 41 54 51 10 9 18 21 18 26 0 8 -105 123 -225 246 -27 28 -111
116 -185 195 -74 78 -168 177 -208 219 -41 42 -122 128 -182 191 -60 63 -135
142 -167 176 -32 33 -132 139 -223 234 -91 96 -198 208 -239 249 -40 42 -90
95 -110 118 l-38 42 -57 -58z"/>
<path d="M2531 4074 l-53 -55 73 -76 c41 -42 90 -93 109 -113 19 -21 109 -115
200 -210 330 -346 358 -376 396 -416 83 -87 342 -359 394 -414 47 -49 226
-238 371 -391 l44 -47 56 60 57 60 -98 101 c-132 138 -201 210 -360 377 -74
79 -162 171 -195 205 -33 35 -125 132 -205 216 -80 84 -165 173 -190 199 -25
26 -111 116 -191 201 -81 85 -191 200 -244 257 -54 56 -101 102 -104 102 -4 0
-31 -25 -60 -56z"/>
<path d="M4320 1344 l-250 -248 32 -33 c18 -18 36 -33 40 -33 4 0 118 110 253
245 l245 245 -36 36 -35 37 -249 -249z"/>
<path d="M4471 1184 l-244 -246 36 -36 37 -36 249 249 249 250 -33 32 c-19 18
-38 33 -42 33 -4 -1 -118 -111 -252 -246z"/>
<path d="M4611 1044 l-245 -245 100 -100 c99 -100 100 -100 284 -192 102 -50
187 -91 190 -92 3 -1 108 -52 233 -113 126 -62 233 -112 238 -112 5 0 9 -4 9
-10 0 -5 7 -10 15 -10 8 0 30 -9 50 -20 20 -11 40 -20 46 -20 5 0 -8 35 -29
77 -22 43 -77 155 -122 248 -46 94 -134 275 -196 403 l-114 232 -98 100 c-54
55 -103 100 -108 100 -5 -1 -119 -111 -253 -246z m625 -510 c53 -108 94 -197
92 -199 -4 -4 -373 177 -384 188 -6 6 180 203 194 206 1 1 46 -87 98 -195z"/>
</g>
</svg>
