<?xml version="1.0" standalone="no"?>
<!DOCTYPE svg PUBLIC "-//W3C//DTD SVG 20010904//EN"
 "http://www.w3.org/TR/2001/REC-SVG-20010904/DTD/svg10.dtd">
<svg version="1.0" xmlns="http://www.w3.org/2000/svg"
 width="700.000000pt" height="700.000000pt" viewBox="0 0 700.000000 700.000000"
 preserveAspectRatio="xMidYMid meet">
<metadata>
Created by potrace 1.14, written by Peter Selinger 2001-2017
</metadata>
<g transform="translate(0.000000,700.000000) scale(0.100000,-0.100000)"
fill="#000000" stroke="none">
<path d="M1367 5712 c-143 -143 -187 -193 -187 -212 0 -20 64 -89 285 -310
l285 -285 210 210 210 210 -287 287 c-187 187 -295 288 -308 288 -13 0 -88
-68 -208 -188z"/>
<path d="M4050 5364 l-433 -436 50 -51 c28 -29 315 -331 638 -672 323 -341
601 -633 617 -650 l28 -30 435 435 c239 239 435 438 435 443 0 4 -50 59 -112
123 l-112 115 -218 -218 -217 -217 -26 24 c-14 13 -25 27 -25 32 0 4 96 106
214 226 l214 217 -171 180 c-95 99 -177 181 -183 183 -6 2 -57 -45 -113 -104
l-101 -107 -30 28 -30 29 109 111 110 110 -313 330 c-172 181 -318 331 -323
332 -5 2 -204 -193 -443 -433z"/>
<path d="M2022 5057 c-111 -111 -202 -207 -202 -212 0 -6 189 -199 420 -430
242 -242 420 -413 420 -403 0 54 40 110 202 278 l167 175 -397 398 c-218 218
-399 397 -402 397 -3 0 -96 -91 -208 -203z"/>
<path d="M3488 4793 l-46 -48 609 -640 c335 -352 636 -667 669 -700 l60 -60
47 47 46 46 -114 121 c-716 756 -1215 1280 -1219 1280 -3 1 -26 -20 -52 -46z"/>
<path d="M3287 4592 l-48 -49 667 -702 668 -702 48 48 48 47 -43 46 c-24 25
-311 326 -637 670 -326 344 -607 640 -624 658 l-32 32 -47 -48z"/>
<path d="M2948 4252 c-166 -167 -177 -181 -193 -236 -12 -41 -16 -77 -12 -115
4 -31 49 -189 102 -351 53 -162 98 -320 102 -351 4 -38 0 -74 -11 -113 -16
-54 -31 -71 -233 -282 -218 -227 -249 -252 -344 -280 -27 -8 -87 -32 -135 -54
-47 -22 -93 -40 -102 -40 -10 0 -39 -11 -67 -24 -76 -35 -641 -610 -679 -690
-49 -103 -45 -223 11 -343 21 -46 31 -56 86 -83 121 -59 234 -60 337 -4 62 34
629 602 658 659 11 22 25 59 31 82 6 23 29 80 50 126 21 46 46 110 55 142 10
31 28 74 41 94 14 20 123 131 242 246 231 222 249 235 339 235 57 0 109 -17
404 -125 244 -90 271 -98 340 -99 59 0 83 4 115 21 22 12 116 98 209 191 l169
170 -19 25 c-27 36 -1308 1377 -1314 1377 -4 0 -85 -80 -182 -178z m-805
-2032 c33 -26 43 -70 23 -107 -8 -15 -130 -143 -270 -282 -241 -241 -257 -255
-292 -255 -48 0 -84 39 -84 92 0 35 15 51 268 304 235 235 271 268 298 268 17
0 43 -9 57 -20z"/>
<path d="M4340 2780 c-96 -98 -192 -186 -212 -197 l-38 -18 218 -218 217 -217
210 210 210 210 -205 205 c-113 113 -209 204 -215 204 -5 -1 -89 -81 -185
-179z"/>
<path d="M4787 2282 l-208 -208 31 -29 31 -29 209 209 210 209 -27 28 c-15 15
-29 28 -32 28 -4 0 -100 -94 -214 -208z"/>
<path d="M4922 2157 c-111 -111 -202 -207 -202 -213 0 -6 11 -21 25 -34 l26
-24 209 209 210 209 -27 28 c-15 15 -29 28 -32 28 -4 0 -97 -91 -209 -203z"/>
<path d="M5037 2032 l-207 -207 87 -87 c77 -76 101 -93 193 -136 58 -28 239
-116 404 -196 164 -80 300 -146 302 -146 1 0 -87 183 -197 408 l-200 407 -82
83 c-45 45 -84 82 -87 82 -3 0 -99 -93 -213 -208z m517 -409 c40 -82 77 -158
80 -171 7 -20 -12 -13 -156 59 -90 45 -165 83 -167 85 -4 4 159 174 166 174 2
0 36 -66 77 -147z"/>
</g>
</svg>
