<svg width="6" height="11" viewBox="0 0 6 11" xmlns="http://www.w3.org/2000/svg">
<path d="M0.421875 0.34375C0.46875 0.296875 0.515625 0.273438 0.609375 0.273438C0.679688 0.273438 0.75 0.296875 0.796875 0.34375L5.76562 5.3125C5.8125 5.35938 5.83594 5.42969 5.83594 5.5C5.83594 5.59375 5.8125 5.64062 5.76562 5.6875L0.796875 10.6562C0.75 10.7031 0.679688 10.7266 0.609375 10.7266C0.515625 10.7266 0.46875 10.7031 0.421875 10.6562L0.234375 10.4688C0.1875 10.4219 0.164062 10.375 0.164062 10.2812C0.164062 10.2109 0.1875 10.1406 0.234375 10.0703L4.82812 5.5L0.234375 0.929688C0.1875 0.882812 0.164062 0.8125 0.164062 0.71875C0.164062 0.648438 0.1875 0.578125 0.234375 0.53125L0.421875 0.34375Z" fill="currentColor"/>
</svg>
