<svg width="30" height="30" viewBox="0 0 30 30" xmlns="http://www.w3.org/2000/svg">
<path d="M15 0C6.72535 0 0 6.72535 0 15C0 23.2746 6.72535 30 15 30C23.2746 30 30 23.2746 30 15C30 6.72535 23.2746 0 15 0ZM15 28.4859C7.57042 28.4859 1.51408 22.4296 1.51408 15C1.51408 7.57042 7.57042 1.51408 15 1.51408C22.4296 1.51408 28.4859 7.57042 28.4859 15C28.4859 22.4296 22.4296 28.4859 15 28.4859Z" fill="currentColor"/>
<path d="M16.0563 14.9298L20.4577 10.5283C20.7394 10.2467 20.7394 9.7537 20.4577 9.47201C20.176 9.19032 19.683 9.19032 19.4014 9.47201L14.9999 13.8734L10.5985 9.47201C10.3168 9.19032 9.82389 9.19032 9.5422 9.47201C9.26051 9.7537 9.26051 10.2467 9.5422 10.5283L13.9436 14.9298L9.5422 19.296C9.26051 19.5776 9.26051 20.0706 9.5422 20.3523C9.68305 20.4931 9.89431 20.5636 10.0704 20.5636C10.2464 20.5636 10.4577 20.4931 10.5985 20.3523L14.9999 15.9509L19.4014 20.3523C19.5422 20.4931 19.7535 20.5636 19.9295 20.5636C20.1056 20.5636 20.3168 20.4931 20.4577 20.3523C20.7394 20.0706 20.7394 19.5776 20.4577 19.296L16.0563 14.9298Z" fill="currentColor"/>
</svg>
