<svg width="12" height="9" viewBox="0 0 12 9" xmlns="http://www.w3.org/2000/svg">
<path d="M10.2188 0.445312C10.2656 0.398438 10.3125 0.375 10.4062 0.375C10.4766 0.375 10.5469 0.398438 10.6172 0.445312L11.2734 1.125C11.3203 1.17188 11.3672 1.24219 11.3672 1.3125C11.3672 1.40625 11.3203 1.47656 11.2734 1.52344L4.24219 8.55469C4.19531 8.60156 4.125 8.625 4.05469 8.625C3.96094 8.625 3.89062 8.60156 3.84375 8.55469L0.726562 5.41406C0.65625 5.36719 0.632812 5.32031 0.632812 5.22656C0.632812 5.15625 0.65625 5.08594 0.726562 5.01562L1.38281 4.35938C1.42969 4.3125 1.5 4.26562 1.59375 4.26562C1.66406 4.26562 1.73438 4.3125 1.78125 4.35938L4.05469 6.63281L10.2188 0.445312Z" fill="currentColor"/>
</svg>
