<svg width="14" height="19" viewBox="0 0 14 19" xmlns="http://www.w3.org/2000/svg">
<path d="M11.8125 2.5H8.68359C8.68359 2.42969 8.71875 2.32422 8.71875 2.21875C8.71875 1.16406 7.80469 0.25 6.75 0.25C5.66016 0.25 4.78125 1.16406 4.78125 2.21875C4.78125 2.32422 4.78125 2.42969 4.78125 2.5H1.6875C0.738281 2.5 0 3.27344 0 4.1875V16.5625C0 17.5117 0.738281 18.25 1.6875 18.25H11.8125C12.7266 18.25 13.5 17.5117 13.5 16.5625V4.1875C13.5 3.27344 12.7266 2.5 11.8125 2.5ZM6.75 1.375C7.20703 1.375 7.59375 1.76172 7.59375 2.21875C7.59375 2.71094 7.20703 3.0625 6.75 3.0625C6.25781 3.0625 5.90625 2.71094 5.90625 2.21875C5.90625 1.76172 6.25781 1.375 6.75 1.375ZM12.375 16.5625C12.375 16.8789 12.0938 17.125 11.8125 17.125H1.6875C1.37109 17.125 1.125 16.8789 1.125 16.5625V4.1875C1.125 3.90625 1.37109 3.625 1.6875 3.625H3.375V4.32812C3.375 4.57422 3.55078 4.75 3.79688 4.75H9.70312C9.91406 4.75 10.125 4.57422 10.125 4.32812V3.625H11.8125C12.0938 3.625 12.375 3.90625 12.375 4.1875V16.5625ZM3.9375 11.7812C3.44531 11.7812 3.09375 12.168 3.09375 12.625C3.09375 13.1172 3.44531 13.4688 3.9375 13.4688C4.39453 13.4688 4.78125 13.1172 4.78125 12.625C4.78125 12.168 4.39453 11.7812 3.9375 11.7812ZM9.84375 12.0625H5.90625C5.73047 12.0625 5.625 12.2031 5.625 12.3438V12.9062C5.625 13.082 5.73047 13.1875 5.90625 13.1875H9.84375C9.98438 13.1875 10.125 13.082 10.125 12.9062V12.3438C10.125 12.2031 9.98438 12.0625 9.84375 12.0625ZM4.42969 9.77734L6.67969 7.52734C6.75 7.45703 6.75 7.35156 6.67969 7.28125L6.22266 6.82422C6.15234 6.75391 6.04688 6.75391 5.97656 6.82422L4.28906 8.47656L3.58594 7.73828C3.48047 7.66797 3.375 7.66797 3.30469 7.73828L2.84766 8.19531C2.77734 8.26562 2.77734 8.37109 2.84766 8.44141L4.14844 9.77734C4.21875 9.84766 4.35938 9.84766 4.42969 9.77734ZM9.84375 8.6875H7.10156L5.97656 9.8125H9.84375C9.98438 9.8125 10.125 9.70703 10.125 9.53125V8.96875C10.125 8.82812 9.98438 8.6875 9.84375 8.6875Z" fill="currentColor"/>
</svg>
