<svg width="15" height="24" viewBox="0 0 15 24" xmlns="http://www.w3.org/2000/svg">
<path d="M9 19.5C9 18.7031 8.29688 18 7.5 18C6.65625 18 6 18.7031 6 19.5C6 20.3438 6.65625 21 7.5 21C8.29688 21 9 20.3438 9 19.5ZM15 2.25C15 1.03125 13.9688 0 12.75 0H2.25C0.984375 0 0 1.03125 0 2.25V21.75C0 23.0156 0.984375 24 2.25 24H12.75C13.9688 24 15 23.0156 15 21.75V2.25ZM13.5 2.25V21.75C13.5 22.1719 13.125 22.5 12.75 22.5H2.25C1.82812 22.5 1.5 22.1719 1.5 21.75V2.25C1.5 1.875 1.82812 1.5 2.25 1.5H12.75C13.125 1.5 13.5 1.875 13.5 2.25Z" fill="currentColor"/>
</svg>
