<svg width="20" height="12" viewBox="0 0 20 12" xmlns="http://www.w3.org/2000/svg">
<path d="M19.894 10.5998C19.8698 10.5476 19.8472 10.5043 19.8262 10.4696C19.4792 9.84462 18.8161 9.07753 17.8373 8.16809L17.8166 8.14726L17.8063 8.13705L17.7958 8.12658H17.7853C17.341 7.7031 17.0597 7.41836 16.9419 7.27258C16.7264 6.99487 16.6781 6.71378 16.7959 6.42896C16.8791 6.21378 17.1918 5.75933 17.7331 5.065C18.0178 4.69703 18.2433 4.40211 18.4099 4.17992C19.611 2.58315 20.1317 1.56279 19.9719 1.11845L19.9099 1.01461C19.8682 0.952094 19.7606 0.894905 19.5872 0.842749C19.4135 0.790702 19.1914 0.782095 18.9206 0.816781L15.9217 0.837497C15.8731 0.820282 15.8037 0.821886 15.7134 0.842749C15.6231 0.863611 15.5779 0.874079 15.5779 0.874079L15.5257 0.900157L15.4843 0.931487C15.4496 0.952203 15.4114 0.988639 15.3697 1.04072C15.3282 1.09262 15.2936 1.15353 15.2658 1.22294C14.9393 2.06294 14.5681 2.84393 14.1515 3.56587C13.8946 3.99635 13.6587 4.36943 13.4433 4.68532C13.2281 5.0011 13.0476 5.23376 12.9019 5.38289C12.756 5.53218 12.6244 5.65177 12.5061 5.74211C12.3881 5.83249 12.298 5.87068 12.2355 5.85671C12.173 5.84274 12.1141 5.82888 12.0583 5.81502C11.9612 5.75251 11.8831 5.66749 11.8242 5.5599C11.765 5.4523 11.7252 5.31688 11.7044 5.15374C11.6836 4.99049 11.6714 4.85007 11.6679 4.732C11.6646 4.61409 11.6661 4.4473 11.6732 4.23211C11.6804 4.01681 11.6836 3.87114 11.6836 3.79477C11.6836 3.53093 11.6888 3.24458 11.6991 2.93566C11.7096 2.62673 11.7181 2.38197 11.7252 2.20164C11.7323 2.02114 11.7356 1.83017 11.7356 1.62884C11.7356 1.42751 11.7233 1.26962 11.6991 1.15503C11.6752 1.04058 11.6385 0.929481 11.5901 0.821777C11.5414 0.714183 11.4701 0.630953 11.3766 0.571867C11.2829 0.512854 11.1664 0.466023 11.0278 0.431229C10.6598 0.347962 10.1912 0.302918 9.62185 0.295915C8.33069 0.282056 7.50105 0.365432 7.13311 0.545935C6.98733 0.622199 6.85541 0.726401 6.73746 0.858213C6.61247 1.011 6.59504 1.09437 6.68527 1.10809C7.10186 1.17049 7.39677 1.31977 7.57035 1.55579L7.6329 1.68085C7.68155 1.77109 7.73013 1.93084 7.77875 2.15988C7.8273 2.38893 7.85863 2.64231 7.87241 2.91986C7.90706 3.42672 7.90706 3.8606 7.87241 4.22153C7.83765 4.58261 7.80483 4.86371 7.7735 5.06504C7.74217 5.26636 7.69534 5.42951 7.6329 5.55442C7.57035 5.67938 7.52873 5.75575 7.50787 5.78347C7.48704 5.81119 7.46968 5.82866 7.4559 5.83552C7.36566 5.87009 7.27182 5.88771 7.17469 5.88771C7.07742 5.88771 6.95947 5.83906 6.82065 5.74182C6.68188 5.64459 6.53785 5.51102 6.38856 5.34091C6.23928 5.17077 6.07093 4.933 5.88342 4.62758C5.69606 4.32216 5.50166 3.96119 5.30033 3.54468L5.13376 3.24261C5.02963 3.04828 4.88739 2.76533 4.70689 2.394C4.52628 2.02253 4.36664 1.6632 4.22786 1.31609C4.17238 1.17031 4.08904 1.05932 3.97799 0.98295L3.92587 0.95162C3.89122 0.9239 3.8356 0.894467 3.7593 0.8631C3.68289 0.83177 3.60316 0.809303 3.51978 0.79548L0.666572 0.816197C0.375011 0.816197 0.177184 0.882248 0.073018 1.01417L0.0313299 1.07657C0.0105041 1.11133 0 1.16684 0 1.24325C0 1.31963 0.0208258 1.41336 0.0625139 1.52435C0.47903 2.50327 0.931983 3.44737 1.42137 4.35677C1.91076 5.26618 2.33603 5.99873 2.69692 6.55377C3.05789 7.10921 3.42583 7.63344 3.80073 8.12618C4.17563 8.61911 4.42379 8.935 4.54521 9.07378C4.66677 9.21281 4.76225 9.31675 4.83166 9.38616L5.09204 9.63604C5.25865 9.80268 5.5033 10.0023 5.82612 10.2348C6.14901 10.4674 6.50648 10.6965 6.89871 10.9223C7.291 11.1477 7.74739 11.3317 8.2681 11.474C8.78875 11.6164 9.2955 11.6735 9.78842 11.646H10.986C11.2288 11.625 11.4128 11.5486 11.5379 11.4168L11.5793 11.3646C11.6072 11.3232 11.6333 11.2588 11.6573 11.1722C11.6817 11.0854 11.6938 10.9898 11.6938 10.8858C11.6867 10.5874 11.7094 10.3184 11.7614 10.0789C11.8133 9.83952 11.8724 9.65901 11.9386 9.53745C12.0047 9.416 12.0793 9.31351 12.1624 9.23042C12.2456 9.14716 12.3049 9.09672 12.3397 9.07936C12.3743 9.06188 12.4019 9.05003 12.4227 9.04292C12.5893 8.98741 12.7854 9.04117 13.0112 9.20446C13.2369 9.3676 13.4486 9.56904 13.6465 9.80844C13.8444 10.0481 14.0821 10.3169 14.3597 10.6154C14.6376 10.9139 14.8805 11.1359 15.0886 11.2819L15.2968 11.4068C15.4359 11.4902 15.6164 11.5666 15.8386 11.636C16.0604 11.7053 16.2547 11.7227 16.4215 11.688L19.0872 11.6464C19.3509 11.6464 19.556 11.6028 19.7015 11.5162C19.8474 11.4294 19.934 11.3338 19.9619 11.2298C19.9898 11.1257 19.9913 11.0076 19.9672 10.8756C19.9425 10.7439 19.9182 10.6518 19.894 10.5998Z" fill="currentColor"/>
</svg>
