<svg width="860" height="90" viewBox="0 0 860 90" fill="none" xmlns="http://www.w3.org/2000/svg">
<path d="M51.6 43.1L50.6075 42.9775L50.469 44.1H51.6V43.1ZM64.6 43.1H65.6V42.1H64.6V43.1ZM64.6 54V55H65.6V54H64.6ZM50.3 54V53H49.4172L49.3077 53.876L50.3 54ZM48.3 70V71H49.1828L49.2923 70.124L48.3 70ZM37 70L36.0077 69.876L35.8672 71H37V70ZM39 54L39.9923 54.124L40.1328 53H39V54ZM24.3 54V53H23.4172L23.3077 53.876L24.3 54ZM22.3 70V71H23.1828L23.2923 70.124L22.3 70ZM11.1 70L10.1077 69.876L9.96722 71H11.1V70ZM13.1 54L14.0923 54.124L14.2328 53H13.1V54ZM2.38419e-07 54H-1V55H2.38419e-07V54ZM2.38419e-07 43.1V42.1H-1V43.1H2.38419e-07ZM14.4 43.1V44.1H15.2787L15.3917 43.2285L14.4 43.1ZM16.5 26.9L17.4917 27.0286L17.638 25.9H16.5V26.9ZM3.4 26.9H2.4V27.9H3.4V26.9ZM3.4 16V15H2.4V16H3.4ZM17.8 16V17H18.6828L18.7923 16.124L17.8 16ZM19.8 -4.76837e-06V-1H18.9172L18.8077 -0.12404L19.8 -4.76837e-06ZM31 -4.76837e-06L31.9923 0.12403L32.1328 -1H31V-4.76837e-06ZM29 16L28.0077 15.876L27.8672 17H29V16ZM43.7 16V17H44.5828L44.6923 16.124L43.7 16ZM45.7 -4.76837e-06V-1H44.8172L44.7077 -0.12404L45.7 -4.76837e-06ZM56.9 -4.76837e-06L57.8923 0.12403L58.0328 -1H56.9V-4.76837e-06ZM54.9 16L53.9077 15.876L53.7672 17H54.9V16ZM67.9 16L68.9 15.9908L68.8909 15H67.9V16ZM68 26.9V27.9H69.0092L69 26.8908L68 26.9ZM53.6 26.9V25.9H52.7159L52.6075 26.7775L53.6 26.9ZM40.3 43.1V44.1H41.1787L41.2917 43.2285L40.3 43.1ZM42.4 26.9L43.3917 27.0286L43.538 25.9H42.4V26.9ZM27.7 26.9V25.9H26.8213L26.7083 26.7714L27.7 26.9ZM25.6 43.1L24.6083 42.9714L24.462 44.1H25.6V43.1ZM51.6 44.1H64.6V42.1H51.6V44.1ZM63.6 43.1V54H65.6V43.1H63.6ZM64.6 53H50.3V55H64.6V53ZM49.3077 53.876L47.3077 69.876L49.2923 70.124L51.2923 54.124L49.3077 53.876ZM48.3 69H37V71H48.3V69ZM37.9923 70.124L39.9923 54.124L38.0077 53.876L36.0077 69.876L37.9923 70.124ZM39 53H24.3V55H39V53ZM23.3077 53.876L21.3077 69.876L23.2923 70.124L25.2923 54.124L23.3077 53.876ZM22.3 69H11.1V71H22.3V69ZM12.0923 70.124L14.0923 54.124L12.1077 53.876L10.1077 69.876L12.0923 70.124ZM13.1 53H2.38419e-07V55H13.1V53ZM1 54V43.1H-1V54H1ZM2.38419e-07 44.1H14.4V42.1H2.38419e-07V44.1ZM15.3917 43.2285L17.4917 27.0286L15.5083 26.7714L13.4083 42.9714L15.3917 43.2285ZM16.5 25.9H3.4V27.9H16.5V25.9ZM4.4 26.9V16H2.4V26.9H4.4ZM3.4 17H17.8V15H3.4V17ZM18.7923 16.124L20.7923 0.12403L18.8077 -0.12404L16.8077 15.876L18.7923 16.124ZM19.8 0.999995H31V-1H19.8V0.999995ZM30.0077 -0.12404L28.0077 15.876L29.9923 16.124L31.9923 0.12403L30.0077 -0.12404ZM29 17H43.7V15H29V17ZM44.6923 16.124L46.6923 0.12403L44.7077 -0.12404L42.7077 15.876L44.6923 16.124ZM45.7 0.999995H56.9V-1H45.7V0.999995ZM55.9077 -0.12404L53.9077 15.876L55.8923 16.124L57.8923 0.12403L55.9077 -0.12404ZM54.9 17H67.9V15H54.9V17ZM66.9 16.0092L67 26.9092L69 26.8908L68.9 15.9908L66.9 16.0092ZM68 25.9H53.6V27.9H68V25.9ZM52.6075 26.7775L50.6075 42.9775L52.5925 43.2225L54.5925 27.0225L52.6075 26.7775ZM41.2917 43.2285L43.3917 27.0286L41.4083 26.7714L39.3083 42.9714L41.2917 43.2285ZM42.4 25.9H27.7V27.9H42.4V25.9ZM26.7083 26.7714L24.6083 42.9714L26.5917 43.2285L28.6917 27.0286L26.7083 26.7714ZM25.6 44.1H40.3V42.1H25.6V44.1ZM77.4727 16.2V15.2H76.4727V16.2H77.4727ZM92.9727 16.2H93.9727V15.2H92.9727V16.2ZM92.9727 37.2H91.9727V38.2H92.9727V37.2ZM116.373 37.2V38.2H117.373V37.2H116.373ZM116.373 16.2V15.2H115.373V16.2H116.373ZM131.973 16.2H132.973V15.2H131.973V16.2ZM131.973 70V71H132.973V70H131.973ZM116.373 70H115.373V71H116.373V70ZM116.373 49.9H117.373V48.9H116.373V49.9ZM92.9727 49.9V48.9H91.9727V49.9H92.9727ZM92.9727 70V71H93.9727V70H92.9727ZM77.4727 70H76.4727V71H77.4727V70ZM77.4727 17.2H92.9727V15.2H77.4727V17.2ZM91.9727 16.2V37.2H93.9727V16.2H91.9727ZM92.9727 38.2H116.373V36.2H92.9727V38.2ZM117.373 37.2V16.2H115.373V37.2H117.373ZM116.373 17.2H131.973V15.2H116.373V17.2ZM130.973 16.2V70H132.973V16.2H130.973ZM131.973 69H116.373V71H131.973V69ZM117.373 70V49.9H115.373V70H117.373ZM116.373 48.9H92.9727V50.9H116.373V48.9ZM91.9727 49.9V70H93.9727V49.9H91.9727ZM92.9727 69H77.4727V71H92.9727V69ZM78.4727 70V16.2H76.4727V70H78.4727ZM187.006 21.4L186.339 22.145L186.345 22.1505L187.006 21.4ZM193.706 70V71H194.706V70H193.706ZM179.106 70H178.106V71H179.106V70ZM179.106 63.3H180.106V59.6192L178.244 62.794L179.106 63.3ZM151.906 68.7L151.483 69.6062L151.491 69.6097L151.906 68.7ZM145.006 62.9L144.167 63.4442L145.006 62.9ZM148.206 42.7L147.604 41.9017L147.597 41.9068L148.206 42.7ZM178.106 38.4V39.4H179.106V38.4H178.106ZM175.006 30.6L174.336 31.3421L174.343 31.3482L174.349 31.3541L175.006 30.6ZM157.206 29.2L157.508 30.1532L157.516 30.151L157.522 30.1487L157.206 29.2ZM150.206 32.8L149.317 33.257L149.873 34.3403L150.828 33.5835L150.206 32.8ZM144.606 21.9L144.03 21.0825L143.319 21.5834L143.717 22.357L144.606 21.9ZM155.106 17.1L154.842 16.1356L154.838 16.1367L155.106 17.1ZM173.706 58.5L174.208 59.3648L174.219 59.3588L174.229 59.3526L173.706 58.5ZM178.106 53L179.047 53.3396L179.106 53.175V53H178.106ZM178.106 47.5H179.106V46.5H178.106V47.5ZM160.106 58.6L159.49 59.3875L159.509 59.4022L159.528 59.416L160.106 58.6ZM167.806 16.4C175.989 16.4 182.117 18.3636 186.339 22.1449L187.673 20.655C182.963 16.4364 176.29 14.4 167.806 14.4V16.4ZM186.345 22.1505C190.529 25.8347 192.706 31.4833 192.706 39.3H194.706C194.706 31.1167 192.417 24.832 187.667 20.6495L186.345 22.1505ZM192.706 39.3V70H194.706V39.3H192.706ZM193.706 69H179.106V71H193.706V69ZM180.106 70V63.3H178.106V70H180.106ZM178.244 62.794C175.555 67.3769 170.503 69.8 162.706 69.8V71.8C170.91 71.8 176.791 69.2231 179.969 63.806L178.244 62.794ZM162.706 69.8C158.685 69.8 155.232 69.1189 152.322 67.7903L151.491 69.6097C154.714 71.0811 158.461 71.8 162.706 71.8V69.8ZM152.329 67.7938C149.477 66.4628 147.331 64.646 145.845 62.3558L144.167 63.4442C145.882 66.0873 148.335 68.1372 151.483 69.6062L152.329 67.7938ZM145.845 62.3558C144.357 60.062 143.606 57.4535 143.606 54.5H141.606C141.606 57.8132 142.455 60.8047 144.167 63.4442L145.845 62.3558ZM143.606 54.5C143.606 49.7883 145.346 46.1573 148.815 43.4931L147.597 41.9068C143.6 44.9761 141.606 49.2117 141.606 54.5H143.606ZM148.808 43.4983C152.354 40.8235 157.927 39.4 165.706 39.4V37.4C157.752 37.4 151.658 38.8431 147.604 41.9017L148.808 43.4983ZM165.706 39.4H178.106V37.4H165.706V39.4ZM179.106 38.4C179.106 34.7862 177.999 31.8803 175.663 29.8459L174.349 31.3541C176.147 32.9197 177.106 35.2138 177.106 38.4H179.106ZM175.677 29.8579C173.355 27.7606 169.97 26.8 165.706 26.8V28.8C169.709 28.8 172.525 29.7061 174.336 31.3421L175.677 29.8579ZM165.706 26.8C162.729 26.8 159.789 27.285 156.89 28.2513L157.522 30.1487C160.224 29.2483 162.95 28.8 165.706 28.8V26.8ZM156.904 28.2468C154.073 29.1443 151.627 30.3965 149.585 32.0165L150.828 33.5835C152.652 32.1368 154.873 30.989 157.508 30.1532L156.904 28.2468ZM151.096 32.343L145.496 21.443L143.717 22.357L149.317 33.257L151.096 32.343ZM145.182 22.7175C148.007 20.7271 151.399 19.1712 155.375 18.0633L154.838 16.1367C150.68 17.2954 147.072 18.9396 144.03 21.0825L145.182 22.7175ZM155.371 18.0644C159.417 16.955 163.561 16.4 167.806 16.4V14.4C163.385 14.4 159.062 14.9784 154.842 16.1356L155.371 18.0644ZM166.606 61.3C169.428 61.3 171.972 60.6633 174.208 59.3648L173.204 57.6352C171.307 58.7367 169.117 59.3 166.606 59.3V61.3ZM174.229 59.3526C176.5 57.9608 178.107 55.941 179.047 53.3396L177.166 52.6604C176.372 54.859 175.046 56.5059 173.184 57.6474L174.229 59.3526ZM179.106 53V47.5H177.106V53H179.106ZM178.106 46.5H167.406V48.5H178.106V46.5ZM167.406 46.5C164.129 46.5 161.497 47.0319 159.658 48.239C157.745 49.4941 156.806 51.4019 156.806 53.8H158.806C158.806 51.9981 159.468 50.7559 160.755 49.911C162.116 49.0181 164.284 48.5 167.406 48.5V46.5ZM156.806 53.8C156.806 56.0978 157.707 57.992 159.49 59.3875L160.723 57.8125C159.439 56.808 158.806 55.5022 158.806 53.8H156.806ZM159.528 59.416C161.352 60.7079 163.745 61.3 166.606 61.3V59.3C164.001 59.3 162.06 58.7588 160.684 57.784L159.528 59.416ZM289.358 16.2H290.358V15.2H289.358V16.2ZM289.358 70V71H290.358V70H289.358ZM207.258 70H206.258V71H207.258V70ZM207.258 16.2V15.2H206.258V16.2H207.258ZM222.758 16.2H223.758V15.2H222.758V16.2ZM222.758 57.2H221.758V58.2H222.758V57.2ZM240.658 57.2V58.2H241.658V57.2H240.658ZM240.658 16.2V15.2H239.658V16.2H240.658ZM256.158 16.2H257.158V15.2H256.158V16.2ZM256.158 57.2H255.158V58.2H256.158V57.2ZM273.858 57.2V58.2H274.858V57.2H273.858ZM273.858 16.2V15.2H272.858V16.2H273.858ZM288.358 16.2V70H290.358V16.2H288.358ZM289.358 69H207.258V71H289.358V69ZM208.258 70V16.2H206.258V70H208.258ZM207.258 17.2H222.758V15.2H207.258V17.2ZM221.758 16.2V57.2H223.758V16.2H221.758ZM222.758 58.2H240.658V56.2H222.758V58.2ZM241.658 57.2V16.2H239.658V57.2H241.658ZM240.658 17.2H256.158V15.2H240.658V17.2ZM255.158 16.2V57.2H257.158V16.2H255.158ZM256.158 58.2H273.858V56.2H256.158V58.2ZM274.858 57.2V16.2H272.858V57.2H274.858ZM273.858 17.2H289.358V15.2H273.858V17.2ZM304.328 16.2V15.2H303.328V16.2H304.328ZM319.828 16.2H320.828V15.2H319.828V16.2ZM319.828 48.2H318.828V50.9999L320.602 48.8335L319.828 48.2ZM346.028 16.2V15.2H345.554L345.254 15.5665L346.028 16.2ZM360.328 16.2H361.328V15.2H360.328V16.2ZM360.328 70V71H361.328V70H360.328ZM344.828 70H343.828V71H344.828V70ZM344.828 38H345.828V35.1918L344.053 37.3679L344.828 38ZM318.728 70V71H319.203L319.503 70.632L318.728 70ZM304.328 70H303.328V71H304.328V70ZM304.328 17.2H319.828V15.2H304.328V17.2ZM318.828 16.2V48.2H320.828V16.2H318.828ZM320.602 48.8335L346.802 16.8335L345.254 15.5665L319.054 47.5665L320.602 48.8335ZM346.028 17.2H360.328V15.2H346.028V17.2ZM359.328 16.2V70H361.328V16.2H359.328ZM360.328 69H344.828V71H360.328V69ZM345.828 70V38H343.828V70H345.828ZM344.053 37.3679L317.953 69.368L319.503 70.632L345.603 38.632L344.053 37.3679ZM318.728 69H304.328V71H318.728V69ZM305.328 70V16.2H303.328V70H305.328ZM413.745 67.3L413.277 68.1838L413.284 68.1879L413.292 68.1918L413.745 67.3ZM403.045 57.4L402.188 57.9165L402.194 57.9264L403.045 57.4ZM403.045 28.8L402.194 28.2736L402.188 28.2835L403.045 28.8ZM413.745 19L414.202 19.8891L414.207 19.8866L413.745 19ZM444.045 19L443.548 19.8682L443.557 19.8729L443.565 19.8774L444.045 19ZM453.345 29.1L453.818 29.9809L454.632 29.5437L454.26 28.6977L453.345 29.1ZM441.245 35.6L440.375 36.0936L440.857 36.9433L441.718 36.4809L441.245 35.6ZM419.045 54L419.752 53.2929L419.045 54ZM441.245 50.6L441.723 49.7221L440.851 49.2464L440.37 50.1154L441.245 50.6ZM453.345 57.2L454.255 57.6127L454.639 56.7668L453.823 56.3221L453.345 57.2ZM444.045 67.2L443.554 66.3284L443.548 66.3318L444.045 67.2ZM429.245 69.8C423.651 69.8 418.642 68.6628 414.197 66.4082L413.292 68.1918C418.047 70.6039 423.372 71.8 429.245 71.8V69.8ZM414.212 66.4162C409.83 64.096 406.398 60.9167 403.895 56.8736L402.194 57.9264C404.891 62.2833 408.593 65.704 413.277 68.1838L414.212 66.4162ZM403.901 56.8835C401.47 52.8529 400.245 48.2677 400.245 43.1H398.245C398.245 48.5989 399.553 53.5471 402.188 57.9165L403.901 56.8835ZM400.245 43.1C400.245 37.9323 401.47 33.3471 403.901 29.3165L402.188 28.2835C399.553 32.6529 398.245 37.6011 398.245 43.1H400.245ZM403.895 29.3264C406.396 25.2858 409.825 22.1422 414.202 19.8891L413.287 18.1109C408.598 20.5244 404.893 23.9142 402.194 28.2736L403.895 29.3264ZM414.207 19.8866C418.65 17.5687 423.655 16.4 429.245 16.4V14.4C423.367 14.4 418.039 15.6313 413.282 18.1134L414.207 19.8866ZM429.245 16.4C434.767 16.4 439.524 17.5684 443.548 19.8682L444.541 18.1318C440.165 15.6316 435.055 14.4 429.245 14.4V16.4ZM443.565 19.8774C447.64 22.1061 450.586 25.307 452.429 29.5023L454.26 28.6977C452.237 24.093 448.982 20.5605 444.524 18.1226L443.565 19.8774ZM452.871 28.2191L440.771 34.7191L441.718 36.4809L453.818 29.9809L452.871 28.2191ZM442.114 35.1064C439.153 29.8896 434.804 27.2 429.145 27.2V29.2C434.019 29.2 437.736 31.4437 440.375 36.0936L442.114 35.1064ZM429.145 27.2C424.836 27.2 421.207 28.6231 418.337 31.4929L419.752 32.9071C422.215 30.4436 425.32 29.2 429.145 29.2V27.2ZM418.337 31.4929C415.443 34.3868 414.045 38.2968 414.045 43.1H416.045C416.045 38.7032 417.312 35.3465 419.752 32.9071L418.337 31.4929ZM414.045 43.1C414.045 47.9032 415.443 51.8132 418.337 54.7071L419.752 53.2929C417.312 50.8535 416.045 47.4968 416.045 43.1H414.045ZM418.337 54.7071C421.207 57.5769 424.836 59 429.145 59V57C425.32 57 422.215 55.7564 419.752 53.2929L418.337 54.7071ZM429.145 59C431.971 59 434.498 58.3444 436.691 57.0031C438.882 55.6636 440.685 53.6734 442.119 51.0846L440.37 50.1154C439.071 52.46 437.491 54.1698 435.648 55.2969C433.808 56.4223 431.651 57 429.145 57V59ZM440.766 51.4779L452.866 58.0779L453.823 56.3221L441.723 49.7221L440.766 51.4779ZM452.434 56.7873C450.592 60.851 447.644 64.0277 443.554 66.3284L444.535 68.0716C448.978 65.5723 452.23 62.0823 454.255 57.6127L452.434 56.7873ZM443.548 66.3318C439.524 68.6316 434.767 69.8 429.245 69.8V71.8C435.055 71.8 440.165 70.5684 444.541 68.0682L443.548 66.3318ZM514.141 47.5V48.5H515.067L515.138 47.5767L514.141 47.5ZM473.441 47.5V46.5H472.197L472.464 47.7149L473.441 47.5ZM478.641 55.4L478.063 56.2164L478.641 55.4ZM496.241 57.1L496.592 58.0363L496.599 58.0334L496.607 58.0304L496.241 57.1ZM502.341 53.1L503.076 52.4221L502.383 51.6704L501.646 52.3802L502.341 53.1ZM510.641 62.1L511.394 62.7579L511.984 62.0819L511.376 61.4221L510.641 62.1ZM472.341 67.3L471.883 68.1893L471.893 68.1944L472.341 67.3ZM461.541 57.4L460.684 57.9165L461.541 57.4ZM461.441 28.9L460.581 28.3895L460.578 28.3936L461.441 28.9ZM471.741 19L472.215 19.8805L472.219 19.8779L471.741 19ZM500.741 18.8L501.21 17.9169L500.741 18.8ZM510.741 28.6L509.869 29.0903L509.874 29.0984L509.878 29.1064L510.741 28.6ZM477.641 30.2L477 29.4318L477.641 30.2ZM473.241 38.4L472.252 38.2479L472.075 39.4H473.241V38.4ZM499.741 38.4V39.4H500.91L500.729 38.245L499.741 38.4ZM495.341 30.3L494.688 31.0578L494.694 31.063L494.7 31.0682L495.341 30.3ZM513.441 43.3C513.441 43.2971 513.44 43.3181 513.437 43.3813C513.434 43.438 513.43 43.5146 513.424 43.6126C513.412 43.8083 513.393 44.0799 513.368 44.4288C513.318 45.126 513.244 46.1239 513.144 47.4233L515.138 47.5767C515.335 45.0137 515.441 43.5507 515.441 43.3H513.441ZM514.141 46.5H473.441V48.5H514.141V46.5ZM472.464 47.7149C473.25 51.2862 475.122 54.1362 478.063 56.2164L479.218 54.5836C476.692 52.7971 475.098 50.3805 474.417 47.2851L472.464 47.7149ZM478.063 56.2164C480.999 58.2929 484.612 59.3 488.841 59.3V57.3C484.936 57.3 481.749 56.3738 479.218 54.5836L478.063 56.2164ZM488.841 59.3C491.734 59.3 494.324 58.8868 496.592 58.0363L495.889 56.1637C493.891 56.9132 491.547 57.3 488.841 57.3V59.3ZM496.607 58.0304C498.94 57.1112 501.083 55.702 503.035 53.8198L501.646 52.3802C499.865 54.098 497.941 55.3554 495.874 56.1696L496.607 58.0304ZM501.605 53.7779L509.906 62.7779L511.376 61.4221L503.076 52.4221L501.605 53.7779ZM509.888 61.4421C505.059 66.9698 497.967 69.8 488.441 69.8V71.8C498.381 71.8 506.089 68.8302 511.394 62.7579L509.888 61.4421ZM488.441 69.8C482.504 69.8 477.295 68.659 472.788 66.4056L471.893 68.1944C476.72 70.6077 482.244 71.8 488.441 71.8V69.8ZM472.798 66.4107C468.284 64.0894 464.828 60.9135 462.397 56.8835L460.684 57.9165C463.32 62.2865 467.064 65.7106 471.883 68.1893L472.798 66.4107ZM462.397 56.8835C459.966 52.8529 458.741 48.2677 458.741 43.1H456.741C456.741 48.5989 458.049 53.5471 460.684 57.9165L462.397 56.8835ZM458.741 43.1C458.741 37.9964 459.934 33.4405 462.303 29.4064L460.578 28.3936C458.014 32.7595 456.741 37.6702 456.741 43.1H458.741ZM462.3 29.4105C464.742 25.2985 468.043 22.127 472.215 19.8805L471.267 18.1195C466.772 20.5396 463.206 23.9681 460.581 28.3895L462.3 29.4105ZM472.219 19.8779C476.461 17.5642 481.195 16.4 486.441 16.4V14.4C480.887 14.4 475.82 15.6358 471.262 18.1221L472.219 19.8779ZM486.441 16.4C491.559 16.4 496.162 17.5 500.271 19.6831L501.21 17.9169C496.786 15.5667 491.856 14.4 486.441 14.4V16.4ZM500.271 19.6831C504.367 21.8588 507.562 24.988 509.869 29.0903L511.612 28.1097C509.12 23.6787 505.648 20.2746 501.21 17.9169L500.271 19.6831ZM509.878 29.1064C512.242 33.1311 513.441 37.851 513.441 43.3H515.441C515.441 37.549 514.173 32.4689 511.603 28.0936L509.878 29.1064ZM486.541 26.2C482.806 26.2 479.604 27.2624 477 29.4318L478.281 30.9682C480.478 29.1376 483.209 28.2 486.541 28.2V26.2ZM477 29.4318C474.39 31.6072 472.818 34.572 472.252 38.2479L474.229 38.5521C474.73 35.2947 476.091 32.7928 478.281 30.9682L477 29.4318ZM473.241 39.4H499.741V37.4H473.241V39.4ZM500.729 38.245C500.162 34.6314 498.587 31.7034 495.981 29.5318L494.7 31.0682C496.894 32.8966 498.253 35.3686 498.753 38.555L500.729 38.245ZM495.993 29.5422C493.394 27.3041 490.222 26.2 486.541 26.2V28.2C489.792 28.2 492.487 29.1626 494.688 31.0578L495.993 29.5422ZM571.698 18.9L571.201 19.7674L571.209 19.7722L571.218 19.7768L571.698 18.9ZM581.398 28.6L580.524 29.0857L580.528 29.0916L581.398 28.6ZM581.398 57.7L582.269 58.1916L582.273 58.1856L581.398 57.7ZM571.698 67.4L572.185 68.2735L572.19 68.2708L571.698 67.4ZM541.898 64.3L542.639 63.6279L540.898 61.7104V64.3H541.898ZM541.898 89.4V90.4H542.898V89.4H541.898ZM526.298 89.4H525.298V90.4H526.298V89.4ZM526.298 16.2V15.2H525.298V16.2H526.298ZM541.198 16.2H542.198V15.2H541.198V16.2ZM541.198 22.4H540.198V25.1742L541.968 23.038L541.198 22.4ZM565.198 54L564.474 53.3108L564.473 53.3112L565.198 54ZM565.198 32.3L564.465 32.9798L564.474 32.989L564.482 32.9981L565.198 32.3ZM545.498 32.3L544.774 31.6108L544.773 31.6113L545.498 32.3ZM545.498 54L544.765 54.6798L544.774 54.689L544.782 54.6981L545.498 54ZM558.098 16.4C562.936 16.4 567.296 17.5267 571.201 19.7674L572.196 18.0326C567.968 15.6066 563.261 14.4 558.098 14.4V16.4ZM571.218 19.7768C575.182 21.951 578.281 25.0472 580.524 29.0856L582.273 28.1144C579.85 23.7528 576.481 20.3824 572.179 18.0232L571.218 19.7768ZM580.528 29.0916C582.763 33.0517 583.898 37.7101 583.898 43.1H585.898C585.898 37.4232 584.7 32.415 582.269 28.1084L580.528 29.0916ZM583.898 43.1C583.898 48.4894 582.763 53.1841 580.524 57.2144L582.273 58.1856C584.7 53.8159 585.898 48.7772 585.898 43.1H583.898ZM580.528 57.2084C578.284 61.1832 575.182 64.2854 571.207 66.5292L572.19 68.2708C576.482 65.848 579.846 62.4835 582.269 58.1916L580.528 57.2084ZM571.212 66.5265C567.305 68.7041 562.941 69.8 558.098 69.8V71.8C563.256 71.8 567.959 70.6292 572.185 68.2735L571.212 66.5265ZM558.098 69.8C551.46 69.8 546.349 67.7158 542.639 63.6279L541.158 64.9721C545.314 69.5508 551.003 71.8 558.098 71.8V69.8ZM540.898 64.3V89.4H542.898V64.3H540.898ZM541.898 88.4H526.298V90.4H541.898V88.4ZM527.298 89.4V16.2H525.298V89.4H527.298ZM526.298 17.2H541.198V15.2H526.298V17.2ZM540.198 16.2V22.4H542.198V16.2H540.198ZM541.968 23.038C545.603 18.651 550.924 16.4 558.098 16.4V14.4C550.473 14.4 544.527 16.8156 540.428 21.762L541.968 23.038ZM555.398 59C559.646 59 563.184 57.5727 565.923 54.6887L564.473 53.3112C562.146 55.7607 559.151 57 555.398 57V59ZM565.923 54.6892C568.734 51.7337 570.098 47.835 570.098 43.1H568.098C568.098 47.4317 566.862 50.7997 564.474 53.3108L565.923 54.6892ZM570.098 43.1C570.098 38.366 568.735 34.4944 565.914 31.6019L564.482 32.9981C566.862 35.439 568.098 38.7674 568.098 43.1H570.098ZM565.932 31.6202C563.194 28.6665 559.654 27.2 555.398 27.2V29.2C559.143 29.2 562.136 30.4668 564.465 32.9798L565.932 31.6202ZM555.398 27.2C551.143 27.2 547.575 28.666 544.774 31.6108L546.223 32.9892C548.622 30.4673 551.654 29.2 555.398 29.2V27.2ZM544.773 31.6113C542.025 34.5048 540.698 38.3731 540.698 43.1H542.698C542.698 38.7603 543.906 35.4286 546.223 32.9888L544.773 31.6113ZM540.698 43.1C540.698 47.8279 542.025 51.7233 544.765 54.6798L546.232 53.3202C543.905 50.81 542.698 47.4387 542.698 43.1H540.698ZM544.782 54.6981C547.586 57.5731 551.151 59 555.398 59V57C551.646 57 548.611 55.7602 546.214 53.3019L544.782 54.6981ZM636.932 41.9L636.524 40.9872L634.19 42.0314L636.613 42.8477L636.932 41.9ZM640.932 66L641.52 66.8087L640.932 66ZM595.832 70H594.832V71H595.832V70ZM595.832 16.2V15.2H594.832V16.2H595.832ZM639.132 19.9L638.588 20.7388L638.598 20.7455L639.132 19.9ZM642.732 37.2L641.904 36.6391L641.9 36.6453L642.732 37.2ZM610.132 38.3H609.132V39.3H610.132V38.3ZM610.132 26.8V25.8H609.132V26.8H610.132ZM629.832 49L629.232 49.8L629.245 49.8098L629.259 49.8192L629.832 49ZM610.132 47.5V46.5H609.132V47.5H610.132ZM610.132 59.4H609.132V60.4H610.132V59.4ZM636.613 42.8477C639.636 43.8661 641.82 45.3643 643.254 47.296C644.685 49.224 645.432 51.6696 645.432 54.7H647.432C647.432 51.3304 646.596 48.4427 644.86 46.104C643.127 43.769 640.561 42.0673 637.251 40.9523L636.613 42.8477ZM645.432 54.7C645.432 59.2742 643.73 62.7284 640.344 65.1913L641.52 66.8087C645.467 63.9383 647.432 59.8592 647.432 54.7H645.432ZM640.344 65.1913C636.923 67.6789 631.705 69 624.532 69V71C631.893 71 637.607 69.6545 641.52 66.8087L640.344 65.1913ZM624.532 69H595.832V71H624.532V69ZM596.832 70V16.2H594.832V70H596.832ZM595.832 17.2H623.332V15.2H595.832V17.2ZM623.332 17.2C629.96 17.2 635.01 18.4168 638.588 20.7388L639.677 19.0612C635.654 16.4498 630.17 15.2 623.332 15.2V17.2ZM638.598 20.7455C642.116 22.967 643.832 26.052 643.832 30.1H645.832C645.832 25.348 643.749 21.6329 639.666 19.0545L638.598 20.7455ZM643.832 30.1C643.832 32.5811 643.184 34.7495 641.904 36.6392L643.56 37.7608C645.08 35.5171 645.832 32.9523 645.832 30.1H643.832ZM641.9 36.6453C640.687 38.4653 638.912 39.9187 636.524 40.9872L637.34 42.8128C640.019 41.6146 642.111 39.9347 643.564 37.7547L641.9 36.6453ZM610.132 39.3H621.932V37.3H610.132V39.3ZM621.932 39.3C624.753 39.3 627.047 38.8067 628.659 37.6664C630.335 36.4812 631.132 34.7001 631.132 32.5H629.132C629.132 34.1666 628.562 35.2854 627.505 36.0336C626.383 36.8266 624.578 37.3 621.932 37.3V39.3ZM631.132 32.5C631.132 30.3262 630.33 28.5695 628.653 27.4039C627.042 26.2842 624.75 25.8 621.932 25.8V27.8C624.58 27.8 626.389 28.2658 627.511 29.0461C628.568 29.7805 629.132 30.8738 629.132 32.5H631.132ZM621.932 25.8H610.132V27.8H621.932V25.8ZM609.132 26.8V38.3H611.132V26.8H609.132ZM623.232 60.4C626.182 60.4 628.571 59.8997 630.248 58.7496C631.992 57.553 632.832 55.7459 632.832 53.5H630.832C630.832 55.1874 630.239 56.3304 629.116 57.1004C627.926 57.917 626.015 58.4 623.232 58.4V60.4ZM632.832 53.5C632.832 51.2054 632.078 49.3513 630.406 48.1808L629.259 49.8192C630.253 50.5153 630.832 51.6613 630.832 53.5H632.832ZM630.432 48.2C628.84 47.0058 626.475 46.5 623.532 46.5V48.5C626.322 48.5 628.158 48.9941 629.232 49.8L630.432 48.2ZM623.532 46.5H610.132V48.5H623.532V46.5ZM609.132 47.5V59.4H611.132V47.5H609.132ZM610.132 60.4H623.232V58.4H610.132V60.4ZM658.039 16.2V15.2H657.039V16.2H658.039ZM673.539 16.2H674.539V15.2H673.539V16.2ZM673.539 48.2H672.539V50.9999L674.313 48.8335L673.539 48.2ZM699.739 16.2V15.2H699.265L698.965 15.5665L699.739 16.2ZM714.039 16.2H715.039V15.2H714.039V16.2ZM714.039 70V71H715.039V70H714.039ZM698.539 70H697.539V71H698.539V70ZM698.539 38H699.539V35.1918L697.764 37.3679L698.539 38ZM672.439 70V71H672.914L673.214 70.632L672.439 70ZM658.039 70H657.039V71H658.039V70ZM658.039 17.2H673.539V15.2H658.039V17.2ZM672.539 16.2V48.2H674.539V16.2H672.539ZM674.313 48.8335L700.513 16.8335L698.965 15.5665L672.765 47.5665L674.313 48.8335ZM699.739 17.2H714.039V15.2H699.739V17.2ZM713.039 16.2V70H715.039V16.2H713.039ZM714.039 69H698.539V71H714.039V69ZM699.539 70V38H697.539V70H699.539ZM697.764 37.3679L671.664 69.368L673.214 70.632L699.314 38.632L697.764 37.3679ZM672.439 69H658.039V71H672.439V69ZM659.039 70V16.2H657.039V70H659.039ZM739.135 67.3L738.667 68.1838L738.675 68.1879L738.683 68.1918L739.135 67.3ZM728.435 57.4L727.579 57.9165L727.585 57.9264L728.435 57.4ZM728.435 28.8L727.585 28.2736L727.579 28.2835L728.435 28.8ZM739.135 19L739.593 19.8891L739.598 19.8866L739.135 19ZM769.435 19L768.939 19.8682L768.947 19.8729L768.955 19.8774L769.435 19ZM778.735 29.1L779.208 29.9809L780.022 29.5437L779.651 28.6977L778.735 29.1ZM766.635 35.6L765.766 36.0936L766.248 36.9433L767.108 36.4809L766.635 35.6ZM744.435 54L745.142 53.2929L744.435 54ZM766.635 50.6L767.114 49.7221L766.242 49.2464L765.76 50.1154L766.635 50.6ZM778.735 57.2L779.646 57.6127L780.029 56.7668L779.214 56.3221L778.735 57.2ZM769.435 67.2L768.945 66.3284L768.939 66.3318L769.435 67.2ZM754.635 69.8C749.041 69.8 744.032 68.6628 739.588 66.4082L738.683 68.1918C743.438 70.6039 748.762 71.8 754.635 71.8V69.8ZM739.603 66.4162C735.22 64.096 731.788 60.9167 729.285 56.8736L727.585 57.9264C730.282 62.2833 733.983 65.704 738.667 68.1838L739.603 66.4162ZM729.291 56.8835C726.86 52.8529 725.635 48.2677 725.635 43.1H723.635C723.635 48.5989 724.943 53.5471 727.579 57.9165L729.291 56.8835ZM725.635 43.1C725.635 37.9323 726.86 33.3471 729.291 29.3165L727.579 28.2835C724.943 32.6529 723.635 37.6011 723.635 43.1H725.635ZM729.285 29.3264C731.787 25.2858 735.215 22.1422 739.593 19.8891L738.677 18.1109C733.988 20.5244 730.284 23.9142 727.585 28.2736L729.285 29.3264ZM739.598 19.8866C744.04 17.5687 749.046 16.4 754.635 16.4V14.4C748.758 14.4 743.43 15.6313 738.673 18.1134L739.598 19.8866ZM754.635 16.4C760.158 16.4 764.914 17.5684 768.939 19.8682L769.931 18.1318C765.556 15.6316 760.446 14.4 754.635 14.4V16.4ZM768.955 19.8774C773.031 22.1061 775.976 25.307 777.82 29.5023L779.651 28.6977C777.627 24.093 774.373 20.5605 769.915 18.1226L768.955 19.8774ZM778.262 28.2191L766.162 34.7191L767.108 36.4809L779.208 29.9809L778.262 28.2191ZM767.505 35.1064C764.544 29.8896 760.194 27.2 754.535 27.2V29.2C759.409 29.2 763.126 31.4437 765.766 36.0936L767.505 35.1064ZM754.535 27.2C750.226 27.2 746.598 28.6231 743.728 31.4929L745.142 32.9071C747.606 30.4436 750.711 29.2 754.535 29.2V27.2ZM743.728 31.4929C740.834 34.3868 739.435 38.2968 739.435 43.1H741.435C741.435 38.7032 742.703 35.3465 745.142 32.9071L743.728 31.4929ZM739.435 43.1C739.435 47.9032 740.834 51.8132 743.728 54.7071L745.142 53.2929C742.703 50.8535 741.435 47.4968 741.435 43.1H739.435ZM743.728 54.7071C746.598 57.5769 750.226 59 754.535 59V57C750.711 57 747.606 55.7564 745.142 53.2929L743.728 54.7071ZM754.535 59C757.362 59 759.889 58.3444 762.082 57.0031C764.272 55.6636 766.076 53.6734 767.51 51.0846L765.76 50.1154C764.461 52.46 762.881 54.1698 761.038 55.2969C759.198 56.4223 757.042 57 754.535 57V59ZM766.156 51.4779L778.256 58.0779L779.214 56.3221L767.114 49.7221L766.156 51.4779ZM777.824 56.7873C775.983 60.851 773.035 64.0277 768.945 66.3284L769.925 68.0716C774.369 65.5723 777.621 62.0823 779.646 57.6127L777.824 56.7873ZM768.939 66.3318C764.914 68.6316 760.158 69.8 754.635 69.8V71.8C760.446 71.8 765.556 70.5684 769.931 68.0682L768.939 66.3318ZM816.515 33.4L816.524 32.4H816.515V33.4ZM832.415 38.1L831.766 38.8612L832.415 38.1ZM831.715 65.2L832.341 65.9796L831.715 65.2ZM814.415 70.1L814.411 71.1H814.415V70.1ZM788.215 70H787.215V70.9962L788.211 71L788.215 70ZM788.215 16.2V15.2H787.215V16.2H788.215ZM803.715 16.2H804.715V15.2H803.715V16.2ZM803.715 33.4H802.715V34.4H803.715V33.4ZM843.615 16.2V15.2H842.615V16.2H843.615ZM859.115 16.2H860.115V15.2H859.115V16.2ZM859.115 70V71H860.115V70H859.115ZM843.615 70H842.615V71H843.615V70ZM813.015 59L813.037 58.0002L813.026 58H813.015V59ZM819.915 57.1L819.275 56.3318L819.915 57.1ZM819.915 45.4L819.299 46.1875L819.307 46.1938L819.315 46.2L819.915 45.4ZM813.015 43.5L813.037 42.5002L813.026 42.5001L813.015 43.5ZM803.715 43.4L803.726 42.4001L802.715 42.3892V43.4H803.715ZM803.715 59H802.715V60H803.715V59ZM816.505 34.4C823.38 34.4654 828.413 36.0048 831.766 38.8612L833.063 37.3388C829.217 34.0619 823.65 32.4679 816.524 32.4L816.505 34.4ZM831.766 38.8612C835.096 41.6978 836.815 45.7915 836.815 51.3H838.815C838.815 45.3418 836.933 40.6356 833.063 37.3388L831.766 38.8612ZM836.815 51.3C836.815 57.0482 834.882 61.3734 831.089 64.4204L832.341 65.9796C836.681 62.4932 838.815 57.5518 838.815 51.3H836.815ZM831.089 64.4204C827.262 67.4941 821.75 69.1 814.415 69.1V71.1C822.013 71.1 828.034 69.4392 832.341 65.9796L831.089 64.4204ZM814.419 69.1L788.219 69L788.211 71L814.411 71.1L814.419 69.1ZM789.215 70V16.2H787.215V70H789.215ZM788.215 17.2H803.715V15.2H788.215V17.2ZM802.715 16.2V33.4H804.715V16.2H802.715ZM803.715 34.4H816.515V32.4H803.715V34.4ZM843.615 17.2H859.115V15.2H843.615V17.2ZM858.115 16.2V70H860.115V16.2H858.115ZM859.115 69H843.615V71H859.115V69ZM844.615 70V16.2H842.615V70H844.615ZM812.993 59.9998C816.129 60.0695 818.702 59.4122 820.555 57.8682L819.275 56.3318C817.927 57.4545 815.9 58.0639 813.037 58.0002L812.993 59.9998ZM820.555 57.8682C822.444 56.294 823.315 53.9736 823.315 51.1H821.315C821.315 53.5597 820.586 55.2393 819.275 56.3318L820.555 57.8682ZM823.315 51.1C823.315 48.2886 822.439 46.0433 820.515 44.6L819.315 46.2C820.59 47.1567 821.315 48.7114 821.315 51.1H823.315ZM820.531 44.6125C818.755 43.2224 816.203 42.5691 813.037 42.5002L812.993 44.4998C815.96 44.5643 818.008 45.1776 819.299 46.1875L820.531 44.6125ZM813.026 42.5001L803.726 42.4001L803.704 44.3999L813.004 44.4999L813.026 42.5001ZM802.715 43.4V59H804.715V43.4H802.715ZM803.715 60H813.015V58H803.715V60Z" fill="#8A8A8A"/>
</svg>
