<svg width="533" height="90" viewBox="0 0 533 90" fill="none" xmlns="http://www.w3.org/2000/svg">
<path d="M51.9281 43.1L50.9357 42.9775L50.7971 44.1H51.9281V43.1ZM64.9281 43.1H65.9281V42.1H64.9281V43.1ZM64.9281 54V55H65.9281V54H64.9281ZM50.6281 54V53H49.7453L49.6358 53.876L50.6281 54ZM48.6281 70V71H49.5109L49.6204 70.124L48.6281 70ZM37.3281 70L36.3358 69.876L36.1953 71H37.3281V70ZM39.3281 54L40.3204 54.124L40.4609 53H39.3281V54ZM24.6281 54V53H23.7453L23.6358 53.876L24.6281 54ZM22.6281 70V71H23.5109L23.6204 70.124L22.6281 70ZM11.4281 70L10.4358 69.876L10.2953 71H11.4281V70ZM13.4281 54L14.4204 54.124L14.5609 53H13.4281V54ZM0.328125 54H-0.671875V55H0.328125V54ZM0.328125 43.1V42.1H-0.671875V43.1H0.328125ZM14.7281 43.1V44.1H15.6069L15.7198 43.2286L14.7281 43.1ZM16.8281 26.9L17.8198 27.0286L17.9661 25.9H16.8281V26.9ZM3.72813 26.9H2.72813V27.9H3.72813V26.9ZM3.72813 16V15H2.72813V16H3.72813ZM18.1281 16V17H19.0109L19.1204 16.124L18.1281 16ZM20.1281 -4.76837e-06V-1H19.2453L19.1358 -0.124039L20.1281 -4.76837e-06ZM31.3281 -4.76837e-06L32.3204 0.12403L32.4609 -1H31.3281V-4.76837e-06ZM29.3281 16L28.3358 15.876L28.1953 17H29.3281V16ZM44.0281 16V17H44.9109L45.0204 16.124L44.0281 16ZM46.0281 -4.76837e-06V-1H45.1453L45.0358 -0.12404L46.0281 -4.76837e-06ZM57.2281 -4.76837e-06L58.2204 0.12403L58.3609 -1H57.2281V-4.76837e-06ZM55.2281 16L54.2358 15.876L54.0953 17H55.2281V16ZM68.2281 16L69.2281 15.9908L69.219 15H68.2281V16ZM68.3281 26.9V27.9H69.3373L69.3281 26.8908L68.3281 26.9ZM53.9281 26.9V25.9H53.044L52.9357 26.7775L53.9281 26.9ZM40.6281 43.1V44.1H41.5069L41.6198 43.2286L40.6281 43.1ZM42.7281 26.9L43.7198 27.0286L43.8661 25.9H42.7281V26.9ZM28.0281 26.9V25.9H27.1494L27.0364 26.7714L28.0281 26.9ZM25.9281 43.1L24.9364 42.9714L24.7901 44.1H25.9281V43.1ZM51.9281 44.1H64.9281V42.1H51.9281V44.1ZM63.9281 43.1V54H65.9281V43.1H63.9281ZM64.9281 53H50.6281V55H64.9281V53ZM49.6358 53.876L47.6358 69.876L49.6204 70.124L51.6204 54.124L49.6358 53.876ZM48.6281 69H37.3281V71H48.6281V69ZM38.3204 70.124L40.3204 54.124L38.3358 53.876L36.3358 69.876L38.3204 70.124ZM39.3281 53H24.6281V55H39.3281V53ZM23.6358 53.876L21.6358 69.876L23.6204 70.124L25.6204 54.124L23.6358 53.876ZM22.6281 69H11.4281V71H22.6281V69ZM12.4204 70.124L14.4204 54.124L12.4358 53.876L10.4358 69.876L12.4204 70.124ZM13.4281 53H0.328125V55H13.4281V53ZM1.32813 54V43.1H-0.671875V54H1.32813ZM0.328125 44.1H14.7281V42.1H0.328125V44.1ZM15.7198 43.2286L17.8198 27.0286L15.8364 26.7714L13.7364 42.9714L15.7198 43.2286ZM16.8281 25.9H3.72813V27.9H16.8281V25.9ZM4.72813 26.9V16H2.72813V26.9H4.72813ZM3.72813 17H18.1281V15H3.72813V17ZM19.1204 16.124L21.1204 0.12403L19.1358 -0.124039L17.1358 15.876L19.1204 16.124ZM20.1281 0.999995H31.3281V-1H20.1281V0.999995ZM30.3358 -0.12404L28.3358 15.876L30.3204 16.124L32.3204 0.12403L30.3358 -0.12404ZM29.3281 17H44.0281V15H29.3281V17ZM45.0204 16.124L47.0204 0.12403L45.0358 -0.12404L43.0358 15.876L45.0204 16.124ZM46.0281 0.999995H57.2281V-1H46.0281V0.999995ZM56.2359 -0.12404L54.2358 15.876L56.2204 16.124L58.2204 0.12403L56.2359 -0.12404ZM55.2281 17H68.2281V15H55.2281V17ZM67.2282 16.0092L67.3282 26.9092L69.3281 26.8908L69.2281 15.9908L67.2282 16.0092ZM68.3281 25.9H53.9281V27.9H68.3281V25.9ZM52.9357 26.7775L50.9357 42.9775L52.9206 43.2225L54.9206 27.0225L52.9357 26.7775ZM41.6198 43.2286L43.7198 27.0286L41.7364 26.7714L39.6364 42.9714L41.6198 43.2286ZM42.7281 25.9H28.0281V27.9H42.7281V25.9ZM27.0364 26.7714L24.9364 42.9714L26.9198 43.2286L29.0198 27.0286L27.0364 26.7714ZM25.9281 44.1H40.6281V42.1H25.9281V44.1ZM138.101 57.2H139.101V56.2H138.101V57.2ZM138.101 81.6V82.6H139.101V81.6H138.101ZM123.601 81.6H122.601V82.6H123.601V81.6ZM123.601 70H124.601V69H123.601V70ZM85.8008 70V69H84.8008V70H85.8008ZM85.8008 81.6V82.6H86.8008V81.6H85.8008ZM71.3008 81.6H70.3008V82.6H71.3008V81.6ZM71.3008 57.2V56.2H70.3008V57.2H71.3008ZM73.5008 57.2V58.2H73.5108L73.5208 58.1998L73.5008 57.2ZM82.8008 34.8L83.7997 34.8467L83.8001 34.8376L82.8008 34.8ZM83.5008 16.2V15.2H82.5377L82.5015 16.1624L83.5008 16.2ZM130.401 16.2H131.401V15.2H130.401V16.2ZM130.401 57.2H129.401V58.2H130.401V57.2ZM96.9008 35.9L95.9017 35.8566L95.9015 35.8634L96.9008 35.9ZM95.6008 49.3L94.6188 49.1112L94.617 49.1203L94.6154 49.1295L95.6008 49.3ZM92.1008 57.2L91.3805 56.5064L89.7495 58.2H92.1008V57.2ZM114.801 57.2V58.2H115.801V57.2H114.801ZM114.801 29H115.801V28H114.801V29ZM97.2008 29V28H96.2433L96.2017 28.9566L97.2008 29ZM137.101 57.2V81.6H139.101V57.2H137.101ZM138.101 80.6H123.601V82.6H138.101V80.6ZM124.601 81.6V70H122.601V81.6H124.601ZM123.601 69H85.8008V71H123.601V69ZM84.8008 70V81.6H86.8008V70H84.8008ZM85.8008 80.6H71.3008V82.6H85.8008V80.6ZM72.3008 81.6V57.2H70.3008V81.6H72.3008ZM71.3008 58.2H73.5008V56.2H71.3008V58.2ZM73.5208 58.1998C75.3937 58.1623 77.0316 57.5843 78.3757 56.435C79.7052 55.2982 80.6797 53.6608 81.3511 51.6113L79.4505 50.9887C78.8552 52.8059 78.0463 54.0852 77.0759 54.915C76.12 55.7323 74.9412 56.171 73.4808 56.2002L73.5208 58.1998ZM81.3511 51.6113C82.6592 47.618 83.4648 42.0132 83.7997 34.8467L81.8019 34.7533C81.4701 41.8535 80.6757 47.2487 79.4505 50.9887L81.3511 51.6113ZM83.8001 34.8376L84.5001 16.2376L82.5015 16.1624L81.8015 34.7624L83.8001 34.8376ZM83.5008 17.2H130.401V15.2H83.5008V17.2ZM129.401 16.2V57.2H131.401V16.2H129.401ZM130.401 58.2H138.101V56.2H130.401V58.2ZM95.9015 35.8634C95.7024 41.3035 95.272 45.7141 94.6188 49.1112L96.5828 49.4888C97.2629 45.9525 97.6991 41.4298 97.9001 35.9366L95.9015 35.8634ZM94.6154 49.1295C94.0361 52.4765 92.9292 54.898 91.3805 56.5064L92.8211 57.8936C94.739 55.902 95.9654 53.0568 96.5861 49.4705L94.6154 49.1295ZM92.1008 58.2H114.801V56.2H92.1008V58.2ZM115.801 57.2V29H113.801V57.2H115.801ZM114.801 28H97.2008V30H114.801V28ZM96.2017 28.9566L95.9017 35.8566L97.8998 35.9434L98.1998 29.0434L96.2017 28.9566ZM157.818 67.3L157.345 68.1809L157.352 68.1851L157.36 68.1891L157.818 67.3ZM147.318 57.4L146.462 57.9165L146.462 57.9165L147.318 57.4ZM147.318 28.8L146.462 28.2835L146.462 28.2835L147.318 28.8ZM157.818 19L158.281 19.8864L158.286 19.8838L157.818 19ZM188.318 19L187.845 19.8809L187.855 19.8863L188.318 19ZM198.818 28.8L199.674 28.2835L199.674 28.2835L198.818 28.8ZM198.818 57.4L199.674 57.9165L199.674 57.9165L198.818 57.4ZM188.318 67.3L188.781 68.1864L188.791 68.1809L188.318 67.3ZM182.918 54L182.193 53.3108L182.193 53.3112L182.918 54ZM182.918 32.3L182.185 32.9798L182.193 32.989L182.202 32.9981L182.918 32.3ZM163.218 32.3L163.934 32.9982L163.943 32.9892L163.218 32.3ZM163.218 54L162.493 54.6893L162.502 54.6981L163.218 54ZM173.118 69.8C167.593 69.8 162.652 68.6635 158.276 66.4109L157.36 68.1891C162.05 70.6031 167.31 71.8 173.118 71.8V69.8ZM158.291 66.4191C153.977 64.101 150.612 60.9245 148.174 56.8835L146.462 57.9165C149.091 62.2755 152.726 65.699 157.345 68.1809L158.291 66.4191ZM148.174 56.8835C145.743 52.8529 144.518 48.2677 144.518 43.1H142.518C142.518 48.5989 143.826 53.5471 146.462 57.9165L148.174 56.8835ZM144.518 43.1C144.518 37.9322 145.743 33.3471 148.174 29.3165L146.462 28.2835C143.826 32.6529 142.518 37.6011 142.518 43.1H144.518ZM148.174 29.3165C150.61 25.278 153.972 22.1372 158.281 19.8863L157.355 18.1136C152.73 20.5294 149.092 23.922 146.462 28.2835L148.174 29.3165ZM158.286 19.8838C162.66 17.5678 167.597 16.4 173.118 16.4V14.4C167.306 14.4 162.042 15.6321 157.35 18.1162L158.286 19.8838ZM173.118 16.4C178.639 16.4 183.54 17.5679 187.845 19.8809L188.791 18.1191C184.163 15.6321 178.93 14.4 173.118 14.4V16.4ZM187.855 19.8863C192.164 22.1372 195.526 25.278 197.962 29.3165L199.674 28.2835C197.044 23.922 193.405 20.5294 188.781 18.1136L187.855 19.8863ZM197.962 29.3165C200.393 33.3471 201.618 37.9322 201.618 43.1H203.618C203.618 37.6011 202.31 32.6529 199.674 28.2835L197.962 29.3165ZM201.618 43.1C201.618 48.2677 200.393 52.8529 197.962 56.8835L199.674 57.9165C202.31 53.5471 203.618 48.5989 203.618 43.1H201.618ZM197.962 56.8835C195.524 60.9245 192.159 64.101 187.845 66.4191L188.791 68.1809C193.41 65.699 197.045 62.2755 199.674 57.9165L197.962 56.8835ZM187.855 66.4137C183.548 68.6635 178.644 69.8 173.118 69.8V71.8C178.926 71.8 184.154 70.6032 188.781 68.1863L187.855 66.4137ZM173.118 59C177.365 59 180.903 57.5727 183.643 54.6887L182.193 53.3112C179.866 55.7607 176.871 57 173.118 57V59ZM183.643 54.6892C186.454 51.7337 187.818 47.835 187.818 43.1H185.818C185.818 47.4317 184.582 50.7997 182.193 53.3108L183.643 54.6892ZM187.818 43.1C187.818 38.366 186.454 34.4944 183.634 31.6019L182.202 32.9981C184.582 35.439 185.818 38.7674 185.818 43.1H187.818ZM183.651 31.6202C180.914 28.6665 177.374 27.2 173.118 27.2V29.2C176.862 29.2 179.855 30.4668 182.185 32.9798L183.651 31.6202ZM173.118 27.2C168.863 27.2 165.295 28.666 162.493 31.6108L163.943 32.9892C166.341 30.4673 169.373 29.2 173.118 29.2V27.2ZM162.502 31.6019C159.682 34.4944 158.318 38.366 158.318 43.1H160.318C160.318 38.7674 161.554 35.439 163.934 32.9981L162.502 31.6019ZM158.318 43.1C158.318 47.835 159.682 51.7337 162.493 54.6892L163.943 53.3108C161.554 50.7997 160.318 47.4317 160.318 43.1H158.318ZM162.502 54.6981C165.305 57.5731 168.871 59 173.118 59V57C169.365 57 166.331 55.7602 163.934 53.3019L162.502 54.6981ZM254.448 41.9L254.039 40.9872L251.705 42.0314L254.128 42.8477L254.448 41.9ZM258.448 66L259.036 66.8087L258.448 66ZM213.348 70H212.348V71H213.348V70ZM213.348 16.2V15.2H212.348V16.2H213.348ZM256.648 19.9L256.103 20.7388L256.114 20.7455L256.648 19.9ZM260.248 37.2L259.42 36.6391L259.416 36.6453L260.248 37.2ZM227.648 38.3H226.648V39.3H227.648V38.3ZM227.648 26.8V25.8H226.648V26.8H227.648ZM247.348 49L246.748 49.8L246.761 49.8098L246.774 49.8192L247.348 49ZM227.648 47.5V46.5H226.648V47.5H227.648ZM227.648 59.4H226.648V60.4H227.648V59.4ZM254.128 42.8477C257.152 43.8661 259.336 45.3643 260.77 47.296C262.201 49.224 262.948 51.6696 262.948 54.7H264.948C264.948 51.3304 264.111 48.4427 262.376 46.104C260.643 43.769 258.077 42.0673 254.767 40.9523L254.128 42.8477ZM262.948 54.7C262.948 59.2742 261.246 62.7284 257.859 65.1913L259.036 66.8087C262.983 63.9383 264.948 59.8592 264.948 54.7H262.948ZM257.859 65.1913C254.439 67.6789 249.22 69 242.048 69V71C249.408 71 255.123 69.6545 259.036 66.8087L257.859 65.1913ZM242.048 69H213.348V71H242.048V69ZM214.348 70V16.2H212.348V70H214.348ZM213.348 17.2H240.848V15.2H213.348V17.2ZM240.848 17.2C247.476 17.2 252.526 18.4168 256.103 20.7388L257.192 19.0612C253.169 16.4498 247.686 15.2 240.848 15.2V17.2ZM256.114 20.7455C259.631 22.967 261.348 26.052 261.348 30.1H263.348C263.348 25.348 261.264 21.6329 257.182 19.0545L256.114 20.7455ZM261.348 30.1C261.348 32.5811 260.7 34.7495 259.42 36.6392L261.076 37.7608C262.596 35.5171 263.348 32.9523 263.348 30.1H261.348ZM259.416 36.6453C258.202 38.4653 256.428 39.9187 254.039 40.9872L254.856 42.8128C257.534 41.6146 259.626 39.9347 261.08 37.7547L259.416 36.6453ZM227.648 39.3H239.448V37.3H227.648V39.3ZM239.448 39.3C242.268 39.3 244.563 38.8067 246.175 37.6664C247.851 36.4812 248.648 34.7001 248.648 32.5H246.648C246.648 34.1666 246.078 35.2854 245.02 36.0336C243.899 36.8266 242.094 37.3 239.448 37.3V39.3ZM248.648 32.5C248.648 30.3262 247.845 28.5695 246.168 27.4039C244.558 26.2842 242.266 25.8 239.448 25.8V27.8C242.096 27.8 243.904 28.2658 245.027 29.0461C246.083 29.7805 246.648 30.8738 246.648 32.5H248.648ZM239.448 25.8H227.648V27.8H239.448V25.8ZM226.648 26.8V38.3H228.648V26.8H226.648ZM240.748 60.4C243.698 60.4 246.087 59.8997 247.763 58.7496C249.508 57.553 250.348 55.7459 250.348 53.5H248.348C248.348 55.1874 247.754 56.3304 246.632 57.1004C245.442 57.917 243.531 58.4 240.748 58.4V60.4ZM250.348 53.5C250.348 51.2054 249.593 49.3513 247.921 48.1808L246.774 49.8192C247.769 50.5153 248.348 51.6613 248.348 53.5H250.348ZM247.948 48.2C246.355 47.0058 243.991 46.5 241.048 46.5V48.5C243.838 48.5 245.673 48.9941 246.748 49.8L247.948 48.2ZM241.048 46.5H227.648V48.5H241.048V46.5ZM226.648 47.5V59.4H228.648V47.5H226.648ZM227.648 60.4H240.748V58.4H227.648V60.4ZM327.555 47.5V48.5H328.481L328.552 47.5767L327.555 47.5ZM286.855 47.5V46.5H285.611L285.878 47.7149L286.855 47.5ZM292.055 55.4L291.477 56.2164L291.477 56.2164L292.055 55.4ZM309.655 57.1L310.006 58.0363L310.014 58.0334L310.021 58.0304L309.655 57.1ZM315.755 53.1L316.49 52.4221L315.797 51.6704L315.061 52.3802L315.755 53.1ZM324.055 62.1L324.808 62.7579L325.398 62.0819L324.79 61.4221L324.055 62.1ZM285.755 67.3L285.297 68.1893L285.307 68.1944L285.755 67.3ZM274.955 57.4L274.098 57.9165L274.098 57.9165L274.955 57.4ZM274.855 28.9L273.995 28.3895L273.992 28.3936L274.855 28.9ZM285.155 19L285.629 19.8805L285.634 19.8779L285.155 19ZM314.155 18.8L314.624 17.9169L314.624 17.9169L314.155 18.8ZM324.155 28.6L323.283 29.0903L323.288 29.0984L323.292 29.1064L324.155 28.6ZM291.055 30.2L290.415 29.4318L291.055 30.2ZM286.655 38.4L285.666 38.2479L285.489 39.4H286.655V38.4ZM313.155 38.4V39.4H314.324L314.143 38.245L313.155 38.4ZM308.755 30.3L308.102 31.0578L308.108 31.063L308.115 31.0682L308.755 30.3ZM326.855 43.3C326.855 43.2971 326.854 43.3181 326.851 43.3813C326.848 43.438 326.844 43.5146 326.838 43.6126C326.826 43.8083 326.807 44.0799 326.782 44.4288C326.732 45.126 326.658 46.1239 326.558 47.4233L328.552 47.5767C328.749 45.0137 328.855 43.5507 328.855 43.3H326.855ZM327.555 46.5H286.855V48.5H327.555V46.5ZM285.878 47.7149C286.664 51.2862 288.536 54.1362 291.477 56.2164L292.632 54.5836C290.106 52.7971 288.512 50.3805 287.831 47.2851L285.878 47.7149ZM291.477 56.2164C294.413 58.2929 298.026 59.3 302.255 59.3V57.3C298.35 57.3 295.163 56.3738 292.632 54.5836L291.477 56.2164ZM302.255 59.3C305.148 59.3 307.738 58.8868 310.006 58.0363L309.304 56.1637C307.305 56.9132 304.961 57.3 302.255 57.3V59.3ZM310.021 58.0304C312.354 57.1112 314.497 55.702 316.449 53.8198L315.061 52.3802C313.279 54.098 311.355 55.3554 309.288 56.1696L310.021 58.0304ZM315.02 53.7779L323.32 62.7779L324.79 61.4221L316.49 52.4221L315.02 53.7779ZM323.302 61.4421C318.473 66.9698 311.381 69.8 301.855 69.8V71.8C311.795 71.8 319.503 68.8302 324.808 62.7579L323.302 61.4421ZM301.855 69.8C295.918 69.8 290.709 68.659 286.202 66.4056L285.307 68.1944C290.134 70.6077 295.658 71.8 301.855 71.8V69.8ZM286.212 66.4107C281.698 64.0894 278.242 60.9135 275.811 56.8835L274.098 57.9165C276.734 62.2865 280.478 65.7106 285.297 68.1893L286.212 66.4107ZM275.811 56.8835C273.38 52.8529 272.155 48.2677 272.155 43.1H270.155C270.155 48.5989 271.463 53.5471 274.098 57.9165L275.811 56.8835ZM272.155 43.1C272.155 37.9964 273.348 33.4405 275.717 29.4064L273.992 28.3936C271.428 32.7595 270.155 37.6702 270.155 43.1H272.155ZM275.715 29.4105C278.156 25.2985 281.457 22.127 285.629 19.8805L284.681 18.1195C280.186 20.5396 276.62 23.9681 273.995 28.3895L275.715 29.4105ZM285.634 19.8779C289.875 17.5642 294.609 16.4 299.855 16.4V14.4C294.301 14.4 289.234 15.6358 284.676 18.1221L285.634 19.8779ZM299.855 16.4C304.973 16.4 309.576 17.5 313.686 19.6831L314.624 17.9169C310.2 15.5667 305.27 14.4 299.855 14.4V16.4ZM313.686 19.6831C317.781 21.8588 320.976 24.988 323.283 29.0903L325.026 28.1097C322.534 23.6787 319.062 20.2746 314.624 17.9169L313.686 19.6831ZM323.292 29.1064C325.656 33.1311 326.855 37.851 326.855 43.3H328.855C328.855 37.549 327.587 32.4689 325.017 28.0936L323.292 29.1064ZM299.955 26.2C296.22 26.2 293.018 27.2624 290.415 29.4318L291.695 30.9682C293.892 29.1376 296.623 28.2 299.955 28.2V26.2ZM290.415 29.4318C287.804 31.6072 286.232 34.572 285.666 38.2479L287.643 38.5521C288.144 35.2947 289.505 32.7928 291.695 30.9682L290.415 29.4318ZM286.655 39.4H313.155V37.4H286.655V39.4ZM314.143 38.245C313.576 34.6314 312.001 31.7034 309.395 29.5318L308.115 31.0682C310.309 32.8966 311.667 35.3686 312.167 38.555L314.143 38.245ZM309.407 29.5422C306.808 27.3041 303.636 26.2 299.955 26.2V28.2C303.206 28.2 305.901 29.1626 308.102 31.0578L309.407 29.5422ZM385.112 18.9L384.615 19.7674L384.623 19.7722L384.632 19.7768L385.112 18.9ZM394.812 28.6L393.938 29.0857L393.942 29.0916L394.812 28.6ZM394.812 57.7L395.683 58.1916L395.687 58.1856L394.812 57.7ZM385.112 67.4L385.599 68.2735L385.604 68.2708L385.112 67.4ZM355.313 64.3L356.053 63.6279L354.313 61.7104V64.3H355.313ZM355.313 89.4V90.4H356.313V89.4H355.313ZM339.713 89.4H338.713V90.4H339.713V89.4ZM339.713 16.2V15.2H338.713V16.2H339.713ZM354.613 16.2H355.613V15.2H354.613V16.2ZM354.613 22.4H353.613V25.1742L355.383 23.038L354.613 22.4ZM378.613 54L377.888 53.3108L377.888 53.3112L378.613 54ZM378.613 32.3L377.879 32.9798L377.888 32.989L377.897 32.9981L378.613 32.3ZM358.913 32.3L358.188 31.6108L358.188 31.6113L358.913 32.3ZM358.913 54L358.179 54.6798L358.188 54.689L358.197 54.6981L358.913 54ZM371.513 16.4C376.35 16.4 380.71 17.5267 384.615 19.7674L385.61 18.0326C381.382 15.6066 376.675 14.4 371.513 14.4V16.4ZM384.632 19.7768C388.596 21.951 391.695 25.0472 393.938 29.0856L395.687 28.1144C393.264 23.7528 389.895 20.3824 385.593 18.0232L384.632 19.7768ZM393.942 29.0916C396.177 33.0517 397.313 37.7101 397.313 43.1H399.313C399.313 37.4232 398.114 32.415 395.683 28.1084L393.942 29.0916ZM397.313 43.1C397.313 48.4894 396.177 53.1841 393.938 57.2144L395.687 58.1856C398.114 53.8159 399.313 48.7772 399.313 43.1H397.313ZM393.942 57.2084C391.698 61.1832 388.596 64.2854 384.621 66.5292L385.604 68.2708C389.896 65.848 393.26 62.4835 395.683 58.1916L393.942 57.2084ZM384.626 66.5265C380.719 68.7041 376.355 69.8 371.513 69.8V71.8C376.67 71.8 381.373 70.6292 385.599 68.2735L384.626 66.5265ZM371.513 69.8C364.874 69.8 359.764 67.7158 356.053 63.6279L354.572 64.9721C358.728 69.5508 364.417 71.8 371.513 71.8V69.8ZM354.313 64.3V89.4H356.313V64.3H354.313ZM355.313 88.4H339.713V90.4H355.313V88.4ZM340.713 89.4V16.2H338.713V89.4H340.713ZM339.713 17.2H354.613V15.2H339.713V17.2ZM353.613 16.2V22.4H355.613V16.2H353.613ZM355.383 23.038C359.017 18.651 364.338 16.4 371.513 16.4V14.4C363.887 14.4 357.941 16.8156 353.842 21.762L355.383 23.038ZM368.813 59C373.06 59 376.598 57.5727 379.338 54.6887L377.888 53.3112C375.561 55.7607 372.565 57 368.813 57V59ZM379.337 54.6892C382.148 51.7337 383.513 47.835 383.513 43.1H381.513C381.513 47.4317 380.277 50.7997 377.888 53.3108L379.337 54.6892ZM383.513 43.1C383.513 38.366 382.149 34.4944 379.329 31.6019L377.897 32.9981C380.276 35.439 381.513 38.7674 381.513 43.1H383.513ZM379.346 31.6202C376.608 28.6665 373.068 27.2 368.813 27.2V29.2C372.557 29.2 375.55 30.4668 377.879 32.9798L379.346 31.6202ZM368.813 27.2C364.557 27.2 360.989 28.666 358.188 31.6108L359.637 32.9892C362.036 30.4673 365.068 29.2 368.813 29.2V27.2ZM358.188 31.6113C355.439 34.5048 354.113 38.3731 354.113 43.1H356.113C356.113 38.7603 357.32 35.4286 359.637 32.9887L358.188 31.6113ZM354.113 43.1C354.113 47.8279 355.439 51.7233 358.179 54.6798L359.646 53.3202C357.319 50.81 356.113 47.4387 356.113 43.1H354.113ZM358.197 54.6981C361 57.5731 364.565 59 368.813 59V57C365.06 57 362.025 55.7602 359.629 53.3019L358.197 54.6981ZM409.246 16.2V15.2H408.246V16.2H409.246ZM424.746 16.2H425.746V15.2H424.746V16.2ZM424.746 48.2H423.746V50.9999L425.52 48.8335L424.746 48.2ZM450.946 16.2V15.2H450.472L450.172 15.5665L450.946 16.2ZM465.246 16.2H466.246V15.2H465.246V16.2ZM465.246 70V71H466.246V70H465.246ZM449.746 70H448.746V71H449.746V70ZM449.746 38H450.746V35.1918L448.971 37.3679L449.746 38ZM423.646 70V71H424.121L424.421 70.6321L423.646 70ZM409.246 70H408.246V71H409.246V70ZM409.246 17.2H424.746V15.2H409.246V17.2ZM423.746 16.2V48.2H425.746V16.2H423.746ZM425.52 48.8335L451.72 16.8335L450.172 15.5665L423.972 47.5665L425.52 48.8335ZM450.946 17.2H465.246V15.2H450.946V17.2ZM464.246 16.2V70H466.246V16.2H464.246ZM465.246 69H449.746V71H465.246V69ZM450.746 70V38H448.746V70H450.746ZM448.971 37.3679L422.871 69.3679L424.421 70.6321L450.521 38.632L448.971 37.3679ZM423.646 69H409.246V71H423.646V69ZM410.246 70V16.2H408.246V70H410.246ZM532.242 47.5V48.5H533.168L533.239 47.5767L532.242 47.5ZM491.542 47.5V46.5H490.298L490.566 47.7149L491.542 47.5ZM496.742 55.4L496.165 56.2164L496.165 56.2164L496.742 55.4ZM514.342 57.1L514.693 58.0363L514.701 58.0334L514.709 58.0304L514.342 57.1ZM520.442 53.1L521.177 52.4221L520.484 51.6704L519.748 52.3802L520.442 53.1ZM528.742 62.1L529.495 62.7579L530.086 62.0819L529.477 61.4221L528.742 62.1ZM490.442 67.3L489.985 68.1893L489.995 68.1944L490.442 67.3ZM479.642 57.4L478.786 57.9165L478.786 57.9165L479.642 57.4ZM479.542 28.9L478.682 28.3895L478.68 28.3936L479.542 28.9ZM489.842 19L490.316 19.8805L490.321 19.8779L489.842 19ZM518.842 18.8L519.311 17.9169L519.311 17.9169L518.842 18.8ZM528.842 28.6L527.971 29.0903L527.975 29.0984L527.98 29.1064L528.842 28.6ZM495.742 30.2L495.102 29.4318L495.742 30.2ZM491.342 38.4L490.354 38.2479L490.177 39.4H491.342V38.4ZM517.842 38.4V39.4H519.011L518.83 38.245L517.842 38.4ZM513.442 30.3L512.79 31.0578L512.796 31.063L512.802 31.0682L513.442 30.3ZM531.542 43.3C531.542 43.2971 531.542 43.3181 531.539 43.3813C531.536 43.438 531.532 43.5146 531.525 43.6126C531.513 43.8083 531.495 44.0799 531.47 44.4288C531.42 45.126 531.345 46.1239 531.245 47.4233L533.239 47.5767C533.436 45.0137 533.542 43.5507 533.542 43.3H531.542ZM532.242 46.5H491.542V48.5H532.242V46.5ZM490.566 47.7149C491.351 51.2862 493.224 54.1362 496.165 56.2164L497.32 54.5836C494.794 52.7971 493.2 50.3805 492.519 47.2851L490.566 47.7149ZM496.165 56.2164C499.1 58.2929 502.714 59.3 506.942 59.3V57.3C503.037 57.3 499.851 56.3738 497.32 54.5836L496.165 56.2164ZM506.942 59.3C509.836 59.3 512.425 58.8868 514.693 58.0363L513.991 56.1637C511.992 56.9132 509.649 57.3 506.942 57.3V59.3ZM514.709 58.0304C517.042 57.1112 519.184 55.702 521.136 53.8198L519.748 52.3802C517.967 54.098 516.042 55.3554 513.976 56.1696L514.709 58.0304ZM519.707 53.7779L528.007 62.7779L529.477 61.4221L521.177 52.4221L519.707 53.7779ZM527.989 61.4421C523.16 66.9698 516.069 69.8 506.542 69.8V71.8C516.482 71.8 524.191 68.8302 529.495 62.7579L527.989 61.4421ZM506.542 69.8C500.606 69.8 495.396 68.659 490.889 66.4056L489.995 68.1944C494.821 70.6077 500.346 71.8 506.542 71.8V69.8ZM490.9 66.4107C486.386 64.0894 482.929 60.9135 480.498 56.8835L478.786 57.9165C481.422 62.2865 485.165 65.7106 489.985 68.1893L490.9 66.4107ZM480.498 56.8835C478.067 52.8529 476.842 48.2677 476.842 43.1H474.842C474.842 48.5989 476.15 53.5471 478.786 57.9165L480.498 56.8835ZM476.842 43.1C476.842 37.9964 478.035 33.4405 480.404 29.4064L478.68 28.3936C476.116 32.7595 474.842 37.6702 474.842 43.1H476.842ZM480.402 29.4105C482.844 25.2985 486.144 22.127 490.316 19.8805L489.368 18.1195C484.874 20.5396 481.308 23.9681 478.682 28.3895L480.402 29.4105ZM490.321 19.8779C494.563 17.5642 499.296 16.4 504.542 16.4V14.4C498.988 14.4 493.921 15.6358 489.363 18.1221L490.321 19.8779ZM504.542 16.4C509.66 16.4 514.264 17.5 518.373 19.6831L519.311 17.9169C514.887 15.5667 509.957 14.4 504.542 14.4V16.4ZM518.373 19.6831C522.468 21.8588 525.663 24.988 527.971 29.0903L529.714 28.1097C527.221 23.6787 523.749 20.2746 519.311 17.9169L518.373 19.6831ZM527.98 29.1064C530.344 33.1311 531.542 37.851 531.542 43.3H533.542C533.542 37.549 532.274 32.4689 529.704 28.0936L527.98 29.1064ZM504.642 26.2C500.907 26.2 497.705 27.2624 495.102 29.4318L496.382 30.9682C498.579 29.1376 501.31 28.2 504.642 28.2V26.2ZM495.102 29.4318C492.491 31.6072 490.919 34.572 490.354 38.2479L492.331 38.5521C492.832 35.2947 494.193 32.7928 496.382 30.9682L495.102 29.4318ZM491.342 39.4H517.842V37.4H491.342V39.4ZM518.83 38.245C518.263 34.6314 516.688 31.7034 514.082 29.5318L512.802 31.0682C514.996 32.8966 516.354 35.3686 516.854 38.555L518.83 38.245ZM514.095 29.5422C511.496 27.3041 508.324 26.2 504.642 26.2V28.2C507.894 28.2 510.589 29.1626 512.79 31.0578L514.095 29.5422Z" fill="#8A8A8A"/>
</svg>
