<svg width="457" height="82" viewBox="0 0 457 82" fill="none" xmlns="http://www.w3.org/2000/svg">
<path d="M51.6 43.1L50.6075 42.9775L50.469 44.1H51.6V43.1ZM64.6 43.1H65.6V42.1H64.6V43.1ZM64.6 54V55H65.6V54H64.6ZM50.3 54V53H49.4172L49.3077 53.876L50.3 54ZM48.3 70V71H49.1828L49.2923 70.124L48.3 70ZM37 70L36.0077 69.876L35.8672 71H37V70ZM39 54L39.9923 54.124L40.1328 53H39V54ZM24.3 54V53H23.4172L23.3077 53.876L24.3 54ZM22.3 70V71H23.1828L23.2923 70.124L22.3 70ZM11.1 70L10.1077 69.876L9.96722 71H11.1V70ZM13.1 54L14.0923 54.124L14.2328 53H13.1V54ZM2.38419e-07 54H-1V55H2.38419e-07V54ZM2.38419e-07 43.1V42.1H-1V43.1H2.38419e-07ZM14.4 43.1V44.1H15.2787L15.3917 43.2286L14.4 43.1ZM16.5 26.9L17.4917 27.0286L17.638 25.9H16.5V26.9ZM3.4 26.9H2.4V27.9H3.4V26.9ZM3.4 16V15H2.4V16H3.4ZM17.8 16V17H18.6828L18.7923 16.124L17.8 16ZM19.8 -3.8147e-06V-1H18.9172L18.8077 -0.124039L19.8 -3.8147e-06ZM31 -3.8147e-06L31.9923 0.124029L32.1328 -1H31V-3.8147e-06ZM29 16L28.0077 15.876L27.8672 17H29V16ZM43.7 16V17H44.5828L44.6923 16.124L43.7 16ZM45.7 -3.8147e-06V-1H44.8172L44.7077 -0.124039L45.7 -3.8147e-06ZM56.9 -3.8147e-06L57.8923 0.124031L58.0328 -1H56.9V-3.8147e-06ZM54.9 16L53.9077 15.876L53.7672 17H54.9V16ZM67.9 16L68.9 15.9908L68.8909 15H67.9V16ZM68 26.9V27.9H69.0092L69 26.8908L68 26.9ZM53.6 26.9V25.9H52.7159L52.6075 26.7775L53.6 26.9ZM40.3 43.1V44.1H41.1787L41.2917 43.2286L40.3 43.1ZM42.4 26.9L43.3917 27.0286L43.538 25.9H42.4V26.9ZM27.7 26.9V25.9H26.8213L26.7083 26.7714L27.7 26.9ZM25.6 43.1L24.6083 42.9714L24.462 44.1H25.6V43.1ZM51.6 44.1H64.6V42.1H51.6V44.1ZM63.6 43.1V54H65.6V43.1H63.6ZM64.6 53H50.3V55H64.6V53ZM49.3077 53.876L47.3077 69.876L49.2923 70.124L51.2923 54.124L49.3077 53.876ZM48.3 69H37V71H48.3V69ZM37.9923 70.124L39.9923 54.124L38.0077 53.876L36.0077 69.876L37.9923 70.124ZM39 53H24.3V55H39V53ZM23.3077 53.876L21.3077 69.876L23.2923 70.124L25.2923 54.124L23.3077 53.876ZM22.3 69H11.1V71H22.3V69ZM12.0923 70.124L14.0923 54.124L12.1077 53.876L10.1077 69.876L12.0923 70.124ZM13.1 53H2.38419e-07V55H13.1V53ZM1 54V43.1H-1V54H1ZM2.38419e-07 44.1H14.4V42.1H2.38419e-07V44.1ZM15.3917 43.2286L17.4917 27.0286L15.5083 26.7714L13.4083 42.9714L15.3917 43.2286ZM16.5 25.9H3.4V27.9H16.5V25.9ZM4.4 26.9V16H2.4V26.9H4.4ZM3.4 17H17.8V15H3.4V17ZM18.7923 16.124L20.7923 0.124029L18.8077 -0.124039L16.8077 15.876L18.7923 16.124ZM19.8 0.999996H31V-1H19.8V0.999996ZM30.0077 -0.124039L28.0077 15.876L29.9923 16.124L31.9923 0.124029L30.0077 -0.124039ZM29 17H43.7V15H29V17ZM44.6923 16.124L46.6923 0.124029L44.7077 -0.124039L42.7077 15.876L44.6923 16.124ZM45.7 0.999996H56.9V-1H45.7V0.999996ZM55.9077 -0.124041L53.9077 15.876L55.8923 16.124L57.8923 0.124031L55.9077 -0.124041ZM54.9 17H67.9V15H54.9V17ZM66.9 16.0092L67 26.9092L69 26.8908L68.9 15.9908L66.9 16.0092ZM68 25.9H53.6V27.9H68V25.9ZM52.6075 26.7775L50.6075 42.9775L52.5925 43.2225L54.5925 27.0225L52.6075 26.7775ZM41.2917 43.2286L43.3917 27.0286L41.4083 26.7714L39.3083 42.9714L41.2917 43.2286ZM42.4 25.9H27.7V27.9H42.4V25.9ZM26.7083 26.7714L24.6083 42.9714L26.5917 43.2286L28.6917 27.0286L26.7083 26.7714ZM25.6 44.1H40.3V42.1H25.6V44.1ZM118.573 41.9L118.164 40.9872L115.83 42.0314L118.253 42.8477L118.573 41.9ZM122.573 66L123.161 66.8087L122.573 66ZM77.4727 70H76.4727V71H77.4727V70ZM77.4727 16.2V15.2H76.4727V16.2H77.4727ZM120.773 19.9L120.228 20.7388L120.239 20.7455L120.773 19.9ZM124.373 37.2L123.545 36.6391L123.541 36.6453L124.373 37.2ZM91.7727 38.3H90.7727V39.3H91.7727V38.3ZM91.7727 26.8V25.8H90.7727V26.8H91.7727ZM111.473 49L110.873 49.8L110.886 49.8098L110.899 49.8192L111.473 49ZM91.7727 47.5V46.5H90.7727V47.5H91.7727ZM91.7727 59.4H90.7727V60.4H91.7727V59.4ZM118.253 42.8477C121.277 43.8661 123.461 45.3643 124.895 47.296C126.326 49.224 127.073 51.6696 127.073 54.7H129.073C129.073 51.3304 128.236 48.4427 126.501 46.104C124.768 43.769 122.202 42.0673 118.892 40.9523L118.253 42.8477ZM127.073 54.7C127.073 59.2742 125.371 62.7284 121.984 65.1913L123.161 66.8087C127.108 63.9383 129.073 59.8592 129.073 54.7H127.073ZM121.984 65.1913C118.564 67.6789 113.345 69 106.173 69V71C113.533 71 119.248 69.6545 123.161 66.8087L121.984 65.1913ZM106.173 69H77.4727V71H106.173V69ZM78.4727 70V16.2H76.4727V70H78.4727ZM77.4727 17.2H104.973V15.2H77.4727V17.2ZM104.973 17.2C111.601 17.2 116.651 18.4168 120.228 20.7388L121.317 19.0612C117.294 16.4498 111.811 15.2 104.973 15.2V17.2ZM120.239 20.7455C123.756 22.967 125.473 26.052 125.473 30.1H127.473C127.473 25.348 125.389 21.6329 121.307 19.0545L120.239 20.7455ZM125.473 30.1C125.473 32.5811 124.825 34.7495 123.545 36.6392L125.201 37.7608C126.721 35.5171 127.473 32.9523 127.473 30.1H125.473ZM123.541 36.6453C122.327 38.4653 120.553 39.9187 118.164 40.9872L118.981 42.8128C121.659 41.6146 123.751 39.9347 125.205 37.7547L123.541 36.6453ZM91.7727 39.3H103.573V37.3H91.7727V39.3ZM103.573 39.3C106.393 39.3 108.688 38.8067 110.3 37.6664C111.976 36.4812 112.773 34.7001 112.773 32.5H110.773C110.773 34.1666 110.203 35.2854 109.145 36.0336C108.024 36.8266 106.219 37.3 103.573 37.3V39.3ZM112.773 32.5C112.773 30.3262 111.97 28.5695 110.293 27.4039C108.683 26.2842 106.391 25.8 103.573 25.8V27.8C106.221 27.8 108.029 28.2658 109.152 29.0461C110.208 29.7805 110.773 30.8738 110.773 32.5H112.773ZM103.573 25.8H91.7727V27.8H103.573V25.8ZM90.7727 26.8V38.3H92.7727V26.8H90.7727ZM104.873 60.4C107.823 60.4 110.212 59.8997 111.888 58.7496C113.633 57.553 114.473 55.7459 114.473 53.5H112.473C112.473 55.1874 111.879 56.3304 110.757 57.1004C109.567 57.917 107.656 58.4 104.873 58.4V60.4ZM114.473 53.5C114.473 51.2054 113.718 49.3513 112.046 48.1808L110.899 49.8192C111.894 50.5154 112.473 51.6613 112.473 53.5H114.473ZM112.073 48.2C110.48 47.0059 108.116 46.5 105.173 46.5V48.5C107.963 48.5 109.798 48.9941 110.873 49.8L112.073 48.2ZM105.173 46.5H91.7727V48.5H105.173V46.5ZM90.7727 47.5V59.4H92.7727V47.5H90.7727ZM91.7727 60.4H104.873V58.4H91.7727V60.4ZM167.98 33.4L167.989 32.4H167.98V33.4ZM183.88 38.1L183.231 38.8612L183.88 38.1ZM183.18 65.2L183.806 65.9796L183.18 65.2ZM165.88 70.1L165.876 71.1H165.88V70.1ZM139.68 70H138.68V70.9962L139.676 71L139.68 70ZM139.68 16.2V15.2H138.68V16.2H139.68ZM155.18 16.2H156.18V15.2H155.18V16.2ZM155.18 33.4H154.18V34.4H155.18V33.4ZM195.08 16.2V15.2H194.08V16.2H195.08ZM210.58 16.2H211.58V15.2H210.58V16.2ZM210.58 70V71H211.58V70H210.58ZM195.08 70H194.08V71H195.08V70ZM164.48 59L164.502 58.0002L164.491 58H164.48V59ZM171.38 57.1L170.74 56.3318L171.38 57.1ZM171.38 45.4L170.763 46.1875L170.771 46.1938L170.78 46.2L171.38 45.4ZM164.48 43.5L164.501 42.5002L164.49 42.5001L164.48 43.5ZM155.18 43.4L155.19 42.4001L154.18 42.3892V43.4H155.18ZM155.18 59H154.18V60H155.18V59ZM167.97 34.4C174.845 34.4654 179.878 36.0048 183.231 38.8612L184.528 37.3388C180.681 34.0619 175.115 32.4679 167.989 32.4L167.97 34.4ZM183.231 38.8612C186.561 41.6978 188.28 45.7915 188.28 51.3H190.28C190.28 45.3418 188.398 40.6356 184.528 37.3388L183.231 38.8612ZM188.28 51.3C188.28 57.0481 186.347 61.3734 182.553 64.4204L183.806 65.9796C188.146 62.4932 190.28 57.5518 190.28 51.3H188.28ZM182.553 64.4204C178.727 67.4941 173.214 69.1 165.88 69.1V71.1C173.478 71.1 179.499 69.4392 183.806 65.9796L182.553 64.4204ZM165.883 69.1L139.684 69L139.676 71L165.876 71.1L165.883 69.1ZM140.68 70V16.2H138.68V70H140.68ZM139.68 17.2H155.18V15.2H139.68V17.2ZM154.18 16.2V33.4H156.18V16.2H154.18ZM155.18 34.4H167.98V32.4H155.18V34.4ZM195.08 17.2H210.58V15.2H195.08V17.2ZM209.58 16.2V70H211.58V16.2H209.58ZM210.58 69H195.08V71H210.58V69ZM196.08 70V16.2H194.08V70H196.08ZM164.457 59.9998C167.594 60.0695 170.167 59.4122 172.02 57.8682L170.74 56.3318C169.392 57.4545 167.365 58.0639 164.502 58.0002L164.457 59.9998ZM172.02 57.8682C173.909 56.294 174.78 53.9736 174.78 51.1H172.78C172.78 53.5597 172.05 55.2393 170.74 56.3318L172.02 57.8682ZM174.78 51.1C174.78 48.2886 173.904 46.0433 171.98 44.6L170.78 46.2C172.055 47.1567 172.78 48.7114 172.78 51.1H174.78ZM171.996 44.6125C170.22 43.2224 167.668 42.5691 164.501 42.5002L164.458 44.4998C167.424 44.5643 169.473 45.1776 170.763 46.1875L171.996 44.6125ZM164.49 42.5001L155.19 42.4001L155.169 44.3999L164.469 44.4999L164.49 42.5001ZM154.18 43.4V59H156.18V43.4H154.18ZM155.18 60H164.48V58H155.18V60ZM268.717 29V30H269.717V29H268.717ZM241.117 29V28H240.117V29H241.117ZM241.117 70V71H242.117V70H241.117ZM225.617 70H224.617V71H225.617V70ZM225.617 16.2V15.2H224.617V16.2H225.617ZM268.717 16.2H269.717V15.2H268.717V16.2ZM268.717 28H241.117V30H268.717V28ZM240.117 29V70H242.117V29H240.117ZM241.117 69H225.617V71H241.117V69ZM226.617 70V16.2H224.617V70H226.617ZM225.617 17.2H268.717V15.2H225.617V17.2ZM267.717 16.2V29H269.717V16.2H267.717ZM284.638 67.3L284.165 68.1809L284.173 68.1851L284.181 68.1891L284.638 67.3ZM274.138 57.4L273.282 57.9165L274.138 57.4ZM274.138 28.8L273.282 28.2835L274.138 28.8ZM284.638 19L285.101 19.8864L285.106 19.8838L284.638 19ZM315.138 19L314.665 19.8809L314.675 19.8863L315.138 19ZM325.638 28.8L326.495 28.2835L325.638 28.8ZM325.638 57.4L326.495 57.9165L325.638 57.4ZM315.138 67.3L315.601 68.1864L315.612 68.1809L315.138 67.3ZM309.738 54L309.014 53.3108L309.013 53.3112L309.738 54ZM309.738 32.3L309.005 32.9798L309.013 32.989L309.022 32.9981L309.738 32.3ZM290.038 32.3L290.754 32.9982L290.763 32.9892L290.038 32.3ZM290.038 54L289.314 54.6893L289.322 54.6981L290.038 54ZM299.938 69.8C294.413 69.8 289.473 68.6635 285.096 66.4109L284.181 68.1891C288.871 70.6031 294.13 71.8 299.938 71.8V69.8ZM285.112 66.4191C280.797 64.101 277.432 60.9245 274.995 56.8835L273.282 57.9165C275.911 62.2755 279.546 65.699 284.165 68.1809L285.112 66.4191ZM274.995 56.8835C272.563 52.8529 271.338 48.2677 271.338 43.1H269.338C269.338 48.5989 270.646 53.5471 273.282 57.9165L274.995 56.8835ZM271.338 43.1C271.338 37.9323 272.563 33.3471 274.995 29.3165L273.282 28.2835C270.646 32.6529 269.338 37.6011 269.338 43.1H271.338ZM274.995 29.3165C277.431 25.278 280.792 22.1372 285.101 19.8863L284.175 18.1136C279.551 20.5294 275.913 23.922 273.282 28.2835L274.995 29.3165ZM285.106 19.8838C289.481 17.5678 294.417 16.4 299.938 16.4V14.4C294.126 14.4 288.863 15.6321 284.17 18.1162L285.106 19.8838ZM299.938 16.4C305.46 16.4 310.36 17.5679 314.665 19.8809L315.612 18.1191C310.983 15.6321 305.75 14.4 299.938 14.4V16.4ZM314.675 19.8863C318.984 22.1372 322.346 25.278 324.782 29.3165L326.495 28.2835C323.864 23.922 320.226 20.5294 315.601 18.1136L314.675 19.8863ZM324.782 29.3165C327.213 33.3471 328.438 37.9323 328.438 43.1H330.438C330.438 37.6011 329.13 32.6529 326.495 28.2835L324.782 29.3165ZM328.438 43.1C328.438 48.2677 327.213 52.8529 324.782 56.8835L326.495 57.9165C329.13 53.5471 330.438 48.5989 330.438 43.1H328.438ZM324.782 56.8835C322.345 60.9245 318.979 64.101 314.665 66.4191L315.612 68.1809C320.231 65.699 323.865 62.2755 326.495 57.9165L324.782 56.8835ZM314.675 66.4137C310.368 68.6635 305.464 69.8 299.938 69.8V71.8C305.746 71.8 310.975 70.6032 315.601 68.1863L314.675 66.4137ZM299.938 59C304.186 59 307.724 57.5727 310.463 54.6888L309.013 53.3112C306.686 55.7607 303.691 57 299.938 57V59ZM310.463 54.6892C313.274 51.7337 314.638 47.835 314.638 43.1H312.638C312.638 47.4317 311.402 50.7997 309.014 53.3108L310.463 54.6892ZM314.638 43.1C314.638 38.366 313.274 34.4944 310.454 31.6019L309.022 32.9981C311.402 35.439 312.638 38.7674 312.638 43.1H314.638ZM310.472 31.6202C307.734 28.6665 304.194 27.2 299.938 27.2V29.2C303.683 29.2 306.676 30.4668 309.005 32.9798L310.472 31.6202ZM299.938 27.2C295.683 27.2 292.115 28.666 289.314 31.6108L290.763 32.9892C293.162 30.4673 296.194 29.2 299.938 29.2V27.2ZM289.322 31.6019C286.502 34.4944 285.138 38.366 285.138 43.1H287.138C287.138 38.7674 288.374 35.439 290.754 32.9981L289.322 31.6019ZM285.138 43.1C285.138 47.835 286.502 51.7337 289.314 54.6892L290.763 53.3108C288.374 50.7997 287.138 47.4317 287.138 43.1H285.138ZM289.322 54.6981C292.125 57.5731 295.691 59 299.938 59V57C296.186 57 293.151 55.7602 290.754 53.3019L289.322 54.6981ZM399.687 57.2H400.687V56.2H399.687V57.2ZM399.687 81.6V82.6H400.687V81.6H399.687ZM385.187 81.6H384.187V82.6H385.187V81.6ZM385.187 70H386.187V69H385.187V70ZM347.387 70V69H346.387V70H347.387ZM347.387 81.6V82.6H348.387V81.6H347.387ZM332.887 81.6H331.887V82.6H332.887V81.6ZM332.887 57.2V56.2H331.887V57.2H332.887ZM335.087 57.2V58.2H335.097L335.107 58.1998L335.087 57.2ZM344.387 34.8L345.386 34.8467L345.386 34.8376L344.387 34.8ZM345.087 16.2V15.2H344.124L344.087 16.1624L345.087 16.2ZM391.987 16.2H392.987V15.2H391.987V16.2ZM391.987 57.2H390.987V58.2H391.987V57.2ZM358.487 35.9L357.488 35.8566L357.487 35.8634L358.487 35.9ZM357.187 49.3L356.205 49.1112L356.203 49.1203L356.201 49.1295L357.187 49.3ZM353.687 57.2L352.966 56.5064L351.335 58.2H353.687V57.2ZM376.387 57.2V58.2H377.387V57.2H376.387ZM376.387 29H377.387V28H376.387V29ZM358.787 29V28H357.829L357.788 28.9566L358.787 29ZM398.687 57.2V81.6H400.687V57.2H398.687ZM399.687 80.6H385.187V82.6H399.687V80.6ZM386.187 81.6V70H384.187V81.6H386.187ZM385.187 69H347.387V71H385.187V69ZM346.387 70V81.6H348.387V70H346.387ZM347.387 80.6H332.887V82.6H347.387V80.6ZM333.887 81.6V57.2H331.887V81.6H333.887ZM332.887 58.2H335.087V56.2H332.887V58.2ZM335.107 58.1998C336.98 58.1623 338.618 57.5843 339.962 56.435C341.291 55.2982 342.266 53.6608 342.937 51.6113L341.036 50.9887C340.441 52.8059 339.632 54.0852 338.662 54.915C337.706 55.7323 336.527 56.171 335.067 56.2002L335.107 58.1998ZM342.937 51.6113C344.245 47.618 345.051 42.0132 345.386 34.8467L343.388 34.7533C343.056 41.8535 342.262 47.2487 341.036 50.9887L342.937 51.6113ZM345.386 34.8376L346.086 16.2376L344.087 16.1624L343.387 34.7624L345.386 34.8376ZM345.087 17.2H391.987V15.2H345.087V17.2ZM390.987 16.2V57.2H392.987V16.2H390.987ZM391.987 58.2H399.687V56.2H391.987V58.2ZM357.487 35.8634C357.288 41.3035 356.858 45.7141 356.205 49.1112L358.169 49.4888C358.849 45.9525 359.285 41.4298 359.486 35.9366L357.487 35.8634ZM356.201 49.1295C355.622 52.4765 354.515 54.898 352.966 56.5064L354.407 57.8936C356.325 55.902 357.551 53.0568 358.172 49.4705L356.201 49.1295ZM353.687 58.2H376.387V56.2H353.687V58.2ZM377.387 57.2V29H375.387V57.2H377.387ZM376.387 28H358.787V30H376.387V28ZM357.788 28.9566L357.488 35.8566L359.486 35.9434L359.786 29.0434L357.788 28.9566ZM449.604 21.4L448.937 22.145L448.943 22.1505L449.604 21.4ZM456.304 70V71H457.304V70H456.304ZM441.704 70H440.704V71H441.704V70ZM441.704 63.3H442.704V59.6192L440.841 62.794L441.704 63.3ZM414.504 68.7L414.081 69.6062L414.089 69.6097L414.504 68.7ZM407.604 62.9L406.765 63.4442L407.604 62.9ZM410.804 42.7L410.202 41.9017L410.195 41.9069L410.804 42.7ZM440.704 38.4V39.4H441.704V38.4H440.704ZM437.604 30.6L436.934 31.3421L436.94 31.3482L436.947 31.3541L437.604 30.6ZM419.804 29.2L420.106 30.1532L420.113 30.151L420.12 30.1487L419.804 29.2ZM412.804 32.8L411.914 33.257L412.471 34.3403L413.425 33.5835L412.804 32.8ZM407.204 21.9L406.628 21.0825L405.917 21.5834L406.314 22.357L407.204 21.9ZM417.704 17.1L417.439 16.1356L417.435 16.1367L417.704 17.1ZM436.304 58.5L436.806 59.3648L436.816 59.3588L436.826 59.3526L436.304 58.5ZM440.704 53L441.644 53.3396L441.704 53.175V53H440.704ZM440.704 47.5H441.704V46.5H440.704V47.5ZM422.704 58.6L422.088 59.3875L422.106 59.4022L422.126 59.416L422.704 58.6ZM430.404 16.4C438.587 16.4 444.714 18.3636 448.937 22.1449L450.271 20.655C445.56 16.4364 438.887 14.4 430.404 14.4V16.4ZM448.943 22.1505C453.127 25.8347 455.304 31.4833 455.304 39.3H457.304C457.304 31.1167 455.014 24.832 450.265 20.6495L448.943 22.1505ZM455.304 39.3V70H457.304V39.3H455.304ZM456.304 69H441.704V71H456.304V69ZM442.704 70V63.3H440.704V70H442.704ZM440.841 62.794C438.153 67.3769 433.1 69.8 425.304 69.8V71.8C433.508 71.8 439.388 69.2231 442.566 63.806L440.841 62.794ZM425.304 69.8C421.282 69.8 417.829 69.1189 414.919 67.7903L414.089 69.6097C417.312 71.0811 421.059 71.8 425.304 71.8V69.8ZM414.927 67.7938C412.075 66.4628 409.928 64.646 408.443 62.3558L406.765 63.4442C408.479 66.0873 410.933 68.1372 414.081 69.6062L414.927 67.7938ZM408.443 62.3558C406.955 60.062 406.204 57.4535 406.204 54.5H404.204C404.204 57.8132 405.053 60.8047 406.765 63.4442L408.443 62.3558ZM406.204 54.5C406.204 49.7883 407.943 46.1573 411.413 43.4931L410.195 41.9069C406.198 44.9761 404.204 49.2117 404.204 54.5H406.204ZM411.406 43.4983C414.952 40.8235 420.525 39.4 428.304 39.4V37.4C420.35 37.4 414.256 38.8431 410.202 41.9017L411.406 43.4983ZM428.304 39.4H440.704V37.4H428.304V39.4ZM441.704 38.4C441.704 34.7862 440.596 31.8803 438.261 29.8459L436.947 31.3541C438.745 32.9197 439.704 35.2138 439.704 38.4H441.704ZM438.274 29.8579C435.952 27.7606 432.568 26.8 428.304 26.8V28.8C432.307 28.8 435.122 29.7061 436.934 31.3421L438.274 29.8579ZM428.304 26.8C425.327 26.8 422.387 27.285 419.488 28.2513L420.12 30.1487C422.821 29.2483 425.548 28.8 428.304 28.8V26.8ZM419.502 28.2468C416.671 29.1443 414.225 30.3965 412.183 32.0165L413.425 33.5835C415.249 32.1368 417.47 30.989 420.106 30.1532L419.502 28.2468ZM413.693 32.343L408.093 21.443L406.314 22.357L411.914 33.257L413.693 32.343ZM407.78 22.7175C410.605 20.7271 413.997 19.1712 417.972 18.0633L417.435 16.1367C413.278 17.2954 409.67 18.9396 406.628 21.0825L407.78 22.7175ZM417.968 18.0644C422.015 16.955 426.159 16.4 430.404 16.4V14.4C425.982 14.4 421.66 14.9784 417.439 16.1356L417.968 18.0644ZM429.204 61.3C432.026 61.3 434.57 60.6633 436.806 59.3648L435.802 57.6352C433.905 58.7367 431.715 59.3 429.204 59.3V61.3ZM436.826 59.3526C439.097 57.9608 440.705 55.941 441.644 53.3396L439.763 52.6604C438.969 54.859 437.644 56.5059 435.781 57.6474L436.826 59.3526ZM441.704 53V47.5H439.704V53H441.704ZM440.704 46.5H430.004V48.5H440.704V46.5ZM430.004 46.5C426.726 46.5 424.094 47.032 422.255 48.239C420.343 49.4941 419.404 51.4019 419.404 53.8H421.404C421.404 51.9981 422.065 50.7559 423.353 49.911C424.713 49.0181 426.881 48.5 430.004 48.5V46.5ZM419.404 53.8C419.404 56.0978 420.305 57.992 422.088 59.3875L423.32 57.8125C422.037 56.808 421.404 55.5022 421.404 53.8H419.404ZM422.126 59.416C423.95 60.7079 426.343 61.3 429.204 61.3V59.3C426.598 59.3 424.658 58.7588 423.282 57.784L422.126 59.416Z" fill="#8A8A8A"/>
</svg>
