<svg width="560" height="90" viewBox="0 0 560 90" fill="none" xmlns="http://www.w3.org/2000/svg">
<path d="M51.6 43.1L50.6075 42.9775L50.469 44.1H51.6V43.1ZM64.6 43.1H65.6V42.1H64.6V43.1ZM64.6 54V55H65.6V54H64.6ZM50.3 54V53H49.4172L49.3077 53.876L50.3 54ZM48.3 70V71H49.1828L49.2923 70.124L48.3 70ZM37 70L36.0077 69.876L35.8672 71H37V70ZM39 54L39.9923 54.124L40.1328 53H39V54ZM24.3 54V53H23.4172L23.3077 53.876L24.3 54ZM22.3 70V71H23.1828L23.2923 70.124L22.3 70ZM11.1 70L10.1077 69.876L9.96722 71H11.1V70ZM13.1 54L14.0923 54.124L14.2328 53H13.1V54ZM2.38419e-07 54H-1V55H2.38419e-07V54ZM2.38419e-07 43.1V42.1H-1V43.1H2.38419e-07ZM14.4 43.1V44.1H15.2787L15.3917 43.2286L14.4 43.1ZM16.5 26.9L17.4917 27.0286L17.638 25.9H16.5V26.9ZM3.4 26.9H2.4V27.9H3.4V26.9ZM3.4 16V15H2.4V16H3.4ZM17.8 16V17H18.6828L18.7923 16.124L17.8 16ZM19.8 -3.8147e-06V-1H18.9172L18.8077 -0.124039L19.8 -3.8147e-06ZM31 -3.8147e-06L31.9923 0.124029L32.1328 -1H31V-3.8147e-06ZM29 16L28.0077 15.876L27.8672 17H29V16ZM43.7 16V17H44.5828L44.6923 16.124L43.7 16ZM45.7 -3.8147e-06V-1H44.8172L44.7077 -0.124039L45.7 -3.8147e-06ZM56.9 -3.8147e-06L57.8923 0.124031L58.0328 -1H56.9V-3.8147e-06ZM54.9 16L53.9077 15.876L53.7672 17H54.9V16ZM67.9 16L68.9 15.9908L68.8909 15H67.9V16ZM68 26.9V27.9H69.0092L69 26.8908L68 26.9ZM53.6 26.9V25.9H52.7159L52.6075 26.7775L53.6 26.9ZM40.3 43.1V44.1H41.1787L41.2917 43.2286L40.3 43.1ZM42.4 26.9L43.3917 27.0286L43.538 25.9H42.4V26.9ZM27.7 26.9V25.9H26.8213L26.7083 26.7714L27.7 26.9ZM25.6 43.1L24.6083 42.9714L24.462 44.1H25.6V43.1ZM51.6 44.1H64.6V42.1H51.6V44.1ZM63.6 43.1V54H65.6V43.1H63.6ZM64.6 53H50.3V55H64.6V53ZM49.3077 53.876L47.3077 69.876L49.2923 70.124L51.2923 54.124L49.3077 53.876ZM48.3 69H37V71H48.3V69ZM37.9923 70.124L39.9923 54.124L38.0077 53.876L36.0077 69.876L37.9923 70.124ZM39 53H24.3V55H39V53ZM23.3077 53.876L21.3077 69.876L23.2923 70.124L25.2923 54.124L23.3077 53.876ZM22.3 69H11.1V71H22.3V69ZM12.0923 70.124L14.0923 54.124L12.1077 53.876L10.1077 69.876L12.0923 70.124ZM13.1 53H2.38419e-07V55H13.1V53ZM1 54V43.1H-1V54H1ZM2.38419e-07 44.1H14.4V42.1H2.38419e-07V44.1ZM15.3917 43.2286L17.4917 27.0286L15.5083 26.7714L13.4083 42.9714L15.3917 43.2286ZM16.5 25.9H3.4V27.9H16.5V25.9ZM4.4 26.9V16H2.4V26.9H4.4ZM3.4 17H17.8V15H3.4V17ZM18.7923 16.124L20.7923 0.124029L18.8077 -0.124039L16.8077 15.876L18.7923 16.124ZM19.8 0.999996H31V-1H19.8V0.999996ZM30.0077 -0.124039L28.0077 15.876L29.9923 16.124L31.9923 0.124029L30.0077 -0.124039ZM29 17H43.7V15H29V17ZM44.6923 16.124L46.6923 0.124029L44.7077 -0.124039L42.7077 15.876L44.6923 16.124ZM45.7 0.999996H56.9V-1H45.7V0.999996ZM55.9077 -0.124041L53.9077 15.876L55.8923 16.124L57.8923 0.124031L55.9077 -0.124041ZM54.9 17H67.9V15H54.9V17ZM66.9 16.0092L67 26.9092L69 26.8908L68.9 15.9908L66.9 16.0092ZM68 25.9H53.6V27.9H68V25.9ZM52.6075 26.7775L50.6075 42.9775L52.5925 43.2225L54.5925 27.0225L52.6075 26.7775ZM41.2917 43.2286L43.3917 27.0286L41.4083 26.7714L39.3083 42.9714L41.2917 43.2286ZM42.4 25.9H27.7V27.9H42.4V25.9ZM26.7083 26.7714L24.6083 42.9714L26.5917 43.2286L28.6917 27.0286L26.7083 26.7714ZM25.6 44.1H40.3V42.1H25.6V44.1ZM120.573 29V30H121.573V29H120.573ZM92.9727 29V28H91.9727V29H92.9727ZM92.9727 70V71H93.9727V70H92.9727ZM77.4727 70H76.4727V71H77.4727V70ZM77.4727 16.2V15.2H76.4727V16.2H77.4727ZM120.573 16.2H121.573V15.2H120.573V16.2ZM120.573 28H92.9727V30H120.573V28ZM91.9727 29V70H93.9727V29H91.9727ZM92.9727 69H77.4727V71H92.9727V69ZM78.4727 70V16.2H76.4727V70H78.4727ZM77.4727 17.2H120.573V15.2H77.4727V17.2ZM119.573 16.2V29H121.573V16.2H119.573ZM168.94 21.4L168.273 22.145L168.279 22.1505L168.94 21.4ZM175.64 70V71H176.64V70H175.64ZM161.04 70H160.04V71H161.04V70ZM161.04 63.3H162.04V59.6192L160.177 62.794L161.04 63.3ZM133.84 68.7L133.417 69.6062L133.425 69.6097L133.84 68.7ZM126.94 62.9L126.101 63.4442L126.94 62.9ZM130.14 42.7L129.538 41.9017L129.531 41.9069L130.14 42.7ZM160.04 38.4V39.4H161.04V38.4H160.04ZM156.94 30.6L156.27 31.3421L156.276 31.3482L156.283 31.3541L156.94 30.6ZM139.14 29.2L139.442 30.1532L139.449 30.151L139.456 30.1487L139.14 29.2ZM132.14 32.8L131.25 33.257L131.807 34.3403L132.761 33.5835L132.14 32.8ZM126.54 21.9L125.964 21.0825L125.253 21.5834L125.65 22.357L126.54 21.9ZM137.04 17.1L136.775 16.1356L136.771 16.1367L137.04 17.1ZM155.64 58.5L156.142 59.3648L156.152 59.3588L156.162 59.3526L155.64 58.5ZM160.04 53L160.98 53.3396L161.04 53.175V53H160.04ZM160.04 47.5H161.04V46.5H160.04V47.5ZM142.04 58.6L141.424 59.3875L141.442 59.4022L141.462 59.416L142.04 58.6ZM149.74 16.4C157.923 16.4 164.05 18.3636 168.273 22.1449L169.607 20.655C164.896 16.4364 158.223 14.4 149.74 14.4V16.4ZM168.279 22.1505C172.463 25.8347 174.64 31.4833 174.64 39.3H176.64C176.64 31.1167 174.35 24.832 169.601 20.6495L168.279 22.1505ZM174.64 39.3V70H176.64V39.3H174.64ZM175.64 69H161.04V71H175.64V69ZM162.04 70V63.3H160.04V70H162.04ZM160.177 62.794C157.489 67.3769 152.436 69.8 144.64 69.8V71.8C152.844 71.8 158.724 69.2231 161.902 63.806L160.177 62.794ZM144.64 69.8C140.618 69.8 137.165 69.1189 134.255 67.7903L133.425 69.6097C136.648 71.0811 140.395 71.8 144.64 71.8V69.8ZM134.263 67.7938C131.411 66.4628 129.264 64.646 127.779 62.3558L126.101 63.4442C127.815 66.0873 130.269 68.1372 133.417 69.6062L134.263 67.7938ZM127.779 62.3558C126.291 60.062 125.54 57.4535 125.54 54.5H123.54C123.54 57.8132 124.389 60.8047 126.101 63.4442L127.779 62.3558ZM125.54 54.5C125.54 49.7883 127.279 46.1573 130.749 43.4931L129.531 41.9069C125.534 44.9761 123.54 49.2117 123.54 54.5H125.54ZM130.742 43.4983C134.288 40.8235 139.861 39.4 147.64 39.4V37.4C139.686 37.4 133.592 38.8431 129.538 41.9017L130.742 43.4983ZM147.64 39.4H160.04V37.4H147.64V39.4ZM161.04 38.4C161.04 34.7862 159.932 31.8803 157.597 29.8459L156.283 31.3541C158.081 32.9197 159.04 35.2138 159.04 38.4H161.04ZM157.61 29.8579C155.288 27.7606 151.904 26.8 147.64 26.8V28.8C151.643 28.8 154.458 29.7061 156.27 31.3421L157.61 29.8579ZM147.64 26.8C144.663 26.8 141.723 27.285 138.824 28.2513L139.456 30.1487C142.157 29.2483 144.884 28.8 147.64 28.8V26.8ZM138.838 28.2468C136.007 29.1443 133.561 30.3965 131.518 32.0165L132.761 33.5835C134.585 32.1368 136.806 30.989 139.442 30.1532L138.838 28.2468ZM133.029 32.343L127.429 21.443L125.65 22.357L131.25 33.257L133.029 32.343ZM127.116 22.7175C129.941 20.7271 133.333 19.1712 137.308 18.0633L136.771 16.1367C132.614 17.2954 129.005 18.9396 125.964 21.0825L127.116 22.7175ZM137.304 18.0644C141.35 16.955 145.495 16.4 149.74 16.4V14.4C145.318 14.4 140.996 14.9784 136.775 16.1356L137.304 18.0644ZM148.54 61.3C151.362 61.3 153.906 60.6633 156.142 59.3648L155.138 57.6352C153.241 58.7367 151.051 59.3 148.54 59.3V61.3ZM156.162 59.3526C158.433 57.9608 160.041 55.941 160.98 53.3396L159.099 52.6604C158.305 54.859 156.98 56.5059 155.117 57.6474L156.162 59.3526ZM161.04 53V47.5H159.04V53H161.04ZM160.04 46.5H149.34V48.5H160.04V46.5ZM149.34 46.5C146.062 46.5 143.43 47.032 141.591 48.239C139.679 49.4941 138.74 51.4019 138.74 53.8H140.74C140.74 51.9981 141.401 50.7559 142.689 49.911C144.049 49.0181 146.217 48.5 149.34 48.5V46.5ZM138.74 53.8C138.74 56.0978 139.64 57.992 141.424 59.3875L142.656 57.8125C141.373 56.808 140.74 55.5022 140.74 53.8H138.74ZM141.462 59.416C143.286 60.7079 145.679 61.3 148.54 61.3V59.3C145.934 59.3 143.994 58.7588 142.618 57.784L141.462 59.416ZM234.491 18.9L233.994 19.7674L234.002 19.7722L234.011 19.7768L234.491 18.9ZM244.191 28.6L243.317 29.0857L243.321 29.0916L244.191 28.6ZM244.191 57.7L245.062 58.1916L245.066 58.1856L244.191 57.7ZM234.491 67.4L234.978 68.2735L234.983 68.2708L234.491 67.4ZM204.691 64.3L205.432 63.6279L203.691 61.7104V64.3H204.691ZM204.691 89.4V90.4H205.691V89.4H204.691ZM189.091 89.4H188.091V90.4H189.091V89.4ZM189.091 16.2V15.2H188.091V16.2H189.091ZM203.991 16.2H204.991V15.2H203.991V16.2ZM203.991 22.4H202.991V25.1742L204.761 23.038L203.991 22.4ZM227.991 54L227.267 53.3108L227.266 53.3112L227.991 54ZM227.991 32.3L227.258 32.9798L227.267 32.989L227.275 32.9981L227.991 32.3ZM208.291 32.3L207.567 31.6108L207.566 31.6113L208.291 32.3ZM208.291 54L207.558 54.6798L207.567 54.689L207.575 54.6981L208.291 54ZM220.891 16.4C225.729 16.4 230.089 17.5267 233.994 19.7674L234.989 18.0326C230.761 15.6066 226.054 14.4 220.891 14.4V16.4ZM234.011 19.7768C237.975 21.951 241.074 25.0472 243.317 29.0856L245.066 28.1144C242.643 23.7528 239.274 20.3824 234.972 18.0232L234.011 19.7768ZM243.321 29.0916C245.556 33.0517 246.691 37.7101 246.691 43.1H248.691C248.691 37.4232 247.493 32.415 245.062 28.1084L243.321 29.0916ZM246.691 43.1C246.691 48.4894 245.556 53.1841 243.317 57.2144L245.066 58.1856C247.493 53.8159 248.691 48.7772 248.691 43.1H246.691ZM243.321 57.2084C241.077 61.1832 237.975 64.2854 234 66.5292L234.983 68.2708C239.275 65.848 242.639 62.4835 245.062 58.1916L243.321 57.2084ZM234.005 66.5265C230.098 68.7041 225.734 69.8 220.891 69.8V71.8C226.049 71.8 230.752 70.6292 234.978 68.2735L234.005 66.5265ZM220.891 69.8C214.253 69.8 209.142 67.7158 205.432 63.6279L203.951 64.9721C208.107 69.5508 213.796 71.8 220.891 71.8V69.8ZM203.691 64.3V89.4H205.691V64.3H203.691ZM204.691 88.4H189.091V90.4H204.691V88.4ZM190.091 89.4V16.2H188.091V89.4H190.091ZM189.091 17.2H203.991V15.2H189.091V17.2ZM202.991 16.2V22.4H204.991V16.2H202.991ZM204.761 23.038C208.396 18.651 213.717 16.4 220.891 16.4V14.4C213.266 14.4 207.32 16.8157 203.221 21.762L204.761 23.038ZM218.191 59C222.439 59 225.977 57.5727 228.716 54.6888L227.266 53.3112C224.939 55.7607 221.944 57 218.191 57V59ZM228.716 54.6892C231.527 51.7337 232.891 47.835 232.891 43.1H230.891C230.891 47.4317 229.655 50.7997 227.267 53.3108L228.716 54.6892ZM232.891 43.1C232.891 38.366 231.528 34.4944 228.707 31.6019L227.275 32.9981C229.655 35.439 230.891 38.7674 230.891 43.1H232.891ZM228.725 31.6202C225.987 28.6665 222.447 27.2 218.191 27.2V29.2C221.936 29.2 224.929 30.4668 227.258 32.9798L228.725 31.6202ZM218.191 27.2C213.936 27.2 210.368 28.666 207.567 31.6108L209.016 32.9892C211.415 30.4673 214.447 29.2 218.191 29.2V27.2ZM207.566 31.6113C204.818 34.5048 203.491 38.3731 203.491 43.1H205.491C205.491 38.7603 206.699 35.4286 209.016 32.9888L207.566 31.6113ZM203.491 43.1C203.491 47.8279 204.818 51.7233 207.558 54.6798L209.025 53.3202C206.698 50.81 205.491 47.4387 205.491 43.1H203.491ZM207.575 54.6981C210.379 57.5731 213.944 59 218.191 59V57C214.439 57 211.404 55.7602 209.007 53.3019L207.575 54.6981ZM297.846 21.4L297.179 22.145L297.185 22.1505L297.846 21.4ZM304.546 70V71H305.546V70H304.546ZM289.946 70H288.946V71H289.946V70ZM289.946 63.3H290.946V59.6192L289.084 62.794L289.946 63.3ZM262.746 68.7L262.323 69.6062L262.331 69.6097L262.746 68.7ZM255.846 62.9L255.007 63.4442L255.846 62.9ZM259.046 42.7L258.444 41.9017L258.437 41.9069L259.046 42.7ZM288.946 38.4V39.4H289.946V38.4H288.946ZM285.846 30.6L285.176 31.3421L285.182 31.3482L285.189 31.3541L285.846 30.6ZM268.046 29.2L268.348 30.1532L268.355 30.151L268.362 30.1487L268.046 29.2ZM261.046 32.8L260.157 33.257L260.713 34.3403L261.667 33.5835L261.046 32.8ZM255.446 21.9L254.87 21.0825L254.159 21.5834L254.557 22.357L255.446 21.9ZM265.946 17.1L265.682 16.1356L265.678 16.1367L265.946 17.1ZM284.546 58.5L285.048 59.3648L285.059 59.3588L285.069 59.3526L284.546 58.5ZM288.946 53L289.887 53.3396L289.946 53.175V53H288.946ZM288.946 47.5H289.946V46.5H288.946V47.5ZM270.946 58.6L270.33 59.3875L270.349 59.4022L270.368 59.416L270.946 58.6ZM278.646 16.4C286.829 16.4 292.957 18.3636 297.179 22.1449L298.513 20.655C293.802 16.4364 287.13 14.4 278.646 14.4V16.4ZM297.185 22.1505C301.369 25.8347 303.546 31.4833 303.546 39.3H305.546C305.546 31.1167 303.257 24.832 298.507 20.6495L297.185 22.1505ZM303.546 39.3V70H305.546V39.3H303.546ZM304.546 69H289.946V71H304.546V69ZM290.946 70V63.3H288.946V70H290.946ZM289.084 62.794C286.395 67.3769 281.342 69.8 273.546 69.8V71.8C281.75 71.8 287.631 69.2231 290.809 63.806L289.084 62.794ZM273.546 69.8C269.524 69.8 266.072 69.1189 263.161 67.7903L262.331 69.6097C265.554 71.0811 269.301 71.8 273.546 71.8V69.8ZM263.169 67.7938C260.317 66.4628 258.171 64.646 256.685 62.3558L255.007 63.4442C256.722 66.0873 259.175 68.1372 262.323 69.6062L263.169 67.7938ZM256.685 62.3558C255.197 60.062 254.446 57.4535 254.446 54.5H252.446C252.446 57.8132 253.295 60.8047 255.007 63.4442L256.685 62.3558ZM254.446 54.5C254.446 49.7883 256.186 46.1573 259.655 43.4931L258.437 41.9069C254.44 44.9761 252.446 49.2117 252.446 54.5H254.446ZM259.648 43.4983C263.194 40.8235 268.767 39.4 276.546 39.4V37.4C268.592 37.4 262.498 38.8431 258.444 41.9017L259.648 43.4983ZM276.546 39.4H288.946V37.4H276.546V39.4ZM289.946 38.4C289.946 34.7862 288.839 31.8803 286.503 29.8459L285.189 31.3541C286.987 32.9197 287.946 35.2138 287.946 38.4H289.946ZM286.516 29.8579C284.194 27.7606 280.81 26.8 276.546 26.8V28.8C280.549 28.8 283.365 29.7061 285.176 31.3421L286.516 29.8579ZM276.546 26.8C273.569 26.8 270.629 27.285 267.73 28.2513L268.362 30.1487C271.063 29.2483 273.79 28.8 276.546 28.8V26.8ZM267.744 28.2468C264.913 29.1443 262.467 30.3965 260.425 32.0165L261.667 33.5835C263.492 32.1368 265.712 30.989 268.348 30.1532L267.744 28.2468ZM261.936 32.343L256.336 21.443L254.557 22.357L260.157 33.257L261.936 32.343ZM256.022 22.7175C258.847 20.7271 262.239 19.1712 266.215 18.0633L265.678 16.1367C261.52 17.2954 257.912 18.9396 254.87 21.0825L256.022 22.7175ZM266.211 18.0644C270.257 16.955 274.401 16.4 278.646 16.4V14.4C274.224 14.4 269.902 14.9784 265.682 16.1356L266.211 18.0644ZM277.446 61.3C280.268 61.3 282.812 60.6633 285.048 59.3648L284.044 57.6352C282.147 58.7367 279.957 59.3 277.446 59.3V61.3ZM285.069 59.3526C287.34 57.9608 288.947 55.941 289.887 53.3396L288.006 52.6604C287.212 54.859 285.886 56.5059 284.024 57.6474L285.069 59.3526ZM289.946 53V47.5H287.946V53H289.946ZM288.946 46.5H278.246V48.5H288.946V46.5ZM278.246 46.5C274.969 46.5 272.337 47.032 270.497 48.239C268.585 49.4941 267.646 51.4019 267.646 53.8H269.646C269.646 51.9981 270.307 50.7559 271.595 49.911C272.956 49.0181 275.124 48.5 278.246 48.5V46.5ZM267.646 53.8C267.646 56.0978 268.547 57.992 270.33 59.3875L271.562 57.8125C270.279 56.808 269.646 55.5022 269.646 53.8H267.646ZM270.368 59.416C272.192 60.7079 274.585 61.3 277.446 61.3V59.3C274.841 59.3 272.9 58.7588 271.524 57.784L270.368 59.416ZM318.098 16.2V15.2H317.098V16.2H318.098ZM333.598 16.2H334.598V15.2H333.598V16.2ZM333.598 37.2H332.598V38.2H333.598V37.2ZM356.998 37.2V38.2H357.998V37.2H356.998ZM356.998 16.2V15.2H355.998V16.2H356.998ZM372.598 16.2H373.598V15.2H372.598V16.2ZM372.598 70V71H373.598V70H372.598ZM356.998 70H355.998V71H356.998V70ZM356.998 49.9H357.998V48.9H356.998V49.9ZM333.598 49.9V48.9H332.598V49.9H333.598ZM333.598 70V71H334.598V70H333.598ZM318.098 70H317.098V71H318.098V70ZM318.098 17.2H333.598V15.2H318.098V17.2ZM332.598 16.2V37.2H334.598V16.2H332.598ZM333.598 38.2H356.998V36.2H333.598V38.2ZM357.998 37.2V16.2H355.998V37.2H357.998ZM356.998 17.2H372.598V15.2H356.998V17.2ZM371.598 16.2V70H373.598V16.2H371.598ZM372.598 69H356.998V71H372.598V69ZM357.998 70V49.9H355.998V70H357.998ZM356.998 48.9H333.598V50.9H356.998V48.9ZM332.598 49.9V70H334.598V49.9H332.598ZM333.598 69H318.098V71H333.598V69ZM319.098 70V16.2H317.098V70H319.098ZM432.731 29V30H433.731V29H432.731ZM414.531 29V28H413.531V29H414.531ZM414.531 70V71H415.531V70H414.531ZM399.031 70H398.031V71H399.031V70ZM399.031 29H400.031V28H399.031V29ZM380.831 29H379.831V30H380.831V29ZM380.831 16.2V15.2H379.831V16.2H380.831ZM432.731 16.2H433.731V15.2H432.731V16.2ZM432.731 28H414.531V30H432.731V28ZM413.531 29V70H415.531V29H413.531ZM414.531 69H399.031V71H414.531V69ZM400.031 70V29H398.031V70H400.031ZM399.031 28H380.831V30H399.031V28ZM381.831 29V16.2H379.831V29H381.831ZM380.831 17.2H432.731V15.2H380.831V17.2ZM431.731 16.2V29H433.731V16.2H431.731ZM441.047 16.2V15.2H440.047V16.2H441.047ZM456.547 16.2H457.547V15.2H456.547V16.2ZM456.547 48.2H455.547V50.9999L457.321 48.8335L456.547 48.2ZM482.747 16.2V15.2H482.273L481.973 15.5665L482.747 16.2ZM497.047 16.2H498.047V15.2H497.047V16.2ZM497.047 70V71H498.047V70H497.047ZM481.547 70H480.547V71H481.547V70ZM481.547 38H482.547V35.1918L480.772 37.368L481.547 38ZM455.447 70V71H455.922L456.222 70.632L455.447 70ZM441.047 70H440.047V71H441.047V70ZM441.047 17.2H456.547V15.2H441.047V17.2ZM455.547 16.2V48.2H457.547V16.2H455.547ZM457.321 48.8335L483.521 16.8335L481.973 15.5665L455.773 47.5665L457.321 48.8335ZM482.747 17.2H497.047V15.2H482.747V17.2ZM496.047 16.2V70H498.047V16.2H496.047ZM497.047 69H481.547V71H497.047V69ZM482.547 70V38H480.547V70H482.547ZM480.772 37.368L454.672 69.368L456.222 70.632L482.322 38.632L480.772 37.368ZM455.447 69H441.047V71H455.447V69ZM442.047 70V16.2H440.047V70H442.047ZM559.843 16.2H560.843V15.2H559.843V16.2ZM559.843 70V71H560.843V70H559.843ZM545.943 70H544.943V71H545.943V70ZM545.943 54.6H546.943V53.6H545.943V54.6ZM534.443 54.6V53.6H533.906L533.609 54.0478L534.443 54.6ZM524.243 70V71H524.78L525.077 70.5522L524.243 70ZM507.643 70L506.823 69.4272L505.724 71H507.643V70ZM519.943 52.4L520.763 52.9728L521.489 51.9331L520.309 51.4692L519.943 52.4ZM511.343 46.1L510.52 46.6682L510.528 46.6795L510.536 46.6905L511.343 46.1ZM515.243 21.4L515.843 22.2L515.845 22.1986L515.243 21.4ZM526.843 30.7L526.274 29.8778L526.266 29.8831L526.259 29.8885L526.843 30.7ZM526.743 42.4L526.122 43.184L526.14 43.1982L526.159 43.2115L526.743 42.4ZM545.943 44.2V45.2H546.943V44.2H545.943ZM545.943 28.9H546.943V27.9H545.943V28.9ZM558.843 16.2V70H560.843V16.2H558.843ZM559.843 69H545.943V71H559.843V69ZM546.943 70V54.6H544.943V70H546.943ZM545.943 53.6H534.443V55.6H545.943V53.6ZM533.609 54.0478L523.409 69.4478L525.077 70.5522L535.277 55.1522L533.609 54.0478ZM524.243 69H507.643V71H524.243V69ZM508.463 70.5728L520.763 52.9728L519.123 51.8272L506.823 69.4272L508.463 70.5728ZM520.309 51.4692C516.719 50.0589 514.019 48.0636 512.15 45.5095L510.536 46.6905C512.667 49.6031 515.701 51.8077 519.577 53.3307L520.309 51.4692ZM512.166 45.5318C510.365 42.9238 509.443 39.763 509.443 36H507.443C507.443 40.1037 508.454 43.6762 510.52 46.6682L512.166 45.5318ZM509.443 36C509.443 29.9389 511.594 25.387 515.843 22.2L514.643 20.6C509.826 24.213 507.443 29.3945 507.443 36H509.443ZM515.845 22.1986C520.215 18.9049 526.277 17.2 534.143 17.2V15.2C526.008 15.2 519.471 16.9617 514.641 20.6014L515.845 22.1986ZM534.143 17.2H559.843V15.2H534.143V17.2ZM534.443 27.9C531.015 27.9 528.246 28.5125 526.274 29.8778L527.412 31.5222C528.907 30.4875 531.204 29.9 534.443 29.9V27.9ZM526.259 29.8885C524.256 31.3307 523.343 33.6176 523.343 36.5H525.343C525.343 34.0491 526.097 32.4693 527.427 31.5115L526.259 29.8885ZM523.343 36.5C523.343 39.3708 524.213 41.6726 526.122 43.184L527.364 41.616C526.073 40.5941 525.343 38.9625 525.343 36.5H523.343ZM526.159 43.2115C528.072 44.5892 530.82 45.2 534.243 45.2V43.2C531 43.2 528.747 42.6108 527.327 41.5885L526.159 43.2115ZM534.243 45.2H545.943V43.2H534.243V45.2ZM546.943 44.2V28.9H544.943V44.2H546.943ZM545.943 27.9H534.443V29.9H545.943V27.9Z" fill="#8A8A8A"/>
</svg>
