<svg width="48" height="48" viewBox="0 0 48 48" fill="none" xmlns="http://www.w3.org/2000/svg">
<path d="M8.58392 5.68657L8.79139 5.82495C9.61077 6.37319 10.2252 7.17768 10.5385 8.11245C10.5883 8.26175 10.6838 8.3916 10.8115 8.48362C10.9392 8.57563 11.0926 8.62514 11.25 8.62514C11.4074 8.62514 11.5608 8.57563 11.6885 8.48362C11.8161 8.3916 11.9117 8.26175 11.9614 8.11245C12.2748 7.17765 12.8892 6.37316 13.7087 5.82495L13.916 5.68657C14.0188 5.61808 14.103 5.52529 14.1612 5.41644C14.2195 5.30758 14.25 5.18603 14.25 5.06257C14.25 4.93911 14.2195 4.81756 14.1612 4.70871C14.103 4.59985 14.0188 4.50706 13.916 4.43857L13.7086 4.3002C12.8892 3.75195 12.2748 2.94747 11.9614 2.0127C11.9117 1.8634 11.8161 1.73354 11.6885 1.64153C11.5608 1.54951 11.4074 1.5 11.25 1.5C11.0926 1.5 10.9392 1.54951 10.8115 1.64153C10.6838 1.73354 10.5883 1.8634 10.5385 2.0127C10.2252 2.94749 9.61072 3.75199 8.79129 4.3002L8.58392 4.43857C8.4812 4.50706 8.39698 4.59985 8.33873 4.70871C8.28048 4.81756 8.25 4.93911 8.25 5.06257C8.25 5.18603 8.28048 5.30758 8.33873 5.41644C8.39698 5.52529 8.4812 5.61808 8.58392 5.68657ZM11.25 3.9282C11.5325 4.34686 11.867 4.72802 12.2454 5.06257C11.867 5.39715 11.5326 5.77831 11.25 6.19695C10.9674 5.77829 10.6329 5.39712 10.2545 5.06257C10.6329 4.72799 10.9674 4.34684 11.25 3.9282Z" fill="#6100FF"/>
<path d="M4.08392 10.5616L4.29139 10.6999C5.11077 11.2482 5.72521 12.0527 6.03851 12.9874C6.08831 13.1368 6.18382 13.2666 6.3115 13.3586C6.43919 13.4506 6.59259 13.5001 6.74998 13.5001C6.90737 13.5001 7.06077 13.4506 7.18846 13.3586C7.31615 13.2666 7.41165 13.1368 7.46145 12.9874C7.77476 12.0527 8.38924 11.2482 9.20867 10.6999L9.41604 10.5616C9.51876 10.4931 9.60298 10.4003 9.66123 10.2914C9.71948 10.1826 9.74996 10.061 9.74996 9.93757C9.74996 9.81411 9.71948 9.69256 9.66123 9.58371C9.60298 9.47486 9.51876 9.38207 9.41604 9.31357L9.20857 9.1752C8.38919 8.62695 7.77475 7.82247 7.46145 6.8877C7.41165 6.7384 7.31615 6.60854 7.18846 6.51653C7.06077 6.42451 6.90737 6.375 6.74998 6.375C6.59259 6.375 6.43919 6.42451 6.3115 6.51653C6.18382 6.60854 6.08831 6.7384 6.03851 6.8877C5.7252 7.82249 5.11072 8.62699 4.29129 9.1752L4.08392 9.31357C3.9812 9.38207 3.89698 9.47486 3.83873 9.58371C3.78048 9.69256 3.75 9.81411 3.75 9.93757C3.75 10.061 3.78048 10.1826 3.83873 10.2914C3.89698 10.4003 3.9812 10.4931 4.08392 10.5616ZM6.74998 8.8032C7.03254 9.22186 7.36701 9.60302 7.74542 9.93757C7.36704 10.2722 7.03257 10.6533 6.74998 11.0719C6.46743 10.6533 6.13295 10.2721 5.75454 9.93757C6.13292 9.60299 6.4674 9.22184 6.74998 8.8032Z" fill="#6100FF"/>
<path d="M8.25 30H7.5C7.30109 30 7.11032 30.079 6.96967 30.2197C6.82902 30.3603 6.75 30.5511 6.75 30.75C6.75 30.9489 6.82902 31.1397 6.96967 31.2803C7.11032 31.421 7.30109 31.5 7.5 31.5H8.25C8.44891 31.5 8.63968 31.421 8.78033 31.2803C8.92098 31.1397 9 30.9489 9 30.75C9 30.5511 8.92098 30.3603 8.78033 30.2197C8.63968 30.079 8.44891 30 8.25 30Z" fill="#181818"/>
<path d="M8.25 36H7.5C7.30109 36 7.11032 36.079 6.96967 36.2197C6.82902 36.3603 6.75 36.5511 6.75 36.75C6.75 36.9489 6.82902 37.1397 6.96967 37.2803C7.11032 37.421 7.30109 37.5 7.5 37.5H8.25C8.44891 37.5 8.63968 37.421 8.78033 37.2803C8.92098 37.1397 9 36.9489 9 36.75C9 36.5511 8.92098 36.3603 8.78033 36.2197C8.63968 36.079 8.44891 36 8.25 36Z" fill="#181818"/>
<path d="M8.25 42H7.5C7.30109 42 7.11032 42.079 6.96967 42.2197C6.82902 42.3603 6.75 42.5511 6.75 42.75C6.75 42.9489 6.82902 43.1397 6.96967 43.2803C7.11032 43.421 7.30109 43.5 7.5 43.5H8.25C8.44891 43.5 8.63968 43.421 8.78033 43.2803C8.92098 43.1397 9 42.9489 9 42.75C9 42.5511 8.92098 42.3603 8.78033 42.2197C8.63968 42.079 8.44891 42 8.25 42Z" fill="#181818"/>
<path d="M45 36.75C45.0013 35.463 44.7463 34.1885 44.25 33.001V27.75C44.25 27.5511 44.171 27.3603 44.0303 27.2197C43.8897 27.079 43.6989 27 43.5 27H41.25V23.871C41.7502 23.6939 42.1717 23.3458 42.4401 22.888C42.7084 22.4303 42.8064 21.8925 42.7167 21.3695C42.627 20.8465 42.3553 20.3721 41.9497 20.03C41.5441 19.6879 41.0306 19.5002 40.5 19.5V10.6219L41.2115 8.48737C41.2566 8.35207 41.2622 8.20669 41.2276 8.06831L40.4776 5.06831C40.4371 4.90601 40.3434 4.76191 40.2116 4.65893C40.0798 4.55596 39.9173 4.50001 39.75 4.5H36.75C36.5827 4.5 36.4203 4.55592 36.2884 4.65886C36.1566 4.7618 36.063 4.90586 36.0224 5.06813L35.2724 8.06812C35.2378 8.2065 35.2434 8.35188 35.2885 8.48719L36 10.6219V19.5C35.4694 19.5002 34.9559 19.6879 34.5503 20.03C34.1447 20.3721 33.873 20.8465 33.7833 21.3695C33.6936 21.8925 33.7916 22.4303 34.0599 22.888C34.3283 23.3458 34.7498 23.6939 35.25 23.871V27H32.25V20.8072C32.9909 20.2913 33.5862 19.5931 33.9785 18.78C34.3708 17.9668 34.5467 17.0663 34.4894 16.1653C34.4321 15.2644 34.1434 14.3934 33.6512 13.6366C33.159 12.8798 32.48 12.2626 31.6797 11.8448C30.8794 11.427 29.9849 11.2226 29.0826 11.2514C28.1803 11.2802 27.3006 11.5412 26.5286 12.0092C25.7565 12.4771 25.1182 13.1363 24.6753 13.923C24.2324 14.7096 23.9998 15.5972 24 16.5C23.9974 17.3071 24.1823 18.1038 24.54 18.8274C24.8977 19.5509 25.4185 20.1815 26.0614 20.6695C26.1231 20.7168 26.1859 20.7627 26.25 20.8073V27H22.5V13.75L23.8118 12.0011C24.4189 11.188 24.7479 10.2009 24.75 9.18609C24.753 8.31417 24.5116 7.45886 24.0532 6.71715C23.5948 5.97545 22.9377 5.37702 22.1565 4.98975L21.3354 4.57922C21.2211 4.52204 21.094 4.49504 20.9663 4.50078C20.8386 4.50652 20.7145 4.54482 20.6057 4.61202C20.497 4.67923 20.4072 4.77312 20.3449 4.88478C20.2827 4.99644 20.25 5.12216 20.25 5.25V8.07291C20.25 8.27182 20.171 8.46258 20.0303 8.60324C19.8897 8.74389 19.6989 8.82291 19.5 8.82291C19.3011 8.82291 19.1103 8.74389 18.9697 8.60324C18.829 8.46258 18.75 8.27182 18.75 8.07291V5.25C18.75 5.12216 18.7173 4.99644 18.6551 4.88478C18.5928 4.77312 18.503 4.67923 18.3943 4.61202C18.2855 4.54482 18.1614 4.50652 18.0337 4.50078C17.906 4.49504 17.7789 4.52204 17.6646 4.57922L16.8435 4.98975C16.0623 5.37702 15.4052 5.97545 14.9468 6.71715C14.4884 7.45886 14.247 8.31417 14.25 9.18609C14.2521 10.2009 14.5812 11.188 15.1883 12.0011L16.5 13.75V15.75H15C15 15.5511 14.921 15.3603 14.7803 15.2197C14.6397 15.079 14.4489 15 14.25 15H9.75C9.58664 15.0001 9.42779 15.0536 9.29759 15.1523C9.1674 15.2509 9.07298 15.3894 9.02869 15.5467L6.93188 15.0224L6.93263 15.0233C6.87294 15.0081 6.8116 15.0002 6.75 15H3.75C3.55109 15 3.36032 15.079 3.21967 15.2197C3.07902 15.3603 3 15.5511 3 15.75V20.25C3 20.4489 3.07902 20.6397 3.21967 20.7803C3.36032 20.921 3.55109 21 3.75 21C3.75 21 6.72188 20.998 6.75 20.9948C6.75713 20.9941 9.02869 20.4533 9.02869 20.4533C9.07298 20.6106 9.1674 20.7491 9.29759 20.8477C9.42779 20.9464 9.58664 20.9999 9.75 21V27H4.5C4.30109 27 4.11032 27.079 3.96967 27.2197C3.82902 27.3603 3.75 27.5511 3.75 27.75V45.75C3.75 45.9489 3.82902 46.1397 3.96967 46.2803C4.11032 46.421 4.30109 46.5 4.5 46.5H43.5C43.6989 46.5 43.8897 46.421 44.0303 46.2803C44.171 46.1397 44.25 45.9489 44.25 45.75V40.5399C44.25 40.5276 44.2488 40.5157 44.2481 40.5035C44.7457 39.3147 45.0013 38.0387 45 36.75ZM27 36.75C27 35.1183 27.4839 33.5233 28.3904 32.1665C29.2969 30.8098 30.5854 29.7524 32.0929 29.128C33.6004 28.5036 35.2592 28.3402 36.8595 28.6585C38.4598 28.9768 39.9299 29.7626 41.0836 30.9164C42.2374 32.0702 43.0232 33.5402 43.3415 35.1405C43.6598 36.7408 43.4964 38.3996 42.872 39.9071C42.2476 41.4146 41.1902 42.7031 39.8335 43.6096C38.4767 44.5161 36.8817 45 35.25 45C33.0627 44.9975 30.9657 44.1275 29.4191 42.5809C27.8725 41.0343 27.0025 38.9373 27 36.75ZM5.25 34.5H25.7625C25.4125 35.9796 25.4125 37.5204 25.7625 39H5.25V34.5ZM42.75 30.5272C42.0912 29.7345 41.3117 29.0504 40.4403 28.5H42.75V30.5272ZM39.1644 6L39.5394 7.5H36.9606L37.3356 6H39.1644ZM37.4615 10.2628L37.0406 9H39.4594L39.0384 10.2628C39.013 10.3393 39 10.4194 39 10.5V19.5H37.5V10.5C37.5 10.4194 37.487 10.3393 37.4615 10.2628ZM36 21H40.5C40.6989 21 40.8897 21.079 41.0303 21.2197C41.171 21.3603 41.25 21.5511 41.25 21.75C41.25 21.9489 41.171 22.1397 41.0303 22.2803C40.8897 22.421 40.6989 22.5 40.5 22.5H36C35.8011 22.5 35.6103 22.421 35.4697 22.2803C35.329 22.1397 35.25 21.9489 35.25 21.75C35.25 21.5511 35.329 21.3603 35.4697 21.2197C35.6103 21.079 35.8011 21 36 21ZM36.75 24H39.75V27H36.75V24ZM27.3756 19.7473C27.2358 19.6664 27.1014 19.5765 26.9731 19.4784C26.4663 19.0912 26.0666 18.581 25.812 17.9962C25.5573 17.4115 25.4559 16.7714 25.5175 16.1365C25.5792 15.5017 25.8017 14.893 26.1641 14.3682C26.5265 13.8433 27.0168 13.4195 27.5886 13.1369C28.1604 12.8543 28.7949 12.7223 29.4319 12.7532C30.069 12.7842 30.6877 12.9771 31.2294 13.3138C31.7712 13.6505 32.2181 14.1198 32.5279 14.6773C32.8377 15.2348 33.0002 15.8622 33 16.5C32.9984 17.158 32.8244 17.8041 32.4953 18.3739C32.1662 18.9436 31.6935 19.4172 31.1243 19.7474C31.0105 19.8133 30.916 19.9079 30.8503 20.0218C30.7846 20.1357 30.75 20.2649 30.75 20.3964V27H27.75V20.3964C27.75 20.2649 27.7154 20.1357 27.6497 20.0218C27.5839 19.9078 27.4894 19.8132 27.3756 19.7473ZM15 20.25H15.3231C15.6265 20.6934 16.0296 21.0596 16.5 21.3192V27H15V20.25ZM16.3883 11.1011C15.9753 10.548 15.7514 9.87645 15.75 9.18609C15.7481 8.64436 15.885 8.11116 16.1475 7.63731C16.4101 7.16346 16.7897 6.76474 17.25 6.47916V8.07291C17.25 8.66964 17.4871 9.24194 17.909 9.6639C18.331 10.0859 18.9033 10.3229 19.5 10.3229C20.0967 10.3229 20.669 10.0859 21.091 9.6639C21.5129 9.24194 21.75 8.66964 21.75 8.07291V6.47916C22.2104 6.76474 22.5899 7.16346 22.8525 7.63731C23.115 8.11116 23.2519 8.64436 23.25 9.18609C23.2486 9.87645 23.0247 10.548 22.6117 11.1011L21.15 13.05C21.0526 13.1798 21 13.3377 21 13.5V27H18V21.7446C18.0588 21.7476 18.1177 21.75 18.1771 21.75H19.5C19.6278 21.75 19.7536 21.7173 19.8652 21.6551C19.9769 21.5928 20.0708 21.503 20.138 21.3943C20.2052 21.2855 20.2435 21.1614 20.2492 21.0337C20.255 20.906 20.228 20.7789 20.1708 20.6646L18 16.3229V13.5C18 13.3377 17.9473 13.1798 17.85 13.05L16.3883 11.1011ZM16.7865 17.25L18.2865 20.25H18.1771C17.8122 20.2512 17.4542 20.1502 17.1438 19.9583C16.8334 19.7665 16.5829 19.4915 16.4208 19.1646C16.3585 19.04 16.2627 18.9352 16.1443 18.862C16.0258 18.7888 15.8893 18.75 15.75 18.75H15V17.25H16.7865ZM10.5 16.5H13.5V19.5H10.5V16.5ZM7.5 16.7106L9 17.0856V18.9144L7.5 19.2894V16.7106ZM6 19.5H4.5V16.5H6V19.5ZM11.25 21H13.5V27H11.25V21ZM5.25 28.5H30.0597C28.3586 29.5739 27.0288 31.1449 26.2505 33H5.25V28.5ZM5.25 40.5H26.2505C27.0288 42.3551 28.3586 43.9261 30.0597 45H5.25V40.5ZM42.75 45H40.4403C41.3117 44.4496 42.0912 43.7655 42.75 42.9728V45Z" fill="#181818"/>
<path d="M40.4936 35.1567C40.4896 35.1257 40.4837 35.095 40.476 35.0647C40.4745 35.0587 40.4731 35.0527 40.4714 35.0467C40.4622 35.0138 40.4508 34.9815 40.4373 34.9501C40.4359 34.9471 40.4343 34.9441 40.4329 34.9407C40.4198 34.9119 40.4049 34.884 40.3883 34.8572C40.3851 34.852 40.3822 34.8468 40.3789 34.8416C40.3607 34.8136 40.3406 34.7868 40.3189 34.7615C40.3144 34.7563 40.3095 34.7514 40.3049 34.7463C40.2826 34.7215 40.2587 34.6982 40.2334 34.6765C40.2323 34.6756 40.2314 34.6744 40.2303 34.6734L40.2276 34.6712H40.2269L35.7303 30.9239C35.5955 30.8115 35.4256 30.75 35.2501 30.75C35.0746 30.75 34.9047 30.8115 34.7699 30.9239L30.2733 34.6712H30.2726L30.2699 34.6734C30.2688 34.6744 30.2679 34.6756 30.2668 34.6765C30.2415 34.6982 30.2176 34.7215 30.1953 34.7463C30.1906 34.7514 30.1859 34.7563 30.1813 34.7615C30.1595 34.7868 30.1395 34.8136 30.1213 34.8416C30.1179 34.8468 30.115 34.852 30.1119 34.8572C30.0953 34.884 30.0804 34.9119 30.0673 34.9407C30.0659 34.9437 30.0643 34.9467 30.0629 34.9501C30.0493 34.9815 30.0379 35.0138 30.0288 35.0467C30.0271 35.0527 30.0257 35.0587 30.0242 35.0647C30.0164 35.095 30.0106 35.1257 30.0066 35.1567C30.0066 35.1604 30.0053 35.1641 30.0049 35.1679C30.0018 35.1952 30.0002 35.2226 30 35.25V41.25C30 41.4489 30.079 41.6396 30.2197 41.7803C30.3603 41.921 30.5511 42 30.75 42H39.75C39.9489 42 40.1397 41.921 40.2803 41.7803C40.421 41.6396 40.5 41.4489 40.5 41.25V35.25C40.4999 35.2226 40.4983 35.1952 40.4953 35.1679C40.4948 35.1641 40.4941 35.1604 40.4936 35.1567ZM35.25 32.4763L37.6781 34.5H32.8219L35.25 32.4763ZM34.5 40.5V39H36V40.5H34.5ZM39 40.5H37.5V38.25C37.5 38.0511 37.421 37.8603 37.2803 37.7196C37.1397 37.579 36.9489 37.5 36.75 37.5H33.75C33.5511 37.5 33.3603 37.579 33.2197 37.7196C33.079 37.8603 33 38.0511 33 38.25V40.5H31.5V36H39V40.5Z" fill="#6100FF"/>
<path d="M28.4116 18.7026H30.0886C30.2202 18.7026 30.3496 18.668 30.4636 18.6021C30.5776 18.5363 30.6723 18.4416 30.7382 18.3276L31.5767 16.8752C31.6425 16.7612 31.6771 16.6319 31.6771 16.5002C31.6771 16.3686 31.6425 16.2392 31.5767 16.1252L30.7382 14.6729C30.6723 14.5588 30.5776 14.4641 30.4636 14.3983C30.3496 14.3325 30.2202 14.2978 30.0886 14.2979H28.4116C28.2799 14.2978 28.1506 14.3325 28.0365 14.3983C27.9225 14.4641 27.8278 14.5588 27.762 14.6729L26.9235 16.1252C26.8577 16.2392 26.823 16.3686 26.823 16.5002C26.823 16.6319 26.8577 16.7612 26.9235 16.8752L27.762 18.3276C27.8278 18.4416 27.9225 18.5363 28.0365 18.6021C28.1506 18.668 28.2799 18.7026 28.4116 18.7026ZM28.8445 15.7979H29.6556L30.0611 16.5002L29.6556 17.2026H28.8445L28.439 16.5002L28.8445 15.7979Z" fill="#181818"/>
</svg>
