<svg width="48" height="48" viewBox="0 0 48 48" fill="none" xmlns="http://www.w3.org/2000/svg">
<path d="M37.25 27.75C37.4489 27.75 37.6397 27.671 37.7803 27.5303C37.921 27.3897 38 27.1989 38 27V26.25C38 26.0511 37.921 25.8603 37.7803 25.7197C37.6397 25.579 37.4489 25.5 37.25 25.5C37.0511 25.5 36.8603 25.579 36.7197 25.7197C36.579 25.8603 36.5 26.0511 36.5 26.25V27C36.5 27.1989 36.579 27.3897 36.7197 27.5303C36.8603 27.671 37.0511 27.75 37.25 27.75Z" fill="#181818"/>
<path d="M34.25 27.75C34.4489 27.75 34.6397 27.671 34.7803 27.5303C34.921 27.3897 35 27.1989 35 27V26.25C35 26.0511 34.921 25.8603 34.7803 25.7197C34.6397 25.579 34.4489 25.5 34.25 25.5C34.0511 25.5 33.8603 25.579 33.7197 25.7197C33.579 25.8603 33.5 26.0511 33.5 26.25V27C33.5 27.1989 33.579 27.3897 33.7197 27.5303C33.8603 27.671 34.0511 27.75 34.25 27.75Z" fill="#181818"/>
<path d="M36.7198 29.4698C36.4624 29.7266 36.1136 29.8707 35.7501 29.8707C35.3865 29.8707 35.0377 29.7266 34.7803 29.4698C34.6389 29.3332 34.4494 29.2576 34.2528 29.2593C34.0561 29.261 33.868 29.3399 33.7289 29.4789C33.5899 29.618 33.511 29.8061 33.5093 30.0028C33.5076 30.1994 33.5832 30.3889 33.7198 30.5303C34.2585 31.0683 34.9887 31.3704 35.7501 31.3704C36.5114 31.3704 37.2416 31.0683 37.7803 30.5303C37.9169 30.3889 37.9925 30.1994 37.9908 30.0028C37.9891 29.8061 37.9102 29.618 37.7712 29.4789C37.6321 29.3399 37.444 29.261 37.2474 29.2593C37.0507 29.2576 36.8613 29.3332 36.7198 29.4698Z" fill="#181818"/>
<path d="M41.7499 35.25H39.4999C39.301 35.25 39.1103 35.171 38.9696 35.0303C38.829 34.8897 38.7499 34.6989 38.7499 34.5V33.555C39.4436 33.0713 40.0102 32.4274 40.4019 31.6779C40.7936 30.9285 40.9988 30.0956 40.9999 29.25C41.5961 29.2482 42.1674 29.0106 42.589 28.589C43.0105 28.1675 43.2482 27.5962 43.2499 27V26.25C43.2489 25.9354 43.1816 25.6245 43.0524 25.3376C42.9231 25.0507 42.7349 24.7943 42.4999 24.585V21C42.4999 20.0054 42.1049 19.0516 41.4016 18.3484C40.6983 17.6451 39.7445 17.25 38.7499 17.25V16.08L39.9274 16.71C40.3209 16.9739 40.779 17.1253 41.2522 17.1477C41.7254 17.1702 42.1958 17.0629 42.6124 16.8375C43.0188 16.6193 43.3606 16.2981 43.6038 15.9062C43.847 15.5143 43.983 15.0654 43.9982 14.6044C44.0134 14.1435 43.9073 13.6866 43.6904 13.2795C43.4735 12.8725 43.1535 12.5295 42.7624 12.285L23.3599 1.59C23.2491 1.53091 23.1255 1.5 22.9999 1.5C22.8744 1.5 22.7507 1.53091 22.6399 1.59L3.18494 12.315C2.80408 12.5662 2.49492 12.9118 2.28769 13.3183C2.08045 13.7247 1.98223 14.178 2.00264 14.6337C2.02305 15.0895 2.16138 15.5321 2.40411 15.9184C2.64684 16.3047 2.98566 16.6214 3.38744 16.8375C3.77561 17.0433 4.20809 17.1514 4.64744 17.1525C5.13268 17.1569 5.60811 17.0158 6.01244 16.7475L7.24994 16.08V31.5H6.11744C5.78048 31.4999 5.44779 31.5754 5.14394 31.7211C4.84008 31.8667 4.57282 32.0787 4.36189 32.3415C4.15095 32.6043 4.00173 32.9111 3.92524 33.2392C3.84874 33.5674 3.84693 33.9085 3.91994 34.2375L6.25994 44.7375C6.36759 45.2378 6.64391 45.686 7.04261 46.0068C7.44131 46.3277 7.93817 46.5018 8.44994 46.5H46.2499C46.4489 46.5 46.6396 46.421 46.7803 46.2803C46.9209 46.1397 46.9999 45.9489 46.9999 45.75V40.5C46.9984 39.1081 46.4447 37.7737 45.4605 36.7894C44.4763 35.8052 43.1418 35.2516 41.7499 35.25ZM39.1399 36.7125C38.717 37.1955 38.1958 37.5825 37.6111 37.8477C37.0265 38.1128 36.3919 38.25 35.7499 38.25C35.108 38.25 34.4734 38.1128 33.8888 37.8477C33.3041 37.5825 32.7829 37.1955 32.3599 36.7125C32.8866 36.6287 33.3661 36.3599 33.7125 35.9544C34.0589 35.5489 34.2494 35.0333 34.2499 34.5V34.2825C35.2289 34.5725 36.271 34.5725 37.2499 34.2825V34.5C37.2505 35.0333 37.441 35.5489 37.7874 35.9544C38.1337 36.3599 38.6133 36.6287 39.1399 36.7125ZM39.4999 29.25C39.4999 30.2446 39.1049 31.1984 38.4016 31.9016C37.6983 32.6049 36.7445 33 35.7499 33C34.7554 33 33.8016 32.6049 33.0983 31.9016C32.395 31.1984 31.9999 30.2446 31.9999 29.25L32.0599 24C32.6512 23.9987 33.234 23.86 33.7624 23.595L34.2499 23.34L34.6849 23.5725C35.2229 23.8508 35.8193 23.9973 36.4249 24H39.4999V29.25ZM41.7499 26.25V27C41.7499 27.1989 41.6709 27.3897 41.5303 27.5303C41.3896 27.671 41.1989 27.75 40.9999 27.75V25.5C41.1989 25.5 41.3896 25.579 41.5303 25.7197C41.6709 25.8603 41.7499 26.0511 41.7499 26.25ZM40.9999 21V24C40.9988 23.6025 40.8403 23.2217 40.5593 22.9407C40.2782 22.6596 39.8974 22.5012 39.4999 22.5H36.4249C36.0622 22.4984 35.705 22.411 35.3824 22.245L34.6024 21.8325C34.4958 21.7773 34.3775 21.7484 34.2574 21.7484C34.1374 21.7484 34.0191 21.7773 33.9124 21.8325L33.0799 22.2525C32.7459 22.4229 32.3749 22.5079 31.9999 22.5C31.6025 22.5012 31.2216 22.6596 30.9406 22.9407C30.6595 23.2217 30.5011 23.6025 30.4999 24V21C30.5011 20.6025 30.6595 20.2217 30.9406 19.9407C31.2216 19.6596 31.6025 19.5012 31.9999 19.5H32.7499C32.9489 19.5 33.1396 19.579 33.2803 19.7197C33.4209 19.8603 33.4999 20.0511 33.4999 20.25C33.4999 20.4489 33.579 20.6397 33.7196 20.7803C33.8603 20.921 34.051 21 34.2499 21C34.4489 21 34.6396 20.921 34.7803 20.7803C34.9209 20.6397 34.9999 20.4489 34.9999 20.25V19.5C34.9999 19.3011 35.079 19.1103 35.2196 18.9697C35.3603 18.829 35.551 18.75 35.7499 18.75H38.7499C39.3461 18.7518 39.9174 18.9894 40.339 19.411C40.7605 19.8325 40.9982 20.4038 40.9999 21ZM5.24744 15.465C5.0774 15.578 4.87983 15.6425 4.67589 15.6518C4.47196 15.661 4.26935 15.6146 4.08978 15.5175C3.91021 15.4204 3.76045 15.2763 3.65654 15.1005C3.55264 14.9248 3.4985 14.7241 3.49994 14.52C3.49729 14.342 3.53746 14.1659 3.61708 14.0067C3.6967 13.8475 3.81344 13.7097 3.95744 13.605L22.9999 3.105L41.9899 13.575C42.1535 13.6827 42.2864 13.8309 42.3756 14.0052C42.4648 14.1795 42.5073 14.374 42.499 14.5696C42.4907 14.7653 42.4318 14.9554 42.3282 15.1215C42.2245 15.2877 42.0795 15.4241 41.9074 15.5175C41.7161 15.615 41.5016 15.6582 41.2874 15.6424C41.0731 15.6265 40.8674 15.5522 40.6924 15.4275L23.3524 6.09C23.2443 6.03092 23.1231 5.99996 22.9999 5.99996C22.8768 5.99996 22.7555 6.03092 22.6474 6.09L5.24744 15.465ZM8.44994 45C8.27987 45.0011 8.11462 44.9436 7.98208 44.837C7.84954 44.7304 7.75784 44.5814 7.72244 44.415L5.38994 33.915C5.36408 33.8049 5.36346 33.6903 5.38814 33.5799C5.41282 33.4695 5.46215 33.3661 5.53244 33.2775C5.6038 33.1914 5.69314 33.1219 5.7942 33.0739C5.89526 33.026 6.00559 33.0008 6.11744 33H22.5499C22.72 32.9989 22.8853 33.0564 23.0178 33.163C23.1503 33.2696 23.2421 33.4186 23.2774 33.585L25.8124 45H8.44994ZM25.6324 37.275L24.7399 33.2625C24.6323 32.7622 24.356 32.314 23.9573 31.9932C23.5586 31.6723 23.0617 31.4982 22.5499 31.5H8.74994V15.6375C8.74824 15.5259 8.72267 15.4159 8.67494 15.315L22.9999 7.605L37.2499 15.27V17.25H35.7499C35.3715 17.2502 34.9992 17.3458 34.6676 17.528C34.3359 17.7102 34.0555 17.9732 33.8524 18.2925C33.517 18.0998 33.1368 17.9989 32.7499 18H31.9999C31.2043 18 30.4412 18.3161 29.8786 18.8787C29.316 19.4413 28.9999 20.2044 28.9999 21V24.585C28.765 24.7943 28.5768 25.0507 28.4475 25.3376C28.3183 25.6245 28.251 25.9354 28.2499 26.25V27C28.2517 27.5962 28.4893 28.1675 28.9109 28.589C29.3325 29.0106 29.9038 29.2482 30.4999 29.25C30.5011 30.0956 30.7063 30.9285 31.098 31.6779C31.4897 32.4274 32.0563 33.0713 32.7499 33.555V34.5C32.7499 34.6989 32.6709 34.8897 32.5303 35.0303C32.3896 35.171 32.1989 35.25 31.9999 35.25H29.7499C28.9555 35.2561 28.1727 35.4413 27.4598 35.7919C26.7468 36.1425 26.1222 36.6495 25.6324 37.275ZM30.4999 25.5V27.75C30.301 27.75 30.1103 27.671 29.9696 27.5303C29.829 27.3897 29.7499 27.1989 29.7499 27V26.25C29.7499 26.0511 29.829 25.8603 29.9696 25.7197C30.1103 25.579 30.301 25.5 30.4999 25.5ZM33.4999 45H27.3499L27.0199 43.5H34.9999C34.9988 43.8975 34.8403 44.2783 34.5593 44.5593C34.2782 44.8404 33.8974 44.9988 33.4999 45ZM45.4999 45H42.4999V41.25C42.4999 41.0511 42.4209 40.8603 42.2803 40.7197C42.1396 40.579 41.9489 40.5 41.7499 40.5C41.551 40.5 41.3603 40.579 41.2196 40.7197C41.079 40.8603 40.9999 41.0511 40.9999 41.25V45H36.0799C36.3527 44.5471 36.4979 44.0287 36.4999 43.5V42.75C36.4999 42.5511 36.4209 42.3603 36.2803 42.2197C36.1396 42.079 35.9489 42 35.7499 42H26.6824L26.1349 39.5325C26.35 38.737 26.82 38.034 27.473 37.5314C28.126 37.0288 28.9259 36.7543 29.7499 36.75H30.5749C31.0969 37.6616 31.8503 38.4191 32.7591 38.9459C33.6678 39.4727 34.6995 39.7502 35.7499 39.7502C36.8003 39.7502 37.8321 39.4727 38.7408 38.9459C39.6496 38.4191 40.403 37.6616 40.9249 36.75H41.7499C42.7445 36.75 43.6983 37.1451 44.4016 37.8484C45.1049 38.5516 45.4999 39.5054 45.4999 40.5V45Z" fill="#181818"/>
<path d="M15.5 41.25C15.055 41.25 14.62 41.118 14.25 40.8708C13.88 40.6236 13.5916 40.2722 13.4213 39.861C13.251 39.4499 13.2064 38.9975 13.2932 38.5611C13.3801 38.1246 13.5943 37.7237 13.909 37.409C14.2237 37.0943 14.6246 36.8801 15.061 36.7932C15.4975 36.7064 15.9499 36.751 16.361 36.9213C16.7722 37.0916 17.1236 37.38 17.3708 37.75C17.618 38.12 17.75 38.555 17.75 39C17.75 39.5967 17.5129 40.169 17.091 40.591C16.669 41.013 16.0967 41.25 15.5 41.25ZM15.5 38.25C15.3517 38.25 15.2067 38.294 15.0833 38.3764C14.96 38.4588 14.8639 38.5759 14.8071 38.713C14.7503 38.85 14.7355 39.0008 14.7644 39.1463C14.7934 39.2918 14.8648 39.4254 14.9697 39.5303C15.0746 39.6352 15.2082 39.7067 15.3537 39.7356C15.4992 39.7645 15.65 39.7497 15.787 39.6929C15.9241 39.6361 16.0412 39.54 16.1236 39.4167C16.206 39.2933 16.25 39.1483 16.25 39C16.25 38.8011 16.171 38.6103 16.0303 38.4697C15.8897 38.329 15.6989 38.25 15.5 38.25Z" fill="#181818"/>
<path d="M12.5 27H16.7352L20.2603 29.8342C20.3927 29.9409 20.5575 29.9993 20.7275 30C20.9254 30 21.1152 29.9218 21.2557 29.7825C21.3962 29.6431 21.4759 29.4539 21.4775 29.256L21.494 27H24.5C25.0967 27 25.669 26.7629 26.091 26.341C26.5129 25.919 26.75 25.3467 26.75 24.75V17.25C26.75 16.6533 26.5129 16.081 26.091 15.659C25.669 15.2371 25.0967 15 24.5 15H12.5C11.9033 15 11.331 15.2371 10.909 15.659C10.4871 16.081 10.25 16.6533 10.25 17.25V24.75C10.25 25.3467 10.4871 25.919 10.909 26.341C11.331 26.7629 11.9033 27 12.5 27ZM11.75 17.25C11.75 17.0511 11.829 16.8603 11.9697 16.7197C12.1103 16.579 12.3011 16.5 12.5 16.5H24.5C24.6989 16.5 24.8897 16.579 25.0303 16.7197C25.171 16.8603 25.25 17.0511 25.25 17.25V24.75C25.25 24.9489 25.171 25.1397 25.0303 25.2803C24.8897 25.421 24.6989 25.5 24.5 25.5H20.75C20.5521 25.5 20.3623 25.5782 20.2218 25.7175C20.0813 25.8569 20.0016 26.0461 20 26.244L19.9888 27.693L17.4703 25.668C17.3373 25.5599 17.1713 25.5006 17 25.5H12.5C12.3011 25.5 12.1103 25.421 11.9697 25.2803C11.829 25.1397 11.75 24.9489 11.75 24.75V17.25Z" fill="#6100FF"/>
<path d="M14 19.5H14.75C14.9489 19.5 15.1397 19.421 15.2803 19.2803C15.421 19.1397 15.5 18.9489 15.5 18.75C15.5 18.5511 15.421 18.3603 15.2803 18.2197C15.1397 18.079 14.9489 18 14.75 18H14C13.8011 18 13.6103 18.079 13.4697 18.2197C13.329 18.3603 13.25 18.5511 13.25 18.75C13.25 18.9489 13.329 19.1397 13.4697 19.2803C13.6103 19.421 13.8011 19.5 14 19.5Z" fill="#6100FF"/>
<path d="M17 19.5H23C23.1989 19.5 23.3897 19.421 23.5303 19.2803C23.671 19.1397 23.75 18.9489 23.75 18.75C23.75 18.5511 23.671 18.3603 23.5303 18.2197C23.3897 18.079 23.1989 18 23 18H17C16.8011 18 16.6103 18.079 16.4697 18.2197C16.329 18.3603 16.25 18.5511 16.25 18.75C16.25 18.9489 16.329 19.1397 16.4697 19.2803C16.6103 19.421 16.8011 19.5 17 19.5Z" fill="#6100FF"/>
<path d="M17 21.75H23C23.1989 21.75 23.3897 21.671 23.5303 21.5303C23.671 21.3897 23.75 21.1989 23.75 21C23.75 20.8011 23.671 20.6103 23.5303 20.4697C23.3897 20.329 23.1989 20.25 23 20.25H17C16.8011 20.25 16.6103 20.329 16.4697 20.4697C16.329 20.6103 16.25 20.8011 16.25 21C16.25 21.1989 16.329 21.3897 16.4697 21.5303C16.6103 21.671 16.8011 21.75 17 21.75Z" fill="#6100FF"/>
<path d="M14 21.75H14.75C14.9489 21.75 15.1397 21.671 15.2803 21.5303C15.421 21.3897 15.5 21.1989 15.5 21C15.5 20.8011 15.421 20.6103 15.2803 20.4697C15.1397 20.329 14.9489 20.25 14.75 20.25H14C13.8011 20.25 13.6103 20.329 13.4697 20.4697C13.329 20.6103 13.25 20.8011 13.25 21C13.25 21.1989 13.329 21.3897 13.4697 21.5303C13.6103 21.671 13.8011 21.75 14 21.75Z" fill="#6100FF"/>
<path d="M14 24H14.75C14.9489 24 15.1397 23.921 15.2803 23.7803C15.421 23.6397 15.5 23.4489 15.5 23.25C15.5 23.0511 15.421 22.8603 15.2803 22.7197C15.1397 22.579 14.9489 22.5 14.75 22.5H14C13.8011 22.5 13.6103 22.579 13.4697 22.7197C13.329 22.8603 13.25 23.0511 13.25 23.25C13.25 23.4489 13.329 23.6397 13.4697 23.7803C13.6103 23.921 13.8011 24 14 24Z" fill="#6100FF"/>
<path d="M17 24H23C23.1989 24 23.3897 23.921 23.5303 23.7803C23.671 23.6397 23.75 23.4489 23.75 23.25C23.75 23.0511 23.671 22.8603 23.5303 22.7197C23.3897 22.579 23.1989 22.5 23 22.5H17C16.8011 22.5 16.6103 22.579 16.4697 22.7197C16.329 22.8603 16.25 23.0511 16.25 23.25C16.25 23.4489 16.329 23.6397 16.4697 23.7803C16.6103 23.921 16.8011 24 17 24Z" fill="#6100FF"/>
</svg>
