<svg width="48" height="48" viewBox="0 0 48 48" fill="none" xmlns="http://www.w3.org/2000/svg">
<path d="M47.1999 43.2001H44.7999V28.0001C44.7996 27.5583 44.4411 27.2004 43.9993 27.2007C43.7386 27.2009 43.4943 27.3281 43.3447 27.5417L32.1447 43.5417C31.8915 43.9038 31.9798 44.4026 32.3419 44.6557C32.4762 44.7496 32.636 44.8 32.7999 44.8001H43.1999V47.2001C43.1999 47.6419 43.5581 48.0001 43.9999 48.0001C44.4417 48.0001 44.7999 47.6419 44.7999 47.2001V44.8001H47.1999C47.6417 44.8001 47.9999 44.4419 47.9999 44.0001C47.9999 43.5583 47.6417 43.2001 47.1999 43.2001ZM43.1999 43.2001H34.3359L43.1999 30.5377V43.2001Z" fill="#6100FF"/>
<path d="M32.8 46.4001H23.3288L32.1344 36.0313C32.1544 36.0075 32.1731 35.9827 32.1904 35.9569C33.847 33.5051 33.2952 30.1856 30.9344 28.4017C28.0639 26.3392 24.0649 26.9943 22.0025 29.8648C21.2204 30.9533 20.7998 32.2598 20.8 33.6001C20.8 34.0419 21.1582 34.4001 21.6 34.4001C22.0418 34.4001 22.4 34.0419 22.4 33.6001C22.3997 30.9491 24.5486 28.7999 27.1995 28.7996C28.2043 28.7995 29.1838 29.1147 30 29.7009C31.6537 30.968 32.0388 33.3016 30.88 35.0329L20.9904 46.6825C20.7045 47.0194 20.7459 47.5242 21.0828 47.8101C21.2273 47.9327 21.4105 48 21.6 48.0001H32.8C33.2418 48.0001 33.6 47.6419 33.6 47.2001C33.6 46.7583 33.2418 46.4001 32.8 46.4001Z" fill="#6100FF"/>
<path d="M21.6176 42.4152C21.6343 41.9737 21.2898 41.6023 20.8483 41.5856C20.8482 41.5856 20.8481 41.5856 20.848 41.5856C10.411 41.1982 2.0341 32.8363 1.628 22.4H4.8C5.2418 22.4 5.6 22.0418 5.6 21.6C5.6 21.1582 5.2418 20.8 4.8 20.8H1.628C2.0283 10.3821 10.382 2.0287 20.8 1.6288V4C20.8 4.4418 21.1582 4.8 21.6 4.8C22.0418 4.8 22.4 4.4418 22.4 4V1.6288C32.6754 2.0262 40.9686 10.1628 41.5616 20.4288L38.4416 17.3088C38.1238 17.0018 37.6174 17.0106 37.3104 17.3284C37.011 17.6384 37.011 18.1299 37.3104 18.44L41.776 22.9056C41.8601 23.0074 41.9685 23.0863 42.0912 23.1352C42.1225 23.1446 42.1543 23.1524 42.1864 23.1584C42.2413 23.1782 42.2981 23.1919 42.356 23.1992C42.364 23.1992 42.3712 23.1992 42.3792 23.1992C42.3872 23.1992 42.3944 23.1992 42.4016 23.1992C42.4625 23.1946 42.5227 23.1828 42.5808 23.164C42.6137 23.16 42.6463 23.1539 42.6784 23.1456C42.7867 23.1071 42.8853 23.0454 42.9672 22.9648L47.4936 18.44C47.8005 18.1222 47.7918 17.6158 47.474 17.3088C47.164 17.0094 46.6725 17.0094 46.3624 17.3088L43.1648 20.504C42.5933 9.037 33.138 0.0281 21.6568 0.0112C21.6368 0.0104 21.62 0 21.6 0C21.58 0 21.5632 0.0104 21.5432 0.0112C9.6582 0.0275 0.0275 9.6582 0.0112 21.5432C0.0112 21.5632 0 21.58 0 21.6C0 21.62 0.0104 21.6368 0.0112 21.6568C0.0311 33.2485 9.2051 42.7538 20.7888 43.1848H20.8184C21.2483 43.1847 21.6013 42.8448 21.6176 42.4152Z" fill="#181818"/>
<path d="M32.348 10.8519C32.0356 10.5396 31.5292 10.5396 31.2168 10.8519L22.62 19.4479C21.9705 19.1583 21.2286 19.1583 20.5792 19.4479L16.5088 15.3775C16.191 15.0706 15.6845 15.0794 15.3776 15.3972C15.0782 15.7072 15.0782 16.1987 15.3776 16.5087L19.44 20.5711C18.8696 21.7651 19.3752 23.1955 20.5693 23.7658C21.4858 24.2036 22.5788 24.0159 23.2968 23.2975C24.0187 22.5817 24.2046 21.4857 23.7592 20.5719L32.348 11.9831C32.6603 11.6707 32.6603 11.1643 32.348 10.8519ZM22.1658 22.1653C22.1657 22.1654 22.1657 22.1654 22.1656 22.1655C21.8492 22.468 21.3508 22.468 21.0344 22.1655C20.7219 21.8531 20.7219 21.3466 21.0342 21.0341C21.3466 20.7216 21.8531 20.7216 22.1656 21.0339C22.4781 21.3463 22.4781 21.8529 22.1658 22.1653Z" fill="#181818"/>
</svg>
