<svg width="48" height="48" viewBox="0 0 48 48" fill="none" xmlns="http://www.w3.org/2000/svg">
<path d="M42.0736 15.6896H38.6136V8.88066C38.6136 7.71469 38.1499 6.62794 37.3911 5.83341L35.1553 3.49397C33.258 1.53909 33.0186 0.986812 31.8885 0.438281C31.3635 0.17625 30.6718 0 29.9743 0H13.6438C11.211 0 9.23263 1.97934 9.23263 4.41112V28.1991H8.30235C6.89891 28.1991 5.7575 29.3405 5.7575 30.7439C5.7575 31.4423 6.04025 32.0748 6.49644 32.5347C6.04025 32.9947 5.7575 33.6271 5.7575 34.3255C5.7575 34.5876 5.79425 34.7431 5.80747 34.8289C0.285035 35.3906 -1.9149 42.2259 2.12675 45.9358C3.34738 47.0565 4.96757 47.6917 6.72444 47.6201C7.30504 47.6201 19.2583 47.6154 19.2734 47.6154C20.6759 47.6154 21.8183 46.474 21.8183 45.0706C21.8183 44.3722 21.5355 43.7397 21.0793 43.2798C21.5083 42.8471 21.7834 42.2637 21.8145 41.6152H22.7694V42.1252C22.7694 45.3647 25.4047 48 28.6442 48H42.0736C45.3132 48 47.9485 45.3647 47.9485 42.1252V21.5645C47.9486 18.3249 45.3132 15.6896 42.0736 15.6896ZM36.0706 6.63553C36.0706 6.63553 36.0716 6.63553 36.0725 6.63741C36.0734 6.63741 36.0734 6.63741 36.0734 6.63741C36.0744 6.63928 36.0763 6.64116 36.0772 6.64209L36.0781 6.64303C36.08 6.64584 36.0819 6.64772 36.0838 6.64866C36.0847 6.64959 36.0856 6.65053 36.0866 6.65241C36.0875 6.65334 36.0884 6.65334 36.0884 6.65428C36.0894 6.65522 36.0903 6.65522 36.0913 6.65709C36.0931 6.65803 36.0941 6.65991 36.095 6.66084H32.3163V2.66644C35.278 5.79666 35.9453 6.50259 36.0706 6.63553ZM8.30235 29.7071H19.2735C19.8448 29.7071 20.3103 30.1728 20.3103 30.7439C20.3103 31.3161 19.8447 31.7807 19.2735 31.7807H8.30235C7.73113 31.7807 7.26557 31.3161 7.26557 30.7439C7.26547 30.1727 7.73113 29.7071 8.30235 29.7071ZM8.30235 33.2887H19.2735C19.8448 33.2887 20.3103 33.7544 20.3103 34.3255C20.3103 34.8977 19.8447 35.3623 19.2735 35.3623H11.6954C11.3872 35.2209 11.0677 35.1059 10.7406 35.0173C10.2523 34.8844 9.74713 34.809 9.23254 34.7958C9.0846 34.792 8.93657 34.793 8.78863 34.7995H7.38144C7.307 34.6572 7.26547 34.4961 7.26547 34.3254C7.26547 33.7544 7.73113 33.2887 8.30235 33.2887ZM20.3103 37.9072C20.3103 38.4794 19.8447 38.944 19.2735 38.944H15.0538C14.7673 38.1815 14.3355 37.4793 13.7738 36.8705H19.2735C19.8447 36.8705 20.3103 37.336 20.3103 37.9072ZM4.63391 36.5538C4.17491 36.9893 3.76672 37.5067 3.44629 38.0769H2.56785C3.14188 37.3653 3.85541 36.8591 4.63391 36.5538ZM1.76572 39.4907H2.86382C2.83935 39.5963 2.71485 40.0025 2.65832 40.6208H1.49807C1.54335 40.2325 1.63288 39.8536 1.76572 39.4907ZM1.88732 43.2279C1.72054 42.849 1.60082 42.4485 1.53294 42.0347H2.68475C2.89119 43.2053 2.90244 43.0036 2.95429 43.2279H1.88732ZM2.828 44.6417C3.29075 44.6408 3.55944 44.6436 3.62254 44.6398C3.90435 45.0847 4.24363 45.4966 4.63672 45.867C3.95338 45.5984 3.3455 45.1884 2.828 44.6417ZM9.26179 46.2073C6.503 46.3261 4.16732 44.1893 4.05041 41.4239C3.86094 37.0213 9.11938 34.4858 12.4305 37.5255C15.6947 40.5218 13.7078 46.0244 9.26179 46.2073ZM19.2735 46.1074H13.1876C13.8614 45.5371 14.4148 44.8312 14.8078 44.0338H19.2735C19.8448 44.0338 20.3103 44.4995 20.3103 45.0706C20.3103 45.6427 19.8447 46.1074 19.2735 46.1074ZM20.3019 41.6152C20.2396 42.128 19.8023 42.5257 19.2735 42.5257H15.3281C15.4648 41.8717 15.5034 41.1666 15.4195 40.4522H19.2735C19.9088 40.4521 20.3829 41.0205 20.3019 41.6152ZM22.7694 40.1071H21.4083C21.3132 39.9592 21.2028 39.8225 21.0793 39.6981C22.0643 38.7046 22.0652 37.1098 21.0793 36.1164C21.5355 35.6565 21.8183 35.0241 21.8183 34.3256C21.8183 33.6272 21.5355 32.9948 21.0793 32.5348C22.6647 30.9363 21.5318 28.1992 19.2734 28.1992H10.7406V4.41112C10.7406 2.81072 12.0432 1.50806 13.6437 1.50806H30.8084V7.41497C30.8084 7.83159 31.1458 8.169 31.5624 8.169H37.0159C37.1733 8.77978 37.0762 8.57803 37.1054 15.6895H28.6442C25.4047 15.6895 22.7694 18.3248 22.7694 21.5644V40.1071ZM46.5347 42.1252C46.5347 44.5852 44.5337 46.5863 42.0736 46.5863H28.6443C26.1853 46.5863 24.1832 44.5853 24.1832 42.1252V21.5645C24.1832 19.1045 26.1852 17.1034 28.6443 17.1034H42.0737C44.5337 17.1034 46.5348 19.1044 46.5348 21.5645V42.1252H46.5347Z" fill="#181818"/>
<path d="M42.0238 18.7065H28.6943C27.3836 18.7065 26.321 19.7691 26.321 21.0798V23.6671C26.321 24.9779 27.3836 26.0404 28.6943 26.0404H31.259C31.6493 26.0404 31.9658 25.7239 31.9658 25.3335C31.9658 24.9432 31.6493 24.6267 31.259 24.6267H28.6943C28.1666 24.6267 27.7348 24.1949 27.7348 23.6671V21.0798C27.7348 20.5521 28.1666 20.1203 28.6943 20.1203H42.0238C42.5535 20.1203 42.9833 20.5511 42.9833 21.0798V23.6671C42.9833 24.1959 42.5535 24.6267 42.0238 24.6267H34.3072C33.9169 24.6267 33.6004 24.9432 33.6004 25.3335C33.6004 25.7239 33.9169 26.0404 34.3072 26.0404H42.0238C43.333 26.0404 44.3971 24.9753 44.3971 23.6671V21.0798C44.3971 19.7716 43.3329 18.7065 42.0238 18.7065Z" fill="#181818"/>
<path d="M30.2165 33.6025H27.8008C26.9855 33.6025 26.321 34.2661 26.321 35.0823V37.4971C26.321 38.3134 26.9855 38.9768 27.8008 38.9768H30.2165C31.0328 38.9768 31.6963 38.3133 31.6963 37.4971V35.0823C31.6963 34.2661 31.0327 33.6025 30.2165 33.6025ZM30.2825 37.4971C30.2825 37.5338 30.2523 37.5631 30.2165 37.5631H27.8007C27.7649 37.5631 27.7347 37.5338 27.7347 37.4971V35.0823C27.7347 35.0455 27.7649 35.0163 27.8007 35.0163H30.2165C30.2523 35.0163 30.2825 35.0455 30.2825 35.0823V37.4971Z" fill="#181818"/>
<path d="M42.9937 27.2876H40.5789C39.7626 27.2876 39.0991 27.9512 39.0991 28.7673V31.1822C39.0991 31.9984 39.7627 32.6619 40.5789 32.6619H42.9937C43.81 32.6619 44.4734 31.9983 44.4734 31.1822V28.7673C44.4734 27.9512 43.8099 27.2876 42.9937 27.2876ZM43.0597 31.1822C43.0597 31.2189 43.0304 31.2482 42.9937 31.2482H40.5789C40.5431 31.2482 40.5129 31.2189 40.5129 31.1822C40.5421 28.7928 40.4516 28.7013 40.5789 28.7013H42.9937C43.0304 28.7013 43.0597 28.7306 43.0597 28.7673V31.1822Z" fill="#181818"/>
<path d="M30.2165 27.2876H27.8008C26.9855 27.2876 26.321 27.9512 26.321 28.7673V31.1822C26.321 31.9984 26.9855 32.6619 27.8008 32.6619H30.2165C31.0328 32.6619 31.6963 31.9983 31.6963 31.1822V28.7673C31.6963 27.9512 31.0327 27.2876 30.2165 27.2876ZM30.2825 31.1822C30.2825 31.2189 30.2523 31.2482 30.2165 31.2482H27.8007C27.7649 31.2482 27.7347 31.2189 27.7347 31.1822V28.7673C27.7347 28.7306 27.7649 28.7013 27.8007 28.7013H30.2165C30.2523 28.7013 30.2825 28.7306 30.2825 28.7673V31.1822Z" fill="#181818"/>
<path d="M31.3239 40.107C31.0524 39.8016 30.6565 39.6084 30.2164 39.6084H27.8006C27.3605 39.6084 26.9646 39.8016 26.6941 40.107C26.1804 40.6829 26.3548 41.3106 26.3209 41.615V43.503C26.3209 44.3192 26.9854 44.9827 27.8006 44.9827H30.2164C31.0327 44.9827 31.6961 44.3191 31.6961 43.503V41.615C31.6622 41.3173 31.8347 40.6829 31.3239 40.107ZM30.2164 43.569C27.8299 43.5397 27.7346 43.6303 27.7346 43.503C27.7346 40.9458 27.7063 41.0221 27.8006 41.0221H30.2164C30.3324 41.0221 30.2607 41.1833 30.2824 41.615C30.2823 41.6151 30.3436 43.569 30.2164 43.569Z" fill="#181818"/>
<path d="M42.6183 33.6025H40.9538C39.9312 33.6025 39.0989 34.4348 39.0989 35.4575V42.9573C39.0989 44.0742 40.0075 44.9828 41.1235 44.9828H42.4487C43.5657 44.9828 44.4734 44.0742 44.4734 42.9573V35.4575C44.4733 34.4348 43.642 33.6025 42.6183 33.6025ZM42.4487 43.569H41.1235C40.787 43.569 40.5127 43.2947 40.5127 42.9573V35.4575C40.5127 35.2143 40.7106 35.0164 40.9538 35.0164H42.6183C42.8615 35.0164 43.0594 35.2143 43.0594 35.4575V42.9573C43.0595 43.2947 42.7862 43.569 42.4487 43.569Z" fill="#181818"/>
<path d="M18.248 20.5337C17.3861 20.217 16.7634 19.9883 16.7634 19.1897C16.7634 18.4619 17.2468 18.0929 18.1999 18.0929C19.2118 18.0929 19.4842 18.5384 19.8407 18.5384C20.2286 18.5384 20.4432 18.1267 20.4432 17.842C20.4432 17.253 19.4825 16.961 18.6238 16.8839V16.3529C18.6238 15.9836 18.3233 15.6831 17.9539 15.6831C17.5846 15.6831 17.2841 15.9836 17.2841 16.3529V16.9686C16.1099 17.2474 15.4647 18.0584 15.4647 19.2601C15.4647 20.9054 16.6759 21.3606 17.6494 21.7265C18.6025 22.0846 19.3554 22.3676 19.3554 23.4557C19.3554 24.3545 18.8564 24.8102 17.8719 24.8102C16.4312 24.8102 16.4177 23.8375 15.8681 23.8375C15.5278 23.8375 15.2537 24.2185 15.2537 24.5339C15.2537 25.0909 16.0833 25.8231 17.2841 26.0131V26.5262C17.2841 26.8956 17.5846 27.1961 17.9539 27.1961C18.3233 27.1961 18.6238 26.8956 18.6238 26.5262V25.9994C19.9155 25.7563 20.6542 24.8078 20.6542 23.3853C20.6541 21.4178 19.3201 20.9277 18.248 20.5337Z" fill="#6100FF"/>
<path d="M37.5928 40.0231C37.327 39.7667 36.965 39.6084 36.5673 39.6084H34.1515C33.7114 39.6084 33.3155 39.8016 33.044 40.107C32.5323 40.6838 32.7057 41.3106 32.6718 41.615V43.503C32.6718 44.3192 33.3353 44.9827 34.1515 44.9827H36.5673C37.3826 44.9827 38.0461 44.3191 38.0461 43.503V41.0872C38.0461 40.6697 37.8717 40.2917 37.5928 40.0231ZM36.5673 43.569C34.1808 43.5397 34.0855 43.6303 34.0855 43.503V41.0872C34.0855 41.0514 34.1157 41.0221 34.1515 41.0221H36.5673C36.6031 41.0221 36.6323 41.0514 36.6323 41.0872C36.604 43.4794 36.6926 43.569 36.5673 43.569Z" fill="#181818"/>
<path d="M36.5674 27.2876H34.1516C33.3353 27.2876 32.6719 27.9512 32.6719 28.7673V31.1822C32.6719 31.9984 33.3354 32.6619 34.1516 32.6619H36.5674C36.7578 32.6619 36.9387 32.6261 37.1056 32.5601C37.656 32.3443 38.0463 31.8079 38.0463 31.1821V28.7673C38.0462 27.9483 37.3789 27.2876 36.5674 27.2876ZM36.5674 31.2482H34.1516C34.1158 31.2482 34.0856 31.2189 34.0856 31.1822V28.7673C34.0856 28.6401 34.1733 28.7297 36.5674 28.7013C36.6032 28.7013 36.6324 28.7306 36.6324 28.7673V31.1822C36.6324 31.2189 36.6032 31.2482 36.5674 31.2482Z" fill="#181818"/>
<path d="M37.1056 33.7044C36.9388 33.6384 36.7578 33.6025 36.5674 33.6025H34.1516C33.3353 33.6025 32.6719 34.2661 32.6719 35.0823V37.4971C32.6719 38.3134 33.3354 38.9768 34.1516 38.9768H36.5674C37.3827 38.9768 38.0462 38.3133 38.0462 37.4971V35.0823C38.0462 34.4565 37.656 33.9202 37.1056 33.7044ZM36.6324 37.4971C36.6324 37.5338 36.6032 37.5631 36.5674 37.5631H34.1516C34.1158 37.5631 34.0856 37.5338 34.0856 37.4971V35.0823C34.0856 35.0455 34.1158 35.0163 34.1516 35.0163H36.5674C36.6032 35.0163 36.6324 35.0455 36.6324 35.0823V37.4971Z" fill="#181818"/>
<path d="M32.487 9.66016H30.7113C30.3211 9.66016 30.0044 9.97684 30.0044 10.367C30.0044 10.7582 30.3211 11.0739 30.7113 11.0739H32.487C32.8772 11.0739 33.1939 10.7582 33.1939 10.367C33.194 9.97684 32.8772 9.66016 32.487 9.66016Z" fill="#6100FF"/>
<path d="M27.8835 9.66016H15.3477C14.9576 9.66016 14.6409 9.97684 14.6409 10.367C14.6409 10.7582 14.9576 11.0739 15.3477 11.0739H27.8836C28.2738 11.0739 28.5905 10.7582 28.5905 10.367C28.5905 9.97684 28.2738 9.66016 27.8835 9.66016Z" fill="#6100FF"/>
<path d="M17.5947 13.1694H15.3477C14.9576 13.1694 14.6409 13.4861 14.6409 13.8763C14.6409 14.2665 14.9576 14.5832 15.3477 14.5832H17.5947C17.9849 14.5832 18.3016 14.2665 18.3016 13.8763C18.3016 13.4861 17.9849 13.1694 17.5947 13.1694Z" fill="#6100FF"/>
<path d="M32.487 13.1694H20.4225C20.0323 13.1694 19.7156 13.4861 19.7156 13.8763C19.7156 14.2665 20.0323 14.5832 20.4225 14.5832H32.487C32.8772 14.5832 33.1939 14.2665 33.1939 13.8763C33.194 13.4861 32.8772 13.1694 32.487 13.1694Z" fill="#6100FF"/>
<path d="M8.64694 39.8588C8.64694 39.6812 8.71237 39.6302 8.77359 39.5962C8.96353 39.4912 9.39928 39.4602 9.79847 39.6655C9.9045 39.72 10.0247 39.7818 10.1811 39.7818C10.8783 39.7818 11.4297 38.4862 9.76425 38.1998V38.1553C9.76425 37.7603 9.44287 37.439 9.0479 37.439C8.65294 37.439 8.33156 37.7603 8.33156 38.1553V38.2912C7.63369 38.5444 7.2389 39.1199 7.2389 39.9011C7.2389 41.1067 8.11481 41.4359 8.75456 41.6762C9.36459 41.9054 9.57553 42.0057 9.57553 42.4207C9.57553 42.6801 9.50569 42.9202 8.99859 42.9202C8.25965 42.9202 8.34815 42.3361 7.79512 42.3361C7.40428 42.3361 7.11206 42.7226 7.11206 43.0683C7.11206 43.558 7.62131 44.0228 8.33156 44.2113V44.2649C8.33156 44.6599 8.65294 44.9812 9.0479 44.9812C9.44287 44.9812 9.76425 44.66 9.76425 44.2649V44.1925C10.5328 43.9455 10.9837 43.2837 10.9837 42.3785C10.9837 40.2304 8.64694 40.553 8.64694 39.8588Z" fill="#181818"/>
</svg>
