<svg width="48" height="48" viewBox="0 0 48 48" fill="none" xmlns="http://www.w3.org/2000/svg">
<path d="M42.1794 20.3379C42.7017 20.3379 43.125 19.9146 43.125 19.3923V7.2865C43.125 7.03601 43.0254 6.79541 42.8481 6.61816L36.5061 0.276855C36.3289 0.0996094 36.0883 0 35.8378 0H7.69263C6.13879 0 4.875 1.26416 4.875 2.81836V45.1791C4.875 46.7344 6.13879 48 7.69263 48H40.3048C41.8597 48 43.125 46.7344 43.125 45.1791V27.4735C43.125 26.9513 42.7017 26.528 42.1794 26.528C41.6576 26.528 41.2343 26.9513 41.2343 27.4735V45.1787C41.2343 45.6918 40.8175 46.1089 40.3048 46.1089H7.69263C7.18176 46.1089 6.76575 45.6918 6.76575 45.1787V2.81836C6.76575 2.30713 7.1814 1.89111 7.69263 1.89111H34.8926V5.4137C34.8926 6.9679 36.1575 8.23206 37.7128 8.23206H41.2346V19.3923C41.2343 19.9146 41.6576 20.3379 42.1794 20.3379ZM36.783 5.4137V3.22778L39.8972 6.34131H37.7128C37.2001 6.34131 36.783 5.92493 36.783 5.4137Z" fill="#181818"/>
<path d="M31.8173 12.9073H27.7992C27.277 12.9073 26.854 12.484 26.854 11.9622C26.854 11.4399 27.277 11.0166 27.7992 11.0166H31.8173C32.3391 11.0166 32.7625 11.4399 32.7625 11.9622C32.7625 12.484 32.3391 12.9073 31.8173 12.9073Z" fill="#6100FF"/>
<path d="M25.6267 11.4835C25.6267 12.0815 25.4564 12.5594 25.1115 12.9209C24.7661 13.2794 24.3494 13.516 23.8608 13.6328V14.4377C23.8608 14.8098 23.5448 15.1152 23.1702 15.1152C22.7985 15.1152 22.4956 14.8098 22.4956 14.4377V13.6379C22.1902 13.5691 21.9141 13.4548 21.6669 13.2981C21.3377 13.0883 21.2157 12.974 20.9898 12.6792C20.3657 11.8636 21.3962 10.9895 21.9935 11.619C22.0679 11.6963 22.1451 11.7864 22.2327 11.8849C22.4824 12.1636 22.8486 12.209 23.1489 12.209C23.7144 12.209 23.9985 11.975 23.9985 11.5073C23.9985 11.3403 23.8898 11.21 23.6774 11.1173C23.462 11.0243 23.202 10.9419 22.8966 10.8701C22.5883 10.7983 22.2828 10.7002 21.9778 10.5779C21.6724 10.4556 21.412 10.2432 21.1967 9.9458C20.9817 9.64807 20.8755 9.26831 20.8755 8.80872C20.8755 8.34912 21.0242 7.93713 21.3109 7.56799C21.598 7.20398 22.0096 6.95715 22.5062 6.85864L22.5088 6.70447V5.93176C22.5088 5.55969 22.8113 5.25684 23.1834 5.25684C23.5551 5.25684 23.8605 5.55969 23.8605 5.93176V6.86926C24.0729 6.91467 24.2695 6.97839 24.445 7.06335C24.6226 7.14832 24.7449 7.21716 24.8137 7.27063L24.9148 7.36328C25.8043 8.02759 24.9467 9.20972 24.1791 8.56409C23.6613 8.12573 22.4821 8.03015 22.4821 8.83252C22.4821 8.99988 22.5619 9.13538 22.7183 9.23901C22.8754 9.34229 23.0691 9.4115 23.2976 9.44629C23.5258 9.48071 23.7806 9.53894 24.0542 9.61877C24.3303 9.69861 24.5827 9.79163 24.8137 9.90039C25.0422 10.0066 25.236 10.1952 25.3927 10.4691C25.5494 10.7401 25.6267 11.08 25.6267 11.4835Z" fill="#6100FF"/>
<path d="M18.3501 12.9073H14.332C13.8098 12.9073 13.3865 12.484 13.3865 11.9622C13.3865 11.4399 13.8098 11.0166 14.332 11.0166H18.3501C18.8719 11.0166 19.2953 11.4399 19.2953 11.9622C19.2953 12.484 18.8719 12.9073 18.3501 12.9073Z" fill="#6100FF"/>
<path d="M31.8173 9.49414H27.7992C27.277 9.49414 26.854 9.0708 26.854 8.54858C26.854 8.02637 27.277 7.60303 27.7992 7.60303H31.8173C32.3391 7.60303 32.7625 8.02637 32.7625 8.54858C32.7625 9.0708 32.3391 9.49414 31.8173 9.49414Z" fill="#6100FF"/>
<path d="M18.3501 9.49414H14.332C13.8098 9.49414 13.3865 9.0708 13.3865 8.54858C13.3865 8.02637 13.8098 7.60303 14.332 7.60303H18.3501C18.8719 7.60303 19.2953 8.02637 19.2953 8.54858C19.2953 9.0708 18.8719 9.49414 18.3501 9.49414Z" fill="#6100FF"/>
<path d="M33.7185 20.17H22.9709C22.4487 20.17 22.0254 19.7471 22.0254 19.2249C22.0254 18.7026 22.4487 18.2793 22.9709 18.2793H33.7185C34.2407 18.2793 34.6637 18.7026 34.6637 19.2249C34.6637 19.7471 34.2407 20.17 33.7185 20.17Z" fill="#6100FF"/>
<path d="M33.7185 23.7457H22.9709C22.4487 23.7457 22.0254 23.3228 22.0254 22.8005C22.0254 22.2783 22.4487 21.855 22.9709 21.855H33.7185C34.2407 21.855 34.6637 22.2783 34.6637 22.8005C34.6637 23.3228 34.2407 23.7457 33.7185 23.7457Z" fill="#6100FF"/>
<path d="M18.4539 24.3252H12.8875C12.3652 24.3252 11.9419 23.9019 11.9419 23.3796V18.3164C11.9419 17.7942 12.3652 17.3708 12.8875 17.3708H18.4539C18.9757 17.3708 19.399 17.7942 19.399 18.3164V23.3796C19.399 23.9019 18.9757 24.3252 18.4539 24.3252ZM13.8326 22.4344H17.5083V19.262H13.8326V22.4344Z" fill="#6100FF"/>
<path d="M18.4539 32.9534H12.8875C12.3652 32.9534 11.9419 32.53 11.9419 32.0078V26.9446C11.9419 26.4224 12.3652 25.999 12.8875 25.999H18.4539C18.9757 25.999 19.399 26.4224 19.399 26.9446V32.0078C19.399 32.53 18.9757 32.9534 18.4539 32.9534ZM13.8326 31.0626H17.5083V27.8901H13.8326V31.0626Z" fill="#6100FF"/>
<path d="M18.4539 42.4746H12.8875C12.3652 42.4746 11.9419 42.0513 11.9419 41.5291V36.4629C11.9419 35.9407 12.3652 35.5173 12.8875 35.5173H18.4539C18.9757 35.5173 19.399 35.9407 19.399 36.4629V41.5291C19.399 42.0513 18.9757 42.4746 18.4539 42.4746ZM13.8326 40.5835H17.5083V37.4084H13.8326V40.5835Z" fill="#6100FF"/>
<path d="M33.6548 28.6421H22.9072C22.385 28.6421 21.9617 28.2188 21.9617 27.6965C21.9617 27.1743 22.385 26.751 22.9072 26.751H33.6548C34.177 26.751 34.6 27.1743 34.6 27.6965C34.6 28.2188 34.177 28.6421 33.6548 28.6421Z" fill="#6100FF"/>
<path d="M33.6548 32.2203H22.9072C22.385 32.2203 21.9617 31.797 21.9617 31.2748C21.9617 30.7529 22.385 30.3296 22.9072 30.3296H33.6548C34.177 30.3296 34.6 30.7529 34.6 31.2748C34.6 31.797 34.177 32.2203 33.6548 32.2203Z" fill="#6100FF"/>
<path d="M33.6573 38.2083H22.9072C22.385 38.2083 21.9617 37.7849 21.9617 37.2627C21.9617 36.7405 22.385 36.3171 22.9072 36.3171H33.6573C34.1796 36.3171 34.6029 36.7405 34.6029 37.2627C34.6029 37.7849 34.1796 38.2083 33.6573 38.2083Z" fill="#6100FF"/>
<path d="M33.6573 41.7836H22.9072C22.385 41.7836 21.9617 41.3606 21.9617 40.8384C21.9617 40.3162 22.385 39.8928 22.9072 39.8928H33.6573C34.1796 39.8928 34.6029 40.3162 34.6029 40.8384C34.6029 41.3606 34.1796 41.7836 33.6573 41.7836Z" fill="#6100FF"/>
<path d="M42.1796 24.0806C41.6577 24.0806 41.2344 23.6576 41.2344 23.1354V23.1167C41.2344 22.5945 41.6577 22.1711 42.1796 22.1711C42.7018 22.1711 43.1251 22.5945 43.1251 23.1167V23.1354C43.1251 23.6576 42.7018 24.0806 42.1796 24.0806Z" fill="#181818"/>
</svg>
