<svg width="48" height="48" viewBox="0 0 48 48" fill="none" xmlns="http://www.w3.org/2000/svg">
<g clip-path="url(#clip0_1210_369)">
<path d="M15.5331 9.62298C15.9215 9.62298 16.2362 9.30826 16.2362 8.91986V7.15576H17.9838C18.3722 7.15576 18.687 6.84104 18.687 6.45264C18.687 6.06423 18.3722 5.74951 17.9838 5.74951H16.0599C15.3818 5.74951 14.8301 6.30123 14.8301 6.97942V8.91976C14.83 9.30817 15.1447 9.62298 15.5331 9.62298Z" fill="#6100FF"/>
<path d="M40.0854 7.15576H41.8007V8.91976C41.8007 9.30817 42.1154 9.62289 42.5038 9.62289C42.8922 9.62289 43.2069 9.30817 43.2069 8.91976V6.97942C43.2069 6.30123 42.6552 5.74951 41.977 5.74951H40.0854C39.697 5.74951 39.3823 6.06423 39.3823 6.45264C39.3823 6.84104 39.6971 7.15576 40.0854 7.15576Z" fill="#6100FF"/>
<path d="M40.0854 34.1267H41.977C42.6552 34.1267 43.2069 33.575 43.2069 32.8968V31.0215C43.2069 30.6331 42.8922 30.3184 42.5038 30.3184C42.1154 30.3184 41.8007 30.6331 41.8007 31.0215V32.7204H40.0854C39.697 32.7204 39.3823 33.0351 39.3823 33.4235C39.3823 33.812 39.6971 34.1267 40.0854 34.1267Z" fill="#6100FF"/>
<path d="M16.0597 34.1267H17.9837C18.3721 34.1267 18.6868 33.812 18.6868 33.4235C18.6868 33.0351 18.3721 32.7204 17.9837 32.7204H16.2361V31.0215C16.2361 30.6331 15.9214 30.3184 15.533 30.3184C15.1446 30.3184 14.8298 30.6331 14.8298 31.0215V32.8968C14.8299 33.575 15.3816 34.1267 16.0597 34.1267Z" fill="#6100FF"/>
<path d="M46.0886 38.054H10.4512C10.1726 38.054 9.94603 37.8274 9.94603 37.5488V1.91138C9.94603 0.857438 9.0885 0 8.03456 0H1.91138C0.857438 0 0 0.857438 0 1.91138V13.3486C0 13.737 0.314719 14.0517 0.703125 14.0517C1.09153 14.0517 1.40625 13.737 1.40625 13.3486V1.91138C1.40625 1.63284 1.63284 1.40625 1.91138 1.40625H8.03456C8.31319 1.40625 8.53978 1.63284 8.53978 1.91138V5.32809H6.15628C5.76788 5.32809 5.45316 5.64281 5.45316 6.03122C5.45316 6.41962 5.76788 6.73434 6.15628 6.73434H8.53978V9.80859H7.07812C6.68972 9.80859 6.375 10.1233 6.375 10.5117C6.375 10.9001 6.68972 11.2148 7.07812 11.2148H8.53978V14.289H6.15628C5.76788 14.289 5.45316 14.6037 5.45316 14.9921C5.45316 15.3805 5.76788 15.6952 6.15628 15.6952H8.53978V18.7695H7.07812C6.68972 18.7695 6.375 19.0842 6.375 19.4726C6.375 19.861 6.68972 20.1757 7.07812 20.1757H8.53978V23.2499H6.15628C5.76788 23.2499 5.45316 23.5646 5.45316 23.953C5.45316 24.3414 5.76788 24.6562 6.15628 24.6562H8.53978V27.7304H7.07812C6.68972 27.7304 6.375 28.0451 6.375 28.4335C6.375 28.8219 6.68972 29.1367 7.07812 29.1367H8.53978V32.2109H6.15628C5.76788 32.2109 5.45316 32.5256 5.45316 32.914C5.45316 33.3024 5.76788 33.6172 6.15628 33.6172H8.53978V37.5488C8.53978 37.8186 8.59594 38.0754 8.69719 38.3083L1.40625 45.5993V16.6357C1.40625 16.2473 1.09153 15.9325 0.703125 15.9325C0.314719 15.9325 0 16.2473 0 16.6357V46.0886C0 47.1421 0.856875 48 1.91138 48H46.0887C47.1427 48 48.0001 47.1426 48.0001 46.0886V39.9654C48 38.9115 47.1426 38.054 46.0886 38.054ZM46.5938 46.0886C46.5938 46.3672 46.3672 46.5938 46.0886 46.5938H2.40066L9.69159 39.3028C9.92447 39.4041 10.1813 39.4602 10.4511 39.4602H13.9364V41.8451C13.9364 42.2335 14.2511 42.5482 14.6395 42.5482C15.0279 42.5482 15.3427 42.2335 15.3427 41.8451V39.4602H18.4169V40.9233C18.4169 41.3117 18.7316 41.6264 19.12 41.6264C19.5084 41.6264 19.8232 41.3117 19.8232 40.9233V39.4602H22.8973V41.8451C22.8973 42.2335 23.212 42.5482 23.6004 42.5482C23.9888 42.5482 24.3036 42.2335 24.3036 41.8451V39.4602H27.3778V40.9233C27.3778 41.3117 27.6925 41.6264 28.0809 41.6264C28.4693 41.6264 28.7841 41.3117 28.7841 40.9233V39.4602H31.8582V41.8451C31.8582 42.2335 32.1729 42.5482 32.5613 42.5482C32.9498 42.5482 33.2645 42.2335 33.2645 41.8451V39.4602H36.3387V40.9233C36.3387 41.3117 36.6534 41.6264 37.0418 41.6264C37.4303 41.6264 37.745 41.3117 37.745 40.9233V39.4602H40.8191V41.8451C40.8191 42.2335 41.1338 42.5482 41.5222 42.5482C41.9107 42.5482 42.2254 42.2335 42.2254 41.8451V39.4602H46.0886C46.3672 39.4602 46.5938 39.6868 46.5938 39.9654V46.0886Z" fill="#181818"/>
<path d="M19.9129 26.4165L27.9607 31.0629C28.6132 31.4396 29.4237 31.4397 30.076 31.0629L38.1238 26.4165C38.7762 26.0399 39.1814 25.338 39.1814 24.5846V15.2917C39.1814 14.5395 38.7769 13.8368 38.1238 13.4599L30.0761 8.81352C29.4237 8.43683 28.6131 8.43683 27.9607 8.81352L19.913 13.46C19.2611 13.8362 18.8552 14.5381 18.8552 15.2918V24.5847C18.8552 25.338 19.2605 26.04 19.9129 26.4165ZM20.6159 25.1987C20.3973 25.0724 20.2615 24.8372 20.2615 24.5846V15.6943L28.3153 20.3441V29.6438L20.6159 25.1987ZM28.6638 10.0313C28.8824 9.90505 29.1541 9.90487 29.3728 10.0313L37.0721 14.4765L34.4203 16.0074C34.0841 16.2016 33.9688 16.6316 34.163 16.9679C34.358 17.3059 34.7888 17.4185 35.1235 17.2252L37.7752 15.6943V24.5846C37.7752 24.8371 37.6394 25.0724 37.4207 25.1987L29.7215 29.6437V20.3441L32.228 18.897C32.5643 18.7028 32.6795 18.2728 32.4853 17.9365C32.2913 17.6002 31.861 17.4851 31.5249 17.6792L29.0184 19.1263L20.9646 14.4765L28.6638 10.0313Z" fill="#6100FF"/>
</g>
<defs>
<clipPath id="clip0_1210_369">
<rect width="48" height="48" fill="white"/>
</clipPath>
</defs>
</svg>
