<svg width="48" height="48" viewBox="0 0 48 48" fill="none" xmlns="http://www.w3.org/2000/svg">
<g clip-path="url(#clip0_1210_394)">
<path d="M11.3933 14.0242H23.3147C24.2237 14.0242 24.2237 12.6179 23.3147 12.6179H11.3933C10.4841 12.6179 10.4841 14.0242 11.3933 14.0242Z" fill="#6100FF"/>
<path d="M11.3933 19.4807H11.3938L21.1589 19.4734C22.0469 19.4727 22.0263 18.0671 21.1578 18.0671L11.3927 18.0745C10.4839 18.0751 10.4846 19.4807 11.3933 19.4807Z" fill="#6100FF"/>
<path d="M11.3933 24.9375H11.394L19.5653 24.9302C20.4533 24.9293 20.4325 23.5239 19.564 23.5239L11.3927 23.5312C10.4839 23.5321 10.4846 24.9375 11.3933 24.9375Z" fill="#6100FF"/>
<path d="M11.3933 30.3942H11.3939L19.7199 30.387C20.6079 30.3861 20.5872 28.9807 19.7187 28.9807L11.3926 28.9879C10.4839 28.9888 10.4846 30.3942 11.3933 30.3942Z" fill="#6100FF"/>
<path d="M23.1237 34.4373C23.1236 34.4373 23.1234 34.4373 23.1233 34.4373L11.3929 34.4445C10.5049 34.4451 10.5253 35.8507 11.3937 35.8507L23.1242 35.8435C24.033 35.8429 24.0325 34.4373 23.1237 34.4373Z" fill="#6100FF"/>
<path d="M22.9693 39.894C22.9692 39.894 22.969 39.894 22.9688 39.894L11.3929 39.9013C10.5049 39.9019 10.5253 41.3075 11.3938 41.3075L22.9698 41.3003C23.8786 41.2996 23.8781 39.894 22.9693 39.894Z" fill="#6100FF"/>
<path d="M47.9997 25.0098C48.0003 24.9183 47.9895 24.8274 47.9581 24.741L44.4267 15.0314C44.3082 14.7405 44.0741 14.5672 43.7243 14.5113H40.329C40.0131 12.3355 38.277 10.6149 36.0942 10.3214V6.79491C36.0942 5.89444 35.3618 5.16169 34.4613 5.16169H33.4471V4.28391C33.4471 3.38344 32.7146 2.65069 31.8143 2.65069H30.7974V1.63322C30.7974 0.732656 30.0648 0 29.1644 0H1.63333C0.732957 0 0.000488281 0.732656 0.000488281 1.63322V41.2052C0.000488281 42.1057 0.732957 42.8384 1.63333 42.8384H2.65024V43.8558C2.65024 44.7563 3.38271 45.489 4.28524 45.489L5.29727 45.486V46.3669C5.29727 47.2673 6.02974 48.0001 6.93011 48.0001H28.8939C29.0828 48.0001 29.2612 47.9209 29.3959 47.7893L35.887 41.3289C36.0196 41.197 36.0941 41.0177 36.0941 40.8307V35.9434H37.4284C38.3375 35.9434 38.3375 34.5371 37.4284 34.5371H28.7288C29.0315 33.5322 29.9655 32.7981 31.0677 32.7981H39.7949C40.8971 32.7981 41.8312 33.5322 42.1339 34.5371H41.1423C40.2332 34.5371 40.2332 35.9434 41.1423 35.9434H42.9401C43.3285 35.9434 43.6433 35.6287 43.6433 35.2402C43.6433 33.1182 41.9169 31.3918 39.7949 31.3918H37.476V15.9287L42.7828 15.9176L39.5738 24.7411C39.5419 24.829 39.5273 24.926 39.5324 25.0194C39.5531 27.3368 41.4438 29.2159 43.766 29.2159C46.0882 29.2159 47.9789 27.3368 47.9996 25.0194C47.9996 25.0162 47.9996 25.013 47.9997 25.0098ZM46.2934 24.2782H41.2385L43.766 17.3288L46.2934 24.2782ZM38.9024 14.5112H31.9606C32.2919 12.8985 33.7223 11.6819 35.4315 11.6819C37.1408 11.6819 38.571 12.8985 38.9024 14.5112ZM4.28318 44.0827C4.15821 44.0827 4.05649 43.9808 4.05649 43.8557V15.0959C4.05649 14.1868 2.65024 14.1868 2.65024 15.0959V41.4321H1.63333C1.50836 41.4321 1.40674 41.3302 1.40674 41.2051V1.63322C1.40674 1.50806 1.50836 1.40625 1.63333 1.40625H29.1644C29.2894 1.40625 29.391 1.50806 29.391 1.63322V2.65069H4.28318C3.3828 2.65069 2.65024 3.38334 2.65024 4.28391V11.5806C2.65024 12.4897 4.05649 12.4897 4.05649 11.5806V4.28381C4.05649 4.15866 4.15811 4.05684 4.28318 4.05684H31.8142C31.9391 4.05684 32.0408 4.15866 32.0408 4.28381V5.16159H6.93021C6.02983 5.16159 5.29736 5.89425 5.29736 6.79481V44.0796L4.28318 44.0827ZM29.5971 45.5939V41.7003C29.5971 41.5751 29.6987 41.4733 29.8238 41.4733H33.699L29.5971 45.5939ZM34.7931 31.3848V15.9391H36.0699V31.3848H34.7931ZM33.3868 31.3917H31.0679C28.946 31.3917 27.2196 33.1181 27.2196 35.2402C27.2196 35.6286 27.5344 35.9433 27.9227 35.9433H34.688V40.0671H29.8238C28.9234 40.0671 28.1908 40.7997 28.1908 41.7003V46.5938H6.93021C6.80524 46.5938 6.70361 46.4919 6.70361 46.3668V6.79491C6.70361 6.66975 6.80524 6.56794 6.93021 6.56794H34.4613C34.5863 6.56794 34.688 6.66975 34.688 6.79491V10.3317C32.5431 10.6562 30.8459 12.3623 30.5339 14.5113H27.1386C26.7888 14.5672 26.5546 14.7405 26.4361 15.0314L22.9047 24.741C22.8729 24.8289 22.8582 24.9259 22.8634 25.0193C22.884 27.3367 24.7748 29.2158 27.097 29.2158C29.4191 29.2158 31.3099 27.3367 31.3305 25.0193C31.3356 24.926 31.3211 24.8289 31.2892 24.741L28.0801 15.9175L33.3869 15.9286V31.3917H33.3868ZM24.5695 24.2782L27.097 17.3288L29.6245 24.2782H24.5695ZM29.8368 25.6844C29.5234 26.9049 28.4139 27.8095 27.097 27.8095C25.7801 27.8095 24.6705 26.9049 24.3571 25.6844H29.8368ZM43.766 27.8095C42.4491 27.8095 41.3396 26.9049 41.0261 25.6844H46.5057C46.1924 26.9048 45.0829 27.8095 43.766 27.8095Z" fill="#181818"/>
</g>
<defs>
<clipPath id="clip0_1210_394">
<rect width="48" height="48" fill="white"/>
</clipPath>
</defs>
</svg>
