<svg width="48" height="48" viewBox="0 0 48 48" fill="none" xmlns="http://www.w3.org/2000/svg">
<path d="M45.0993 7.28081L38.4644 0.646125C38.0477 0.2295 37.4938 0 36.9044 0H8.96976C7.75336 0 6.76364 0.989719 6.76364 2.20613V24.0484H5.21226C3.58139 24.0484 2.25464 25.3752 2.25464 27.006V40.5332C2.25464 42.1641 3.58139 43.4909 5.21226 43.4909H28.5091C29.7256 43.4909 30.7153 42.5012 30.7153 41.2848V30.7637C30.7153 29.5472 29.7255 28.5575 28.5091 28.5575H5.21226C4.35679 28.5575 3.66089 27.8616 3.66089 27.0061C3.66089 26.1506 4.35679 25.4547 5.21226 25.4547H6.76364V26.2549C6.76364 26.6432 7.07845 26.958 7.46676 26.958C7.85507 26.958 8.16989 26.6432 8.16989 26.2549V2.20613C8.16989 1.76503 8.52876 1.40625 8.96976 1.40625H36.0726V8.21822C36.0726 9.02034 36.7251 9.67294 37.5272 9.67294H44.3392V45.7939C44.3392 46.235 43.9803 46.5938 43.5393 46.5938H8.96976C8.52867 46.5938 8.16989 46.235 8.16989 45.7939C8.16989 45.4056 7.85507 45.0907 7.46676 45.0907C7.07845 45.0907 6.76364 45.4056 6.76364 45.7939C6.76364 47.0104 7.75336 48 8.96976 48H43.5393C44.7558 48 45.7454 47.0103 45.7454 45.7939V8.84081C45.7455 8.25159 45.516 7.69753 45.0993 7.28081ZM5.21226 29.9637H28.5091C28.9502 29.9637 29.309 30.3226 29.309 30.7637V41.2849C29.309 41.726 28.9501 42.0847 28.5091 42.0847H5.21226C4.35679 42.0847 3.66089 41.3888 3.66089 40.5333V29.5233C4.11211 29.8026 4.64367 29.9637 5.21226 29.9637ZM37.4789 8.21822V1.64934L44.0964 8.26669H37.5272C37.5006 8.26669 37.4789 8.24494 37.4789 8.21822Z" fill="black"/>
<path d="M22.1785 39.7113C22.5668 39.7113 22.8816 39.3965 22.8816 39.0082V36.6707H24.4051C24.7934 36.6707 25.1082 36.3559 25.1082 35.9676C25.1082 35.5793 24.7934 35.2644 24.4051 35.2644H22.8816V33.7432H24.5973C24.9856 33.7432 25.3004 33.4284 25.3004 33.04C25.3004 32.6516 24.9856 32.3369 24.5973 32.3369H22.1785C21.7902 32.3369 21.4753 32.6516 21.4753 33.04V39.0081C21.4753 39.3964 21.7902 39.7113 22.1785 39.7113Z" fill="#6100FF"/>
<path d="M14.7882 39.4405C14.9199 39.5712 15.098 39.6446 15.2835 39.6446H15.2862C15.3361 39.6444 16.5141 39.6399 16.9846 39.6316C18.7221 39.6012 19.9832 38.0842 19.9832 36.0243C19.9832 33.859 18.7539 32.4041 16.9241 32.4041H15.2717C15.085 32.4041 14.906 32.4783 14.7741 32.6105C14.6422 32.7427 14.5682 32.9218 14.5686 33.1085V33.1131V33.1132V38.8466C14.5686 38.8949 14.5735 38.9421 14.5828 38.9876C14.594 39.1582 14.6662 39.3194 14.7882 39.4405ZM16.9241 33.8103C18.1428 33.8103 18.577 34.954 18.577 36.0243C18.577 37.5254 17.7649 38.2116 16.9601 38.2256C16.7364 38.2295 16.3373 38.2326 15.9842 38.2347C15.982 37.5449 15.9773 34.5279 15.9761 33.8103H16.9241Z" fill="#6100FF"/>
<path d="M8.948 39.7334C9.33631 39.7334 9.65112 39.4187 9.65112 39.0303V37.1181C10.0002 37.1163 10.3972 37.1145 10.622 37.1145C11.9636 37.1145 13.055 36.038 13.055 34.7148C13.055 33.3915 11.9636 32.3149 10.622 32.3149H8.948C8.76115 32.3149 8.582 32.3894 8.45 32.5217C8.31856 32.6535 8.24497 32.8321 8.24497 33.0181H8.24487V39.0302C8.24487 39.4187 8.55969 39.7334 8.948 39.7334ZM10.622 33.7213C11.1786 33.7213 11.6487 34.1763 11.6487 34.7148C11.6487 35.2533 11.1786 35.7083 10.622 35.7083C10.3987 35.7083 10.0067 35.7101 9.6589 35.7119C9.65703 35.3527 9.65422 34.0971 9.65319 33.7214H10.622V33.7213Z" fill="#6100FF"/>
<path d="M22.1202 20.387C20.3922 20.9325 18.6185 21.6874 17.6724 22.664C16.8917 23.4698 16.7503 24.4047 17.2842 25.229C17.6465 25.7884 18.1446 26.0808 18.7047 26.0808C18.9196 26.0808 19.1438 26.0377 19.3728 25.9501C20.199 25.6342 21.0913 24.7354 22.1007 23.2023C22.4266 22.7074 22.7565 22.1574 23.0849 21.5624C23.2045 21.5272 23.3263 21.4922 23.451 21.4574C25.4353 20.9022 27.6803 20.4992 29.6505 20.3309C30.8516 21.4922 32.093 22.3971 33.1513 22.6439C34.3156 22.9155 35.2387 22.3831 35.62 21.2197C35.8509 20.515 35.585 19.8505 34.9086 19.4422C34.2131 19.0223 33.0046 18.8195 31.3174 18.8388C30.9581 18.843 30.5787 18.8576 30.1841 18.882C29.4261 18.1004 28.6375 17.1661 27.878 16.1344C27.2896 15.3352 26.7637 14.5354 26.3189 13.7752C26.3673 13.6086 26.4132 13.4443 26.4568 13.2828C26.9375 11.5004 27.109 10.1356 26.9664 9.22645C26.7604 7.91349 25.913 7.72702 25.5582 7.70789C24.3503 7.64255 23.5366 8.25202 23.3818 9.33811C23.2588 10.2009 23.549 11.388 24.2442 12.8662C24.4094 13.2176 24.5948 13.5797 24.7983 13.9496C24.7225 14.193 24.6402 14.4462 24.5512 14.7097C23.903 16.6273 23.0251 18.6705 22.1202 20.387ZM18.7437 24.6708C18.6935 24.6771 18.6089 24.6877 18.4644 24.4645C18.3467 24.2828 18.3403 24.1457 18.4407 23.9586C18.6755 23.521 19.477 22.9069 21.0279 22.2726C19.9454 23.9515 19.1365 24.6218 18.7437 24.6708ZM34.2953 20.734C34.2942 20.7427 34.2914 20.7583 34.2836 20.7819C34.108 21.3178 33.8721 21.3683 33.4707 21.2746C32.9808 21.1604 32.3585 20.7984 31.6644 20.2444C33.5439 20.2594 34.1995 20.598 34.2953 20.734ZM24.7739 9.53667C24.8026 9.33567 24.8348 9.10964 25.3697 9.10964C25.4034 9.10964 25.4391 9.11058 25.4768 9.11236C25.6369 9.30745 25.7193 10.1755 25.3488 11.8934C24.9124 10.8926 24.6992 10.0612 24.7739 9.53667ZM25.7531 15.537C26.0617 16.0113 26.3936 16.4903 26.7455 16.9682C27.2502 17.6539 27.8204 18.3658 28.4235 19.0453C27.7258 19.1295 27.0062 19.2381 26.2863 19.3688C25.7992 19.4572 24.9499 19.624 23.9558 19.872C24.1763 19.4147 24.3937 18.9408 24.6064 18.4535C25.0292 17.4852 25.4181 16.4943 25.7531 15.537Z" fill="black"/>
</svg>
