<svg width="48" height="48" viewBox="0 0 48 48" fill="none" xmlns="http://www.w3.org/2000/svg">
<g clip-path="url(#clip0_1210_387)">
<path d="M44.8 5.6001H3.2C1.4355 5.6001 0 7.0356 0 8.8001V11.2001C0 12.6884 1.0214 13.9427 2.4 14.2988V17.2001C2.4 18.3187 3.1693 19.2609 4.2066 19.5257C2.4602 31.5897 11.8175 42.4001 24 42.4001C34.4157 42.4001 42.8349 34.4751 43.8947 24.5349C43.9416 24.0956 43.6233 23.7015 43.184 23.6546C42.7442 23.6082 42.3505 23.926 42.3037 24.3653C41.3048 33.7347 33.4359 40.8001 24 40.8001C12.4808 40.8001 3.7671 30.314 5.9229 18.9492C5.9821 18.6371 5.8498 18.3135 5.5831 18.1361C5.3351 17.969 5.1168 18.0001 4.8 18.0001C4.3589 18.0001 4 17.6412 4 17.2001V14.4001H39.5322C39.974 14.4001 40.3322 14.0419 40.3322 13.6001C40.3322 13.1583 39.974 12.8001 39.5322 12.8001H3.2C2.3178 12.8001 1.6 12.0823 1.6 11.2001V8.8001C1.6 7.9179 2.3178 7.2001 3.2 7.2001H44.8C45.6822 7.2001 46.4 7.9179 46.4 8.8001V11.2001C46.4 12.0823 45.6822 12.8001 44.8 12.8001C44.3582 12.8001 44 13.1583 44 13.6001V17.2001C44 17.6412 43.6411 18.0001 43.2 18.0001H10.4844C10.0426 18.0001 9.6844 18.3583 9.6844 18.8001C9.6844 19.2419 10.0426 19.6001 10.4844 19.6001H43.2C44.5233 19.6001 45.6 18.5234 45.6 17.2001V14.2988C46.9786 13.9426 48 12.6884 48 11.2001V8.8001C48 7.0356 46.5645 5.6001 44.8 5.6001Z" fill="#181818"/>
<path d="M10.9 22.4001C10.9 21.9583 10.5418 21.6001 10.1 21.6001C9.65825 21.6001 9.30005 21.9583 9.30005 22.4001C9.30005 23.5647 9.43685 24.7243 9.70655 25.8468C9.79465 26.2136 10.1223 26.4601 10.4837 26.4601C11.0006 26.4601 11.3833 25.9767 11.2622 25.473C11.0219 24.4728 10.9 23.4389 10.9 22.4001Z" fill="#6100FF"/>
<path d="M11.2672 29.7507C11.4884 30.1332 11.9777 30.2638 12.3602 30.0428C12.7427 29.8216 12.8734 29.3323 12.6522 28.9497C12.6294 28.9102 12.6067 28.8706 12.5843 28.8308C12.3669 28.446 11.8788 28.3102 11.4943 28.5279C11.1096 28.7452 10.9739 29.2332 11.1913 29.6179C11.2164 29.6622 11.2417 29.7065 11.2672 29.7507Z" fill="#6100FF"/>
<path d="M18.5865 26.5073C18.2082 26.279 17.7166 26.4008 17.4883 26.779C16.7763 27.9594 16.3999 29.3152 16.3999 30.7001C16.3999 34.8908 19.8092 38.3002 23.9999 38.3002C28.1905 38.3002 31.5999 34.8908 31.5999 30.7001C31.5999 25.7427 26.8928 22.0784 22.0605 23.35C21.6332 23.4624 21.378 23.8999 21.4904 24.3272C21.6029 24.7543 22.0402 25.0098 22.4676 24.8972C26.284 23.893 29.9999 26.7867 29.9999 30.7001C29.9999 34.0086 27.3083 36.7002 23.9999 36.7002C20.6915 36.7002 17.9999 34.0086 17.9999 30.7001C17.9999 29.6064 18.2967 28.5364 18.8583 27.6056C19.0865 27.2272 18.9648 26.7355 18.5865 26.5073Z" fill="#6100FF"/>
<path d="M24.0001 29.1C24.8823 29.1 25.6001 29.8178 25.6001 30.7C25.6001 31.1418 25.9583 31.5 26.4001 31.5C26.8419 31.5 27.2001 31.1418 27.2001 30.7C27.2001 28.9355 25.7646 27.5 24.0001 27.5C22.2356 27.5 20.8 28.9355 20.8 30.7C20.8 32.4645 22.2356 33.9 24.0001 33.9C24.4419 33.9 24.8001 33.5418 24.8001 33.1C24.8001 32.6582 24.4419 32.3 24.0001 32.3C23.1179 32.3 22.4001 31.5822 22.4001 30.7C22.4001 29.8178 23.1179 29.1 24.0001 29.1Z" fill="#6100FF"/>
</g>
<defs>
<clipPath id="clip0_1210_387">
<rect width="48" height="48" fill="white"/>
</clipPath>
</defs>
</svg>
