<svg width="48" height="48" viewBox="0 0 48 48" fill="none" xmlns="http://www.w3.org/2000/svg">
<g clip-path="url(#clip0_1210_378)">
<path d="M34.906 48C34.57 48 34.226 47.958 33.886 47.868L2.96003 39.586C0.840031 39.002 -0.42397 36.806 0.13203 34.686L4.03403 20.142C4.17803 19.608 4.72603 19.298 5.25803 19.434C5.79203 19.576 6.10803 20.126 5.96603 20.658L2.06603 35.198C1.78803 36.258 2.42403 37.362 3.48603 37.656L34.4 45.934C35.462 46.214 36.558 45.582 36.834 44.526L38.396 38.738C38.54 38.204 39.088 37.886 39.622 38.032C40.156 38.176 40.47 38.726 40.328 39.258L38.768 45.038C38.298 46.818 36.678 48 34.906 48Z" fill="#6100FF"/>
<path d="M44 36H12C9.794 36 8 34.206 8 32V8C8 5.794 9.794 4 12 4H44C46.206 4 48 5.794 48 8V32C48 34.206 46.206 36 44 36ZM12 6C10.898 6 10 6.898 10 8V32C10 33.102 10.898 34 12 34H44C45.102 34 46 33.102 46 32V8C46 6.898 45.102 6 44 6H12Z" fill="#181818"/>
<path d="M18 18C15.794 18 14 16.206 14 14C14 11.794 15.794 10 18 10C20.206 10 22 11.794 22 14C22 16.206 20.206 18 18 18ZM18 12C16.898 12 16 12.898 16 14C16 15.102 16.898 16 18 16C19.102 16 20 15.102 20 14C20 12.898 19.102 12 18 12Z" fill="#6100FF"/>
<path d="M9.1399 33.8601C8.8839 33.8601 8.6279 33.7621 8.4319 33.5681C8.0419 33.1781 8.0419 32.5441 8.4319 32.1541L17.8779 22.7081C19.0099 21.5761 20.9879 21.5761 22.1199 22.7081L24.9319 25.5201L32.7159 16.1801C33.2819 15.5021 34.1139 15.1081 34.9999 15.1001H35.0219C35.8979 15.1001 36.7279 15.4801 37.2999 16.1461L47.7599 28.3501C48.1199 28.7681 48.0719 29.4001 47.6519 29.7601C47.2339 30.1201 46.6039 30.0741 46.2419 29.6521L35.7819 17.4481C35.5879 17.2241 35.3199 17.1001 35.0219 17.1001C34.8139 17.0821 34.4479 17.2261 34.2539 17.4601L25.7679 27.6421C25.5879 27.8581 25.3259 27.9881 25.0439 28.0001C24.7599 28.0201 24.4899 27.9081 24.2919 27.7081L20.7059 24.1221C20.3279 23.7461 19.6699 23.7461 19.2919 24.1221L9.8459 33.5681C9.6519 33.7621 9.39591 33.8601 9.1399 33.8601Z" fill="#181818"/>
</g>
<defs>
<clipPath id="clip0_1210_378">
<rect width="48" height="48" fill="white"/>
</clipPath>
</defs>
</svg>
