<svg width="48" height="48" viewBox="0 0 48 48" fill="none" xmlns="http://www.w3.org/2000/svg">
<path d="M44.3437 31.1172V25.6545C44.3422 24.6688 43.9498 23.7239 43.2526 23.0271C42.5553 22.3303 41.6102 21.9385 40.6245 21.9375H35.25V15.9375H39.3758C39.4647 15.9333 39.5515 15.9091 39.6297 15.8665C39.7079 15.824 39.7754 15.7644 39.8272 15.692C39.8791 15.6197 39.9139 15.5366 39.929 15.4489C39.9441 15.3612 39.9392 15.2712 39.9146 15.1857L37.9529 8.64829C37.918 8.53272 37.8467 8.43152 37.7496 8.35976C37.6525 8.28799 37.5349 8.24951 37.4141 8.25004H31.9609C31.8406 8.24855 31.723 8.28613 31.6259 8.35712C31.5287 8.42812 31.4572 8.52871 31.4221 8.64379L29.4604 15.18C29.4352 15.2668 29.4299 15.3581 29.4451 15.4471C29.4603 15.5362 29.4954 15.6206 29.5479 15.6941C29.5994 15.7666 29.6668 15.8264 29.7451 15.8686C29.8233 15.9109 29.9103 15.9346 29.9992 15.9378H34.125V21.9378H8.31328C7.32757 21.9388 6.38247 22.3306 5.6852 23.0273C4.98794 23.724 4.59543 24.6688 4.59374 25.6545V31.1172C3.65122 31.1751 2.76661 31.5916 2.12154 32.2812C1.47647 32.9708 1.11989 33.8813 1.12499 34.8255V43.4157C1.12517 43.4891 1.13991 43.5617 1.16836 43.6293C1.19681 43.6969 1.2384 43.7583 1.29072 43.8097C1.34304 43.8612 1.40505 43.9017 1.47316 43.929C1.54127 43.9563 1.61412 43.9699 1.68749 43.9688H3.28124V46.7813C3.28722 46.9331 3.35198 47.0767 3.46184 47.1816C3.5717 47.2866 3.71806 47.3447 3.86999 47.3438H10.2325C10.3057 47.3435 10.378 47.3287 10.4454 47.3001C10.5127 47.2716 10.5737 47.2299 10.6248 47.1776C10.6759 47.1252 10.716 47.0632 10.7429 46.9952C10.7697 46.9271 10.7828 46.8544 10.7812 46.7813V43.9688H38.1562V46.7813C38.1547 46.8544 38.1678 46.9271 38.1947 46.9952C38.2216 47.0632 38.2617 47.1252 38.3128 47.1776C38.3639 47.2299 38.4249 47.2716 38.4923 47.3001C38.5596 47.3287 38.632 47.3435 38.7052 47.3438H45.0679C45.2198 47.3447 45.3661 47.2865 45.4759 47.1816C45.5857 47.0766 45.6503 46.9331 45.6562 46.7813V43.9688H47.25C47.3234 43.9699 47.3962 43.9564 47.4644 43.9291C47.5325 43.9018 47.5945 43.8612 47.6468 43.8098C47.6992 43.7583 47.7407 43.697 47.7692 43.6293C47.7976 43.5617 47.8123 43.4891 47.8125 43.4157V34.8255C47.8176 33.8813 47.461 32.9708 46.8159 32.2812C46.1709 31.5916 45.2863 31.1751 44.3437 31.1172ZM32.3795 9.37504H36.9955L38.6198 14.8125H30.7552L32.3795 9.37504ZM8.31328 23.0625H40.6245C41.3119 23.0632 41.971 23.3365 42.4573 23.8224C42.9436 24.3082 43.2175 24.9671 43.2187 25.6545V31.2139C42.4158 31.4188 41.7037 31.8848 41.1946 32.5387C40.6855 33.1925 40.4081 33.997 40.4062 34.8257V36.5625H8.53124V34.8255C8.52936 33.9969 8.25204 33.1923 7.7429 32.5385C7.23376 31.8846 6.5217 31.4186 5.71874 31.2137V25.6544C5.72008 24.9669 5.99395 24.308 6.48031 23.8222C6.96667 23.3363 7.62582 23.0632 8.31328 23.0625ZM9.65624 46.2188H4.40624V43.9688H9.65624V46.2188ZM44.5312 46.2188H39.2812V43.9688H44.5312V46.2188ZM46.6875 42.8438H2.24999V34.8255C2.24999 34.1418 2.52162 33.486 3.00511 33.0025C3.4886 32.519 4.14436 32.2474 4.82812 32.2474C5.51188 32.2474 6.16764 32.519 6.65113 33.0025C7.13462 33.486 7.40624 34.1418 7.40624 34.8255V37.1063C7.41214 37.2603 7.47667 37.4063 7.58663 37.5144C7.69659 37.6224 7.84368 37.6844 7.99781 37.6875H40.94C41.0941 37.6844 41.2411 37.6224 41.351 37.5143C41.461 37.4063 41.5254 37.2603 41.5312 37.1063V34.8255C41.5312 34.1418 41.8029 33.486 42.2864 33.0025C42.7699 32.519 43.4256 32.2474 44.1094 32.2474C44.7931 32.2474 45.4489 32.519 45.9324 33.0025C46.4159 33.486 46.6875 34.1418 46.6875 34.8255V42.8438Z" fill="#181818"/>
<path d="M20.0625 19.0536V5.30877C20.0624 5.23703 20.0477 5.16606 20.0194 5.10017C19.991 5.03428 19.9495 4.97486 19.8974 4.92552C19.8453 4.87617 19.7838 4.83795 19.7164 4.81316C19.6491 4.78837 19.5775 4.77754 19.5058 4.78134H14.4508L10.5255 0.838586C10.4748 0.783506 10.4131 0.739619 10.3445 0.709737C10.2758 0.679854 10.2017 0.664633 10.1268 0.665047C10.052 0.665462 9.97801 0.681504 9.9097 0.712145C9.84139 0.742787 9.78022 0.787353 9.73013 0.842992L5.80491 4.78134H0.75C0.678053 4.77745 0.606064 4.78816 0.538371 4.81285C0.470678 4.83753 0.408684 4.87566 0.356124 4.92494C0.303564 4.97422 0.261527 5.03364 0.232546 5.09961C0.203566 5.16557 0.188243 5.23672 0.1875 5.30877V19.0536C0.187933 19.1264 0.202945 19.1982 0.231649 19.265C0.260352 19.3319 0.302163 19.3922 0.354608 19.4426C0.407053 19.493 0.469068 19.5323 0.536982 19.5583C0.604896 19.5842 0.677331 19.5963 0.75 19.5938H19.5058C19.5782 19.5962 19.6503 19.584 19.7178 19.5579C19.7853 19.5318 19.8469 19.4924 19.8989 19.442C19.9508 19.3915 19.9921 19.3312 20.0202 19.2645C20.0483 19.1977 20.0627 19.126 20.0625 19.0536ZM16.3125 12.3563L12.3534 14.2019L7.53422 10.9166C7.43455 10.8506 7.31707 10.8167 7.19756 10.8194C7.07805 10.8222 6.96223 10.8614 6.86569 10.9319L3.84375 13.1894V8.15633H16.3125V12.3563ZM3.84375 14.5959L7.22456 12.073L11.995 15.3113C12.0901 15.3748 12.2019 15.4087 12.3163 15.4087C12.3923 15.4087 12.4672 15.3908 12.5349 15.3565L16.3125 13.5962V16.2188H3.84375V14.5959ZM16.702 7.03133H3.53334L2.17903 5.90633H18.0469L16.702 7.03133ZM2.71875 7.88362V16.5188L1.3125 17.8058V6.60693L2.71875 7.88362ZM3.53438 17.3438H16.7006L17.9913 18.4688H2.23453L3.53438 17.3438ZM17.4375 16.5198V7.8824L18.9375 6.57927V17.8338L17.4375 16.5198ZM10.1278 2.04937L12.8599 4.78134H7.39584L10.1278 2.04937Z" fill="#6100FF"/>
<path d="M12.0351 12.4874C12.4099 12.4874 12.7763 12.3763 13.0879 12.168C13.3996 11.9598 13.6425 11.6638 13.7859 11.3175C13.9293 10.9713 13.9668 10.5902 13.8937 10.2226C13.8206 9.85502 13.6401 9.51735 13.3751 9.25232C13.1101 8.98729 12.7724 8.8068 12.4048 8.73368C12.0372 8.66056 11.6561 8.69809 11.3099 8.84152C10.9636 8.98495 10.6676 9.22785 10.4594 9.53949C10.2512 9.85113 10.14 10.2175 10.14 10.5923C10.1406 11.0948 10.3404 11.5765 10.6957 11.9317C11.0509 12.287 11.5326 12.4868 12.0351 12.4874ZM12.0351 9.82236C12.1874 9.82236 12.3363 9.86753 12.4629 9.95215C12.5895 10.0368 12.6882 10.157 12.7465 10.2978C12.8048 10.4385 12.8201 10.5933 12.7903 10.7427C12.7606 10.8921 12.6873 11.0293 12.5796 11.137C12.4719 11.2447 12.3346 11.318 12.1853 11.3477C12.0359 11.3774 11.881 11.3621 11.7403 11.3038C11.5996 11.2455 11.4794 11.1468 11.3947 11.0202C11.3101 10.8935 11.265 10.7446 11.265 10.5923C11.2651 10.3881 11.3463 10.1923 11.4907 10.0478C11.6351 9.90337 11.8308 9.82212 12.0351 9.82189V9.82236Z" fill="#6100FF"/>
<path d="M32.6988 28.9164C32.5243 29.2264 32.4327 29.5761 32.4327 29.9318C32.4327 30.2875 32.5243 30.6372 32.6988 30.9472L31.9039 31.7421C31.8505 31.7941 31.8079 31.8561 31.7787 31.9247C31.7495 31.9932 31.7342 32.0669 31.7337 32.1414C31.7331 32.2159 31.7474 32.2898 31.7757 32.3587C31.804 32.4276 31.8457 32.4903 31.8984 32.543C31.9511 32.5957 32.0137 32.6374 32.0826 32.6656C32.1516 32.6939 32.2254 32.7082 32.2999 32.7077C32.3744 32.7072 32.4481 32.6919 32.5167 32.6627C32.5852 32.6335 32.6473 32.591 32.6992 32.5376L33.4941 31.7426C33.8041 31.917 34.1538 32.0086 34.5095 32.0086C34.8652 32.0086 35.2149 31.917 35.5249 31.7426L36.3198 32.5375C36.4252 32.643 36.5683 32.7023 36.7175 32.7023C36.8667 32.7023 37.0098 32.643 37.1153 32.5375C37.2208 32.432 37.28 32.289 37.28 32.1398C37.2801 31.9906 37.2208 31.8475 37.1153 31.742L36.3197 30.9463C36.4927 30.6361 36.5835 30.2869 36.5835 29.9317C36.5835 29.5765 36.4927 29.2273 36.3197 28.9171L37.1153 28.1214C37.2208 28.0159 37.2801 27.8728 37.28 27.7236C37.28 27.5744 37.2208 27.4314 37.1153 27.3259C37.0098 27.2204 36.8667 27.1611 36.7175 27.1611C36.5683 27.1612 36.4252 27.2204 36.3198 27.3259L35.5249 28.1208C35.2149 27.9465 34.8653 27.8549 34.5096 27.8549C34.1539 27.8549 33.8042 27.9465 33.4942 28.1208L32.6992 27.3259C32.6473 27.2725 32.5852 27.23 32.5167 27.2008C32.4481 27.1716 32.3744 27.1563 32.2999 27.1558C32.2254 27.1553 32.1516 27.1696 32.0826 27.1979C32.0137 27.2262 31.9511 27.2678 31.8984 27.3205C31.8457 27.3732 31.804 27.4359 31.7757 27.5048C31.7474 27.5737 31.7331 27.6476 31.7337 27.7221C31.7342 27.7966 31.7495 27.8703 31.7787 27.9388C31.8079 28.0074 31.8505 28.0694 31.9039 28.1214L32.6988 28.9164ZM34.5096 28.98C34.7299 28.9799 34.9434 29.0563 35.1137 29.196C35.284 29.3357 35.4006 29.5302 35.4436 29.7462C35.4866 29.9623 35.4534 30.1866 35.3495 30.3808C35.2457 30.5751 35.0777 30.7274 34.8742 30.8117C34.6707 30.896 34.4442 30.9072 34.2334 30.8432C34.0226 30.7793 33.8405 30.6442 33.7181 30.461C33.5957 30.2779 33.5407 30.0579 33.5623 29.8387C33.5839 29.6195 33.6808 29.4145 33.8366 29.2588C33.9247 29.1701 34.0296 29.0998 34.145 29.052C34.2605 29.0041 34.3843 28.9796 34.5093 28.98H34.5096Z" fill="#181818"/>
<path d="M22.3863 28.9164C22.2118 29.2264 22.1202 29.5761 22.1202 29.9318C22.1202 30.2875 22.2118 30.6372 22.3863 30.9472L21.5914 31.7421C21.538 31.7941 21.4954 31.8561 21.4662 31.9247C21.437 31.9932 21.4217 32.0669 21.4212 32.1414C21.4206 32.2159 21.4349 32.2898 21.4632 32.3587C21.4915 32.4276 21.5332 32.4903 21.5859 32.543C21.6386 32.5957 21.7012 32.6374 21.7701 32.6656C21.8391 32.6939 21.9129 32.7082 21.9874 32.7077C22.0619 32.7072 22.1356 32.6919 22.2041 32.6627C22.2727 32.6335 22.3348 32.591 22.3867 32.5376L23.1816 31.7426C23.4916 31.917 23.8413 32.0086 24.197 32.0086C24.5527 32.0086 24.9024 31.917 25.2124 31.7426L26.0073 32.5375C26.1127 32.643 26.2558 32.7023 26.405 32.7023C26.5542 32.7023 26.6973 32.643 26.8028 32.5375C26.9083 32.432 26.9675 32.289 26.9676 32.1398C26.9676 31.9906 26.9083 31.8475 26.8028 31.742L26.0072 30.9463C26.1802 30.6361 26.2711 30.2869 26.2711 29.9317C26.2711 29.5765 26.1802 29.2273 26.0072 28.9171L26.8028 28.1214C26.9083 28.0159 26.9676 27.8728 26.9676 27.7236C26.9675 27.5744 26.9083 27.4314 26.8028 27.3259C26.6973 27.2204 26.5542 27.1611 26.405 27.1611C26.2558 27.1612 26.1127 27.2204 26.0073 27.3259L25.2124 28.1208C24.9024 27.9465 24.5528 27.8549 24.1971 27.8549C23.8414 27.8549 23.4917 27.9465 23.1817 28.1208L22.3867 27.3259C22.3348 27.2725 22.2727 27.23 22.2041 27.2008C22.1356 27.1716 22.0619 27.1563 21.9874 27.1558C21.9129 27.1553 21.8391 27.1696 21.7701 27.1979C21.7012 27.2262 21.6386 27.2678 21.5859 27.3205C21.5332 27.3732 21.4915 27.4359 21.4632 27.5048C21.4349 27.5737 21.4206 27.6476 21.4212 27.7221C21.4217 27.7966 21.437 27.8703 21.4662 27.9388C21.4954 28.0074 21.538 28.0694 21.5914 28.1214L22.3863 28.9164ZM24.1971 28.98C24.4174 28.9799 24.6309 29.0563 24.8012 29.196C24.9715 29.3357 25.0881 29.5302 25.1311 29.7462C25.1741 29.9623 25.1409 30.1866 25.037 30.3808C24.9332 30.5751 24.7652 30.7274 24.5617 30.8117C24.3582 30.896 24.1317 30.9072 23.9209 30.8432C23.7101 30.7793 23.528 30.6442 23.4056 30.461C23.2832 30.2779 23.2282 30.0579 23.2498 29.8387C23.2714 29.6195 23.3683 29.4145 23.5241 29.2588C23.6122 29.1701 23.7171 29.0998 23.8326 29.052C23.948 29.0041 24.0719 28.9796 24.1969 28.98H24.1971Z" fill="#181818"/>
<path d="M12.0738 28.9164C11.8993 29.2264 11.8077 29.5761 11.8077 29.9318C11.8077 30.2875 11.8993 30.6372 12.0738 30.9472L11.2789 31.7421C11.2255 31.7941 11.1829 31.8561 11.1537 31.9247C11.1245 31.9932 11.1092 32.0669 11.1087 32.1414C11.1081 32.2159 11.1224 32.2898 11.1507 32.3587C11.179 32.4276 11.2207 32.4903 11.2734 32.543C11.3261 32.5957 11.3887 32.6374 11.4576 32.6656C11.5266 32.6939 11.6004 32.7082 11.6749 32.7077C11.7494 32.7072 11.8231 32.6919 11.8917 32.6627C11.9602 32.6335 12.0223 32.591 12.0742 32.5376L12.8691 31.7426C13.1791 31.917 13.5288 32.0086 13.8845 32.0086C14.2402 32.0086 14.5899 31.917 14.8999 31.7426L15.6948 32.5375C15.8002 32.643 15.9433 32.7023 16.0925 32.7023C16.2417 32.7023 16.3848 32.643 16.4903 32.5375C16.5958 32.432 16.655 32.289 16.6551 32.1398C16.6551 31.9906 16.5958 31.8475 16.4903 31.742L15.6947 30.9463C15.8677 30.6361 15.9586 30.2869 15.9586 29.9317C15.9586 29.5765 15.8677 29.2273 15.6947 28.9171L16.4903 28.1214C16.5426 28.0692 16.584 28.0071 16.6123 27.9389C16.6405 27.8706 16.6551 27.7975 16.6551 27.7236C16.6551 27.6498 16.6405 27.5766 16.6122 27.5084C16.584 27.4401 16.5425 27.3781 16.4903 27.3259C16.438 27.2736 16.376 27.2322 16.3078 27.204C16.2395 27.1757 16.1664 27.1611 16.0925 27.1611C16.0186 27.1611 15.9455 27.1757 15.8772 27.204C15.809 27.2322 15.747 27.2737 15.6948 27.3259L14.8999 28.1208C14.5899 27.9465 14.2403 27.8549 13.8846 27.8549C13.5289 27.8549 13.1792 27.9465 12.8692 28.1208L12.0742 27.3259C12.0223 27.2725 11.9602 27.23 11.8917 27.2008C11.8231 27.1716 11.7494 27.1563 11.6749 27.1558C11.6004 27.1553 11.5266 27.1696 11.4576 27.1979C11.3887 27.2262 11.3261 27.2678 11.2734 27.3205C11.2207 27.3732 11.179 27.4359 11.1507 27.5048C11.1224 27.5737 11.1081 27.6476 11.1087 27.7221C11.1092 27.7966 11.1245 27.8703 11.1537 27.9388C11.1829 28.0074 11.2255 28.0694 11.2789 28.1214L12.0738 28.9164ZM13.8846 28.98C14.1049 28.9799 14.3184 29.0563 14.4887 29.196C14.659 29.3357 14.7756 29.5302 14.8186 29.7462C14.8616 29.9623 14.8284 30.1866 14.7245 30.3808C14.6207 30.5751 14.4527 30.7274 14.2492 30.8117C14.0457 30.896 13.8192 30.9072 13.6084 30.8432C13.3976 30.7793 13.2155 30.6442 13.0931 30.461C12.9707 30.2779 12.9157 30.0579 12.9373 29.8387C12.9589 29.6195 13.0558 29.4145 13.2116 29.2588C13.2997 29.1701 13.4046 29.0998 13.5201 29.052C13.6355 29.0041 13.7594 28.9796 13.8844 28.98H13.8846Z" fill="#181818"/>
</svg>
