<svg width="48" height="48" viewBox="0 0 48 48" fill="none" xmlns="http://www.w3.org/2000/svg">
<path d="M42.0736 15.6896H38.6135V8.88066C38.6135 7.71469 38.1499 6.62794 37.391 5.83341L35.1553 3.49397C33.258 1.53909 33.0185 0.986812 31.8885 0.438281C31.3635 0.17625 30.6717 0 29.9742 0H13.6437C11.211 0 9.23257 1.97934 9.23257 4.41112V28.1991H8.30229C6.89885 28.1991 5.75744 29.3405 5.75744 30.7439C5.75744 31.4423 6.04019 32.0748 6.49638 32.5347C6.04019 32.9947 5.75744 33.6271 5.75744 34.3255C5.75744 34.5876 5.79419 34.7431 5.80741 34.8289C0.284974 35.3906 -1.91496 42.2259 2.12669 45.9358C3.34732 47.0565 4.96751 47.6917 6.72438 47.6201C7.30497 47.6201 19.2583 47.6154 19.2734 47.6154C20.6759 47.6154 21.8182 46.474 21.8182 45.0706C21.8182 44.3722 21.5355 43.7397 21.0793 43.2798C21.5082 42.8471 21.7834 42.2637 21.8145 41.6152H22.7693V42.1252C22.7693 45.3647 25.4046 48 28.6442 48H42.0736C45.3131 48 47.9484 45.3647 47.9484 42.1252V21.5645C47.9485 18.3249 45.3131 15.6896 42.0736 15.6896ZM36.0706 6.63553C36.0706 6.63553 36.0715 6.63553 36.0724 6.63741C36.0734 6.63741 36.0734 6.63741 36.0734 6.63741C36.0743 6.63928 36.0762 6.64116 36.0771 6.64209L36.0781 6.64303C36.0799 6.64584 36.0818 6.64772 36.0837 6.64866C36.0846 6.64959 36.0856 6.65053 36.0865 6.65241C36.0874 6.65334 36.0884 6.65334 36.0884 6.65428C36.0893 6.65522 36.0903 6.65522 36.0912 6.65709C36.0931 6.65803 36.094 6.65991 36.0949 6.66084H32.3163V2.66644C35.2779 5.79666 35.9452 6.50259 36.0706 6.63553ZM8.30229 29.7071H19.2735C19.8447 29.7071 20.3103 30.1728 20.3103 30.7439C20.3103 31.3161 19.8446 31.7807 19.2735 31.7807H8.30229C7.73107 31.7807 7.26551 31.3161 7.26551 30.7439C7.26541 30.1727 7.73107 29.7071 8.30229 29.7071ZM8.30229 33.2887H19.2735C19.8447 33.2887 20.3103 33.7544 20.3103 34.3255C20.3103 34.8977 19.8446 35.3623 19.2735 35.3623H11.6954C11.3871 35.2209 11.0676 35.1059 10.7405 35.0173C10.2523 34.8844 9.74707 34.809 9.23248 34.7958C9.08454 34.792 8.93651 34.793 8.78857 34.7995H7.38138C7.30694 34.6572 7.26541 34.4961 7.26541 34.3254C7.26541 33.7544 7.73107 33.2887 8.30229 33.2887ZM20.3103 37.9072C20.3103 38.4794 19.8446 38.944 19.2735 38.944H15.0537C14.7672 38.1815 14.3355 37.4793 13.7737 36.8705H19.2735C19.8446 36.8705 20.3103 37.336 20.3103 37.9072ZM4.63385 36.5538C4.17485 36.9893 3.76666 37.5067 3.44622 38.0769H2.56779C3.14182 37.3653 3.85535 36.8591 4.63385 36.5538ZM1.76566 39.4907H2.86376C2.83929 39.5963 2.71479 40.0025 2.65826 40.6208H1.49801C1.54329 40.2325 1.63282 39.8536 1.76566 39.4907ZM1.88726 43.2279C1.72047 42.849 1.60076 42.4485 1.53288 42.0347H2.68469C2.89113 43.2053 2.90238 43.0036 2.95422 43.2279H1.88726ZM2.82794 44.6417C3.29069 44.6408 3.55938 44.6436 3.62247 44.6398C3.90429 45.0847 4.24357 45.4966 4.63666 45.867C3.95332 45.5984 3.34544 45.1884 2.82794 44.6417ZM9.26173 46.2073C6.50294 46.3261 4.16726 44.1893 4.05035 41.4239C3.86088 37.0213 9.11932 34.4858 12.4305 37.5255C15.6947 40.5218 13.7077 46.0244 9.26173 46.2073ZM19.2735 46.1074H13.1875C13.8614 45.5371 14.4147 44.8312 14.8077 44.0338H19.2735C19.8447 44.0338 20.3103 44.4995 20.3103 45.0706C20.3103 45.6427 19.8446 46.1074 19.2735 46.1074ZM20.3018 41.6152C20.2396 42.128 19.8022 42.5257 19.2735 42.5257H15.328C15.4647 41.8717 15.5033 41.1666 15.4194 40.4522H19.2735C19.9087 40.4521 20.3828 41.0205 20.3018 41.6152ZM22.7693 40.1071H21.4083C21.3131 39.9592 21.2028 39.8225 21.0793 39.6981C22.0642 38.7046 22.0652 37.1098 21.0793 36.1164C21.5355 35.6565 21.8182 35.0241 21.8182 34.3256C21.8182 33.6272 21.5355 32.9948 21.0793 32.5348C22.6646 30.9363 21.5317 28.1992 19.2734 28.1992H10.7405V4.41112C10.7405 2.81072 12.0431 1.50806 13.6436 1.50806H30.8083V7.41497C30.8083 7.83159 31.1457 8.169 31.5623 8.169H37.0159C37.1733 8.77978 37.0761 8.57803 37.1054 15.6895H28.6442C25.4046 15.6895 22.7693 18.3248 22.7693 21.5644V40.1071ZM46.5347 42.1252C46.5347 44.5852 44.5337 46.5863 42.0736 46.5863H28.6443C26.1852 46.5863 24.1832 44.5853 24.1832 42.1252V21.5645C24.1832 19.1045 26.1851 17.1034 28.6443 17.1034H42.0737C44.5337 17.1034 46.5348 19.1044 46.5348 21.5645V42.1252H46.5347Z" fill="#181818"/>
<path d="M42.0237 18.7065H28.6943C27.3835 18.7065 26.321 19.7691 26.321 21.0798V23.6671C26.321 24.9779 27.3835 26.0404 28.6943 26.0404H31.2589C31.6493 26.0404 31.9658 25.7239 31.9658 25.3335C31.9658 24.9432 31.6493 24.6267 31.2589 24.6267H28.6943C28.1665 24.6267 27.7347 24.1949 27.7347 23.6671V21.0798C27.7347 20.5521 28.1665 20.1203 28.6943 20.1203H42.0237C42.5534 20.1203 42.9833 20.5511 42.9833 21.0798V23.6671C42.9833 24.1959 42.5534 24.6267 42.0237 24.6267H34.3072C33.9168 24.6267 33.6003 24.9432 33.6003 25.3335C33.6003 25.7239 33.9168 26.0404 34.3072 26.0404H42.0237C43.333 26.0404 44.397 24.9753 44.397 23.6671V21.0798C44.397 19.7716 43.3329 18.7065 42.0237 18.7065Z" fill="#181818"/>
<path d="M30.2165 33.6025H27.8007C26.9854 33.6025 26.321 34.2661 26.321 35.0823V37.4971C26.321 38.3134 26.9855 38.9768 27.8007 38.9768H30.2165C31.0328 38.9768 31.6962 38.3133 31.6962 37.4971V35.0823C31.6962 34.2661 31.0327 33.6025 30.2165 33.6025ZM30.2824 37.4971C30.2824 37.5338 30.2522 37.5631 30.2164 37.5631H27.8006C27.7648 37.5631 27.7346 37.5338 27.7346 37.4971V35.0823C27.7346 35.0455 27.7648 35.0163 27.8006 35.0163H30.2164C30.2522 35.0163 30.2824 35.0455 30.2824 35.0823V37.4971Z" fill="#181818"/>
<path d="M42.9936 27.2876H40.5787C39.7625 27.2876 39.099 27.9512 39.099 28.7673V31.1822C39.099 31.9984 39.7626 32.6619 40.5787 32.6619H42.9936C43.8098 32.6619 44.4733 31.9983 44.4733 31.1822V28.7673C44.4733 27.9512 43.8097 27.2876 42.9936 27.2876ZM43.0596 31.1822C43.0596 31.2189 43.0303 31.2482 42.9936 31.2482H40.5787C40.5429 31.2482 40.5127 31.2189 40.5127 31.1822C40.542 28.7928 40.4514 28.7013 40.5787 28.7013H42.9936C43.0303 28.7013 43.0596 28.7306 43.0596 28.7673V31.1822Z" fill="#181818"/>
<path d="M30.2165 27.2876H27.8007C26.9854 27.2876 26.321 27.9512 26.321 28.7673V31.1822C26.321 31.9984 26.9855 32.6619 27.8007 32.6619H30.2165C31.0328 32.6619 31.6962 31.9983 31.6962 31.1822V28.7673C31.6962 27.9512 31.0327 27.2876 30.2165 27.2876ZM30.2824 31.1822C30.2824 31.2189 30.2522 31.2482 30.2164 31.2482H27.8006C27.7648 31.2482 27.7346 31.2189 27.7346 31.1822V28.7673C27.7346 28.7306 27.7648 28.7013 27.8006 28.7013H30.2164C30.2522 28.7013 30.2824 28.7306 30.2824 28.7673V31.1822Z" fill="#181818"/>
<path d="M31.3239 40.107C31.0524 39.8016 30.6566 39.6084 30.2164 39.6084H27.8007C27.3605 39.6084 26.9646 39.8016 26.6942 40.107C26.1805 40.6829 26.3549 41.3106 26.3209 41.615V43.503C26.3209 44.3192 26.9854 44.9827 27.8007 44.9827H30.2164C31.0327 44.9827 31.6962 44.3191 31.6962 43.503V41.615C31.6623 41.3173 31.8348 40.6829 31.3239 40.107ZM30.2164 43.569C27.8299 43.5397 27.7347 43.6303 27.7347 43.503C27.7347 40.9458 27.7064 41.0221 27.8007 41.0221H30.2164C30.3324 41.0221 30.2608 41.1833 30.2825 41.615C30.2824 41.6151 30.3437 43.569 30.2164 43.569Z" fill="#181818"/>
<path d="M42.6183 33.6025H40.9538C39.9312 33.6025 39.0989 34.4348 39.0989 35.4575V42.9573C39.0989 44.0742 40.0075 44.9828 41.1235 44.9828H42.4487C43.5657 44.9828 44.4734 44.0742 44.4734 42.9573V35.4575C44.4733 34.4348 43.642 33.6025 42.6183 33.6025ZM42.4487 43.569H41.1235C40.787 43.569 40.5127 43.2947 40.5127 42.9573V35.4575C40.5127 35.2143 40.7106 35.0164 40.9538 35.0164H42.6183C42.8615 35.0164 43.0594 35.2143 43.0594 35.4575V42.9573C43.0595 43.2947 42.7862 43.569 42.4487 43.569Z" fill="#181818"/>
<path d="M18.2482 20.5337C17.3862 20.217 16.7635 19.9883 16.7635 19.1897C16.7635 18.4619 17.2469 18.0929 18.2001 18.0929C19.2119 18.0929 19.4843 18.5384 19.8408 18.5384C20.2287 18.5384 20.4433 18.1267 20.4433 17.842C20.4433 17.253 19.4827 16.961 18.6239 16.8839V16.3529C18.6239 15.9836 18.3234 15.6831 17.9541 15.6831C17.5847 15.6831 17.2842 15.9836 17.2842 16.3529V16.9686C16.11 17.2474 15.4648 18.0584 15.4648 19.2601C15.4648 20.9054 16.6761 21.3606 17.6496 21.7265C18.6026 22.0846 19.3555 22.3676 19.3555 23.4557C19.3555 24.3545 18.8565 24.8102 17.872 24.8102C16.4313 24.8102 16.4178 23.8375 15.8682 23.8375C15.5279 23.8375 15.2538 24.2185 15.2538 24.5339C15.2538 25.0909 16.0834 25.8231 17.2842 26.0131V26.5262C17.2842 26.8956 17.5847 27.1961 17.9541 27.1961C18.3234 27.1961 18.6239 26.8956 18.6239 26.5262V25.9994C19.9156 25.7563 20.6543 24.8078 20.6543 23.3853C20.6543 21.4178 19.3202 20.9277 18.2482 20.5337Z" fill="#6100FF"/>
<path d="M37.5928 40.0231C37.327 39.7667 36.965 39.6084 36.5673 39.6084H34.1515C33.7114 39.6084 33.3155 39.8016 33.044 40.107C32.5323 40.6838 32.7057 41.3106 32.6718 41.615V43.503C32.6718 44.3192 33.3353 44.9827 34.1515 44.9827H36.5673C37.3826 44.9827 38.0461 44.3191 38.0461 43.503V41.0872C38.0461 40.6697 37.8717 40.2917 37.5928 40.0231ZM36.5673 43.569C34.1808 43.5397 34.0855 43.6303 34.0855 43.503V41.0872C34.0855 41.0514 34.1157 41.0221 34.1515 41.0221H36.5673C36.6031 41.0221 36.6323 41.0514 36.6323 41.0872C36.604 43.4794 36.6926 43.569 36.5673 43.569Z" fill="#181818"/>
<path d="M36.5673 27.2876H34.1515C33.3352 27.2876 32.6718 27.9512 32.6718 28.7673V31.1822C32.6718 31.9984 33.3353 32.6619 34.1515 32.6619H36.5673C36.7577 32.6619 36.9386 32.6261 37.1055 32.5601C37.6559 32.3443 38.0462 31.8079 38.0462 31.1821V28.7673C38.0461 27.9483 37.3788 27.2876 36.5673 27.2876ZM36.5673 31.2482H34.1515C34.1157 31.2482 34.0855 31.2189 34.0855 31.1822V28.7673C34.0855 28.6401 34.1732 28.7297 36.5673 28.7013C36.6031 28.7013 36.6323 28.7306 36.6323 28.7673V31.1822C36.6323 31.2189 36.6031 31.2482 36.5673 31.2482Z" fill="#181818"/>
<path d="M37.1055 33.7044C36.9387 33.6384 36.7577 33.6025 36.5673 33.6025H34.1515C33.3352 33.6025 32.6718 34.2661 32.6718 35.0823V37.4971C32.6718 38.3134 33.3353 38.9768 34.1515 38.9768H36.5673C37.3826 38.9768 38.0461 38.3133 38.0461 37.4971V35.0823C38.0461 34.4565 37.6559 33.9202 37.1055 33.7044ZM36.6323 37.4971C36.6323 37.5338 36.6031 37.5631 36.5673 37.5631H34.1515C34.1157 37.5631 34.0855 37.5338 34.0855 37.4971V35.0823C34.0855 35.0455 34.1157 35.0163 34.1515 35.0163H36.5673C36.6031 35.0163 36.6323 35.0455 36.6323 35.0823V37.4971Z" fill="#181818"/>
<path d="M32.487 9.66016H30.7113C30.3211 9.66016 30.0044 9.97684 30.0044 10.367C30.0044 10.7582 30.3211 11.0739 30.7113 11.0739H32.487C32.8772 11.0739 33.1939 10.7582 33.1939 10.367C33.194 9.97684 32.8772 9.66016 32.487 9.66016Z" fill="#6100FF"/>
<path d="M27.8836 9.66016H15.3478C14.9576 9.66016 14.6409 9.97684 14.6409 10.367C14.6409 10.7582 14.9576 11.0739 15.3478 11.0739H27.8837C28.2739 11.0739 28.5906 10.7582 28.5906 10.367C28.5906 9.97684 28.2739 9.66016 27.8836 9.66016Z" fill="#6100FF"/>
<path d="M17.5948 13.1694H15.3478C14.9576 13.1694 14.6409 13.4861 14.6409 13.8763C14.6409 14.2665 14.9576 14.5832 15.3478 14.5832H17.5948C17.985 14.5832 18.3017 14.2665 18.3017 13.8763C18.3017 13.4861 17.985 13.1694 17.5948 13.1694Z" fill="#6100FF"/>
<path d="M32.487 13.1694H20.4224C20.0322 13.1694 19.7155 13.4861 19.7155 13.8763C19.7155 14.2665 20.0322 14.5832 20.4224 14.5832H32.487C32.8772 14.5832 33.1939 14.2665 33.1939 13.8763C33.194 13.4861 32.8772 13.1694 32.487 13.1694Z" fill="#6100FF"/>
<path d="M8.64681 39.8588C8.64681 39.6812 8.71225 39.6302 8.77347 39.5962C8.96341 39.4912 9.39916 39.4602 9.79834 39.6655C9.90438 39.72 10.0246 39.7818 10.1809 39.7818C10.8782 39.7818 11.4296 38.4862 9.76413 38.1998V38.1553C9.76413 37.7603 9.44275 37.439 9.04778 37.439C8.65281 37.439 8.33144 37.7603 8.33144 38.1553V38.2912C7.63356 38.5444 7.23878 39.1199 7.23878 39.9011C7.23878 41.1067 8.11469 41.4359 8.75444 41.6762C9.36447 41.9054 9.57541 42.0057 9.57541 42.4207C9.57541 42.6801 9.50556 42.9202 8.99847 42.9202C8.25953 42.9202 8.34803 42.3361 7.795 42.3361C7.40416 42.3361 7.11194 42.7226 7.11194 43.0683C7.11194 43.558 7.62119 44.0228 8.33144 44.2113V44.2649C8.33144 44.6599 8.65281 44.9812 9.04778 44.9812C9.44275 44.9812 9.76413 44.66 9.76413 44.2649V44.1925C10.5327 43.9455 10.9835 43.2837 10.9835 42.3785C10.9835 40.2304 8.64681 40.553 8.64681 39.8588Z" fill="#181818"/>
</svg>
