<svg width="48" height="48" viewBox="0 0 48 48" fill="none" xmlns="http://www.w3.org/2000/svg">
<g clip-path="url(#clip0_1210_706)">
<path fill-rule="evenodd" clip-rule="evenodd" d="M34.2696 40.0764C33.9805 40.0764 33.7457 39.8419 33.7457 39.5524L33.7458 30.5227C33.7458 30.2332 33.9804 29.9988 34.2696 29.9988L42.9986 29.9985C43.2878 29.9985 43.5225 30.2334 43.5225 30.5227C43.5225 30.8121 43.2878 31.0467 42.9985 31.0467L34.7937 31.0466V39.5522C34.7937 39.8419 34.559 40.0764 34.2696 40.0764Z" fill="#181818"/>
<path fill-rule="evenodd" clip-rule="evenodd" d="M38.6341 40.0762C38.3447 40.0762 38.11 39.8416 38.11 39.5522L38.1101 30.5225C38.1101 30.2329 38.3447 29.9985 38.6341 29.9985C38.9234 29.9983 39.158 30.2332 39.158 30.5225L39.1582 39.552C39.1582 39.8416 38.9233 40.0762 38.6341 40.0762Z" fill="#181818"/>
<path fill-rule="evenodd" clip-rule="evenodd" d="M42.9986 12.8616H29.6291C29.3397 12.8616 29.105 12.6271 29.105 12.3378L29.1051 4.13567C29.1051 3.84634 29.3397 3.61182 29.6289 3.61182C29.9183 3.61171 30.153 3.84645 30.153 4.1359V11.8135H42.9986C43.2878 11.8135 43.5224 12.0483 43.5224 12.3378C43.5224 12.627 43.2878 12.8618 42.9986 12.8616Z" fill="#181818"/>
<path fill-rule="evenodd" clip-rule="evenodd" d="M42.9986 8.76093H29.6291C29.3397 8.76093 29.105 8.52641 29.105 8.23697C29.1051 7.94741 29.3397 7.713 29.6289 7.713L42.9986 7.71289C43.2878 7.71289 43.5224 7.94763 43.5224 8.23697C43.5224 8.52641 43.2878 8.76093 42.9986 8.76093Z" fill="#181818"/>
<path fill-rule="evenodd" clip-rule="evenodd" d="M42.9986 26.7323H36.5523C36.263 26.7323 36.0283 26.4977 36.0283 26.2083V17.4794C36.0283 17.1902 36.263 16.9557 36.5523 16.9557L42.9986 16.9556C43.2878 16.9556 43.5225 17.1903 43.5225 17.4796C43.5225 17.7689 43.2878 18.0035 42.9985 18.0035L37.0764 18.0034V25.6842H42.9986C43.2878 25.6842 43.5225 25.919 43.5225 26.2083C43.5225 26.4975 43.2878 26.7323 42.9986 26.7323Z" fill="#181818"/>
<path fill-rule="evenodd" clip-rule="evenodd" d="M23.434 36.0632H15.0065C14.7171 36.0632 14.4824 35.8288 14.4824 35.5393V31.7265C14.4824 31.4372 14.7171 31.2027 15.0064 31.2027L23.434 31.2026C23.7233 31.2026 23.9579 31.4374 23.9579 31.7267C23.958 32.0162 23.7232 32.2508 23.434 32.2508L15.5305 32.2507V35.0151H23.434C23.7233 35.0151 23.9579 35.2499 23.9579 35.5393C23.958 35.8287 23.7232 36.0633 23.434 36.0632Z" fill="#181818"/>
<path fill-rule="evenodd" clip-rule="evenodd" d="M10.7141 39.0283H42.4745V4.65997H10.7141V39.0283ZM42.9986 40.0763H10.19C9.90076 40.0763 9.66602 39.8418 9.66602 39.5523V4.13578C9.66602 3.84645 9.90065 3.61204 10.19 3.61204L42.9986 3.61182C43.2878 3.61182 43.5224 3.84656 43.5224 4.13601V39.5521C43.5224 39.8418 43.2878 40.0763 42.9986 40.0763Z" fill="#6100FF"/>
<path fill-rule="evenodd" clip-rule="evenodd" d="M23.4339 40.0766C23.1447 40.0766 22.91 39.842 22.91 39.5526V27.4126C22.91 27.1232 23.1446 26.8887 23.4339 26.8887H29.8551C30.1443 26.8887 30.3789 27.1233 30.3789 27.4127C30.3791 27.7019 30.1443 27.9366 29.855 27.9366L23.958 27.9365V39.5524C23.958 39.842 23.7232 40.0766 23.4339 40.0766Z" fill="#6100FF"/>
<path fill-rule="evenodd" clip-rule="evenodd" d="M14.8809 16.3733H10.19C9.90076 16.3733 9.66602 16.1388 9.66602 15.8493C9.66602 15.5598 9.90065 15.3254 10.19 15.3254L14.8809 15.3251C15.1701 15.3251 15.4048 15.56 15.4048 15.8493C15.4048 16.1387 15.1701 16.3734 14.8809 16.3733ZM22.004 16.3733H18.492C18.2028 16.3733 17.968 16.1388 17.968 15.8493C17.9681 15.5598 18.2028 15.3254 18.492 15.3254L21.4799 15.3251V4.13567C21.4799 3.84634 21.7145 3.61182 22.0038 3.61182C22.2931 3.61171 22.5278 3.84645 22.5278 4.1359V15.8493C22.5278 16.1387 22.2931 16.3734 22.004 16.3733Z" fill="#6100FF"/>
<path fill-rule="evenodd" clip-rule="evenodd" d="M15.4047 19.2379H17.9691V12.8616H15.4047V19.2379ZM18.4931 20.286H14.8809C14.5916 20.286 14.3568 20.0516 14.3568 19.7621V12.3377C14.3568 12.0481 14.5916 11.8137 14.8808 11.8137L18.4931 11.8135C18.7824 11.8135 19.0171 12.0483 19.0171 12.3378L19.0172 19.762C19.0172 20.0515 18.7823 20.2861 18.4931 20.286Z" fill="#181818"/>
<path fill-rule="evenodd" clip-rule="evenodd" d="M25.3149 23.8979H10.19C9.90076 23.8979 9.66602 23.6635 9.66602 23.3742C9.66602 23.0847 9.90065 22.8502 10.19 22.8502L25.3149 22.8501C25.6041 22.8501 25.8388 23.0847 25.8388 23.3742C25.8388 23.6634 25.6041 23.898 25.3149 23.8979Z" fill="#6100FF"/>
<path fill-rule="evenodd" clip-rule="evenodd" d="M27.3442 19.439H32.7173V16.6743H27.3442V19.439ZM33.2414 20.4868H26.8202C26.531 20.4868 26.2961 20.2525 26.2961 19.963L26.2963 16.1503C26.2963 15.861 26.5309 15.6265 26.8202 15.6265H33.2414C33.5306 15.6265 33.7652 15.8611 33.7652 16.1504L33.7654 19.9629C33.7654 20.2523 33.5306 20.487 33.2414 20.4868Z" fill="#181818"/>
<path fill-rule="evenodd" clip-rule="evenodd" d="M46.6097 43.6882H6.2732C5.98387 43.6882 5.74913 43.4538 5.74913 43.1644C5.74924 42.8747 5.98387 42.6404 6.27309 42.6404L46.0858 42.6402V1.04783H5.07999C3.30501 1.04783 1.91415 2.49804 1.91415 4.3492C1.91415 6.16936 3.29405 7.65025 4.99052 7.65025C5.36379 7.65013 5.72953 7.57916 6.07555 7.43875C6.34418 7.33013 6.64979 7.45946 6.75897 7.72776C6.86704 7.99572 6.73827 8.30144 6.46964 8.41007C5.99705 8.60118 5.50032 8.69829 4.99052 8.69829C2.7166 8.69829 0.866211 6.74736 0.866211 4.3492C0.866211 1.91029 2.71771 0.000110729 5.07999 0.000110729L46.6097 0C46.899 0 47.1337 0.234634 47.1337 0.524079L47.1338 43.1644C47.1338 43.4537 46.899 43.6883 46.6097 43.6882Z" fill="#181818"/>
<path fill-rule="evenodd" clip-rule="evenodd" d="M4.89552 48.0001C2.67408 48.0001 0.866211 46.1769 0.866211 43.936V4.34894C0.866211 4.05961 1.10096 3.8252 1.39018 3.8252C1.68062 3.82508 1.91415 4.05983 1.91415 4.34916V43.9358C1.91415 45.5991 3.25252 46.9522 4.89552 46.9522C5.26779 46.952 5.45115 46.8908 5.74913 46.7347L5.74924 7.92426C5.74924 7.63493 5.98387 7.4004 6.27309 7.4004C6.56243 7.40029 6.79717 7.63504 6.79717 7.92448V47.0464C6.79717 47.2377 6.69231 47.414 6.52533 47.5059L6.48713 47.5265C5.98608 47.8014 5.62467 48.0002 4.89552 48.0001Z" fill="#181818"/>
</g>
<defs>
<clipPath id="clip0_1210_706">
<rect width="48" height="48" fill="white"/>
</clipPath>
</defs>
</svg>
