<svg width="328" height="72" viewBox="0 0 328 72" fill="none" xmlns="http://www.w3.org/2000/svg">
<path d="M51.6 43.1L50.6075 42.9775L50.469 44.1H51.6V43.1ZM64.6 43.1H65.6V42.1H64.6V43.1ZM64.6 54V55H65.6V54H64.6ZM50.3 54V53H49.4172L49.3077 53.876L50.3 54ZM48.3 70V71H49.1828L49.2923 70.124L48.3 70ZM37 70L36.0077 69.876L35.8672 71H37V70ZM39 54L39.9923 54.124L40.1328 53H39V54ZM24.3 54V53H23.4172L23.3077 53.876L24.3 54ZM22.3 70V71H23.1828L23.2923 70.124L22.3 70ZM11.1 70L10.1077 69.876L9.96722 71H11.1V70ZM13.1 54L14.0923 54.124L14.2328 53H13.1V54ZM1.41561e-07 54H-1V55H1.41561e-07V54ZM1.41561e-07 43.1V42.1H-1V43.1H1.41561e-07ZM14.4 43.1V44.1H15.2787L15.3917 43.2286L14.4 43.1ZM16.5 26.9L17.4917 27.0286L17.638 25.9H16.5V26.9ZM3.4 26.9H2.4V27.9H3.4V26.9ZM3.4 16V15H2.4V16H3.4ZM17.8 16V17H18.6828L18.7923 16.124L17.8 16ZM19.8 -4.76837e-06V-1H18.9172L18.8077 -0.124039L19.8 -4.76837e-06ZM31 -4.76837e-06L31.9923 0.12403L32.1328 -1H31V-4.76837e-06ZM29 16L28.0077 15.876L27.8672 17H29V16ZM43.7 16V17H44.5828L44.6923 16.124L43.7 16ZM45.7 -4.76837e-06V-1H44.8172L44.7077 -0.12404L45.7 -4.76837e-06ZM56.9 -4.76837e-06L57.8923 0.12403L58.0328 -1H56.9V-4.76837e-06ZM54.9 16L53.9077 15.876L53.7672 17H54.9V16ZM67.9 16L68.9 15.9908L68.8909 15H67.9V16ZM68 26.9V27.9H69.0092L69 26.8908L68 26.9ZM53.6 26.9V25.9H52.7159L52.6075 26.7775L53.6 26.9ZM40.3 43.1V44.1H41.1787L41.2917 43.2286L40.3 43.1ZM42.4 26.9L43.3917 27.0286L43.538 25.9H42.4V26.9ZM27.7 26.9V25.9H26.8213L26.7083 26.7714L27.7 26.9ZM25.6 43.1L24.6083 42.9714L24.462 44.1H25.6V43.1ZM51.6 44.1H64.6V42.1H51.6V44.1ZM63.6 43.1V54H65.6V43.1H63.6ZM64.6 53H50.3V55H64.6V53ZM49.3077 53.876L47.3077 69.876L49.2923 70.124L51.2923 54.124L49.3077 53.876ZM48.3 69H37V71H48.3V69ZM37.9923 70.124L39.9923 54.124L38.0077 53.876L36.0077 69.876L37.9923 70.124ZM39 53H24.3V55H39V53ZM23.3077 53.876L21.3077 69.876L23.2923 70.124L25.2923 54.124L23.3077 53.876ZM22.3 69H11.1V71H22.3V69ZM12.0923 70.124L14.0923 54.124L12.1077 53.876L10.1077 69.876L12.0923 70.124ZM13.1 53H1.41561e-07V55H13.1V53ZM1 54V43.1H-1V54H1ZM1.41561e-07 44.1H14.4V42.1H1.41561e-07V44.1ZM15.3917 43.2286L17.4917 27.0286L15.5083 26.7714L13.4083 42.9714L15.3917 43.2286ZM16.5 25.9H3.4V27.9H16.5V25.9ZM4.4 26.9V16H2.4V26.9H4.4ZM3.4 17H17.8V15H3.4V17ZM18.7923 16.124L20.7923 0.12403L18.8077 -0.124039L16.8077 15.876L18.7923 16.124ZM19.8 0.999995H31V-1H19.8V0.999995ZM30.0077 -0.12404L28.0077 15.876L29.9923 16.124L31.9923 0.12403L30.0077 -0.12404ZM29 17H43.7V15H29V17ZM44.6923 16.124L46.6923 0.12403L44.7077 -0.12404L42.7077 15.876L44.6923 16.124ZM45.7 0.999995H56.9V-1H45.7V0.999995ZM55.9077 -0.12404L53.9077 15.876L55.8923 16.124L57.8923 0.12403L55.9077 -0.12404ZM54.9 17H67.9V15H54.9V17ZM66.9 16.0092L67 26.9092L69 26.8908L68.9 15.9908L66.9 16.0092ZM68 25.9H53.6V27.9H68V25.9ZM52.6075 26.7775L50.6075 42.9775L52.5925 43.2225L54.5925 27.0225L52.6075 26.7775ZM41.2917 43.2286L43.3917 27.0286L41.4083 26.7714L39.3083 42.9714L41.2917 43.2286ZM42.4 25.9H27.7V27.9H42.4V25.9ZM26.7083 26.7714L24.6083 42.9714L26.5917 43.2286L28.6917 27.0286L26.7083 26.7714ZM25.6 44.1H40.3V42.1H25.6V44.1ZM130.973 16.2H131.973V15.2H130.973V16.2ZM130.973 70V71H131.973V70H130.973ZM115.373 70H114.373V71H115.373V70ZM115.373 29H116.373V28H115.373V29ZM92.9727 29V28H91.9727V29H92.9727ZM92.9727 70V71H93.9727V70H92.9727ZM77.4727 70H76.4727V71H77.4727V70ZM77.4727 16.2V15.2H76.4727V16.2H77.4727ZM129.973 16.2V70H131.973V16.2H129.973ZM130.973 69H115.373V71H130.973V69ZM116.373 70V29H114.373V70H116.373ZM115.373 28H92.9727V30H115.373V28ZM91.9727 29V70H93.9727V29H91.9727ZM92.9727 69H77.4727V71H92.9727V69ZM78.4727 70V16.2H76.4727V70H78.4727ZM77.4727 17.2H130.973V15.2H77.4727V17.2ZM197.53 16.2H198.53V15.2H197.53V16.2ZM197.53 70V71H198.53V70H197.53ZM181.93 70H180.93V71H181.93V70ZM181.93 29H182.93V28H181.93V29ZM164.93 29V28H163.981L163.931 28.9474L164.93 29ZM164.43 38.5L163.431 38.4474L163.431 38.4549L163.43 38.4623L164.43 38.5ZM162.43 56.1L161.455 55.8772L161.455 55.8772L162.43 56.1ZM157.23 67.1L157.973 67.769L157.973 67.769L157.23 67.1ZM139.13 69.9L138.132 69.8376L138.08 70.6641L138.882 70.8689L139.13 69.9ZM139.93 57.1L140.054 56.1077L138.998 55.9758L138.932 57.0376L139.93 57.1ZM147.43 54.8L146.607 54.2308L146.603 54.2377L147.43 54.8ZM149.83 48.3L150.818 48.4521L150.819 48.4483L149.83 48.3ZM150.73 37.8L151.729 37.8461L151.729 37.837L150.73 37.8ZM151.53 16.2V15.2H150.566L150.53 16.163L151.53 16.2ZM196.53 16.2V70H198.53V16.2H196.53ZM197.53 69H181.93V71H197.53V69ZM182.93 70V29H180.93V70H182.93ZM181.93 28H164.93V30H181.93V28ZM163.931 28.9474L163.431 38.4474L165.428 38.5526L165.928 29.0526L163.931 28.9474ZM163.43 38.4623C163.165 45.4931 162.503 51.2926 161.455 55.8772L163.405 56.3228C164.49 51.574 165.161 45.6402 165.429 38.5377L163.43 38.4623ZM161.455 55.8772C160.414 60.4313 158.741 63.9263 156.486 66.431L157.973 67.769C160.519 64.9404 162.312 61.102 163.405 56.3228L161.455 55.8772ZM156.486 66.431C154.312 68.8471 151.271 70.1 147.23 70.1V72.1C151.721 72.1 155.347 70.6863 157.973 67.769L156.486 66.431ZM147.23 70.1C145.074 70.1 142.461 69.7184 139.377 68.9311L138.882 70.8689C142.065 71.6816 144.853 72.1 147.23 72.1V70.1ZM140.128 69.9624L140.928 57.1624L138.932 57.0376L138.132 69.8376L140.128 69.9624ZM139.806 58.0923C140.874 58.2259 141.695 58.3 142.23 58.3V56.3C141.831 56.3 141.118 56.2408 140.054 56.1077L139.806 58.0923ZM142.23 58.3C144.834 58.3 146.906 57.3492 148.257 55.3623L146.603 54.2377C145.687 55.5841 144.292 56.3 142.23 56.3V58.3ZM148.252 55.3692C149.557 53.4842 150.401 51.1657 150.818 48.4521L148.841 48.1479C148.459 50.6343 147.703 52.6491 146.607 54.2308L148.252 55.3692ZM150.819 48.4483C151.226 45.7338 151.528 42.1958 151.729 37.8461L149.731 37.7539C149.532 42.0709 149.234 45.5329 148.841 48.1517L150.819 48.4483ZM151.729 37.837L152.529 16.237L150.53 16.163L149.73 37.763L151.729 37.837ZM151.53 17.2H197.53V15.2H151.53V17.2ZM252.631 21.4L251.964 22.145L251.97 22.1505L252.631 21.4ZM259.331 70V71H260.331V70H259.331ZM244.731 70H243.731V71H244.731V70ZM244.731 63.3H245.731V59.6192L243.869 62.794L244.731 63.3ZM217.531 68.7L217.108 69.6062L217.116 69.6097L217.531 68.7ZM210.631 62.9L209.792 63.4442L209.792 63.4442L210.631 62.9ZM213.831 42.7L213.229 41.9017L213.222 41.9068L213.831 42.7ZM243.731 38.4V39.4H244.731V38.4H243.731ZM240.631 30.6L239.961 31.3421L239.968 31.3482L239.974 31.3541L240.631 30.6ZM222.831 29.2L223.133 30.1532L223.141 30.151L223.147 30.1487L222.831 29.2ZM215.831 32.8L214.942 33.257L215.498 34.3403L216.453 33.5835L215.831 32.8ZM210.231 21.9L209.655 21.0825L208.944 21.5834L209.342 22.357L210.231 21.9ZM220.731 17.1L220.467 16.1356L220.463 16.1367L220.731 17.1ZM239.331 58.5L239.833 59.3648L239.844 59.3588L239.854 59.3526L239.331 58.5ZM243.731 53L244.672 53.3396L244.731 53.175V53H243.731ZM243.731 47.5H244.731V46.5H243.731V47.5ZM225.731 58.6L225.115 59.3875L225.134 59.4022L225.153 59.416L225.731 58.6ZM233.431 16.4C241.614 16.4 247.742 18.3636 251.964 22.1449L253.298 20.655C248.588 16.4364 241.915 14.4 233.431 14.4V16.4ZM251.97 22.1505C256.154 25.8347 258.331 31.4833 258.331 39.3H260.331C260.331 31.1167 258.042 24.832 253.292 20.6495L251.97 22.1505ZM258.331 39.3V70H260.331V39.3H258.331ZM259.331 69H244.731V71H259.331V69ZM245.731 70V63.3H243.731V70H245.731ZM243.869 62.794C241.18 67.3769 236.128 69.8 228.331 69.8V71.8C236.535 71.8 242.416 69.2231 245.594 63.806L243.869 62.794ZM228.331 69.8C224.31 69.8 220.857 69.1189 217.947 67.7903L217.116 69.6097C220.339 71.0811 224.086 71.8 228.331 71.8V69.8ZM217.954 67.7938C215.102 66.4628 212.956 64.646 211.47 62.3558L209.792 63.4442C211.507 66.0873 213.96 68.1372 217.108 69.6062L217.954 67.7938ZM211.47 62.3558C209.982 60.062 209.231 57.4535 209.231 54.5H207.231C207.231 57.8132 208.08 60.8047 209.792 63.4442L211.47 62.3558ZM209.231 54.5C209.231 49.7883 210.971 46.1573 214.44 43.4932L213.222 41.9068C209.225 44.9761 207.231 49.2117 207.231 54.5H209.231ZM214.433 43.4983C217.979 40.8235 223.552 39.4 231.331 39.4V37.4C223.377 37.4 217.283 38.8431 213.229 41.9017L214.433 43.4983ZM231.331 39.4H243.731V37.4H231.331V39.4ZM244.731 38.4C244.731 34.7862 243.624 31.8803 241.288 29.8459L239.974 31.3541C241.772 32.9197 242.731 35.2138 242.731 38.4H244.731ZM241.302 29.8579C238.98 27.7606 235.595 26.8 231.331 26.8V28.8C235.334 28.8 238.15 29.7061 239.961 31.3421L241.302 29.8579ZM231.331 26.8C228.354 26.8 225.414 27.285 222.515 28.2513L223.147 30.1487C225.849 29.2483 228.575 28.8 231.331 28.8V26.8ZM222.529 28.2468C219.698 29.1443 217.252 30.3965 215.21 32.0165L216.453 33.5835C218.277 32.1368 220.498 30.989 223.133 30.1532L222.529 28.2468ZM216.721 32.343L211.121 21.443L209.342 22.357L214.942 33.257L216.721 32.343ZM210.807 22.7175C213.632 20.7271 217.024 19.1712 221 18.0633L220.463 16.1367C216.305 17.2954 212.697 18.9396 209.655 21.0825L210.807 22.7175ZM220.996 18.0644C225.042 16.955 229.186 16.4 233.431 16.4V14.4C229.01 14.4 224.687 14.9784 220.467 16.1356L220.996 18.0644ZM232.231 61.3C235.053 61.3 237.597 60.6633 239.833 59.3648L238.829 57.6352C236.932 58.7367 234.742 59.3 232.231 59.3V61.3ZM239.854 59.3526C242.125 57.9608 243.732 55.941 244.672 53.3396L242.791 52.6604C241.997 54.859 240.671 56.5059 238.809 57.6474L239.854 59.3526ZM244.731 53V47.5H242.731V53H244.731ZM243.731 46.5H233.031V48.5H243.731V46.5ZM233.031 46.5C229.754 46.5 227.122 47.0319 225.283 48.239C223.37 49.4941 222.431 51.4019 222.431 53.8H224.431C224.431 51.9981 225.093 50.7559 226.38 49.911C227.741 49.018 229.909 48.5 233.031 48.5V46.5ZM222.431 53.8C222.431 56.0978 223.332 57.992 225.115 59.3875L226.348 57.8125C225.064 56.808 224.431 55.5022 224.431 53.8H222.431ZM225.153 59.416C226.977 60.7079 229.37 61.3 232.231 61.3V59.3C229.626 59.3 227.685 58.7588 226.309 57.784L225.153 59.416ZM272.883 16.2V15.2H271.883V16.2H272.883ZM288.383 16.2H289.383V15.2H288.383V16.2ZM288.383 37.2H287.383V38.2H288.383V37.2ZM311.783 37.2V38.2H312.783V37.2H311.783ZM311.783 16.2V15.2H310.783V16.2H311.783ZM327.383 16.2H328.383V15.2H327.383V16.2ZM327.383 70V71H328.383V70H327.383ZM311.783 70H310.783V71H311.783V70ZM311.783 49.9H312.783V48.9H311.783V49.9ZM288.383 49.9V48.9H287.383V49.9H288.383ZM288.383 70V71H289.383V70H288.383ZM272.883 70H271.883V71H272.883V70ZM272.883 17.2H288.383V15.2H272.883V17.2ZM287.383 16.2V37.2H289.383V16.2H287.383ZM288.383 38.2H311.783V36.2H288.383V38.2ZM312.783 37.2V16.2H310.783V37.2H312.783ZM311.783 17.2H327.383V15.2H311.783V17.2ZM326.383 16.2V70H328.383V16.2H326.383ZM327.383 69H311.783V71H327.383V69ZM312.783 70V49.9H310.783V70H312.783ZM311.783 48.9H288.383V50.9H311.783V48.9ZM287.383 49.9V70H289.383V49.9H287.383ZM288.383 69H272.883V71H288.383V69ZM273.883 70V16.2H271.883V70H273.883Z" fill="#8A8A8A"/>
</svg>
