<svg width="385" height="170" viewBox="0 0 385 170" fill="none" xmlns="http://www.w3.org/2000/svg">
<path d="M75.7758 43.1L74.7833 42.9775L74.6447 44.1H75.7758V43.1ZM88.7758 43.1H89.7758V42.1H88.7758V43.1ZM88.7758 54V55H89.7758V54H88.7758ZM74.4758 54V53H73.593L73.4835 53.876L74.4758 54ZM72.4758 70V71H73.3586L73.4681 70.124L72.4758 70ZM61.1758 70L60.1835 69.876L60.043 71H61.1758V70ZM63.1758 54L64.1681 54.124L64.3086 53H63.1758V54ZM48.4758 54V53H47.593L47.4835 53.876L48.4758 54ZM46.4758 70V71H47.3586L47.4681 70.124L46.4758 70ZM35.2758 70L34.2835 69.876L34.143 71H35.2758V70ZM37.2758 54L38.2681 54.124L38.4086 53H37.2758V54ZM24.1758 54H23.1758V55H24.1758V54ZM24.1758 43.1V42.1H23.1758V43.1H24.1758ZM38.5758 43.1V44.1H39.4545L39.5675 43.2285L38.5758 43.1ZM40.6758 26.9L41.6675 27.0286L41.8138 25.9H40.6758V26.9ZM27.5758 26.9H26.5758V27.9H27.5758V26.9ZM27.5758 16V15H26.5758V16H27.5758ZM41.9758 16V17H42.8586L42.9681 16.124L41.9758 16ZM43.9758 -4.76837e-06V-1H43.093L42.9835 -0.12404L43.9758 -4.76837e-06ZM55.1758 -4.76837e-06L56.1681 0.12403L56.3086 -1H55.1758V-4.76837e-06ZM53.1758 16L52.1835 15.876L52.043 17H53.1758V16ZM67.8758 16V17H68.7586L68.8681 16.124L67.8758 16ZM69.8758 -4.76837e-06V-1H68.993L68.8835 -0.12404L69.8758 -4.76837e-06ZM81.0758 -4.76837e-06L82.0681 0.12403L82.2086 -1H81.0758V-4.76837e-06ZM79.0758 16L78.0835 15.876L77.943 17H79.0758V16ZM92.0758 16L93.0757 15.9908L93.0667 15H92.0758V16ZM92.1758 26.9V27.9H93.185L93.1757 26.8908L92.1758 26.9ZM77.7758 26.9V25.9H76.8917L76.7833 26.7775L77.7758 26.9ZM64.4758 43.1V44.1H65.3545L65.4675 43.2285L64.4758 43.1ZM66.5758 26.9L67.5675 27.0286L67.7138 25.9H66.5758V26.9ZM51.8758 26.9V25.9H50.997L50.8841 26.7714L51.8758 26.9ZM49.7758 43.1L48.7841 42.9714L48.6378 44.1H49.7758V43.1ZM75.7758 44.1H88.7758V42.1H75.7758V44.1ZM87.7758 43.1V54H89.7758V43.1H87.7758ZM88.7758 53H74.4758V55H88.7758V53ZM73.4835 53.876L71.4835 69.876L73.4681 70.124L75.4681 54.124L73.4835 53.876ZM72.4758 69H61.1758V71H72.4758V69ZM62.1681 70.124L64.1681 54.124L62.1835 53.876L60.1835 69.876L62.1681 70.124ZM63.1758 53H48.4758V55H63.1758V53ZM47.4835 53.876L45.4835 69.876L47.4681 70.124L49.4681 54.124L47.4835 53.876ZM46.4758 69H35.2758V71H46.4758V69ZM36.2681 70.124L38.2681 54.124L36.2835 53.876L34.2835 69.876L36.2681 70.124ZM37.2758 53H24.1758V55H37.2758V53ZM25.1758 54V43.1H23.1758V54H25.1758ZM24.1758 44.1H38.5758V42.1H24.1758V44.1ZM39.5675 43.2285L41.6675 27.0286L39.6841 26.7714L37.5841 42.9714L39.5675 43.2285ZM40.6758 25.9H27.5758V27.9H40.6758V25.9ZM28.5758 26.9V16H26.5758V26.9H28.5758ZM27.5758 17H41.9758V15H27.5758V17ZM42.9681 16.124L44.9681 0.12403L42.9835 -0.12404L40.9835 15.876L42.9681 16.124ZM43.9758 0.999995H55.1758V-1H43.9758V0.999995ZM54.1835 -0.12404L52.1835 15.876L54.1681 16.124L56.1681 0.12403L54.1835 -0.12404ZM53.1758 17H67.8758V15H53.1758V17ZM68.8681 16.124L70.8681 0.12403L68.8835 -0.12404L66.8835 15.876L68.8681 16.124ZM69.8758 0.999995H81.0758V-1H69.8758V0.999995ZM80.0835 -0.12404L78.0835 15.876L80.0681 16.124L82.0681 0.12403L80.0835 -0.12404ZM79.0758 17H92.0758V15H79.0758V17ZM91.0758 16.0092L91.1758 26.9092L93.1757 26.8908L93.0757 15.9908L91.0758 16.0092ZM92.1758 25.9H77.7758V27.9H92.1758V25.9ZM76.7833 26.7775L74.7833 42.9775L76.7682 43.2225L78.7682 27.0225L76.7833 26.7775ZM65.4675 43.2285L67.5675 27.0286L65.5841 26.7714L63.4841 42.9714L65.4675 43.2285ZM66.5758 25.9H51.8758V27.9H66.5758V25.9ZM50.8841 26.7714L48.7841 42.9714L50.7675 43.2285L52.8675 27.0286L50.8841 26.7714ZM49.7758 44.1H64.4758V42.1H49.7758V44.1ZM101.648 16.2V15.2H100.648V16.2H101.648ZM117.148 16.2H118.148V15.2H117.148V16.2ZM117.148 37.2H116.148V38.2H117.148V37.2ZM140.548 37.2V38.2H141.548V37.2H140.548ZM140.548 16.2V15.2H139.548V16.2H140.548ZM156.148 16.2H157.148V15.2H156.148V16.2ZM156.148 70V71H157.148V70H156.148ZM140.548 70H139.548V71H140.548V70ZM140.548 49.9H141.548V48.9H140.548V49.9ZM117.148 49.9V48.9H116.148V49.9H117.148ZM117.148 70V71H118.148V70H117.148ZM101.648 70H100.648V71H101.648V70ZM101.648 17.2H117.148V15.2H101.648V17.2ZM116.148 16.2V37.2H118.148V16.2H116.148ZM117.148 38.2H140.548V36.2H117.148V38.2ZM141.548 37.2V16.2H139.548V37.2H141.548ZM140.548 17.2H156.148V15.2H140.548V17.2ZM155.148 16.2V70H157.148V16.2H155.148ZM156.148 69H140.548V71H156.148V69ZM141.548 70V49.9H139.548V70H141.548ZM140.548 48.9H117.148V50.9H140.548V48.9ZM116.148 49.9V70H118.148V49.9H116.148ZM117.148 69H101.648V71H117.148V69ZM102.648 70V16.2H100.648V70H102.648ZM211.182 21.4L210.515 22.145L210.521 22.1505L211.182 21.4ZM217.882 70V71H218.882V70H217.882ZM203.282 70H202.282V71H203.282V70ZM203.282 63.3H204.282V59.6192L202.42 62.794L203.282 63.3ZM176.082 68.7L175.659 69.6062L175.667 69.6097L176.082 68.7ZM169.182 62.9L168.343 63.4442L169.182 62.9ZM172.382 42.7L171.78 41.9017L171.773 41.9068L172.382 42.7ZM202.282 38.4V39.4H203.282V38.4H202.282ZM199.182 30.6L198.512 31.3421L198.518 31.3482L198.525 31.3541L199.182 30.6ZM181.382 29.2L181.684 30.1532L181.691 30.151L181.698 30.1487L181.382 29.2ZM174.382 32.8L173.493 33.257L174.049 34.3403L175.003 33.5835L174.382 32.8ZM168.782 21.9L168.206 21.0825L167.495 21.5834L167.893 22.357L168.782 21.9ZM179.282 17.1L179.018 16.1356L179.014 16.1367L179.282 17.1ZM197.882 58.5L198.384 59.3648L198.394 59.3588L198.405 59.3526L197.882 58.5ZM202.282 53L203.223 53.3396L203.282 53.175V53H202.282ZM202.282 47.5H203.282V46.5H202.282V47.5ZM184.282 58.6L183.666 59.3875L183.685 59.4022L183.704 59.416L184.282 58.6ZM191.982 16.4C200.165 16.4 206.292 18.3636 210.515 22.1449L211.849 20.655C207.138 16.4364 200.465 14.4 191.982 14.4V16.4ZM210.521 22.1505C214.705 25.8347 216.882 31.4833 216.882 39.3H218.882C218.882 31.1167 216.593 24.832 211.843 20.6495L210.521 22.1505ZM216.882 39.3V70H218.882V39.3H216.882ZM217.882 69H203.282V71H217.882V69ZM204.282 70V63.3H202.282V70H204.282ZM202.42 62.794C199.731 67.3769 194.678 69.8 186.882 69.8V71.8C195.086 71.8 200.967 69.2231 204.145 63.806L202.42 62.794ZM186.882 69.8C182.86 69.8 179.408 69.1189 176.497 67.7903L175.667 69.6097C178.89 71.0811 182.637 71.8 186.882 71.8V69.8ZM176.505 67.7938C173.653 66.4628 171.507 64.646 170.021 62.3558L168.343 63.4442C170.058 66.0873 172.511 68.1372 175.659 69.6062L176.505 67.7938ZM170.021 62.3558C168.533 60.062 167.782 57.4535 167.782 54.5H165.782C165.782 57.8132 166.631 60.8047 168.343 63.4442L170.021 62.3558ZM167.782 54.5C167.782 49.7883 169.521 46.1573 172.991 43.4931L171.773 41.9068C167.776 44.9761 165.782 49.2117 165.782 54.5H167.782ZM172.984 43.4983C176.53 40.8235 182.103 39.4 189.882 39.4V37.4C181.928 37.4 175.834 38.8431 171.78 41.9017L172.984 43.4983ZM189.882 39.4H202.282V37.4H189.882V39.4ZM203.282 38.4C203.282 34.7862 202.175 31.8803 199.839 29.8459L198.525 31.3541C200.323 32.9197 201.282 35.2138 201.282 38.4H203.282ZM199.852 29.8579C197.53 27.7606 194.146 26.8 189.882 26.8V28.8C193.885 28.8 196.7 29.7061 198.512 31.3421L199.852 29.8579ZM189.882 26.8C186.905 26.8 183.965 27.285 181.066 28.2513L181.698 30.1487C184.399 29.2483 187.126 28.8 189.882 28.8V26.8ZM181.08 28.2468C178.249 29.1443 175.803 30.3965 173.761 32.0165L175.003 33.5835C176.827 32.1368 179.048 30.989 181.684 30.1532L181.08 28.2468ZM175.272 32.343L169.672 21.443L167.893 22.357L173.493 33.257L175.272 32.343ZM169.358 22.7175C172.183 20.7271 175.575 19.1712 179.55 18.0633L179.014 16.1367C174.856 17.2954 171.248 18.9396 168.206 21.0825L169.358 22.7175ZM179.546 18.0644C183.593 16.955 187.737 16.4 191.982 16.4V14.4C187.56 14.4 183.238 14.9784 179.018 16.1356L179.546 18.0644ZM190.782 61.3C193.604 61.3 196.148 60.6633 198.384 59.3648L197.38 57.6352C195.483 58.7367 193.293 59.3 190.782 59.3V61.3ZM198.405 59.3526C200.675 57.9608 202.283 55.941 203.223 53.3396L201.341 52.6604C200.548 54.859 199.222 56.5059 197.359 57.6474L198.405 59.3526ZM203.282 53V47.5H201.282V53H203.282ZM202.282 46.5H191.582V48.5H202.282V46.5ZM191.582 46.5C188.304 46.5 185.673 47.0319 183.833 48.239C181.921 49.4941 180.982 51.4019 180.982 53.8H182.982C182.982 51.9981 183.643 50.7559 184.931 49.911C186.291 49.0181 188.46 48.5 191.582 48.5V46.5ZM180.982 53.8C180.982 56.0978 181.883 57.992 183.666 59.3875L184.898 57.8125C183.615 56.808 182.982 55.5022 182.982 53.8H180.982ZM183.704 59.416C185.528 60.7079 187.921 61.3 190.782 61.3V59.3C188.177 59.3 186.236 58.7588 184.86 57.784L183.704 59.416ZM313.534 16.2H314.534V15.2H313.534V16.2ZM313.534 70V71H314.534V70H313.534ZM231.434 70H230.434V71H231.434V70ZM231.434 16.2V15.2H230.434V16.2H231.434ZM246.934 16.2H247.934V15.2H246.934V16.2ZM246.934 57.2H245.934V58.2H246.934V57.2ZM264.834 57.2V58.2H265.834V57.2H264.834ZM264.834 16.2V15.2H263.834V16.2H264.834ZM280.334 16.2H281.334V15.2H280.334V16.2ZM280.334 57.2H279.334V58.2H280.334V57.2ZM298.034 57.2V58.2H299.034V57.2H298.034ZM298.034 16.2V15.2H297.034V16.2H298.034ZM312.534 16.2V70H314.534V16.2H312.534ZM313.534 69H231.434V71H313.534V69ZM232.434 70V16.2H230.434V70H232.434ZM231.434 17.2H246.934V15.2H231.434V17.2ZM245.934 16.2V57.2H247.934V16.2H245.934ZM246.934 58.2H264.834V56.2H246.934V58.2ZM265.834 57.2V16.2H263.834V57.2H265.834ZM264.834 17.2H280.334V15.2H264.834V17.2ZM279.334 16.2V57.2H281.334V16.2H279.334ZM280.334 58.2H298.034V56.2H280.334V58.2ZM299.034 57.2V16.2H297.034V57.2H299.034ZM298.034 17.2H313.534V15.2H298.034V17.2ZM328.504 16.2V15.2H327.504V16.2H328.504ZM344.004 16.2H345.004V15.2H344.004V16.2ZM344.004 48.2H343.004V50.9999L344.778 48.8335L344.004 48.2ZM370.204 16.2V15.2H369.73L369.43 15.5665L370.204 16.2ZM384.504 16.2H385.504V15.2H384.504V16.2ZM384.504 70V71H385.504V70H384.504ZM369.004 70H368.004V71H369.004V70ZM369.004 38H370.004V35.1918L368.229 37.3679L369.004 38ZM342.904 70V71H343.379L343.679 70.632L342.904 70ZM328.504 70H327.504V71H328.504V70ZM328.504 17.2H344.004V15.2H328.504V17.2ZM343.004 16.2V48.2H345.004V16.2H343.004ZM344.778 48.8335L370.978 16.8335L369.43 15.5665L343.23 47.5665L344.778 48.8335ZM370.204 17.2H384.504V15.2H370.204V17.2ZM383.504 16.2V70H385.504V16.2H383.504ZM384.504 69H369.004V71H384.504V69ZM370.004 70V38H368.004V70H370.004ZM368.229 37.3679L342.129 69.368L343.679 70.632L369.779 38.632L368.229 37.3679ZM342.904 69H328.504V71H342.904V69ZM329.504 70V16.2H327.504V70H329.504ZM45.6789 98.9L45.1812 99.7674L45.1896 99.7722L45.1981 99.7768L45.6789 98.9ZM55.3789 108.6L54.5047 109.086L54.5081 109.092L55.3789 108.6ZM55.3789 137.7L56.2497 138.192L56.2531 138.186L55.3789 137.7ZM45.6789 147.4L46.1658 148.273L46.1705 148.271L45.6789 147.4ZM15.8789 144.3L16.6194 143.628L14.8789 141.71V144.3H15.8789ZM15.8789 169.4V170.4H16.8789V169.4H15.8789ZM0.278906 169.4H-0.721094V170.4H0.278906V169.4ZM0.278906 96.2V95.2H-0.721094V96.2H0.278906ZM15.1789 96.2H16.1789V95.2H15.1789V96.2ZM15.1789 102.4H14.1789V105.174L15.9489 103.038L15.1789 102.4ZM39.1789 134L38.4543 133.311L38.4539 133.311L39.1789 134ZM39.1789 112.3L38.4455 112.98L38.4541 112.989L38.4629 112.998L39.1789 112.3ZM19.4789 112.3L18.7543 111.611L18.7539 111.611L19.4789 112.3ZM19.4789 134L18.7455 134.68L18.7541 134.689L18.7629 134.698L19.4789 134ZM32.0789 96.4C36.9163 96.4 41.2761 97.5267 45.1812 99.7674L46.1766 98.0326C41.9484 95.6066 37.2415 94.4 32.0789 94.4V96.4ZM45.1981 99.7768C49.1627 101.951 52.2612 105.047 54.5047 109.086L56.2531 108.114C53.83 103.753 50.4618 100.382 46.1597 98.0232L45.1981 99.7768ZM54.5081 109.092C56.7436 113.052 57.8789 117.71 57.8789 123.1H59.8789C59.8789 117.423 58.6809 112.415 56.2497 108.108L54.5081 109.092ZM57.8789 123.1C57.8789 128.489 56.7438 133.184 54.5047 137.214L56.2531 138.186C58.6807 133.816 59.8789 128.777 59.8789 123.1H57.8789ZM54.5081 137.208C52.2643 141.183 49.1621 144.285 45.1873 146.529L46.1705 148.271C50.4624 145.848 53.8269 142.484 56.2497 138.192L54.5081 137.208ZM45.192 146.527C41.2852 148.704 36.9215 149.8 32.0789 149.8V151.8C37.2363 151.8 41.9393 150.629 46.1658 148.273L45.192 146.527ZM32.0789 149.8C25.4407 149.8 20.3299 147.716 16.6194 143.628L15.1385 144.972C19.2945 149.551 24.9837 151.8 32.0789 151.8V149.8ZM14.8789 144.3V169.4H16.8789V144.3H14.8789ZM15.8789 168.4H0.278906V170.4H15.8789V168.4ZM1.27891 169.4V96.2H-0.721094V169.4H1.27891ZM0.278906 97.2H15.1789V95.2H0.278906V97.2ZM14.1789 96.2V102.4H16.1789V96.2H14.1789ZM15.9489 103.038C19.5839 98.651 24.9044 96.4 32.0789 96.4V94.4C24.4534 94.4 18.5073 96.8157 14.4089 101.762L15.9489 103.038ZM29.3789 139C33.6264 139 37.1642 137.573 39.9039 134.689L38.4539 133.311C36.127 135.761 33.1315 137 29.3789 137V139ZM39.9035 134.689C42.7148 131.734 44.0789 127.835 44.0789 123.1H42.0789C42.0789 127.432 40.843 130.8 38.4543 133.311L39.9035 134.689ZM44.0789 123.1C44.0789 118.366 42.7151 114.494 39.8949 111.602L38.4629 112.998C40.8428 115.439 42.0789 118.767 42.0789 123.1H44.0789ZM39.9123 111.62C37.1748 108.667 33.6344 107.2 29.3789 107.2V109.2C33.1234 109.2 36.1164 110.467 38.4455 112.98L39.9123 111.62ZM29.3789 107.2C25.1235 107.2 21.5555 108.666 18.7543 111.611L20.2035 112.989C22.6023 110.467 25.6343 109.2 29.3789 109.2V107.2ZM18.7539 111.611C16.0051 114.505 14.6789 118.373 14.6789 123.1H16.6789C16.6789 118.76 17.8861 115.429 20.2039 112.989L18.7539 111.611ZM14.6789 123.1C14.6789 127.828 16.0054 131.723 18.7455 134.68L20.2123 133.32C17.8858 130.81 16.6789 127.439 16.6789 123.1H14.6789ZM18.7629 134.698C21.566 137.573 25.1315 139 29.3789 139V137C25.6264 137 22.5918 135.76 20.1949 133.302L18.7629 134.698ZM109.034 101.4L108.366 102.145L108.373 102.15L109.034 101.4ZM115.734 150V151H116.734V150H115.734ZM101.134 150H100.134V151H101.134V150ZM101.134 143.3H102.134V139.619L100.271 142.794L101.134 143.3ZM73.9336 148.7L73.5107 149.606L73.5183 149.61L73.9336 148.7ZM67.0336 142.9L66.1946 143.444L67.0336 142.9ZM70.2336 122.7L69.6313 121.902L69.6246 121.907L70.2336 122.7ZM100.134 118.4V119.4H101.134V118.4H100.134ZM97.0336 110.6L96.3633 111.342L96.37 111.348L96.3768 111.354L97.0336 110.6ZM79.2336 109.2L79.5358 110.153L79.5428 110.151L79.5498 110.149L79.2336 109.2ZM72.2336 112.8L71.3441 113.257L71.9007 114.34L72.855 113.583L72.2336 112.8ZM66.6336 101.9L66.0576 101.083L65.3467 101.583L65.7441 102.357L66.6336 101.9ZM77.1336 97.1L76.8692 96.1356L76.8651 96.1367L77.1336 97.1ZM95.7336 138.5L96.2357 139.365L96.246 139.359L96.2562 139.353L95.7336 138.5ZM100.134 133L101.074 133.34L101.134 133.175V133H100.134ZM100.134 127.5H101.134V126.5H100.134V127.5ZM82.1336 138.6L81.5173 139.387L81.5361 139.402L81.5556 139.416L82.1336 138.6ZM89.8336 96.4C98.0168 96.4 104.144 98.3636 108.366 102.145L109.701 100.655C104.99 96.4364 98.317 94.4 89.8336 94.4V96.4ZM108.373 102.15C112.556 105.835 114.734 111.483 114.734 119.3H116.734C116.734 111.117 114.444 104.832 109.694 100.65L108.373 102.15ZM114.734 119.3V150H116.734V119.3H114.734ZM115.734 149H101.134V151H115.734V149ZM102.134 150V143.3H100.134V150H102.134ZM100.271 142.794C97.5824 147.377 92.5299 149.8 84.7336 149.8V151.8C92.9373 151.8 98.8181 149.223 101.996 143.806L100.271 142.794ZM84.7336 149.8C80.7119 149.8 77.2592 149.119 74.3489 147.79L73.5183 149.61C76.7413 151.081 80.4886 151.8 84.7336 151.8V149.8ZM74.3565 147.794C71.5044 146.463 69.3581 144.646 67.8726 142.356L66.1946 143.444C67.9091 146.087 70.3628 148.137 73.5107 149.606L74.3565 147.794ZM67.8726 142.356C66.3847 140.062 65.6336 137.453 65.6336 134.5H63.6336C63.6336 137.813 64.4825 140.805 66.1946 143.444L67.8726 142.356ZM65.6336 134.5C65.6336 129.788 67.3731 126.157 70.8426 123.493L69.6246 121.907C65.6275 124.976 63.6336 129.212 63.6336 134.5H65.6336ZM70.8358 123.498C74.3815 120.824 79.9546 119.4 87.7336 119.4V117.4C79.7792 117.4 73.6857 118.843 69.6314 121.902L70.8358 123.498ZM87.7336 119.4H100.134V117.4H87.7336V119.4ZM101.134 118.4C101.134 114.786 100.026 111.88 97.6904 109.846L96.3768 111.354C98.1744 112.92 99.1336 115.214 99.1336 118.4H101.134ZM97.7039 109.858C95.3819 107.761 91.9973 106.8 87.7336 106.8V108.8C91.7365 108.8 94.552 109.706 96.3633 111.342L97.7039 109.858ZM87.7336 106.8C84.7563 106.8 81.8163 107.285 78.9174 108.251L79.5498 110.149C82.2509 109.248 84.9776 108.8 87.7336 108.8V106.8ZM78.9314 108.247C76.1007 109.144 73.6548 110.397 71.6122 112.017L72.855 113.583C74.6791 112.137 76.8998 110.989 79.5358 110.153L78.9314 108.247ZM73.1231 112.343L67.5231 101.443L65.7441 102.357L71.3441 113.257L73.1231 112.343ZM67.2095 102.717C70.0346 100.727 73.4265 99.1712 77.4021 98.0633L76.8651 96.1367C72.7074 97.2954 69.0993 98.9396 66.0576 101.083L67.2095 102.717ZM77.398 98.0644C81.4442 96.955 85.5886 96.4 89.8336 96.4V94.4C85.4119 94.4 81.0896 94.9784 76.8692 96.1356L77.398 98.0644ZM88.6336 141.3C91.4557 141.3 93.9994 140.663 96.2357 139.365L95.2315 137.635C93.3344 138.737 91.1448 139.3 88.6336 139.3V141.3ZM96.2562 139.353C98.527 137.961 100.135 135.941 101.074 133.34L99.193 132.66C98.3991 134.859 97.0735 136.506 95.211 137.647L96.2562 139.353ZM101.134 133V127.5H99.1336V133H101.134ZM100.134 126.5H89.4336V128.5H100.134V126.5ZM89.4336 126.5C86.156 126.5 83.5242 127.032 81.6849 128.239C79.7723 129.494 78.8336 131.402 78.8336 133.8H80.8336C80.8336 131.998 81.4949 130.756 82.7822 129.911C84.143 129.018 86.3111 128.5 89.4336 128.5V126.5ZM78.8336 133.8C78.8336 136.098 79.7342 137.992 81.5173 139.387L82.7499 137.812C81.4663 136.808 80.8336 135.502 80.8336 133.8H78.8336ZM81.5556 139.416C83.3794 140.708 85.7724 141.3 88.6336 141.3V139.3C86.0281 139.3 84.0878 138.759 82.7116 137.784L81.5556 139.416ZM173.885 103.1L173.402 103.976L173.414 103.982L173.885 103.1ZM182.785 111.9L181.907 112.378L181.913 112.39L182.785 111.9ZM182.185 138.8L181.34 138.265L181.338 138.269L182.185 138.8ZM171.785 148L172.216 148.902L172.227 148.897L171.785 148ZM134.385 142.2L133.634 142.86L133.642 142.869L134.385 142.2ZM133.385 89.8L132.578 89.2094L132.577 89.2108L133.385 89.8ZM155.085 77.1L154.89 76.1193L154.884 76.1205L155.085 77.1ZM180.685 72L181.673 71.8452L181.512 70.8157L180.49 71.0193L180.685 72ZM182.785 85.4L182.98 86.3807L183.922 86.1933L183.773 85.2452L182.785 85.4ZM160.185 89.9L160.377 90.8814L160.38 90.8807L160.185 89.9ZM146.485 95.9L145.803 95.1689L145.795 95.1766L146.485 95.9ZM141.285 107.8L140.291 107.697L139.979 110.694L142.021 108.477L141.285 107.8ZM149.685 102L150.063 102.926L150.071 102.923L150.079 102.919L149.685 102ZM166.285 135.2L165.56 134.512L165.55 134.522L166.285 135.2ZM166.285 115.6L165.578 116.307L165.588 116.317L166.285 115.6ZM146.885 115.6L147.583 116.317L146.885 115.6ZM146.985 135.3L146.269 135.998L146.278 136.007L146.985 135.3ZM160.385 100.9C165.377 100.9 169.706 101.936 173.402 103.976L174.368 102.224C170.331 99.9971 165.66 98.9 160.385 98.9V100.9ZM173.414 103.982C177.111 105.958 179.935 108.752 181.907 112.378L183.664 111.422C181.502 107.448 178.393 104.375 174.357 102.218L173.414 103.982ZM181.913 112.39C183.951 116.019 184.985 120.246 184.985 125.1H186.985C186.985 119.954 185.886 115.381 183.657 111.41L181.913 112.39ZM184.985 125.1C184.985 130.06 183.764 134.438 181.34 138.265L183.03 139.335C185.673 135.162 186.985 130.406 186.985 125.1H184.985ZM181.338 138.269C178.977 142.033 175.656 144.979 171.343 147.103L172.227 148.897C176.848 146.621 180.46 143.433 183.032 139.331L181.338 138.269ZM171.354 147.098C167.04 149.158 162.124 150.2 156.585 150.2V152.2C162.379 152.2 167.597 151.109 172.216 148.902L171.354 147.098ZM156.585 150.2C147.417 150.2 140.307 147.285 135.128 141.531L133.642 142.869C139.263 149.115 146.953 152.2 156.585 152.2V150.2ZM135.136 141.54C130.022 135.722 127.385 127.13 127.385 115.6H125.385C125.385 127.403 128.082 136.545 133.634 142.86L135.136 141.54ZM127.385 115.6C127.385 104.936 129.689 96.5657 134.193 90.3892L132.577 89.2108C127.748 95.8343 125.385 104.664 125.385 115.6H127.385ZM134.192 90.3906C138.746 84.1693 145.735 80.0421 155.286 78.0795L154.884 76.1205C144.968 78.1579 137.491 82.4973 132.578 89.2094L134.192 90.3906ZM155.281 78.0807L180.881 72.9807L180.49 71.0193L154.89 76.1193L155.281 78.0807ZM179.697 72.1548L181.797 85.5548L183.773 85.2452L181.673 71.8452L179.697 72.1548ZM182.59 84.4193L159.99 88.9193L160.38 90.8807L182.98 86.3807L182.59 84.4193ZM159.993 88.9186C153.765 90.1371 148.993 92.191 145.803 95.1689L147.167 96.6311C149.977 94.009 154.338 92.0629 160.377 90.8814L159.993 88.9186ZM145.795 95.1766C142.647 98.1813 140.842 102.393 140.291 107.697L142.28 107.903C142.795 102.94 144.457 99.2187 147.176 96.6234L145.795 95.1766ZM142.021 108.477C144.252 106.055 146.929 104.205 150.063 102.926L149.307 101.074C145.908 102.462 142.985 104.478 140.55 107.123L142.021 108.477ZM150.079 102.919C153.211 101.577 156.642 100.9 160.385 100.9V98.9C156.395 98.9 152.693 99.623 149.291 101.081L150.079 102.919ZM156.685 140.1C160.924 140.1 164.405 138.711 167.02 135.878L165.55 134.522C163.365 136.889 160.446 138.1 156.685 138.1V140.1ZM167.011 135.888C169.675 133.08 170.985 129.524 170.985 125.3H168.985C168.985 129.076 167.829 132.12 165.56 134.512L167.011 135.888ZM170.985 125.3C170.985 121.016 169.678 117.506 166.983 114.883L165.588 116.317C167.826 118.494 168.985 121.45 168.985 125.3H170.985ZM166.992 114.893C164.372 112.272 160.899 111 156.685 111V113C160.471 113 163.399 114.128 165.578 116.307L166.992 114.893ZM156.685 111C152.409 111 148.875 112.269 146.188 114.883L147.583 116.317C149.829 114.131 152.828 113 156.685 113V111ZM146.188 114.883C143.493 117.506 142.185 121.016 142.185 125.3H144.185C144.185 121.45 145.344 118.494 147.583 116.317L146.188 114.883ZM142.185 125.3C142.185 129.593 143.531 133.188 146.269 135.998L147.701 134.602C145.372 132.212 144.185 129.14 144.185 125.3H142.185ZM146.278 136.007C149.018 138.747 152.515 140.1 156.685 140.1V138.1C152.989 138.1 150.019 136.919 147.692 134.593L146.278 136.007ZM206.47 147.3L205.997 148.181L206.005 148.185L206.013 148.189L206.47 147.3ZM195.97 137.4L195.114 137.916L195.97 137.4ZM195.97 108.8L195.114 108.284L195.97 108.8ZM206.47 99L206.933 99.8864L206.938 99.8838L206.47 99ZM236.97 99L236.497 99.881L236.507 99.8863L236.97 99ZM247.47 108.8L248.327 108.284L247.47 108.8ZM247.47 137.4L248.327 137.916L247.47 137.4ZM236.97 147.3L237.433 148.186L237.444 148.181L236.97 147.3ZM231.57 134L230.846 133.311L230.845 133.311L231.57 134ZM231.57 112.3L230.837 112.98L230.845 112.989L230.854 112.998L231.57 112.3ZM211.87 112.3L212.586 112.998L212.595 112.989L211.87 112.3ZM211.87 134L211.146 134.689L211.154 134.698L211.87 134ZM221.77 149.8C216.245 149.8 211.305 148.664 206.928 146.411L206.013 148.189C210.703 150.603 215.962 151.8 221.77 151.8V149.8ZM206.944 146.419C202.629 144.101 199.264 140.925 196.827 136.883L195.114 137.916C197.743 142.275 201.378 145.699 205.997 148.181L206.944 146.419ZM196.827 136.883C194.395 132.853 193.17 128.268 193.17 123.1H191.17C191.17 128.599 192.479 133.547 195.114 137.916L196.827 136.883ZM193.17 123.1C193.17 117.932 194.395 113.347 196.827 109.316L195.114 108.284C192.479 112.653 191.17 117.601 191.17 123.1H193.17ZM196.827 109.316C199.263 105.278 202.624 102.137 206.933 99.8863L206.007 98.1136C201.383 100.529 197.745 103.922 195.114 108.284L196.827 109.316ZM206.938 99.8838C211.313 97.5678 216.249 96.4 221.77 96.4V94.4C215.958 94.4 210.695 95.6321 206.002 98.1162L206.938 99.8838ZM221.77 96.4C227.292 96.4 232.192 97.5679 236.497 99.8809L237.444 98.1191C232.815 95.6321 227.582 94.4 221.77 94.4V96.4ZM236.507 99.8863C240.816 102.137 244.178 105.278 246.614 109.316L248.327 108.284C245.696 103.922 242.058 100.529 237.433 98.1136L236.507 99.8863ZM246.614 109.316C249.045 113.347 250.27 117.932 250.27 123.1H252.27C252.27 117.601 250.962 112.653 248.327 108.284L246.614 109.316ZM250.27 123.1C250.27 128.268 249.045 132.853 246.614 136.884L248.327 137.916C250.962 133.547 252.27 128.599 252.27 123.1H250.27ZM246.614 136.883C244.177 140.925 240.811 144.101 236.497 146.419L237.444 148.181C242.063 145.699 245.697 142.275 248.327 137.916L246.614 136.883ZM236.507 146.414C232.201 148.663 227.296 149.8 221.77 149.8V151.8C227.578 151.8 232.807 150.603 237.433 148.186L236.507 146.414ZM221.77 139C226.018 139 229.556 137.573 232.295 134.689L230.845 133.311C228.518 135.761 225.523 137 221.77 137V139ZM232.295 134.689C235.106 131.734 236.47 127.835 236.47 123.1H234.47C234.47 127.432 233.234 130.8 230.846 133.311L232.295 134.689ZM236.47 123.1C236.47 118.366 235.106 114.494 232.286 111.602L230.854 112.998C233.234 115.439 234.47 118.767 234.47 123.1H236.47ZM232.304 111.62C229.566 108.667 226.026 107.2 221.77 107.2V109.2C225.515 109.2 228.508 110.467 230.837 112.98L232.304 111.62ZM221.77 107.2C217.515 107.2 213.947 108.666 211.146 111.611L212.595 112.989C214.994 110.467 218.026 109.2 221.77 109.2V107.2ZM211.154 111.602C208.334 114.494 206.97 118.366 206.97 123.1H208.97C208.97 118.767 210.206 115.439 212.586 112.998L211.154 111.602ZM206.97 123.1C206.97 127.835 208.334 131.734 211.146 134.689L212.595 133.311C210.206 130.8 208.97 127.432 208.97 123.1H206.97ZM211.154 134.698C213.957 137.573 217.523 139 221.77 139V137C218.018 137 214.983 135.76 212.586 133.302L211.154 134.698ZM305.247 109V110H306.247V109H305.247ZM287.047 109V108H286.047V109H287.047ZM287.047 150V151H288.047V150H287.047ZM271.547 150H270.547V151H271.547V150ZM271.547 109H272.547V108H271.547V109ZM253.347 109H252.347V110H253.347V109ZM253.347 96.2V95.2H252.347V96.2H253.347ZM305.247 96.2H306.247V95.2H305.247V96.2ZM305.247 108H287.047V110H305.247V108ZM286.047 109V150H288.047V109H286.047ZM287.047 149H271.547V151H287.047V149ZM272.547 150V109H270.547V150H272.547ZM271.547 108H253.347V110H271.547V108ZM254.347 109V96.2H252.347V109H254.347ZM253.347 97.2H305.247V95.2H253.347V97.2ZM304.247 96.2V109H306.247V96.2H304.247ZM341.862 113.4L341.872 112.4H341.862V113.4ZM357.763 118.1L357.114 118.861L357.763 118.1ZM357.062 145.2L357.689 145.98L357.062 145.2ZM339.763 150.1L339.759 151.1H339.763V150.1ZM313.562 150H312.562V150.996L313.559 151L313.562 150ZM313.562 96.2V95.2H312.562V96.2H313.562ZM329.062 96.2H330.062V95.2H329.062V96.2ZM329.062 113.4H328.062V114.4H329.062V113.4ZM368.962 96.2V95.2H367.962V96.2H368.962ZM384.462 96.2H385.462V95.2H384.462V96.2ZM384.462 150V151H385.462V150H384.462ZM368.962 150H367.962V151H368.962V150ZM338.362 139L338.385 138L338.374 138H338.362V139ZM345.263 137.1L344.622 136.332L345.263 137.1ZM345.263 125.4L344.646 126.188L344.654 126.194L344.663 126.2L345.263 125.4ZM338.362 123.5L338.384 122.5L338.373 122.5L338.362 123.5ZM329.062 123.4L329.073 122.4L328.062 122.389V123.4H329.062ZM329.062 139H328.062V140H329.062V139ZM341.853 114.4C348.728 114.465 353.761 116.005 357.114 118.861L358.411 117.339C354.564 114.062 348.997 112.468 341.872 112.4L341.853 114.4ZM357.114 118.861C360.444 121.698 362.163 125.792 362.163 131.3H364.163C364.163 125.342 362.281 120.636 358.411 117.339L357.114 118.861ZM362.163 131.3C362.163 137.048 360.229 141.373 356.436 144.42L357.689 145.98C362.029 142.493 364.163 137.552 364.163 131.3H362.163ZM356.436 144.42C352.61 147.494 347.097 149.1 339.763 149.1V151.1C347.361 151.1 353.382 149.439 357.689 145.98L356.436 144.42ZM339.766 149.1L313.566 149L313.559 151L339.759 151.1L339.766 149.1ZM314.562 150V96.2H312.562V150H314.562ZM313.562 97.2H329.062V95.2H313.562V97.2ZM328.062 96.2V113.4H330.062V96.2H328.062ZM329.062 114.4H341.862V112.4H329.062V114.4ZM368.962 97.2H384.462V95.2H368.962V97.2ZM383.462 96.2V150H385.462V96.2H383.462ZM384.462 149H368.962V151H384.462V149ZM369.962 150V96.2H367.962V150H369.962ZM338.34 140C341.477 140.069 344.05 139.412 345.903 137.868L344.622 136.332C343.275 137.454 341.248 138.064 338.385 138L338.34 140ZM345.903 137.868C347.792 136.294 348.663 133.974 348.663 131.1H346.663C346.663 133.56 345.933 135.239 344.622 136.332L345.903 137.868ZM348.663 131.1C348.663 128.289 347.787 126.043 345.862 124.6L344.663 126.2C345.938 127.157 346.663 128.711 346.663 131.1H348.663ZM345.879 124.612C344.103 123.222 341.551 122.569 338.384 122.5L338.341 124.5C341.307 124.564 343.356 125.178 344.646 126.188L345.879 124.612ZM338.373 122.5L329.073 122.4L329.052 124.4L338.352 124.5L338.373 122.5ZM328.062 123.4V139H330.062V123.4H328.062ZM329.062 140H338.362V138H329.062V140Z" fill="#8A8A8A"/>
</svg>
