<svg width="581" height="151" viewBox="0 0 581 151" fill="none" xmlns="http://www.w3.org/2000/svg">
<path d="M52.518 43.1L51.5255 42.9775L51.3869 44.1H52.518V43.1ZM65.518 43.1H66.518V42.1H65.518V43.1ZM65.518 54V55H66.518V54H65.518ZM51.218 54V53H50.3352L50.2257 53.876L51.218 54ZM49.218 70V71H50.1008L50.2102 70.124L49.218 70ZM37.918 70L36.9257 69.876L36.7852 71H37.918V70ZM39.918 54L40.9102 54.124L41.0508 53H39.918V54ZM25.218 54V53H24.3352L24.2257 53.876L25.218 54ZM23.218 70V71H24.1008L24.2102 70.124L23.218 70ZM12.018 70L11.0257 69.876L10.8852 71H12.018V70ZM14.018 54L15.0102 54.124L15.1508 53H14.018V54ZM0.917969 54H-0.0820311V55H0.917969V54ZM0.917969 43.1V42.1H-0.0820311V43.1H0.917969ZM15.318 43.1V44.1H16.1967L16.3097 43.2285L15.318 43.1ZM17.418 26.9L18.4097 27.0286L18.556 25.9H17.418V26.9ZM4.31797 26.9H3.31797V27.9H4.31797V26.9ZM4.31797 16V15H3.31797V16H4.31797ZM18.718 16V17H19.6008L19.7102 16.124L18.718 16ZM20.718 -4.76837e-06V-1H19.8352L19.7257 -0.12404L20.718 -4.76837e-06ZM31.918 -4.76837e-06L32.9102 0.12403L33.0508 -1H31.918V-4.76837e-06ZM29.918 16L28.9257 15.876L28.7852 17H29.918V16ZM44.618 16V17H45.5008L45.6102 16.124L44.618 16ZM46.618 -4.76837e-06V-1H45.7352L45.6257 -0.12404L46.618 -4.76837e-06ZM57.818 -4.76837e-06L58.8102 0.12403L58.9508 -1H57.818V-4.76837e-06ZM55.818 16L54.8257 15.876L54.6852 17H55.818V16ZM68.818 16L69.8179 15.9908L69.8088 15H68.818V16ZM68.918 26.9V27.9H69.9272L69.9179 26.8908L68.918 26.9ZM54.518 26.9V25.9H53.6338L53.5255 26.7775L54.518 26.9ZM41.218 43.1V44.1H42.0967L42.2097 43.2285L41.218 43.1ZM43.318 26.9L44.3097 27.0286L44.456 25.9H43.318V26.9ZM28.618 26.9V25.9H27.7392L27.6263 26.7714L28.618 26.9ZM26.518 43.1L25.5263 42.9714L25.38 44.1H26.518V43.1ZM52.518 44.1H65.518V42.1H52.518V44.1ZM64.518 43.1V54H66.518V43.1H64.518ZM65.518 53H51.218V55H65.518V53ZM50.2257 53.876L48.2257 69.876L50.2102 70.124L52.2102 54.124L50.2257 53.876ZM49.218 69H37.918V71H49.218V69ZM38.9102 70.124L40.9102 54.124L38.9257 53.876L36.9257 69.876L38.9102 70.124ZM39.918 53H25.218V55H39.918V53ZM24.2257 53.876L22.2257 69.876L24.2102 70.124L26.2102 54.124L24.2257 53.876ZM23.218 69H12.018V71H23.218V69ZM13.0102 70.124L15.0102 54.124L13.0257 53.876L11.0257 69.876L13.0102 70.124ZM14.018 53H0.917969V55H14.018V53ZM1.91797 54V43.1H-0.0820311V54H1.91797ZM0.917969 44.1H15.318V42.1H0.917969V44.1ZM16.3097 43.2285L18.4097 27.0286L16.4263 26.7714L14.3263 42.9714L16.3097 43.2285ZM17.418 25.9H4.31797V27.9H17.418V25.9ZM5.31797 26.9V16H3.31797V26.9H5.31797ZM4.31797 17H18.718V15H4.31797V17ZM19.7102 16.124L21.7102 0.12403L19.7257 -0.12404L17.7257 15.876L19.7102 16.124ZM20.718 0.999995H31.918V-1H20.718V0.999995ZM30.9257 -0.12404L28.9257 15.876L30.9102 16.124L32.9102 0.12403L30.9257 -0.12404ZM29.918 17H44.618V15H29.918V17ZM45.6102 16.124L47.6102 0.12403L45.6257 -0.12404L43.6257 15.876L45.6102 16.124ZM46.618 0.999995H57.818V-1H46.618V0.999995ZM56.8257 -0.12404L54.8257 15.876L56.8102 16.124L58.8102 0.12403L56.8257 -0.12404ZM55.818 17H68.818V15H55.818V17ZM67.818 16.0092L67.918 26.9092L69.9179 26.8908L69.8179 15.9908L67.818 16.0092ZM68.918 25.9H54.518V27.9H68.918V25.9ZM53.5255 26.7775L51.5255 42.9775L53.5104 43.2225L55.5104 27.0225L53.5255 26.7775ZM42.2097 43.2285L44.3097 27.0286L42.3263 26.7714L40.2263 42.9714L42.2097 43.2285ZM43.318 25.9H28.618V27.9H43.318V25.9ZM27.6263 26.7714L25.5263 42.9714L27.5097 43.2285L29.6097 27.0286L27.6263 26.7714ZM26.518 44.1H41.218V42.1H26.518V44.1ZM102.091 49.6L102.908 49.0233L102.609 48.6H102.091V49.6ZM93.9906 49.6V48.6H92.9906V49.6H93.9906ZM93.9906 70V71H94.9906V70H93.9906ZM78.3906 70H77.3906V71H78.3906V70ZM78.3906 16.2V15.2H77.3906V16.2H78.3906ZM93.9906 16.2H94.9906V15.2H93.9906V16.2ZM93.9906 37.1H92.9906V38.1H93.9906V37.1ZM102.391 37.1V38.1H102.912L103.21 37.6727L102.391 37.1ZM116.991 16.2V15.2H116.469L116.171 15.6273L116.991 16.2ZM133.591 16.2L134.399 16.7889L135.557 15.2H133.591V16.2ZM114.791 42L113.982 41.4111L113.556 41.9956L113.978 42.5832L114.791 42ZM134.891 70V71H136.839L135.703 69.4168L134.891 70ZM116.491 70L115.674 70.5767L115.972 71H116.491V70ZM102.091 48.6H93.9906V50.6H102.091V48.6ZM92.9906 49.6V70H94.9906V49.6H92.9906ZM93.9906 69H78.3906V71H93.9906V69ZM79.3906 70V16.2H77.3906V70H79.3906ZM78.3906 17.2H93.9906V15.2H78.3906V17.2ZM92.9906 16.2V37.1H94.9906V16.2H92.9906ZM93.9906 38.1H102.391V36.1H93.9906V38.1ZM103.21 37.6727L117.81 16.7727L116.171 15.6273L101.571 36.5273L103.21 37.6727ZM116.991 17.2H133.591V15.2H116.991V17.2ZM132.782 15.6111L113.982 41.4111L115.599 42.5889L134.399 16.7889L132.782 15.6111ZM113.978 42.5832L134.078 70.5832L135.703 69.4168L115.603 41.4168L113.978 42.5832ZM134.891 69H116.491V71H134.891V69ZM117.308 69.4233L102.908 49.0233L101.274 50.1767L115.674 70.5767L117.308 69.4233ZM150.791 67.3L150.317 68.1809L150.325 68.1851L150.333 68.1891L150.791 67.3ZM140.291 57.4L139.434 57.9165L140.291 57.4ZM140.291 28.8L139.434 28.2835L140.291 28.8ZM150.791 19L151.254 19.8864L151.259 19.8838L150.791 19ZM181.291 19L180.817 19.8809L180.828 19.8863L181.291 19ZM191.791 28.8L192.647 28.2835L191.791 28.8ZM191.791 57.4L192.647 57.9165L191.791 57.4ZM181.291 67.3L181.754 68.1864L181.764 68.1809L181.291 67.3ZM175.891 54L175.166 53.3108L175.166 53.3112L175.891 54ZM175.891 32.3L175.157 32.9798L175.166 32.989L175.175 32.9981L175.891 32.3ZM156.191 32.3L156.907 32.9982L156.915 32.9892L156.191 32.3ZM156.191 54L155.466 54.6893L155.475 54.6981L156.191 54ZM166.091 69.8C160.565 69.8 155.625 68.6635 151.248 66.4109L150.333 68.1891C155.023 70.6031 160.283 71.8 166.091 71.8V69.8ZM151.264 66.4191C146.95 64.101 143.584 60.9245 141.147 56.8835L139.434 57.9165C142.064 62.2755 145.698 65.699 150.317 68.1809L151.264 66.4191ZM141.147 56.8835C138.716 52.8529 137.491 48.2677 137.491 43.1H135.491C135.491 48.5989 136.799 53.5471 139.434 57.9165L141.147 56.8835ZM137.491 43.1C137.491 37.9323 138.716 33.3471 141.147 29.3165L139.434 28.2835C136.799 32.6529 135.491 37.6011 135.491 43.1H137.491ZM141.147 29.3165C143.583 25.278 146.945 22.1372 151.254 19.8863L150.328 18.1136C145.703 20.5294 142.065 23.922 139.434 28.2835L141.147 29.3165ZM151.259 19.8838C155.633 17.5678 160.57 16.4 166.091 16.4V14.4C160.278 14.4 155.015 15.6321 150.323 18.1162L151.259 19.8838ZM166.091 16.4C171.612 16.4 176.513 17.5679 180.817 19.8809L181.764 18.1191C177.135 15.6321 171.903 14.4 166.091 14.4V16.4ZM180.828 19.8863C185.136 22.1372 188.498 25.278 190.934 29.3165L192.647 28.2835C190.016 23.922 186.378 20.5294 181.754 18.1136L180.828 19.8863ZM190.934 29.3165C193.366 33.3471 194.591 37.9323 194.591 43.1H196.591C196.591 37.6011 195.282 32.6529 192.647 28.2835L190.934 29.3165ZM194.591 43.1C194.591 48.2677 193.366 52.8529 190.934 56.8835L192.647 57.9165C195.282 53.5471 196.591 48.5989 196.591 43.1H194.591ZM190.934 56.8835C188.497 60.9245 185.132 64.101 180.817 66.4191L181.764 68.1809C186.383 65.699 190.018 62.2755 192.647 57.9165L190.934 56.8835ZM180.828 66.4137C176.521 68.6635 171.616 69.8 166.091 69.8V71.8C171.898 71.8 177.127 70.6032 181.754 68.1863L180.828 66.4137ZM166.091 59C170.338 59 173.876 57.5727 176.616 54.6887L175.166 53.3112C172.839 55.7607 169.843 57 166.091 57V59ZM176.615 54.6892C179.427 51.7337 180.791 47.835 180.791 43.1H178.791C178.791 47.4317 177.555 50.7997 175.166 53.3108L176.615 54.6892ZM180.791 43.1C180.791 38.366 179.427 34.4944 176.607 31.6019L175.175 32.9981C177.554 35.439 178.791 38.7674 178.791 43.1H180.791ZM176.624 31.6202C173.886 28.6665 170.346 27.2 166.091 27.2V29.2C169.835 29.2 172.828 30.4668 175.157 32.9798L176.624 31.6202ZM166.091 27.2C161.835 27.2 158.267 28.666 155.466 31.6108L156.915 32.9892C159.314 30.4673 162.346 29.2 166.091 29.2V27.2ZM155.475 31.6019C152.654 34.4944 151.291 38.366 151.291 43.1H153.291C153.291 38.7674 154.527 35.439 156.907 32.9981L155.475 31.6019ZM151.291 43.1C151.291 47.835 152.655 51.7337 155.466 54.6892L156.915 53.3108C154.527 50.7997 153.291 47.4317 153.291 43.1H151.291ZM155.475 54.6981C158.278 57.5731 161.843 59 166.091 59V57C162.338 57 159.303 55.7602 156.907 53.3019L155.475 54.6981ZM206.32 16.2V15.2H205.32V16.2H206.32ZM221.82 16.2H222.82V15.2H221.82V16.2ZM221.82 37.2H220.82V38.2H221.82V37.2ZM245.22 37.2V38.2H246.22V37.2H245.22ZM245.22 16.2V15.2H244.22V16.2H245.22ZM260.82 16.2H261.82V15.2H260.82V16.2ZM260.82 70V71H261.82V70H260.82ZM245.22 70H244.22V71H245.22V70ZM245.22 49.9H246.22V48.9H245.22V49.9ZM221.82 49.9V48.9H220.82V49.9H221.82ZM221.82 70V71H222.82V70H221.82ZM206.32 70H205.32V71H206.32V70ZM206.32 17.2H221.82V15.2H206.32V17.2ZM220.82 16.2V37.2H222.82V16.2H220.82ZM221.82 38.2H245.22V36.2H221.82V38.2ZM246.22 37.2V16.2H244.22V37.2H246.22ZM245.22 17.2H260.82V15.2H245.22V17.2ZM259.82 16.2V70H261.82V16.2H259.82ZM260.82 69H245.22V71H260.82V69ZM246.22 70V49.9H244.22V70H246.22ZM245.22 48.9H221.82V50.9H245.22V48.9ZM220.82 49.9V70H222.82V49.9H220.82ZM221.82 69H206.32V71H221.82V69ZM207.32 70V16.2H205.32V70H207.32ZM320.954 29V30H321.954V29H320.954ZM302.754 29V28H301.754V29H302.754ZM302.754 70V71H303.754V70H302.754ZM287.254 70H286.254V71H287.254V70ZM287.254 29H288.254V28H287.254V29ZM269.054 29H268.054V30H269.054V29ZM269.054 16.2V15.2H268.054V16.2H269.054ZM320.954 16.2H321.954V15.2H320.954V16.2ZM320.954 28H302.754V30H320.954V28ZM301.754 29V70H303.754V29H301.754ZM302.754 69H287.254V71H302.754V69ZM288.254 70V29H286.254V70H288.254ZM287.254 28H269.054V30H287.254V28ZM270.054 29V16.2H268.054V29H270.054ZM269.054 17.2H320.954V15.2H269.054V17.2ZM319.954 16.2V29H321.954V16.2H319.954ZM374.57 18.9L374.072 19.7674L374.08 19.7722L374.089 19.7768L374.57 18.9ZM384.27 28.6L383.395 29.0857L383.399 29.0916L384.27 28.6ZM384.27 57.7L385.14 58.1916L385.144 58.1856L384.27 57.7ZM374.57 67.4L375.056 68.2735L375.061 68.2708L374.57 67.4ZM344.77 64.3L345.51 63.6279L343.77 61.7104V64.3H344.77ZM344.77 89.4V90.4H345.77V89.4H344.77ZM329.17 89.4H328.17V90.4H329.17V89.4ZM329.17 16.2V15.2H328.17V16.2H329.17ZM344.07 16.2H345.07V15.2H344.07V16.2ZM344.07 22.4H343.07V25.1742L344.84 23.038L344.07 22.4ZM368.07 54L367.345 53.3108L367.345 53.3112L368.07 54ZM368.07 32.3L367.336 32.9798L367.345 32.989L367.354 32.9981L368.07 32.3ZM348.37 32.3L347.645 31.6108L347.645 31.6113L348.37 32.3ZM348.37 54L347.636 54.6798L347.645 54.689L347.654 54.6981L348.37 54ZM360.97 16.4C365.807 16.4 370.167 17.5267 374.072 19.7674L375.067 18.0326C370.839 15.6066 366.132 14.4 360.97 14.4V16.4ZM374.089 19.7768C378.053 21.951 381.152 25.0472 383.395 29.0856L385.144 28.1144C382.721 23.7528 379.352 20.3824 375.05 18.0232L374.089 19.7768ZM383.399 29.0916C385.634 33.0517 386.77 37.7101 386.77 43.1H388.77C388.77 37.4232 387.571 32.415 385.14 28.1084L383.399 29.0916ZM386.77 43.1C386.77 48.4894 385.634 53.1841 383.395 57.2144L385.144 58.1856C387.571 53.8159 388.77 48.7772 388.77 43.1H386.77ZM383.399 57.2084C381.155 61.1832 378.053 64.2854 374.078 66.5292L375.061 68.2708C379.353 65.848 382.717 62.4835 385.14 58.1916L383.399 57.2084ZM374.083 66.5265C370.176 68.7041 365.812 69.8 360.97 69.8V71.8C366.127 71.8 370.83 70.6292 375.056 68.2735L374.083 66.5265ZM360.97 69.8C354.331 69.8 349.221 67.7158 345.51 63.6279L344.029 64.9721C348.185 69.5508 353.874 71.8 360.97 71.8V69.8ZM343.77 64.3V89.4H345.77V64.3H343.77ZM344.77 88.4H329.17V90.4H344.77V88.4ZM330.17 89.4V16.2H328.17V89.4H330.17ZM329.17 17.2H344.07V15.2H329.17V17.2ZM343.07 16.2V22.4H345.07V16.2H343.07ZM344.84 23.038C348.474 18.651 353.795 16.4 360.97 16.4V14.4C353.344 14.4 347.398 16.8156 343.299 21.762L344.84 23.038ZM358.27 59C362.517 59 366.055 57.5727 368.795 54.6887L367.345 53.3112C365.018 55.7607 362.022 57 358.27 57V59ZM368.794 54.6892C371.605 51.7337 372.97 47.835 372.97 43.1H370.97C370.97 47.4317 369.734 50.7997 367.345 53.3108L368.794 54.6892ZM372.97 43.1C372.97 38.366 371.606 34.4944 368.786 31.6019L367.354 32.9981C369.733 35.439 370.97 38.7674 370.97 43.1H372.97ZM368.803 31.6202C366.065 28.6665 362.525 27.2 358.27 27.2V29.2C362.014 29.2 365.007 30.4668 367.336 32.9798L368.803 31.6202ZM358.27 27.2C354.014 27.2 350.446 28.666 347.645 31.6108L349.094 32.9892C351.493 30.4673 354.525 29.2 358.27 29.2V27.2ZM347.645 31.6113C344.896 34.5048 343.57 38.3731 343.57 43.1H345.57C345.57 38.7603 346.777 35.4286 349.095 32.9888L347.645 31.6113ZM343.57 43.1C343.57 47.8279 344.896 51.7233 347.636 54.6798L349.103 53.3202C346.776 50.81 345.57 47.4387 345.57 43.1H343.57ZM347.654 54.6981C350.457 57.5731 354.022 59 358.27 59V57C354.517 57 351.482 55.7602 349.086 53.3019L347.654 54.6981ZM408.603 67.3L408.13 68.1809L408.138 68.1851L408.145 68.1891L408.603 67.3ZM398.103 57.4L397.247 57.9165L398.103 57.4ZM398.103 28.8L397.247 28.2835L398.103 28.8ZM408.603 19L409.066 19.8864L409.071 19.8838L408.603 19ZM439.103 19L438.63 19.8809L438.64 19.8863L439.103 19ZM449.603 28.8L450.459 28.2835L449.603 28.8ZM449.603 57.4L450.459 57.9165L449.603 57.4ZM439.103 67.3L439.566 68.1864L439.576 68.1809L439.103 67.3ZM433.703 54L432.979 53.3108L432.978 53.3112L433.703 54ZM433.703 32.3L432.97 32.9798L432.978 32.989L432.987 32.9981L433.703 32.3ZM414.003 32.3L414.719 32.9982L414.728 32.9892L414.003 32.3ZM414.003 54L413.279 54.6893L413.287 54.6981L414.003 54ZM423.903 69.8C418.378 69.8 413.437 68.6635 409.061 66.4109L408.145 68.1891C412.836 70.6031 418.095 71.8 423.903 71.8V69.8ZM409.076 66.4191C404.762 64.101 401.397 60.9245 398.959 56.8835L397.247 57.9165C399.876 62.2755 403.511 65.699 408.13 68.1809L409.076 66.4191ZM398.959 56.8835C396.528 52.8529 395.303 48.2677 395.303 43.1H393.303C393.303 48.5989 394.611 53.5471 397.247 57.9165L398.959 56.8835ZM395.303 43.1C395.303 37.9323 396.528 33.3471 398.959 29.3165L397.247 28.2835C394.611 32.6529 393.303 37.6011 393.303 43.1H395.303ZM398.959 29.3165C401.395 25.278 404.757 22.1372 409.066 19.8863L408.14 18.1136C403.516 20.5294 399.878 23.922 397.247 28.2835L398.959 29.3165ZM409.071 19.8838C413.446 17.5678 418.382 16.4 423.903 16.4V14.4C418.091 14.4 412.827 15.6321 408.135 18.1162L409.071 19.8838ZM423.903 16.4C429.424 16.4 434.325 17.5679 438.63 19.8809L439.576 18.1191C434.948 15.6321 429.715 14.4 423.903 14.4V16.4ZM438.64 19.8863C442.949 22.1372 446.311 25.278 448.747 29.3165L450.459 28.2835C447.829 23.922 444.191 20.5294 439.566 18.1136L438.64 19.8863ZM448.747 29.3165C451.178 33.3471 452.403 37.9323 452.403 43.1H454.403C454.403 37.6011 453.095 32.6529 450.459 28.2835L448.747 29.3165ZM452.403 43.1C452.403 48.2677 451.178 52.8529 448.747 56.8835L450.459 57.9165C453.095 53.5471 454.403 48.5989 454.403 43.1H452.403ZM448.747 56.8835C446.309 60.9245 442.944 64.101 438.63 66.4191L439.576 68.1809C444.196 65.699 447.83 62.2755 450.459 57.9165L448.747 56.8835ZM438.64 66.4137C434.333 68.6635 429.429 69.8 423.903 69.8V71.8C429.711 71.8 434.94 70.6032 439.566 68.1863L438.64 66.4137ZM423.903 59C428.151 59 431.688 57.5727 434.428 54.6887L432.978 53.3112C430.651 55.7607 427.656 57 423.903 57V59ZM434.428 54.6892C437.239 51.7337 438.603 47.835 438.603 43.1H436.603C436.603 47.4317 435.367 50.7997 432.979 53.3108L434.428 54.6892ZM438.603 43.1C438.603 38.366 437.239 34.4944 434.419 31.6019L432.987 32.9981C435.367 35.439 436.603 38.7674 436.603 43.1H438.603ZM434.437 31.6202C431.699 28.6665 428.159 27.2 423.903 27.2V29.2C427.648 29.2 430.641 30.4668 432.97 32.9798L434.437 31.6202ZM423.903 27.2C419.648 27.2 416.08 28.666 413.279 31.6108L414.728 32.9892C417.127 30.4673 420.159 29.2 423.903 29.2V27.2ZM413.287 31.6019C410.467 34.4944 409.103 38.366 409.103 43.1H411.103C411.103 38.7674 412.339 35.439 414.719 32.9981L413.287 31.6019ZM409.103 43.1C409.103 47.835 410.467 51.7337 413.279 54.6892L414.728 53.3108C412.339 50.7997 411.103 47.4317 411.103 43.1H409.103ZM413.287 54.6981C416.09 57.5731 419.656 59 423.903 59V57C420.151 57 417.116 55.7602 414.719 53.3019L413.287 54.6981ZM514.952 16.2H515.952V15.2H514.952V16.2ZM514.952 70V71H515.952V70H514.952ZM499.352 70H498.352V71H499.352V70ZM499.352 29H500.352V28H499.352V29ZM482.352 29V28H481.403L481.353 28.9474L482.352 29ZM481.852 38.5L480.853 38.4474L480.853 38.4549L480.852 38.4623L481.852 38.5ZM479.852 56.1L478.877 55.8772L479.852 56.1ZM474.652 67.1L475.395 67.769L474.652 67.1ZM456.552 69.9L455.553 69.8376L455.502 70.6641L456.304 70.8689L456.552 69.9ZM457.352 57.1L457.476 56.1077L456.42 55.9758L456.354 57.0376L457.352 57.1ZM464.852 54.8L464.029 54.2308L464.025 54.2377L464.852 54.8ZM467.252 48.3L468.24 48.4521L468.241 48.4483L467.252 48.3ZM468.152 37.8L469.151 37.8461L469.151 37.837L468.152 37.8ZM468.952 16.2V15.2H467.988L467.952 16.163L468.952 16.2ZM513.952 16.2V70H515.952V16.2H513.952ZM514.952 69H499.352V71H514.952V69ZM500.352 70V29H498.352V70H500.352ZM499.352 28H482.352V30H499.352V28ZM481.353 28.9474L480.853 38.4474L482.85 38.5526L483.35 29.0526L481.353 28.9474ZM480.852 38.4623C480.587 45.4931 479.925 51.2926 478.877 55.8772L480.826 56.3228C481.912 51.574 482.583 45.6402 482.851 38.5377L480.852 38.4623ZM478.877 55.8772C477.836 60.4313 476.163 63.9263 473.908 66.431L475.395 67.769C477.941 64.9404 479.734 61.102 480.826 56.3228L478.877 55.8772ZM473.908 66.431C471.734 68.8471 468.693 70.1 464.652 70.1V72.1C469.143 72.1 472.769 70.6863 475.395 67.769L473.908 66.431ZM464.652 70.1C462.495 70.1 459.883 69.7184 456.799 68.9311L456.304 70.8689C459.487 71.6816 462.274 72.1 464.652 72.1V70.1ZM457.55 69.9624L458.35 57.1624L456.354 57.0376L455.553 69.8376L457.55 69.9624ZM457.228 58.0923C458.296 58.2259 459.117 58.3 459.652 58.3V56.3C459.253 56.3 458.54 56.2408 457.476 56.1077L457.228 58.0923ZM459.652 58.3C462.256 58.3 464.327 57.3492 465.678 55.3623L464.025 54.2377C463.109 55.5841 461.714 56.3 459.652 56.3V58.3ZM465.674 55.3692C466.979 53.4842 467.822 51.1657 468.24 48.4521L466.263 48.1479C465.881 50.6343 465.124 52.6491 464.029 54.2308L465.674 55.3692ZM468.241 48.4483C468.648 45.7338 468.95 42.1958 469.151 37.8461L467.153 37.7539C466.953 42.0709 466.655 45.5329 466.263 48.1517L468.241 48.4483ZM469.151 37.837L469.951 16.237L467.952 16.163L467.152 37.763L469.151 37.837ZM468.952 17.2H514.952V15.2H468.952V17.2ZM559.053 33.4L559.063 32.4H559.053V33.4ZM575.153 38.2L574.51 38.966L574.518 38.9727L575.153 38.2ZM574.453 65.2L575.073 65.9846L575.075 65.9833L574.453 65.2ZM556.953 70.1L556.949 71.1H556.953V70.1ZM529.953 70H528.953V70.9963L529.949 71L529.953 70ZM529.953 16.2V15.2H528.953V16.2H529.953ZM545.453 16.2H546.453V15.2H545.453V16.2ZM545.453 33.4H544.453V34.4H545.453V33.4ZM555.553 59L555.575 58.0002L555.564 58H555.553V59ZM562.453 57.1L561.813 56.3318L562.453 57.1ZM562.453 45.4L561.837 46.1875L561.845 46.1938L561.853 46.2L562.453 45.4ZM555.553 43.5L555.575 42.5002L555.563 42.5L555.553 43.5ZM545.453 43.4L545.463 42.4L544.453 42.39V43.4H545.453ZM545.453 59H544.453V60H545.453V59ZM559.044 34.4C565.911 34.4654 571.018 36.0348 574.51 38.966L575.796 37.434C571.822 34.0985 566.196 32.468 559.063 32.4L559.044 34.4ZM574.518 38.9727C577.979 41.8157 579.753 45.875 579.753 51.3H581.753C581.753 45.3917 579.794 40.7177 575.788 37.4273L574.518 38.9727ZM579.753 51.3C579.753 56.9653 577.765 61.295 573.831 64.4167L575.075 65.9833C579.541 62.4383 581.753 57.5014 581.753 51.3H579.753ZM573.833 64.4154C569.938 67.4936 564.356 69.1 556.953 69.1V71.1C564.617 71.1 570.701 69.4397 575.073 65.9846L573.833 64.4154ZM556.957 69.1L529.957 69L529.949 71L556.949 71.1L556.957 69.1ZM530.953 70V16.2H528.953V70H530.953ZM529.953 17.2H545.453V15.2H529.953V17.2ZM544.453 16.2V33.4H546.453V16.2H544.453ZM545.453 34.4H559.053V32.4H545.453V34.4ZM555.531 59.9998C558.668 60.0695 561.241 59.4122 563.093 57.8682L561.813 56.3318C560.466 57.4545 558.439 58.0639 555.575 58.0002L555.531 59.9998ZM563.093 57.8682C564.982 56.294 565.853 53.9736 565.853 51.1H563.853C563.853 53.5597 563.124 55.2393 561.813 56.3318L563.093 57.8682ZM565.853 51.1C565.853 48.2886 564.977 46.0433 563.053 44.6L561.853 46.2C563.129 47.1567 563.853 48.7114 563.853 51.1H565.853ZM563.069 44.6125C561.293 43.2224 558.742 42.5691 555.575 42.5002L555.531 44.4998C558.498 44.5643 560.546 45.1776 561.837 46.1875L563.069 44.6125ZM555.563 42.5L545.463 42.4L545.443 44.4L555.543 44.5L555.563 42.5ZM544.453 43.4V59H546.453V43.4H544.453ZM545.453 60H555.553V58H545.453V60ZM127.97 129.6L128.786 129.023L128.488 128.6H127.97V129.6ZM119.87 129.6V128.6H118.87V129.6H119.87ZM119.87 150V151H120.87V150H119.87ZM104.27 150H103.27V151H104.27V150ZM104.27 96.2V95.2H103.27V96.2H104.27ZM119.87 96.2H120.87V95.2H119.87V96.2ZM119.87 117.1H118.87V118.1H119.87V117.1ZM128.27 117.1V118.1H128.791L129.089 117.673L128.27 117.1ZM142.87 96.2V95.2H142.348L142.05 95.6273L142.87 96.2ZM159.47 96.2L160.278 96.7889L161.436 95.2H159.47V96.2ZM140.67 122L139.861 121.411L139.435 121.996L139.857 122.583L140.67 122ZM160.77 150V151H162.718L161.582 149.417L160.77 150ZM142.37 150L141.553 150.577L141.851 151H142.37V150ZM127.97 128.6H119.87V130.6H127.97V128.6ZM118.87 129.6V150H120.87V129.6H118.87ZM119.87 149H104.27V151H119.87V149ZM105.27 150V96.2H103.27V150H105.27ZM104.27 97.2H119.87V95.2H104.27V97.2ZM118.87 96.2V117.1H120.87V96.2H118.87ZM119.87 118.1H128.27V116.1H119.87V118.1ZM129.089 117.673L143.689 96.7727L142.05 95.6273L127.45 116.527L129.089 117.673ZM142.87 97.2H159.47V95.2H142.87V97.2ZM158.661 95.6111L139.861 121.411L141.478 122.589L160.278 96.7889L158.661 95.6111ZM139.857 122.583L159.957 150.583L161.582 149.417L141.482 121.417L139.857 122.583ZM160.77 149H142.37V151H160.77V149ZM143.187 149.423L128.786 129.023L127.153 130.177L141.553 150.577L143.187 149.423ZM207.553 101.4L206.886 102.145L206.892 102.15L207.553 101.4ZM214.253 150V151H215.253V150H214.253ZM199.653 150H198.653V151H199.653V150ZM199.653 143.3H200.653V139.619L198.791 142.794L199.653 143.3ZM172.453 148.7L172.03 149.606L172.038 149.61L172.453 148.7ZM165.553 142.9L164.714 143.444L165.553 142.9ZM168.753 122.7L168.151 121.902L168.144 121.907L168.753 122.7ZM198.653 118.4V119.4H199.653V118.4H198.653ZM195.553 110.6L194.883 111.342L194.89 111.348L194.896 111.354L195.553 110.6ZM177.753 109.2L178.055 110.153L178.062 110.151L178.069 110.149L177.753 109.2ZM170.753 112.8L169.864 113.257L170.42 114.34L171.375 113.583L170.753 112.8ZM165.153 101.9L164.577 101.083L163.866 101.583L164.264 102.357L165.153 101.9ZM175.653 97.1L175.389 96.1356L175.385 96.1367L175.653 97.1ZM194.253 138.5L194.755 139.365L194.766 139.359L194.776 139.353L194.253 138.5ZM198.653 133L199.594 133.34L199.653 133.175V133H198.653ZM198.653 127.5H199.653V126.5H198.653V127.5ZM180.653 138.6L180.037 139.387L180.056 139.402L180.075 139.416L180.653 138.6ZM188.353 96.4C196.536 96.4 202.664 98.3636 206.886 102.145L208.22 100.655C203.509 96.4364 196.837 94.4 188.353 94.4V96.4ZM206.892 102.15C211.076 105.835 213.253 111.483 213.253 119.3H215.253C215.253 111.117 212.964 104.832 208.214 100.65L206.892 102.15ZM213.253 119.3V150H215.253V119.3H213.253ZM214.253 149H199.653V151H214.253V149ZM200.653 150V143.3H198.653V150H200.653ZM198.791 142.794C196.102 147.377 191.049 149.8 183.253 149.8V151.8C191.457 151.8 197.338 149.223 200.516 143.806L198.791 142.794ZM183.253 149.8C179.231 149.8 175.779 149.119 172.868 147.79L172.038 149.61C175.261 151.081 179.008 151.8 183.253 151.8V149.8ZM172.876 147.794C170.024 146.463 167.878 144.646 166.392 142.356L164.714 143.444C166.429 146.087 168.882 148.137 172.03 149.606L172.876 147.794ZM166.392 142.356C164.904 140.062 164.153 137.453 164.153 134.5H162.153C162.153 137.813 163.002 140.805 164.714 143.444L166.392 142.356ZM164.153 134.5C164.153 129.788 165.893 126.157 169.362 123.493L168.144 121.907C164.147 124.976 162.153 129.212 162.153 134.5H164.153ZM169.355 123.498C172.901 120.824 178.474 119.4 186.253 119.4V117.4C178.299 117.4 172.205 118.843 168.151 121.902L169.355 123.498ZM186.253 119.4H198.653V117.4H186.253V119.4ZM199.653 118.4C199.653 114.786 198.546 111.88 196.21 109.846L194.896 111.354C196.694 112.92 197.653 115.214 197.653 118.4H199.653ZM196.223 109.858C193.901 107.761 190.517 106.8 186.253 106.8V108.8C190.256 108.8 193.072 109.706 194.883 111.342L196.223 109.858ZM186.253 106.8C183.276 106.8 180.336 107.285 177.437 108.251L178.069 110.149C180.77 109.248 183.497 108.8 186.253 108.8V106.8ZM177.451 108.247C174.62 109.144 172.174 110.397 170.132 112.017L171.375 113.583C173.199 112.137 175.419 110.989 178.055 110.153L177.451 108.247ZM171.643 112.343L166.043 101.443L164.264 102.357L169.864 113.257L171.643 112.343ZM165.729 102.717C168.554 100.727 171.946 99.1712 175.922 98.0633L175.385 96.1367C171.227 97.2954 167.619 98.9396 164.577 101.083L165.729 102.717ZM175.918 98.0644C179.964 96.955 184.108 96.4 188.353 96.4V94.4C183.931 94.4 179.609 94.9784 175.389 96.1356L175.918 98.0644ZM187.153 141.3C189.975 141.3 192.519 140.663 194.755 139.365L193.751 137.635C191.854 138.737 189.664 139.3 187.153 139.3V141.3ZM194.776 139.353C197.047 137.961 198.654 135.941 199.594 133.34L197.713 132.66C196.919 134.859 195.593 136.506 193.731 137.647L194.776 139.353ZM199.653 133V127.5H197.653V133H199.653ZM198.653 126.5H187.953V128.5H198.653V126.5ZM187.953 126.5C184.676 126.5 182.044 127.032 180.204 128.239C178.292 129.494 177.353 131.402 177.353 133.8H179.353C179.353 131.998 180.014 130.756 181.302 129.911C182.663 129.018 184.831 128.5 187.953 128.5V126.5ZM177.353 133.8C177.353 136.098 178.254 137.992 180.037 139.387L181.269 137.812C179.986 136.808 179.353 135.502 179.353 133.8H177.353ZM180.075 139.416C181.899 140.708 184.292 141.3 187.153 141.3V139.3C184.548 139.3 182.607 138.759 181.231 137.784L180.075 139.416ZM276.205 96.2H277.205V95.2H276.205V96.2ZM276.205 150V151H277.205V150H276.205ZM260.605 150H259.605V151H260.605V150ZM260.605 130H261.605V128.382L260.157 129.106L260.605 130ZM229.105 128.5L228.432 129.24L228.439 129.246L228.446 129.253L229.105 128.5ZM223.605 96.2V95.2H222.605V96.2H223.605ZM239.205 96.2H240.205V95.2H239.205V96.2ZM241.705 119.2L241.044 119.951L241.051 119.957L241.059 119.963L241.705 119.2ZM260.605 118.8L261.039 119.701L261.605 119.428V118.8H260.605ZM260.605 96.2V95.2H259.605V96.2H260.605ZM275.205 96.2V150H277.205V96.2H275.205ZM276.205 149H260.605V151H276.205V149ZM261.605 150V130H259.605V150H261.605ZM260.157 129.106C255.774 131.297 250.929 132.4 245.605 132.4V134.4C251.214 134.4 256.369 133.236 261.052 130.894L260.157 129.106ZM245.605 132.4C238.47 132.4 233.246 130.795 229.763 127.747L228.446 129.253C232.43 132.739 238.206 134.4 245.605 134.4V132.4ZM229.777 127.76C226.392 124.682 224.605 119.867 224.605 113.1H222.605C222.605 120.199 224.484 125.651 228.432 129.24L229.777 127.76ZM224.605 113.1V96.2H222.605V113.1H224.605ZM223.605 97.2H239.205V95.2H223.605V97.2ZM238.205 96.2V112.1H240.205V96.2H238.205ZM238.205 112.1C238.205 115.516 239.076 118.219 241.044 119.951L242.365 118.449C241 117.248 240.205 115.217 240.205 112.1H238.205ZM241.059 119.963C243.034 121.635 245.764 122.4 249.105 122.4V120.4C246.046 120.4 243.842 119.698 242.351 118.437L241.059 119.963ZM249.105 122.4C253.319 122.4 257.301 121.501 261.039 119.701L260.171 117.899C256.709 119.566 253.024 120.4 249.105 120.4V122.4ZM261.605 118.8V96.2H259.605V118.8H261.605ZM260.605 97.2H276.205V95.2H260.605V97.2ZM343.184 127.5V128.5H344.11L344.181 127.577L343.184 127.5ZM302.484 127.5V126.5H301.24L301.507 127.715L302.484 127.5ZM307.684 135.4L307.106 136.216L307.684 135.4ZM325.284 137.1L325.635 138.036L325.642 138.033L325.65 138.03L325.284 137.1ZM331.384 133.1L332.119 132.422L331.426 131.67L330.689 132.38L331.384 133.1ZM339.684 142.1L340.437 142.758L341.027 142.082L340.419 141.422L339.684 142.1ZM301.384 147.3L300.926 148.189L300.936 148.194L301.384 147.3ZM290.584 137.4L289.727 137.916L290.584 137.4ZM290.484 108.9L289.624 108.389L289.621 108.394L290.484 108.9ZM300.784 99L301.258 99.8805L301.262 99.8779L300.784 99ZM329.784 98.8L330.253 97.9169L329.784 98.8ZM339.784 108.6L338.912 109.09L338.917 109.098L338.921 109.106L339.784 108.6ZM306.684 110.2L306.043 109.432L306.684 110.2ZM302.284 118.4L301.295 118.248L301.118 119.4H302.284V118.4ZM328.784 118.4V119.4H329.953L329.772 118.245L328.784 118.4ZM324.384 110.3L323.731 111.058L323.737 111.063L323.743 111.068L324.384 110.3ZM342.484 123.3C342.484 123.297 342.483 123.318 342.48 123.381C342.477 123.438 342.473 123.515 342.467 123.613C342.455 123.808 342.436 124.08 342.411 124.429C342.361 125.126 342.286 126.124 342.187 127.423L344.181 127.577C344.378 125.014 344.484 123.551 344.484 123.3H342.484ZM343.184 126.5H302.484V128.5H343.184V126.5ZM301.507 127.715C302.293 131.286 304.165 134.136 307.106 136.216L308.261 134.584C305.735 132.797 304.141 130.38 303.46 127.285L301.507 127.715ZM307.106 136.216C310.042 138.293 313.655 139.3 317.884 139.3V137.3C313.979 137.3 310.792 136.374 308.261 134.584L307.106 136.216ZM317.884 139.3C320.777 139.3 323.367 138.887 325.635 138.036L324.932 136.164C322.934 136.913 320.59 137.3 317.884 137.3V139.3ZM325.65 138.03C327.983 137.111 330.126 135.702 332.078 133.82L330.689 132.38C328.908 134.098 326.984 135.355 324.917 136.17L325.65 138.03ZM330.648 133.778L338.948 142.778L340.419 141.422L332.119 132.422L330.648 133.778ZM338.93 141.442C334.102 146.97 327.01 149.8 317.484 149.8V151.8C327.424 151.8 335.132 148.83 340.437 142.758L338.93 141.442ZM317.484 149.8C311.547 149.8 306.338 148.659 301.831 146.406L300.936 148.194C305.763 150.608 311.287 151.8 317.484 151.8V149.8ZM301.841 146.411C297.327 144.089 293.871 140.913 291.44 136.883L289.727 137.916C292.363 142.287 296.107 145.711 300.926 148.189L301.841 146.411ZM291.44 136.883C289.009 132.853 287.784 128.268 287.784 123.1H285.784C285.784 128.599 287.092 133.547 289.727 137.916L291.44 136.883ZM287.784 123.1C287.784 117.996 288.977 113.44 291.346 109.406L289.621 108.394C287.057 112.76 285.784 117.67 285.784 123.1H287.784ZM291.343 109.411C293.785 105.299 297.086 102.127 301.258 99.8805L300.31 98.1195C295.815 100.54 292.249 103.968 289.624 108.389L291.343 109.411ZM301.262 99.8779C305.504 97.5642 310.238 96.4 315.484 96.4V94.4C309.93 94.4 304.863 95.6358 300.305 98.1221L301.262 99.8779ZM315.484 96.4C320.602 96.4 325.205 97.5 329.314 99.6831L330.253 97.9169C325.829 95.5667 320.899 94.4 315.484 94.4V96.4ZM329.314 99.6831C333.41 101.859 336.604 104.988 338.912 109.09L340.655 108.11C338.163 103.679 334.691 100.275 330.253 97.9169L329.314 99.6831ZM338.921 109.106C341.285 113.131 342.484 117.851 342.484 123.3H344.484C344.484 117.549 343.216 112.469 340.646 108.094L338.921 109.106ZM315.584 106.2C311.849 106.2 308.647 107.262 306.043 109.432L307.324 110.968C309.521 109.138 312.252 108.2 315.584 108.2V106.2ZM306.043 109.432C303.433 111.607 301.861 114.572 301.295 118.248L303.272 118.552C303.773 115.295 305.134 112.793 307.324 110.968L306.043 109.432ZM302.284 119.4H328.784V117.4H302.284V119.4ZM329.772 118.245C329.205 114.631 327.63 111.703 325.024 109.532L323.743 111.068C325.937 112.897 327.296 115.369 327.796 118.555L329.772 118.245ZM325.036 109.542C322.437 107.304 319.265 106.2 315.584 106.2V108.2C318.835 108.2 321.53 109.163 323.731 111.058L325.036 109.542ZM365.541 147.3L365.074 148.184L365.081 148.188L365.089 148.192L365.541 147.3ZM354.841 137.4L353.985 137.917L353.991 137.926L354.841 137.4ZM354.841 108.8L353.991 108.274L353.985 108.284L354.841 108.8ZM365.541 99L365.999 99.8891L366.004 99.8866L365.541 99ZM395.841 99L395.345 99.8682L395.353 99.8729L395.362 99.8774L395.841 99ZM405.141 109.1L405.615 109.981L406.429 109.544L406.057 108.698L405.141 109.1ZM393.041 115.6L392.172 116.094L392.654 116.943L393.515 116.481L393.041 115.6ZM370.841 134L371.549 133.293L370.841 134ZM393.041 130.6L393.52 129.722L392.648 129.246L392.167 130.115L393.041 130.6ZM405.141 137.2L406.052 137.613L406.436 136.767L405.62 136.322L405.141 137.2ZM395.841 147.2L395.351 146.328L395.345 146.332L395.841 147.2ZM381.041 149.8C375.448 149.8 370.439 148.663 365.994 146.408L365.089 148.192C369.844 150.604 375.169 151.8 381.041 151.8V149.8ZM366.009 146.416C361.627 144.096 358.195 140.917 355.692 136.874L353.991 137.926C356.688 142.283 360.39 145.704 365.074 148.184L366.009 146.416ZM355.698 136.883C353.267 132.853 352.041 128.268 352.041 123.1H350.041C350.041 128.599 351.35 133.547 353.985 137.916L355.698 136.883ZM352.041 123.1C352.041 117.932 353.267 113.347 355.698 109.316L353.985 108.284C351.35 112.653 350.041 117.601 350.041 123.1H352.041ZM355.692 109.326C358.193 105.286 361.622 102.142 365.999 99.8891L365.084 98.1109C360.395 100.524 356.69 103.914 353.991 108.274L355.692 109.326ZM366.004 99.8866C370.447 97.5687 375.452 96.4 381.041 96.4V94.4C375.164 94.4 369.836 95.6313 365.079 98.1134L366.004 99.8866ZM381.041 96.4C386.564 96.4 391.32 97.5684 395.345 99.8682L396.338 98.1318C391.962 95.6316 386.852 94.4 381.041 94.4V96.4ZM395.362 99.8774C399.437 102.106 402.383 105.307 404.226 109.502L406.057 108.698C404.034 104.093 400.779 100.561 396.321 98.1226L395.362 99.8774ZM404.668 108.219L392.568 114.719L393.515 116.481L405.615 109.981L404.668 108.219ZM393.911 115.106C390.95 109.89 386.601 107.2 380.941 107.2V109.2C385.815 109.2 389.533 111.444 392.172 116.094L393.911 115.106ZM380.941 107.2C376.632 107.2 373.004 108.623 370.134 111.493L371.549 112.907C374.012 110.444 377.117 109.2 380.941 109.2V107.2ZM370.134 111.493C367.24 114.387 365.841 118.297 365.841 123.1H367.841C367.841 118.703 369.109 115.346 371.549 112.907L370.134 111.493ZM365.841 123.1C365.841 127.903 367.24 131.813 370.134 134.707L371.549 133.293C369.109 130.854 367.841 127.497 367.841 123.1H365.841ZM370.134 134.707C373.004 137.577 376.632 139 380.941 139V137C377.117 137 374.012 135.756 371.549 133.293L370.134 134.707ZM380.941 139C383.768 139 386.295 138.344 388.488 137.003C390.678 135.664 392.482 133.673 393.916 131.085L392.167 130.115C390.868 132.46 389.288 134.17 387.445 135.297C385.604 136.422 383.448 137 380.941 137V139ZM392.563 131.478L404.663 138.078L405.62 136.322L393.52 129.722L392.563 131.478ZM404.231 136.787C402.389 140.851 399.441 144.028 395.351 146.328L396.332 148.072C400.775 145.572 404.027 142.082 406.052 137.613L404.231 136.787ZM395.345 146.332C391.32 148.632 386.564 149.8 381.041 149.8V151.8C386.852 151.8 391.962 150.568 396.338 148.068L395.345 146.332ZM459.626 109V110H460.626V109H459.626ZM441.426 109V108H440.426V109H441.426ZM441.426 150V151H442.426V150H441.426ZM425.926 150H424.926V151H425.926V150ZM425.926 109H426.926V108H425.926V109ZM407.726 109H406.726V110H407.726V109ZM407.726 96.2V95.2H406.726V96.2H407.726ZM459.626 96.2H460.626V95.2H459.626V96.2ZM459.626 108H441.426V110H459.626V108ZM440.426 109V150H442.426V109H440.426ZM441.426 149H425.926V151H441.426V149ZM426.926 150V109H424.926V150H426.926ZM425.926 108H407.726V110H425.926V108ZM408.726 109V96.2H406.726V109H408.726ZM407.726 97.2H459.626V95.2H407.726V97.2ZM458.626 96.2V109H460.626V96.2H458.626ZM509.041 121.9L508.633 120.987L506.299 122.031L508.722 122.848L509.041 121.9ZM513.041 146L513.63 146.809L513.041 146ZM467.941 150H466.941V151H467.941V150ZM467.941 96.2V95.2H466.941V96.2H467.941ZM511.241 99.9L510.697 100.739L510.707 100.745L511.241 99.9ZM514.841 117.2L514.013 116.639L514.009 116.645L514.841 117.2ZM482.241 118.3H481.241V119.3H482.241V118.3ZM482.241 106.8V105.8H481.241V106.8H482.241ZM501.941 129L501.341 129.8L501.355 129.81L501.368 129.819L501.941 129ZM482.241 127.5V126.5H481.241V127.5H482.241ZM482.241 139.4H481.241V140.4H482.241V139.4ZM508.722 122.848C511.746 123.866 513.93 125.364 515.363 127.296C516.794 129.224 517.541 131.67 517.541 134.7H519.541C519.541 131.33 518.705 128.443 516.969 126.104C515.236 123.769 512.671 122.067 509.361 120.952L508.722 122.848ZM517.541 134.7C517.541 139.274 515.84 142.728 512.453 145.191L513.63 146.809C517.576 143.938 519.541 139.859 519.541 134.7H517.541ZM512.453 145.191C509.033 147.679 503.814 149 496.641 149V151C504.002 151 509.717 149.654 513.63 146.809L512.453 145.191ZM496.641 149H467.941V151H496.641V149ZM468.941 150V96.2H466.941V150H468.941ZM467.941 97.2H495.441V95.2H467.941V97.2ZM495.441 97.2C502.07 97.2 507.12 98.4168 510.697 100.739L511.786 99.0612C507.763 96.4498 502.28 95.2 495.441 95.2V97.2ZM510.707 100.745C514.225 102.967 515.941 106.052 515.941 110.1H517.941C517.941 105.348 515.858 101.633 511.775 99.0545L510.707 100.745ZM515.941 110.1C515.941 112.581 515.294 114.75 514.013 116.639L515.669 117.761C517.189 115.517 517.941 112.952 517.941 110.1H515.941ZM514.009 116.645C512.796 118.465 511.021 119.919 508.633 120.987L509.45 122.813C512.128 121.615 514.22 119.935 515.673 117.755L514.009 116.645ZM482.241 119.3H494.041V117.3H482.241V119.3ZM494.041 119.3C496.862 119.3 499.157 118.807 500.769 117.666C502.444 116.481 503.241 114.7 503.241 112.5H501.241C501.241 114.167 500.672 115.285 499.614 116.034C498.493 116.827 496.687 117.3 494.041 117.3V119.3ZM503.241 112.5C503.241 110.326 502.439 108.569 500.762 107.404C499.151 106.284 496.86 105.8 494.041 105.8V107.8C496.69 107.8 498.498 108.266 499.621 109.046C500.677 109.781 501.241 110.874 501.241 112.5H503.241ZM494.041 105.8H482.241V107.8H494.041V105.8ZM481.241 106.8V118.3H483.241V106.8H481.241ZM495.341 140.4C498.291 140.4 500.681 139.9 502.357 138.75C504.101 137.553 504.941 135.746 504.941 133.5H502.941C502.941 135.187 502.348 136.33 501.226 137.1C500.035 137.917 498.125 138.4 495.341 138.4V140.4ZM504.941 133.5C504.941 131.205 504.187 129.351 502.515 128.181L501.368 129.819C502.362 130.515 502.941 131.661 502.941 133.5H504.941ZM502.541 128.2C500.949 127.006 498.585 126.5 495.641 126.5V128.5C498.432 128.5 500.267 128.994 501.341 129.8L502.541 128.2ZM495.641 126.5H482.241V128.5H495.641V126.5ZM481.241 127.5V139.4H483.241V127.5H481.241ZM482.241 140.4H495.341V138.4H482.241V140.4ZM570.248 101.4L569.581 102.145L569.588 102.15L570.248 101.4ZM576.948 150V151H577.948V150H576.948ZM562.348 150H561.348V151H562.348V150ZM562.348 143.3H563.348V139.619L561.486 142.794L562.348 143.3ZM535.148 148.7L534.726 149.606L534.733 149.61L535.148 148.7ZM528.248 142.9L527.409 143.444L528.248 142.9ZM531.448 122.7L530.846 121.902L530.839 121.907L531.448 122.7ZM561.348 118.4V119.4H562.348V118.4H561.348ZM558.248 110.6L557.578 111.342L557.585 111.348L557.592 111.354L558.248 110.6ZM540.448 109.2L540.751 110.153L540.758 110.151L540.765 110.149L540.448 109.2ZM533.448 112.8L532.559 113.257L533.116 114.34L534.07 113.583L533.448 112.8ZM527.848 101.9L527.272 101.083L526.562 101.583L526.959 102.357L527.848 101.9ZM538.348 97.1L538.084 96.1356L538.08 96.1367L538.348 97.1ZM556.948 138.5L557.451 139.365L557.461 139.359L557.471 139.353L556.948 138.5ZM561.348 133L562.289 133.34L562.348 133.175V133H561.348ZM561.348 127.5H562.348V126.5H561.348V127.5ZM543.348 138.6L542.732 139.387L542.751 139.402L542.77 139.416L543.348 138.6ZM551.048 96.4C559.232 96.4 565.359 98.3636 569.581 102.145L570.916 100.655C566.205 96.4364 559.532 94.4 551.048 94.4V96.4ZM569.588 102.15C573.771 105.835 575.948 111.483 575.948 119.3H577.948C577.948 111.117 575.659 104.832 570.909 100.65L569.588 102.15ZM575.948 119.3V150H577.948V119.3H575.948ZM576.948 149H562.348V151H576.948V149ZM563.348 150V143.3H561.348V150H563.348ZM561.486 142.794C558.797 147.377 553.745 149.8 545.948 149.8V151.8C554.152 151.8 560.033 149.223 563.211 143.806L561.486 142.794ZM545.948 149.8C541.927 149.8 538.474 149.119 535.564 147.79L534.733 149.61C537.956 151.081 541.703 151.8 545.948 151.8V149.8ZM535.571 147.794C532.719 146.463 530.573 144.646 529.087 142.356L527.409 143.444C529.124 146.087 531.578 148.137 534.726 149.606L535.571 147.794ZM529.087 142.356C527.599 140.062 526.848 137.453 526.848 134.5H524.848C524.848 137.813 525.697 140.805 527.409 143.444L529.087 142.356ZM526.848 134.5C526.848 129.788 528.588 126.157 532.057 123.493L530.839 121.907C526.842 124.976 524.848 129.212 524.848 134.5H526.848ZM532.051 123.498C535.596 120.824 541.169 119.4 548.948 119.4V117.4C540.994 117.4 534.901 118.843 530.846 121.902L532.051 123.498ZM548.948 119.4H561.348V117.4H548.948V119.4ZM562.348 118.4C562.348 114.786 561.241 111.88 558.905 109.846L557.592 111.354C559.389 112.92 560.348 115.214 560.348 118.4H562.348ZM558.919 109.858C556.597 107.761 553.212 106.8 548.948 106.8V108.8C552.951 108.8 555.767 109.706 557.578 111.342L558.919 109.858ZM548.948 106.8C545.971 106.8 543.031 107.285 540.132 108.251L540.765 110.149C543.466 109.248 546.192 108.8 548.948 108.8V106.8ZM540.146 108.247C537.315 109.144 534.87 110.397 532.827 112.017L534.07 113.583C535.894 112.137 538.115 110.989 540.751 110.153L540.146 108.247ZM534.338 112.343L528.738 101.443L526.959 102.357L532.559 113.257L534.338 112.343ZM528.424 102.717C531.249 100.727 534.641 99.1712 538.617 98.0633L538.08 96.1367C533.922 97.2954 530.314 98.9396 527.272 101.083L528.424 102.717ZM538.613 98.0644C542.659 96.955 546.803 96.4 551.048 96.4V94.4C546.627 94.4 542.304 94.9784 538.084 96.1356L538.613 98.0644ZM549.848 141.3C552.671 141.3 555.214 140.663 557.451 139.365L556.446 137.635C554.549 138.737 552.36 139.3 549.848 139.3V141.3ZM557.471 139.353C559.742 137.961 561.35 135.941 562.289 133.34L560.408 132.66C559.614 134.859 558.288 136.506 556.426 137.647L557.471 139.353ZM562.348 133V127.5H560.348V133H562.348ZM561.348 126.5H550.648V128.5H561.348V126.5ZM550.648 126.5C547.371 126.5 544.739 127.032 542.9 128.239C540.987 129.494 540.048 131.402 540.048 133.8H542.048C542.048 131.998 542.71 130.756 543.997 129.911C545.358 129.018 547.526 128.5 550.648 128.5V126.5ZM540.048 133.8C540.048 136.098 540.949 137.992 542.732 139.387L543.965 137.812C542.681 136.808 542.048 135.502 542.048 133.8H540.048ZM542.77 139.416C544.594 140.708 546.987 141.3 549.848 141.3V139.3C547.243 139.3 545.303 138.759 543.926 137.784L542.77 139.416Z" fill="#8A8A8A"/>
</svg>
