<svg width="0" height="0" class="hidden">
  <symbol xmlns="http://www.w3.org/2000/svg" viewBox="0 0 6 11" id="ic_arrow_right">
    <path d="M0.421875 0.34375C0.46875 0.296875 0.515625 0.273438 0.609375 0.273438C0.679688 0.273438 0.75 0.296875 0.796875 0.34375L5.76562 5.3125C5.8125 5.35938 5.83594 5.42969 5.83594 5.5C5.83594 5.59375 5.8125 5.64062 5.76562 5.6875L0.796875 10.6562C0.75 10.7031 0.679688 10.7266 0.609375 10.7266C0.515625 10.7266 0.46875 10.7031 0.421875 10.6562L0.234375 10.4688C0.1875 10.4219 0.164062 10.375 0.164062 10.2812C0.164062 10.2109 0.1875 10.1406 0.234375 10.0703L4.82812 5.5L0.234375 0.929688C0.1875 0.882812 0.164062 0.8125 0.164062 0.71875C0.164062 0.648438 0.1875 0.578125 0.234375 0.53125L0.421875 0.34375Z" fill="currentColor"></path>
  </symbol>
  <symbol xmlns="http://www.w3.org/2000/svg" viewBox="0 0 12 9" id="ic_check">
    <path d="M10.2188 0.445312C10.2656 0.398438 10.3125 0.375 10.4062 0.375C10.4766 0.375 10.5469 0.398438 10.6172 0.445312L11.2734 1.125C11.3203 1.17188 11.3672 1.24219 11.3672 1.3125C11.3672 1.40625 11.3203 1.47656 11.2734 1.52344L4.24219 8.55469C4.19531 8.60156 4.125 8.625 4.05469 8.625C3.96094 8.625 3.89062 8.60156 3.84375 8.55469L0.726562 5.41406C0.65625 5.36719 0.632812 5.32031 0.632812 5.22656C0.632812 5.15625 0.65625 5.08594 0.726562 5.01562L1.38281 4.35938C1.42969 4.3125 1.5 4.26562 1.59375 4.26562C1.66406 4.26562 1.73438 4.3125 1.78125 4.35938L4.05469 6.63281L10.2188 0.445312Z" fill="currentColor"></path>
  </symbol>
  <symbol xmlns="http://www.w3.org/2000/svg" viewBox="0 0 30 30" id="ic_close">
    <path d="M15 0C6.72535 0 0 6.72535 0 15C0 23.2746 6.72535 30 15 30C23.2746 30 30 23.2746 30 15C30 6.72535 23.2746 0 15 0ZM15 28.4859C7.57042 28.4859 1.51408 22.4296 1.51408 15C1.51408 7.57042 7.57042 1.51408 15 1.51408C22.4296 1.51408 28.4859 7.57042 28.4859 15C28.4859 22.4296 22.4296 28.4859 15 28.4859Z" fill="currentColor"></path>
    <path d="M16.0563 14.9298L20.4577 10.5283C20.7394 10.2467 20.7394 9.7537 20.4577 9.47201C20.176 9.19032 19.683 9.19032 19.4014 9.47201L14.9999 13.8734L10.5985 9.47201C10.3168 9.19032 9.82389 9.19032 9.5422 9.47201C9.26051 9.7537 9.26051 10.2467 9.5422 10.5283L13.9436 14.9298L9.5422 19.296C9.26051 19.5776 9.26051 20.0706 9.5422 20.3523C9.68305 20.4931 9.89431 20.5636 10.0704 20.5636C10.2464 20.5636 10.4577 20.4931 10.5985 20.3523L14.9999 15.9509L19.4014 20.3523C19.5422 20.4931 19.7535 20.5636 19.9295 20.5636C20.1056 20.5636 20.3168 20.4931 20.4577 20.3523C20.7394 20.0706 20.7394 19.5776 20.4577 19.296L16.0563 14.9298Z" fill="currentColor"></path>
  </symbol>
  <symbol xmlns="http://www.w3.org/2000/svg" viewBox="0 0 14 19" id="ic_data">
    <path d="M11.8125 2.5H8.68359C8.68359 2.42969 8.71875 2.32422 8.71875 2.21875C8.71875 1.16406 7.80469 0.25 6.75 0.25C5.66016 0.25 4.78125 1.16406 4.78125 2.21875C4.78125 2.32422 4.78125 2.42969 4.78125 2.5H1.6875C0.738281 2.5 0 3.27344 0 4.1875V16.5625C0 17.5117 0.738281 18.25 1.6875 18.25H11.8125C12.7266 18.25 13.5 17.5117 13.5 16.5625V4.1875C13.5 3.27344 12.7266 2.5 11.8125 2.5ZM6.75 1.375C7.20703 1.375 7.59375 1.76172 7.59375 2.21875C7.59375 2.71094 7.20703 3.0625 6.75 3.0625C6.25781 3.0625 5.90625 2.71094 5.90625 2.21875C5.90625 1.76172 6.25781 1.375 6.75 1.375ZM12.375 16.5625C12.375 16.8789 12.0938 17.125 11.8125 17.125H1.6875C1.37109 17.125 1.125 16.8789 1.125 16.5625V4.1875C1.125 3.90625 1.37109 3.625 1.6875 3.625H3.375V4.32812C3.375 4.57422 3.55078 4.75 3.79688 4.75H9.70312C9.91406 4.75 10.125 4.57422 10.125 4.32812V3.625H11.8125C12.0938 3.625 12.375 3.90625 12.375 4.1875V16.5625ZM3.9375 11.7812C3.44531 11.7812 3.09375 12.168 3.09375 12.625C3.09375 13.1172 3.44531 13.4688 3.9375 13.4688C4.39453 13.4688 4.78125 13.1172 4.78125 12.625C4.78125 12.168 4.39453 11.7812 3.9375 11.7812ZM9.84375 12.0625H5.90625C5.73047 12.0625 5.625 12.2031 5.625 12.3438V12.9062C5.625 13.082 5.73047 13.1875 5.90625 13.1875H9.84375C9.98438 13.1875 10.125 13.082 10.125 12.9062V12.3438C10.125 12.2031 9.98438 12.0625 9.84375 12.0625ZM4.42969 9.77734L6.67969 7.52734C6.75 7.45703 6.75 7.35156 6.67969 7.28125L6.22266 6.82422C6.15234 6.75391 6.04688 6.75391 5.97656 6.82422L4.28906 8.47656L3.58594 7.73828C3.48047 7.66797 3.375 7.66797 3.30469 7.73828L2.84766 8.19531C2.77734 8.26562 2.77734 8.37109 2.84766 8.44141L4.14844 9.77734C4.21875 9.84766 4.35938 9.84766 4.42969 9.77734ZM9.84375 8.6875H7.10156L5.97656 9.8125H9.84375C9.98438 9.8125 10.125 9.70703 10.125 9.53125V8.96875C10.125 8.82812 9.98438 8.6875 9.84375 8.6875Z" fill="currentColor"></path>
  </symbol>
  <symbol xmlns="http://www.w3.org/2000/svg" viewBox="0 0 18 14" id="ic_email">
    <path d="M16.3125 0.5H1.6875C0.738281 0.5 0 1.27344 0 2.1875V12.3125C0 13.2617 0.738281 14 1.6875 14H16.3125C17.2266 14 18 13.2617 18 12.3125V2.1875C18 1.27344 17.2266 0.5 16.3125 0.5ZM1.6875 1.625H16.3125C16.5938 1.625 16.875 1.90625 16.875 2.1875V3.66406C16.1016 4.29688 14.9766 5.21094 11.5664 7.91797C10.9688 8.41016 9.80859 9.53516 9 9.5C8.15625 9.53516 6.99609 8.41016 6.39844 7.91797C2.98828 5.21094 1.86328 4.29688 1.125 3.66406V2.1875C1.125 1.90625 1.37109 1.625 1.6875 1.625ZM16.3125 12.875H1.6875C1.37109 12.875 1.125 12.6289 1.125 12.3125V5.10547C1.89844 5.77344 3.16406 6.79297 5.69531 8.79688C6.43359 9.39453 7.69922 10.6602 9 10.625C10.2656 10.6602 11.5312 9.39453 12.2695 8.79688C14.8008 6.79297 16.0664 5.77344 16.875 5.10547V12.3125C16.875 12.6289 16.5938 12.875 16.3125 12.875Z" fill="currentColor"></path>
  </symbol>
  <symbol xmlns="http://www.w3.org/2000/svg" viewBox="0 0 12 20" id="ic_facebook">
    <path d="M7.54894 20V10.8777H10.6097L11.0689 7.32156H7.54894V5.05147C7.54894 4.0222 7.83359 3.32076 9.31123 3.32076L11.1928 3.31999V0.13923C10.8674 0.0969453 9.75045 0 8.45045 0C5.73586 0 3.87739 1.65697 3.87739 4.69927V7.32156H0.807373V10.8777H3.87739V20H7.54894Z" fill="currentColor"></path>
  </symbol>
  <symbol xmlns="http://www.w3.org/2000/svg" viewBox="0 0 20 20" id="ic_instagram">
    <path d="M14.9999 0H5.00012C2.25043 0 0.000244141 2.25019 0.000244141 4.99988V15.0001C0.000244141 17.7491 2.25043 20 5.00012 20H14.9999C17.7496 20 19.9998 17.7491 19.9998 15.0001V4.99988C19.9998 2.25019 17.7496 0 14.9999 0ZM18.333 15.0001C18.333 16.8376 16.8384 18.3333 14.9999 18.3333H5.00012C3.16242 18.3333 1.66695 16.8376 1.66695 15.0001V4.99988C1.66695 3.16193 3.16242 1.66671 5.00012 1.66671H14.9999C16.8384 1.66671 18.333 3.16193 18.333 4.99988V15.0001Z" fill="currentColor"></path>
    <path d="M15.4174 5.83295C16.1078 5.83295 16.6674 5.27332 16.6674 4.58298C16.6674 3.89264 16.1078 3.33301 15.4174 3.33301C14.7271 3.33301 14.1675 3.89264 14.1675 4.58298C14.1675 5.27332 14.7271 5.83295 15.4174 5.83295Z" fill="currentColor"></path>
    <path d="M9.99988 5C7.23793 5 5 7.23818 5 9.99988C5 12.7606 7.23793 15.0003 9.99988 15.0003C12.761 15.0003 14.9998 12.7606 14.9998 9.99988C14.9998 7.23818 12.761 5 9.99988 5ZM9.99988 13.3335C8.15915 13.3335 6.66671 11.8411 6.66671 9.99988C6.66671 8.15867 8.15915 6.66671 9.99988 6.66671C11.8406 6.66671 13.333 8.15867 13.333 9.99988C13.333 11.8411 11.8406 13.3335 9.99988 13.3335Z" fill="currentColor"></path>
  </symbol>
  <symbol xmlns="http://www.w3.org/2000/svg" viewBox="0 0 9 13" id="ic_location">
    <path d="M4.5 2.75C3.25781 2.75 2.25 3.78125 2.25 5C2.25 6.24219 3.25781 7.25 4.5 7.25C5.71875 7.25 6.75 6.24219 6.75 5C6.75 3.78125 5.71875 2.75 4.5 2.75ZM4.5 6.5C3.65625 6.5 3 5.84375 3 5C3 4.17969 3.65625 3.5 4.5 3.5C5.32031 3.5 6 4.17969 6 5C6 5.84375 5.32031 6.5 4.5 6.5ZM4.5 0.5C1.99219 0.5 0 2.51562 0 5C0 6.82812 0.609375 7.34375 4.03125 12.2656C4.24219 12.5938 4.73438 12.5938 4.94531 12.2656C8.36719 7.34375 9 6.82812 9 5C9 2.51562 6.98438 0.5 4.5 0.5ZM4.5 11.6094C1.21875 6.89844 0.75 6.52344 0.75 5C0.75 4.01562 1.125 3.07812 1.82812 2.35156C2.55469 1.64844 3.49219 1.25 4.5 1.25C5.48438 1.25 6.42188 1.64844 7.14844 2.35156C7.85156 3.07812 8.25 4.01562 8.25 5C8.25 6.52344 7.75781 6.89844 4.5 11.6094Z" fill="currentColor"></path>
  </symbol>
  <symbol xmlns="http://www.w3.org/2000/svg" viewBox="0 0 15 24" id="ic_phone">
    <path d="M9 19.5C9 18.7031 8.29688 18 7.5 18C6.65625 18 6 18.7031 6 19.5C6 20.3438 6.65625 21 7.5 21C8.29688 21 9 20.3438 9 19.5ZM15 2.25C15 1.03125 13.9688 0 12.75 0H2.25C0.984375 0 0 1.03125 0 2.25V21.75C0 23.0156 0.984375 24 2.25 24H12.75C13.9688 24 15 23.0156 15 21.75V2.25ZM13.5 2.25V21.75C13.5 22.1719 13.125 22.5 12.75 22.5H2.25C1.82812 22.5 1.5 22.1719 1.5 21.75V2.25C1.5 1.875 1.82812 1.5 2.25 1.5H12.75C13.125 1.5 13.5 1.875 13.5 2.25Z" fill="currentColor"></path>
  </symbol>
  <symbol xmlns="http://www.w3.org/2000/svg" viewBox="0 0 8 6" id="ic_select_arrow">
    <path d="M4.76822 5.07814C4.36843 5.55789 3.63157 5.55789 3.23178 5.07813L0.366819 1.64018C-0.175953 0.988856 0.287204 -1.91978e-07 1.13504 -2.66098e-07L6.86496 -7.67023e-07C7.7128 -8.41143e-07 8.17595 0.988857 7.63318 1.64018L4.76822 5.07814Z" fill="currentColor"></path>
  </symbol>
  <symbol xmlns="http://www.w3.org/2000/svg" viewBox="0 0 13 8" id="ic_slider_arrow">
    <path d="M0.646446 3.64645C0.451184 3.84171 0.451184 4.15829 0.646446 4.35355L3.82843 7.53553C4.02369 7.7308 4.34027 7.7308 4.53553 7.53553C4.7308 7.34027 4.7308 7.02369 4.53553 6.82843L1.70711 4L4.53553 1.17157C4.7308 0.976311 4.7308 0.659729 4.53553 0.464467C4.34027 0.269205 4.02369 0.269205 3.82843 0.464467L0.646446 3.64645ZM13 3.5L1 3.5L1 4.5L13 4.5L13 3.5Z" fill="currentColor"></path>
  </symbol>
  <symbol xmlns="http://www.w3.org/2000/svg" viewBox="0 0 14 13" id="ic_star">
    <path d="M6.98217 0L8.55783 4.83688H13.6567L9.53163 7.82624L11.1073 12.6631L6.98217 9.67376L2.85706 12.6631L4.43271 7.82624L0.3076 4.83688H5.40652L6.98217 0Z" fill="currentColor"></path>
  </symbol>
  <symbol xmlns="http://www.w3.org/2000/svg" viewBox="0 0 20 12" id="ic_vkontakte">
    <path d="M19.894 10.5998C19.8698 10.5476 19.8472 10.5043 19.8262 10.4696C19.4792 9.84462 18.8161 9.07753 17.8373 8.16809L17.8166 8.14726L17.8063 8.13705L17.7958 8.12658H17.7853C17.341 7.7031 17.0597 7.41836 16.9419 7.27258C16.7264 6.99487 16.6781 6.71378 16.7959 6.42896C16.8791 6.21378 17.1918 5.75933 17.7331 5.065C18.0178 4.69703 18.2433 4.40211 18.4099 4.17992C19.611 2.58315 20.1317 1.56279 19.9719 1.11845L19.9099 1.01461C19.8682 0.952094 19.7606 0.894905 19.5872 0.842749C19.4135 0.790702 19.1914 0.782095 18.9206 0.816781L15.9217 0.837497C15.8731 0.820282 15.8037 0.821886 15.7134 0.842749C15.6231 0.863611 15.5779 0.874079 15.5779 0.874079L15.5257 0.900157L15.4843 0.931487C15.4496 0.952203 15.4114 0.988639 15.3697 1.04072C15.3282 1.09262 15.2936 1.15353 15.2658 1.22294C14.9393 2.06294 14.5681 2.84393 14.1515 3.56587C13.8946 3.99635 13.6587 4.36943 13.4433 4.68532C13.2281 5.0011 13.0476 5.23376 12.9019 5.38289C12.756 5.53218 12.6244 5.65177 12.5061 5.74211C12.3881 5.83249 12.298 5.87068 12.2355 5.85671C12.173 5.84274 12.1141 5.82888 12.0583 5.81502C11.9612 5.75251 11.8831 5.66749 11.8242 5.5599C11.765 5.4523 11.7252 5.31688 11.7044 5.15374C11.6836 4.99049 11.6714 4.85007 11.6679 4.732C11.6646 4.61409 11.6661 4.4473 11.6732 4.23211C11.6804 4.01681 11.6836 3.87114 11.6836 3.79477C11.6836 3.53093 11.6888 3.24458 11.6991 2.93566C11.7096 2.62673 11.7181 2.38197 11.7252 2.20164C11.7323 2.02114 11.7356 1.83017 11.7356 1.62884C11.7356 1.42751 11.7233 1.26962 11.6991 1.15503C11.6752 1.04058 11.6385 0.929481 11.5901 0.821777C11.5414 0.714183 11.4701 0.630953 11.3766 0.571867C11.2829 0.512854 11.1664 0.466023 11.0278 0.431229C10.6598 0.347962 10.1912 0.302918 9.62185 0.295915C8.33069 0.282056 7.50105 0.365432 7.13311 0.545935C6.98733 0.622199 6.85541 0.726401 6.73746 0.858213C6.61247 1.011 6.59504 1.09437 6.68527 1.10809C7.10186 1.17049 7.39677 1.31977 7.57035 1.55579L7.6329 1.68085C7.68155 1.77109 7.73013 1.93084 7.77875 2.15988C7.8273 2.38893 7.85863 2.64231 7.87241 2.91986C7.90706 3.42672 7.90706 3.8606 7.87241 4.22153C7.83765 4.58261 7.80483 4.86371 7.7735 5.06504C7.74217 5.26636 7.69534 5.42951 7.6329 5.55442C7.57035 5.67938 7.52873 5.75575 7.50787 5.78347C7.48704 5.81119 7.46968 5.82866 7.4559 5.83552C7.36566 5.87009 7.27182 5.88771 7.17469 5.88771C7.07742 5.88771 6.95947 5.83906 6.82065 5.74182C6.68188 5.64459 6.53785 5.51102 6.38856 5.34091C6.23928 5.17077 6.07093 4.933 5.88342 4.62758C5.69606 4.32216 5.50166 3.96119 5.30033 3.54468L5.13376 3.24261C5.02963 3.04828 4.88739 2.76533 4.70689 2.394C4.52628 2.02253 4.36664 1.6632 4.22786 1.31609C4.17238 1.17031 4.08904 1.05932 3.97799 0.98295L3.92587 0.95162C3.89122 0.9239 3.8356 0.894467 3.7593 0.8631C3.68289 0.83177 3.60316 0.809303 3.51978 0.79548L0.666572 0.816197C0.375011 0.816197 0.177184 0.882248 0.073018 1.01417L0.0313299 1.07657C0.0105041 1.11133 0 1.16684 0 1.24325C0 1.31963 0.0208258 1.41336 0.0625139 1.52435C0.47903 2.50327 0.931983 3.44737 1.42137 4.35677C1.91076 5.26618 2.33603 5.99873 2.69692 6.55377C3.05789 7.10921 3.42583 7.63344 3.80073 8.12618C4.17563 8.61911 4.42379 8.935 4.54521 9.07378C4.66677 9.21281 4.76225 9.31675 4.83166 9.38616L5.09204 9.63604C5.25865 9.80268 5.5033 10.0023 5.82612 10.2348C6.14901 10.4674 6.50648 10.6965 6.89871 10.9223C7.291 11.1477 7.74739 11.3317 8.2681 11.474C8.78875 11.6164 9.2955 11.6735 9.78842 11.646H10.986C11.2288 11.625 11.4128 11.5486 11.5379 11.4168L11.5793 11.3646C11.6072 11.3232 11.6333 11.2588 11.6573 11.1722C11.6817 11.0854 11.6938 10.9898 11.6938 10.8858C11.6867 10.5874 11.7094 10.3184 11.7614 10.0789C11.8133 9.83952 11.8724 9.65901 11.9386 9.53745C12.0047 9.416 12.0793 9.31351 12.1624 9.23042C12.2456 9.14716 12.3049 9.09672 12.3397 9.07936C12.3743 9.06188 12.4019 9.05003 12.4227 9.04292C12.5893 8.98741 12.7854 9.04117 13.0112 9.20446C13.2369 9.3676 13.4486 9.56904 13.6465 9.80844C13.8444 10.0481 14.0821 10.3169 14.3597 10.6154C14.6376 10.9139 14.8805 11.1359 15.0886 11.2819L15.2968 11.4068C15.4359 11.4902 15.6164 11.5666 15.8386 11.636C16.0604 11.7053 16.2547 11.7227 16.4215 11.688L19.0872 11.6464C19.3509 11.6464 19.556 11.6028 19.7015 11.5162C19.8474 11.4294 19.934 11.3338 19.9619 11.2298C19.9898 11.1257 19.9913 11.0076 19.9672 10.8756C19.9425 10.7439 19.9182 10.6518 19.894 10.5998Z" fill="currentColor"></path>
  </symbol>
</svg>