<svg width="635" height="170" viewBox="0 0 635 170" fill="none" xmlns="http://www.w3.org/2000/svg">
<path d="M51.6 43.1L50.6075 42.9775L50.469 44.1H51.6V43.1ZM64.6 43.1H65.6V42.1H64.6V43.1ZM64.6 54V55H65.6V54H64.6ZM50.3 54V53H49.4172L49.3077 53.876L50.3 54ZM48.3 70V71H49.1828L49.2923 70.124L48.3 70ZM37 70L36.0077 69.876L35.8672 71H37V70ZM39 54L39.9923 54.124L40.1328 53H39V54ZM24.3 54V53H23.4172L23.3077 53.876L24.3 54ZM22.3 70V71H23.1828L23.2923 70.124L22.3 70ZM11.1 70L10.1077 69.876L9.96722 71H11.1V70ZM13.1 54L14.0923 54.124L14.2328 53H13.1V54ZM2.38419e-07 54H-1V55H2.38419e-07V54ZM2.38419e-07 43.1V42.1H-1V43.1H2.38419e-07ZM14.4 43.1V44.1H15.2787L15.3917 43.2285L14.4 43.1ZM16.5 26.9L17.4917 27.0286L17.638 25.9H16.5V26.9ZM3.4 26.9H2.4V27.9H3.4V26.9ZM3.4 16V15H2.4V16H3.4ZM17.8 16V17H18.6828L18.7923 16.124L17.8 16ZM19.8 -4.76837e-06V-1H18.9172L18.8077 -0.12404L19.8 -4.76837e-06ZM31 -4.76837e-06L31.9923 0.12403L32.1328 -1H31V-4.76837e-06ZM29 16L28.0077 15.876L27.8672 17H29V16ZM43.7 16V17H44.5828L44.6923 16.124L43.7 16ZM45.7 -4.76837e-06V-1H44.8172L44.7077 -0.12404L45.7 -4.76837e-06ZM56.9 -4.76837e-06L57.8923 0.12403L58.0328 -1H56.9V-4.76837e-06ZM54.9 16L53.9077 15.876L53.7672 17H54.9V16ZM67.9 16L68.9 15.9908L68.8909 15H67.9V16ZM68 26.9V27.9H69.0092L69 26.8908L68 26.9ZM53.6 26.9V25.9H52.7159L52.6075 26.7775L53.6 26.9ZM40.3 43.1V44.1H41.1787L41.2917 43.2285L40.3 43.1ZM42.4 26.9L43.3917 27.0286L43.538 25.9H42.4V26.9ZM27.7 26.9V25.9H26.8213L26.7083 26.7714L27.7 26.9ZM25.6 43.1L24.6083 42.9714L24.462 44.1H25.6V43.1ZM51.6 44.1H64.6V42.1H51.6V44.1ZM63.6 43.1V54H65.6V43.1H63.6ZM64.6 53H50.3V55H64.6V53ZM49.3077 53.876L47.3077 69.876L49.2923 70.124L51.2923 54.124L49.3077 53.876ZM48.3 69H37V71H48.3V69ZM37.9923 70.124L39.9923 54.124L38.0077 53.876L36.0077 69.876L37.9923 70.124ZM39 53H24.3V55H39V53ZM23.3077 53.876L21.3077 69.876L23.2923 70.124L25.2923 54.124L23.3077 53.876ZM22.3 69H11.1V71H22.3V69ZM12.0923 70.124L14.0923 54.124L12.1077 53.876L10.1077 69.876L12.0923 70.124ZM13.1 53H2.38419e-07V55H13.1V53ZM1 54V43.1H-1V54H1ZM2.38419e-07 44.1H14.4V42.1H2.38419e-07V44.1ZM15.3917 43.2285L17.4917 27.0286L15.5083 26.7714L13.4083 42.9714L15.3917 43.2285ZM16.5 25.9H3.4V27.9H16.5V25.9ZM4.4 26.9V16H2.4V26.9H4.4ZM3.4 17H17.8V15H3.4V17ZM18.7923 16.124L20.7923 0.12403L18.8077 -0.12404L16.8077 15.876L18.7923 16.124ZM19.8 0.999995H31V-1H19.8V0.999995ZM30.0077 -0.12404L28.0077 15.876L29.9923 16.124L31.9923 0.12403L30.0077 -0.12404ZM29 17H43.7V15H29V17ZM44.6923 16.124L46.6923 0.12403L44.7077 -0.12404L42.7077 15.876L44.6923 16.124ZM45.7 0.999995H56.9V-1H45.7V0.999995ZM55.9077 -0.12404L53.9077 15.876L55.8923 16.124L57.8923 0.12403L55.9077 -0.12404ZM54.9 17H67.9V15H54.9V17ZM66.9 16.0092L67 26.9092L69 26.8908L68.9 15.9908L66.9 16.0092ZM68 25.9H53.6V27.9H68V25.9ZM52.6075 26.7775L50.6075 42.9775L52.5925 43.2225L54.5925 27.0225L52.6075 26.7775ZM41.2917 43.2285L43.3917 27.0286L41.4083 26.7714L39.3083 42.9714L41.2917 43.2285ZM42.4 25.9H27.7V27.9H42.4V25.9ZM26.7083 26.7714L24.6083 42.9714L26.5917 43.2285L28.6917 27.0286L26.7083 26.7714ZM25.6 44.1H40.3V42.1H25.6V44.1ZM87.5727 67.3L87.1048 68.1838L87.1125 68.1879L87.1203 68.1918L87.5727 67.3ZM76.8727 57.4L76.0163 57.9165L76.0224 57.9264L76.8727 57.4ZM76.8727 28.8L76.0223 28.2736L76.0164 28.2835L76.8727 28.8ZM87.5727 19L88.0303 19.8891L88.0352 19.8866L87.5727 19ZM117.873 19L117.377 19.8682L117.385 19.8729L117.393 19.8774L117.873 19ZM127.173 29.1L127.646 29.9809L128.46 29.5437L128.088 28.6977L127.173 29.1ZM115.073 35.6L114.203 36.0936L114.685 36.9433L115.546 36.4809L115.073 35.6ZM92.8727 54L93.5798 53.2929L92.8727 54ZM115.073 50.6L115.552 49.7221L114.679 49.2464L114.198 50.1154L115.073 50.6ZM127.173 57.2L128.084 57.6127L128.467 56.7668L127.652 56.3221L127.173 57.2ZM117.873 67.2L117.382 66.3284L117.377 66.3318L117.873 67.2ZM103.073 69.8C97.4787 69.8 92.4698 68.6628 88.025 66.4082L87.1203 68.1918C91.8755 70.6039 97.1999 71.8 103.073 71.8V69.8ZM88.0405 66.4162C83.6578 64.096 80.2258 60.9167 77.7229 56.8736L76.0224 57.9264C78.7195 62.2833 82.4208 65.704 87.1048 68.1838L88.0405 66.4162ZM77.729 56.8835C75.2978 52.8529 74.0727 48.2677 74.0727 43.1H72.0727C72.0727 48.5989 73.3809 53.5471 76.0164 57.9165L77.729 56.8835ZM74.0727 43.1C74.0727 37.9323 75.2978 33.3471 77.729 29.3165L76.0164 28.2835C73.3809 32.6529 72.0727 37.6011 72.0727 43.1H74.0727ZM77.7229 29.3264C80.2242 25.2858 83.6529 22.1422 88.0303 19.8891L87.115 18.1109C82.4258 20.5244 78.7211 23.9142 76.0224 28.2736L77.7229 29.3264ZM88.0352 19.8866C92.4779 17.5687 97.4832 16.4 103.073 16.4V14.4C97.1955 14.4 91.8674 15.6313 87.1101 18.1134L88.0352 19.8866ZM103.073 16.4C108.595 16.4 113.352 17.5684 117.377 19.8682L118.369 18.1318C113.994 15.6316 108.883 14.4 103.073 14.4V16.4ZM117.393 19.8774C121.468 22.1061 124.414 25.307 126.257 29.5023L128.088 28.6977C126.065 24.093 122.81 20.5605 118.352 18.1226L117.393 19.8774ZM126.699 28.2191L114.599 34.7191L115.546 36.4809L127.646 29.9809L126.699 28.2191ZM115.942 35.1064C112.981 29.8896 108.632 27.2 102.973 27.2V29.2C107.847 29.2 111.564 31.4437 114.203 36.0936L115.942 35.1064ZM102.973 27.2C98.6637 27.2 95.0354 28.6231 92.1656 31.4929L93.5798 32.9071C96.0433 30.4436 99.1483 29.2 102.973 29.2V27.2ZM92.1656 31.4929C89.2716 34.3868 87.8727 38.2968 87.8727 43.1H89.8727C89.8727 38.7032 91.1404 35.3465 93.5798 32.9071L92.1656 31.4929ZM87.8727 43.1C87.8727 47.9032 89.2716 51.8132 92.1656 54.7071L93.5798 53.2929C91.1404 50.8535 89.8727 47.4968 89.8727 43.1H87.8727ZM92.1656 54.7071C95.0354 57.5769 98.6637 59 102.973 59V57C99.1483 57 96.0433 55.7564 93.5798 53.2929L92.1656 54.7071ZM102.973 59C105.799 59 108.326 58.3444 110.519 57.0031C112.71 55.6636 114.513 53.6734 115.947 51.0846L114.198 50.1154C112.899 52.46 111.319 54.1698 109.476 55.2969C107.636 56.4223 105.479 57 102.973 57V59ZM114.594 51.4779L126.694 58.0779L127.652 56.3221L115.552 49.7221L114.594 51.4779ZM126.262 56.7873C124.42 60.851 121.473 64.0277 117.382 66.3284L118.363 68.0716C122.806 65.5723 126.058 62.0823 128.084 57.6127L126.262 56.7873ZM117.377 66.3318C113.352 68.6316 108.595 69.8 103.073 69.8V71.8C108.883 71.8 113.994 70.5684 118.369 68.0682L117.377 66.3318ZM181.657 29V30H182.657V29H181.657ZM163.457 29V28H162.457V29H163.457ZM163.457 70V71H164.457V70H163.457ZM147.957 70H146.957V71H147.957V70ZM147.957 29H148.957V28H147.957V29ZM129.757 29H128.757V30H129.757V29ZM129.757 16.2V15.2H128.757V16.2H129.757ZM181.657 16.2H182.657V15.2H181.657V16.2ZM181.657 28H163.457V30H181.657V28ZM162.457 29V70H164.457V29H162.457ZM163.457 69H147.957V71H163.457V69ZM148.957 70V29H146.957V70H148.957ZM147.957 28H129.757V30H147.957V28ZM130.757 29V16.2H128.757V29H130.757ZM129.757 17.2H181.657V15.2H129.757V17.2ZM180.657 16.2V29H182.657V16.2H180.657ZM197.627 67.3L197.153 68.1809L197.161 68.1851L197.169 68.1891L197.627 67.3ZM187.127 57.4L186.27 57.9165L187.127 57.4ZM187.127 28.8L186.27 28.2835L187.127 28.8ZM197.627 19L198.09 19.8864L198.094 19.8838L197.627 19ZM228.127 19L227.653 19.8809L227.664 19.8863L228.127 19ZM238.627 28.8L239.483 28.2835L238.627 28.8ZM238.627 57.4L239.483 57.9165L238.627 57.4ZM228.127 67.3L228.59 68.1864L228.6 68.1809L228.127 67.3ZM222.727 54L222.002 53.3108L222.002 53.3112L222.727 54ZM222.727 32.3L221.993 32.9798L222.002 32.989L222.011 32.9981L222.727 32.3ZM203.027 32.3L203.743 32.9982L203.751 32.9892L203.027 32.3ZM203.027 54L202.302 54.6893L202.311 54.6981L203.027 54ZM212.927 69.8C207.401 69.8 202.461 68.6635 198.084 66.4109L197.169 68.1891C201.859 70.6031 207.119 71.8 212.927 71.8V69.8ZM198.1 66.4191C193.786 64.101 190.42 60.9245 187.983 56.8835L186.27 57.9165C188.899 62.2755 192.534 65.699 197.153 68.1809L198.1 66.4191ZM187.983 56.8835C185.552 52.8529 184.327 48.2677 184.327 43.1H182.327C182.327 48.5989 183.635 53.5471 186.27 57.9165L187.983 56.8835ZM184.327 43.1C184.327 37.9323 185.552 33.3471 187.983 29.3165L186.27 28.2835C183.635 32.6529 182.327 37.6011 182.327 43.1H184.327ZM187.983 29.3165C190.419 25.278 193.781 22.1372 198.09 19.8863L197.164 18.1136C192.539 20.5294 188.901 23.922 186.27 28.2835L187.983 29.3165ZM198.094 19.8838C202.469 17.5678 207.406 16.4 212.927 16.4V14.4C207.114 14.4 201.851 15.6321 197.159 18.1162L198.094 19.8838ZM212.927 16.4C218.448 16.4 223.349 17.5679 227.653 19.8809L228.6 18.1191C223.971 15.6321 218.739 14.4 212.927 14.4V16.4ZM227.664 19.8863C231.972 22.1372 235.334 25.278 237.77 29.3165L239.483 28.2835C236.852 23.922 233.214 20.5294 228.59 18.1136L227.664 19.8863ZM237.77 29.3165C240.201 33.3471 241.427 37.9323 241.427 43.1H243.427C243.427 37.6011 242.118 32.6529 239.483 28.2835L237.77 29.3165ZM241.427 43.1C241.427 48.2677 240.201 52.8529 237.77 56.8835L239.483 57.9165C242.118 53.5471 243.427 48.5989 243.427 43.1H241.427ZM237.77 56.8835C235.333 60.9245 231.967 64.101 227.653 66.4191L228.6 68.1809C233.219 65.699 236.854 62.2755 239.483 57.9165L237.77 56.8835ZM227.664 66.4137C223.357 68.6635 218.452 69.8 212.927 69.8V71.8C218.734 71.8 223.963 70.6032 228.59 68.1863L227.664 66.4137ZM212.927 59C217.174 59 220.712 57.5727 223.452 54.6887L222.002 53.3112C219.675 55.7607 216.679 57 212.927 57V59ZM223.451 54.6892C226.262 51.7337 227.627 47.835 227.627 43.1H225.627C225.627 47.4317 224.391 50.7997 222.002 53.3108L223.451 54.6892ZM227.627 43.1C227.627 38.366 226.263 34.4944 223.443 31.6019L222.011 32.9981C224.39 35.439 225.627 38.7674 225.627 43.1H227.627ZM223.46 31.6202C220.722 28.6665 217.182 27.2 212.927 27.2V29.2C216.671 29.2 219.664 30.4668 221.993 32.9798L223.46 31.6202ZM212.927 27.2C208.671 27.2 205.103 28.666 202.302 31.6108L203.751 32.9892C206.15 30.4673 209.182 29.2 212.927 29.2V27.2ZM202.311 31.6019C199.49 34.4944 198.127 38.366 198.127 43.1H200.127C200.127 38.7674 201.363 35.439 203.743 32.9981L202.311 31.6019ZM198.127 43.1C198.127 47.835 199.491 51.7337 202.302 54.6892L203.751 53.3108C201.363 50.7997 200.127 47.4317 200.127 43.1H198.127ZM202.311 54.6981C205.114 57.5731 208.679 59 212.927 59V57C209.174 57 206.139 55.7602 203.743 53.3019L202.311 54.6981ZM253.156 16.2V15.2H252.156V16.2H253.156ZM268.656 16.2H269.656V15.2H268.656V16.2ZM268.656 48.2H267.656V50.9999L269.43 48.8335L268.656 48.2ZM294.856 16.2V15.2H294.383L294.083 15.5665L294.856 16.2ZM309.156 16.2H310.156V15.2H309.156V16.2ZM309.156 70V71H310.156V70H309.156ZM293.656 70H292.656V71H293.656V70ZM293.656 38H294.656V35.1918L292.881 37.3679L293.656 38ZM267.556 70V71H268.031L268.331 70.632L267.556 70ZM253.156 70H252.156V71H253.156V70ZM253.156 17.2H268.656V15.2H253.156V17.2ZM267.656 16.2V48.2H269.656V16.2H267.656ZM269.43 48.8335L295.63 16.8335L294.083 15.5665L267.883 47.5665L269.43 48.8335ZM294.856 17.2H309.156V15.2H294.856V17.2ZM308.156 16.2V70H310.156V16.2H308.156ZM309.156 69H293.656V71H309.156V69ZM294.656 70V38H292.656V70H294.656ZM292.881 37.3679L266.781 69.368L268.331 70.632L294.431 38.632L292.881 37.3679ZM267.556 69H253.156V71H267.556V69ZM254.156 70V16.2H252.156V70H254.156ZM376.652 70H375.652V71H376.652V70ZM376.652 37.8H377.652V34.1704L375.793 37.2878L376.652 37.8ZM360.552 64.8V65.8H361.12L361.411 65.3122L360.552 64.8ZM353.952 64.8L353.087 65.3013L353.376 65.8H353.952V64.8ZM338.252 37.7L339.118 37.1987L337.252 33.979V37.7H338.252ZM338.252 70V71H339.252V70H338.252ZM324.152 70H323.152V71H324.152V70ZM324.152 16.2V15.2H323.152V16.2H324.152ZM340.452 16.2L341.327 15.716L341.042 15.2H340.452V16.2ZM357.652 47.3L356.777 47.784L357.625 49.3176L358.514 47.8071L357.652 47.3ZM375.952 16.2V15.2H375.38L375.09 15.6929L375.952 16.2ZM390.552 16.2L391.552 16.1963L391.549 15.2H390.552V16.2ZM390.752 70V71H391.756L391.752 69.9963L390.752 70ZM377.652 70V37.8H375.652V70H377.652ZM375.793 37.2878L359.693 64.2878L361.411 65.3122L377.511 38.3122L375.793 37.2878ZM360.552 63.8H353.952V65.8H360.552V63.8ZM354.818 64.2987L339.118 37.1987L337.387 38.2013L353.087 65.3013L354.818 64.2987ZM337.252 37.7V70H339.252V37.7H337.252ZM338.252 69H324.152V71H338.252V69ZM325.152 70V16.2H323.152V70H325.152ZM324.152 17.2H340.452V15.2H324.152V17.2ZM339.577 16.684L356.777 47.784L358.527 46.816L341.327 15.716L339.577 16.684ZM358.514 47.8071L376.814 16.7071L375.09 15.6929L356.79 46.7929L358.514 47.8071ZM375.952 17.2H390.552V15.2H375.952V17.2ZM389.552 16.2037L389.752 70.0037L391.752 69.9963L391.552 16.1963L389.552 16.2037ZM390.752 69H376.652V71H390.752V69ZM415.595 67.3L415.122 68.1809L415.13 68.1851L415.138 68.1891L415.595 67.3ZM405.095 57.4L404.239 57.9165L405.095 57.4ZM405.095 28.8L404.239 28.2835L405.095 28.8ZM415.595 19L416.058 19.8864L416.063 19.8838L415.595 19ZM446.095 19L445.622 19.8809L445.632 19.8863L446.095 19ZM456.595 28.8L457.452 28.2835L456.595 28.8ZM456.595 57.4L457.452 57.9165L456.595 57.4ZM446.095 67.3L446.558 68.1864L446.569 68.1809L446.095 67.3ZM440.695 54L439.971 53.3108L439.97 53.3112L440.695 54ZM440.695 32.3L439.962 32.9798L439.97 32.989L439.979 32.9981L440.695 32.3ZM420.995 32.3L421.711 32.9982L421.72 32.9892L420.995 32.3ZM420.995 54L420.271 54.6893L420.279 54.6981L420.995 54ZM430.895 69.8C425.37 69.8 420.43 68.6635 416.053 66.4109L415.138 68.1891C419.828 70.6031 425.087 71.8 430.895 71.8V69.8ZM416.069 66.4191C411.754 64.101 408.389 60.9245 405.952 56.8835L404.239 57.9165C406.868 62.2755 410.503 65.699 415.122 68.1809L416.069 66.4191ZM405.952 56.8835C403.52 52.8529 402.295 48.2677 402.295 43.1H400.295C400.295 48.5989 401.604 53.5471 404.239 57.9165L405.952 56.8835ZM402.295 43.1C402.295 37.9323 403.52 33.3471 405.952 29.3165L404.239 28.2835C401.604 32.6529 400.295 37.6011 400.295 43.1H402.295ZM405.952 29.3165C408.388 25.278 411.75 22.1372 416.058 19.8863L415.132 18.1136C410.508 20.5294 406.87 23.922 404.239 28.2835L405.952 29.3165ZM416.063 19.8838C420.438 17.5678 425.374 16.4 430.895 16.4V14.4C425.083 14.4 419.82 15.6321 415.127 18.1162L416.063 19.8838ZM430.895 16.4C436.417 16.4 441.317 17.5679 445.622 19.8809L446.569 18.1191C441.94 15.6321 436.707 14.4 430.895 14.4V16.4ZM445.632 19.8863C449.941 22.1372 453.303 25.278 455.739 29.3165L457.452 28.2835C454.821 23.922 451.183 20.5294 446.558 18.1136L445.632 19.8863ZM455.739 29.3165C458.17 33.3471 459.395 37.9323 459.395 43.1H461.395C461.395 37.6011 460.087 32.6529 457.452 28.2835L455.739 29.3165ZM459.395 43.1C459.395 48.2677 458.17 52.8529 455.739 56.8835L457.452 57.9165C460.087 53.5471 461.395 48.5989 461.395 43.1H459.395ZM455.739 56.8835C453.302 60.9245 449.936 64.101 445.622 66.4191L446.569 68.1809C451.188 65.699 454.822 62.2755 457.452 57.9165L455.739 56.8835ZM445.632 66.4137C441.326 68.6635 436.421 69.8 430.895 69.8V71.8C436.703 71.8 441.932 70.6032 446.558 68.1863L445.632 66.4137ZM430.895 59C435.143 59 438.681 57.5727 441.42 54.6887L439.97 53.3112C437.643 55.7607 434.648 57 430.895 57V59ZM441.42 54.6892C444.231 51.7337 445.595 47.835 445.595 43.1H443.595C443.595 47.4317 442.359 50.7997 439.971 53.3108L441.42 54.6892ZM445.595 43.1C445.595 38.366 444.231 34.4944 441.411 31.6019L439.979 32.9981C442.359 35.439 443.595 38.7674 443.595 43.1H445.595ZM441.429 31.6202C438.691 28.6665 435.151 27.2 430.895 27.2V29.2C434.64 29.2 437.633 30.4668 439.962 32.9798L441.429 31.6202ZM430.895 27.2C426.64 27.2 423.072 28.666 420.271 31.6108L421.72 32.9892C424.119 30.4673 427.151 29.2 430.895 29.2V27.2ZM420.279 31.6019C417.459 34.4944 416.095 38.366 416.095 43.1H418.095C418.095 38.7674 419.331 35.439 421.711 32.9981L420.279 31.6019ZM416.095 43.1C416.095 47.835 417.459 51.7337 420.271 54.6892L421.72 53.3108C419.331 50.7997 418.095 47.4317 418.095 43.1H416.095ZM420.279 54.6981C423.082 57.5731 426.648 59 430.895 59V57C427.143 57 424.108 55.7602 421.711 53.3019L420.279 54.6981ZM481.225 67.3L480.757 68.1838L480.765 68.1879L480.773 68.1918L481.225 67.3ZM470.525 57.4L469.669 57.9165L469.675 57.9264L470.525 57.4ZM470.525 28.8L469.675 28.2736L469.669 28.2835L470.525 28.8ZM481.225 19L481.683 19.8891L481.688 19.8866L481.225 19ZM511.525 19L511.029 19.8682L511.037 19.8729L511.045 19.8774L511.525 19ZM520.825 29.1L521.298 29.9809L522.112 29.5437L521.741 28.6977L520.825 29.1ZM508.725 35.6L507.855 36.0936L508.338 36.9433L509.198 36.4809L508.725 35.6ZM486.525 54L487.232 53.2929L486.525 54ZM508.725 50.6L509.204 49.7221L508.332 49.2464L507.85 50.1154L508.725 50.6ZM520.825 57.2L521.736 57.6127L522.119 56.7668L521.304 56.3221L520.825 57.2ZM511.525 67.2L511.035 66.3284L511.029 66.3318L511.525 67.2ZM496.725 69.8C491.131 69.8 486.122 68.6628 481.677 66.4082L480.773 68.1918C485.528 70.6039 490.852 71.8 496.725 71.8V69.8ZM481.693 66.4162C477.31 64.096 473.878 60.9167 471.375 56.8736L469.675 57.9264C472.372 62.2833 476.073 65.704 480.757 68.1838L481.693 66.4162ZM471.381 56.8835C468.95 52.8529 467.725 48.2677 467.725 43.1H465.725C465.725 48.5989 467.033 53.5471 469.669 57.9165L471.381 56.8835ZM467.725 43.1C467.725 37.9323 468.95 33.3471 471.381 29.3165L469.669 28.2835C467.033 32.6529 465.725 37.6011 465.725 43.1H467.725ZM471.375 29.3264C473.877 25.2858 477.305 22.1422 481.683 19.8891L480.767 18.1109C476.078 20.5244 472.373 23.9142 469.675 28.2736L471.375 29.3264ZM481.688 19.8866C486.13 17.5687 491.136 16.4 496.725 16.4V14.4C490.848 14.4 485.52 15.6313 480.762 18.1134L481.688 19.8866ZM496.725 16.4C502.248 16.4 507.004 17.5684 511.029 19.8682L512.021 18.1318C507.646 15.6316 502.536 14.4 496.725 14.4V16.4ZM511.045 19.8774C515.121 22.1061 518.066 25.307 519.909 29.5023L521.741 28.6977C519.717 24.093 516.463 20.5605 512.005 18.1226L511.045 19.8774ZM520.352 28.2191L508.252 34.7191L509.198 36.4809L521.298 29.9809L520.352 28.2191ZM509.595 35.1064C506.634 29.8896 502.284 27.2 496.625 27.2V29.2C501.499 29.2 505.216 31.4437 507.855 36.0936L509.595 35.1064ZM496.625 27.2C492.316 27.2 488.688 28.6231 485.818 31.4929L487.232 32.9071C489.696 30.4436 492.801 29.2 496.625 29.2V27.2ZM485.818 31.4929C482.924 34.3868 481.525 38.2968 481.525 43.1H483.525C483.525 38.7032 484.793 35.3465 487.232 32.9071L485.818 31.4929ZM481.525 43.1C481.525 47.9032 482.924 51.8132 485.818 54.7071L487.232 53.2929C484.793 50.8535 483.525 47.4968 483.525 43.1H481.525ZM485.818 54.7071C488.688 57.5769 492.316 59 496.625 59V57C492.801 57 489.696 55.7564 487.232 53.2929L485.818 54.7071ZM496.625 59C499.452 59 501.979 58.3444 504.172 57.0031C506.362 55.6636 508.165 53.6734 509.6 51.0846L507.85 50.1154C506.551 52.46 504.971 54.1698 503.128 55.2969C501.288 56.4223 499.132 57 496.625 57V59ZM508.246 51.4779L520.346 58.0779L521.304 56.3221L509.204 49.7221L508.246 51.4779ZM519.914 56.7873C518.073 60.851 515.125 64.0277 511.035 66.3284L512.015 68.0716C516.458 65.5723 519.711 62.0823 521.736 57.6127L519.914 56.7873ZM511.029 66.3318C507.004 68.6316 502.248 69.8 496.725 69.8V71.8C502.536 71.8 507.646 70.5684 512.021 68.0682L511.029 66.3318ZM575.309 29V30H576.309V29H575.309ZM557.109 29V28H556.109V29H557.109ZM557.109 70V71H558.109V70H557.109ZM541.609 70H540.609V71H541.609V70ZM541.609 29H542.609V28H541.609V29ZM523.409 29H522.409V30H523.409V29ZM523.409 16.2V15.2H522.409V16.2H523.409ZM575.309 16.2H576.309V15.2H575.309V16.2ZM575.309 28H557.109V30H575.309V28ZM556.109 29V70H558.109V29H556.109ZM557.109 69H541.609V71H557.109V69ZM542.609 70V29H540.609V70H542.609ZM541.609 28H523.409V30H541.609V28ZM524.409 29V16.2H522.409V29H524.409ZM523.409 17.2H575.309V15.2H523.409V17.2ZM574.309 16.2V29H576.309V16.2H574.309ZM612.725 33.4L612.734 32.4H612.725V33.4ZM628.825 38.2L628.182 38.966L628.19 38.9727L628.825 38.2ZM628.125 65.2L628.745 65.9846L628.747 65.9833L628.125 65.2ZM610.625 70.1L610.621 71.1H610.625V70.1ZM583.625 70H582.625V70.9963L583.621 71L583.625 70ZM583.625 16.2V15.2H582.625V16.2H583.625ZM599.125 16.2H600.125V15.2H599.125V16.2ZM599.125 33.4H598.125V34.4H599.125V33.4ZM609.225 59L609.247 58.0002L609.236 58H609.225V59ZM616.125 57.1L615.485 56.3318L616.125 57.1ZM616.125 45.4L615.509 46.1875L615.517 46.1938L615.525 46.2L616.125 45.4ZM609.225 43.5L609.247 42.5002L609.235 42.5L609.225 43.5ZM599.125 43.4L599.135 42.4L598.125 42.39V43.4H599.125ZM599.125 59H598.125V60H599.125V59ZM612.715 34.4C619.583 34.4654 624.69 36.0348 628.182 38.966L629.468 37.434C625.494 34.0985 619.867 32.468 612.734 32.4L612.715 34.4ZM628.19 38.9727C631.651 41.8157 633.425 45.875 633.425 51.3H635.425C635.425 45.3917 633.465 40.7177 629.46 37.4273L628.19 38.9727ZM633.425 51.3C633.425 56.9653 631.437 61.295 627.503 64.4167L628.747 65.9833C633.213 62.4383 635.425 57.5014 635.425 51.3H633.425ZM627.505 64.4154C623.61 67.4936 618.028 69.1 610.625 69.1V71.1C618.289 71.1 624.373 69.4397 628.745 65.9846L627.505 64.4154ZM610.629 69.1L583.629 69L583.621 71L610.621 71.1L610.629 69.1ZM584.625 70V16.2H582.625V70H584.625ZM583.625 17.2H599.125V15.2H583.625V17.2ZM598.125 16.2V33.4H600.125V16.2H598.125ZM599.125 34.4H612.725V32.4H599.125V34.4ZM609.203 59.9998C612.34 60.0695 614.912 59.4122 616.765 57.8682L615.485 56.3318C614.138 57.4545 612.11 58.0639 609.247 58.0002L609.203 59.9998ZM616.765 57.8682C618.654 56.294 619.525 53.9736 619.525 51.1H617.525C617.525 53.5597 616.796 55.2393 615.485 56.3318L616.765 57.8682ZM619.525 51.1C619.525 48.2886 618.649 46.0433 616.725 44.6L615.525 46.2C616.801 47.1567 617.525 48.7114 617.525 51.1H619.525ZM616.741 44.6125C614.965 43.2224 612.414 42.5691 609.247 42.5002L609.203 44.4998C612.17 44.5643 614.218 45.1776 615.509 46.1875L616.741 44.6125ZM609.235 42.5L599.135 42.4L599.115 44.4L609.215 44.5L609.235 42.5ZM598.125 43.4V59H600.125V43.4H598.125ZM599.125 60H609.225V58H599.125V60ZM50.8 98.9L50.3023 99.7674L50.3107 99.7722L50.3192 99.7768L50.8 98.9ZM60.5 108.6L59.6258 109.086L59.6292 109.092L60.5 108.6ZM60.5 137.7L61.3708 138.192L61.3742 138.186L60.5 137.7ZM50.8 147.4L51.2869 148.273L51.2916 148.271L50.8 147.4ZM21 144.3L21.7405 143.628L20 141.71V144.3H21ZM21 169.4V170.4H22V169.4H21ZM5.4 169.4H4.4V170.4H5.4V169.4ZM5.4 96.2V95.2H4.4V96.2H5.4ZM20.3 96.2H21.3V95.2H20.3V96.2ZM20.3 102.4H19.3V105.174L21.07 103.038L20.3 102.4ZM44.3 134L43.5754 133.311L43.575 133.311L44.3 134ZM44.3 112.3L43.5666 112.98L43.5752 112.989L43.584 112.998L44.3 112.3ZM24.6 112.3L23.8754 111.611L23.875 111.611L24.6 112.3ZM24.6 134L23.8666 134.68L23.8752 134.689L23.884 134.698L24.6 134ZM37.2 96.4C42.0374 96.4 46.3972 97.5267 50.3023 99.7674L51.2977 98.0326C47.0695 95.6066 42.3626 94.4 37.2 94.4V96.4ZM50.3192 99.7768C54.2838 101.951 57.3822 105.047 59.6258 109.086L61.3742 108.114C58.9511 103.753 55.5829 100.382 51.2808 98.0232L50.3192 99.7768ZM59.6292 109.092C61.8647 113.052 63 117.71 63 123.1H65C65 117.423 63.8019 112.415 61.3708 108.108L59.6292 109.092ZM63 123.1C63 128.489 61.8649 133.184 59.6258 137.214L61.3742 138.186C63.8018 133.816 65 128.777 65 123.1H63ZM59.6292 137.208C57.3854 141.183 54.2832 144.285 50.3084 146.529L51.2916 148.271C55.5835 145.848 58.948 142.484 61.3708 138.192L59.6292 137.208ZM50.3131 146.527C46.4063 148.704 42.0426 149.8 37.2 149.8V151.8C42.3574 151.8 47.0604 150.629 51.2869 148.273L50.3131 146.527ZM37.2 149.8C30.5618 149.8 25.451 147.716 21.7405 143.628L20.2595 144.972C24.4156 149.551 30.1048 151.8 37.2 151.8V149.8ZM20 144.3V169.4H22V144.3H20ZM21 168.4H5.4V170.4H21V168.4ZM6.4 169.4V96.2H4.4V169.4H6.4ZM5.4 97.2H20.3V95.2H5.4V97.2ZM19.3 96.2V102.4H21.3V96.2H19.3ZM21.07 103.038C24.705 98.651 30.0255 96.4 37.2 96.4V94.4C29.5745 94.4 23.6284 96.8157 19.53 101.762L21.07 103.038ZM34.5 139C38.7475 139 42.2853 137.573 45.025 134.689L43.575 133.311C41.2481 135.761 38.2525 137 34.5 137V139ZM45.0246 134.689C47.8359 131.734 49.2 127.835 49.2 123.1H47.2C47.2 127.432 45.9641 130.8 43.5754 133.311L45.0246 134.689ZM49.2 123.1C49.2 118.366 47.8361 114.494 45.016 111.602L43.584 112.998C45.9639 115.439 47.2 118.767 47.2 123.1H49.2ZM45.0334 111.62C42.2959 108.667 38.7555 107.2 34.5 107.2V109.2C38.2445 109.2 41.2375 110.467 43.5666 112.98L45.0334 111.62ZM34.5 107.2C30.2446 107.2 26.6766 108.666 23.8754 111.611L25.3246 112.989C27.7234 110.467 30.7554 109.2 34.5 109.2V107.2ZM23.875 111.611C21.1262 114.505 19.8 118.373 19.8 123.1H21.8C21.8 118.76 23.0072 115.429 25.325 112.989L23.875 111.611ZM19.8 123.1C19.8 127.828 21.1264 131.723 23.8666 134.68L25.3334 133.32C23.0069 130.81 21.8 127.439 21.8 123.1H19.8ZM23.884 134.698C26.6871 137.573 30.2526 139 34.5 139V137C30.7475 137 27.7129 135.76 25.316 133.302L23.884 134.698ZM126.934 127.5V128.5H127.86L127.931 127.577L126.934 127.5ZM86.2336 127.5V126.5H84.9897L85.257 127.715L86.2336 127.5ZM91.4336 135.4L90.8561 136.216L91.4336 135.4ZM109.034 137.1L109.385 138.036L109.392 138.033L109.4 138.03L109.034 137.1ZM115.134 133.1L115.869 132.422L115.176 131.67L114.439 132.38L115.134 133.1ZM123.434 142.1L124.187 142.758L124.777 142.082L124.169 141.422L123.434 142.1ZM85.1336 147.3L84.6762 148.189L84.6864 148.194L85.1336 147.3ZM74.3336 137.4L73.4773 137.916L74.3336 137.4ZM74.2336 108.9L73.3737 108.389L73.3713 108.394L74.2336 108.9ZM84.5336 99L85.0077 99.8805L85.0124 99.8779L84.5336 99ZM113.534 98.8L114.003 97.9169L113.534 98.8ZM123.534 108.6L122.662 109.09L122.667 109.098L122.671 109.106L123.534 108.6ZM90.4336 110.2L89.7934 109.432L90.4336 110.2ZM86.0336 118.4L85.0452 118.248L84.868 119.4H86.0336V118.4ZM112.534 118.4V119.4H113.703L113.522 118.245L112.534 118.4ZM108.134 110.3L107.481 111.058L107.487 111.063L107.493 111.068L108.134 110.3ZM126.234 123.3C126.234 123.297 126.233 123.318 126.23 123.381C126.227 123.438 126.223 123.515 126.217 123.613C126.205 123.808 126.186 124.08 126.161 124.429C126.111 125.126 126.036 126.124 125.937 127.423L127.931 127.577C128.128 125.014 128.234 123.551 128.234 123.3H126.234ZM126.934 126.5H86.2336V128.5H126.934V126.5ZM85.257 127.715C86.0426 131.286 87.9151 134.136 90.8561 136.216L92.0111 134.584C89.4854 132.797 87.8912 130.38 87.2102 127.285L85.257 127.715ZM90.8561 136.216C93.7918 138.293 97.4053 139.3 101.634 139.3V137.3C97.7286 137.3 94.542 136.374 92.0111 134.584L90.8561 136.216ZM101.634 139.3C104.527 139.3 107.117 138.887 109.385 138.036L108.682 136.164C106.684 136.913 104.34 137.3 101.634 137.3V139.3ZM109.4 138.03C111.733 137.111 113.876 135.702 115.828 133.82L114.439 132.38C112.658 134.098 110.734 135.355 108.667 136.17L109.4 138.03ZM114.398 133.778L122.698 142.778L124.169 141.422L115.869 132.422L114.398 133.778ZM122.68 141.442C117.852 146.97 110.76 149.8 101.234 149.8V151.8C111.174 151.8 118.882 148.83 124.187 142.758L122.68 141.442ZM101.234 149.8C95.2969 149.8 90.0877 148.659 85.5808 146.406L84.6864 148.194C89.5128 150.608 95.0369 151.8 101.234 151.8V149.8ZM85.5909 146.411C81.0773 144.089 77.6207 140.913 75.1899 136.883L73.4773 137.916C76.1132 142.287 79.8566 145.711 84.6762 148.189L85.5909 146.411ZM75.1899 136.883C72.7587 132.853 71.5336 128.268 71.5336 123.1H69.5336C69.5336 128.599 70.8418 133.547 73.4773 137.916L75.1899 136.883ZM71.5336 123.1C71.5336 117.996 72.7267 113.44 75.0959 109.406L73.3713 108.394C70.8072 112.76 69.5336 117.67 69.5336 123.1H71.5336ZM75.0935 109.411C77.5349 105.299 80.8355 102.127 85.0077 99.8805L84.0595 98.1195C79.565 100.54 75.9989 103.968 73.3737 108.389L75.0935 109.411ZM85.0124 99.8779C89.2543 97.5642 93.9876 96.4 99.2336 96.4V94.4C93.6796 94.4 88.6129 95.6358 84.0547 98.1221L85.0124 99.8779ZM99.2336 96.4C104.352 96.4 108.955 97.5 113.064 99.6831L114.003 97.9169C109.579 95.5667 104.649 94.4 99.2336 94.4V96.4ZM113.064 99.6831C117.16 101.859 120.354 104.988 122.662 109.09L124.405 108.11C121.913 103.679 118.441 100.275 114.003 97.9169L113.064 99.6831ZM122.671 109.106C125.035 113.131 126.234 117.851 126.234 123.3H128.234C128.234 117.549 126.966 112.469 124.396 108.094L122.671 109.106ZM99.3336 106.2C95.5988 106.2 92.3966 107.262 89.7934 109.432L91.0738 110.968C93.2706 109.138 96.0017 108.2 99.3336 108.2V106.2ZM89.7934 109.432C87.1829 111.607 85.6107 114.572 85.0452 118.248L87.022 118.552C87.5231 115.295 88.8843 112.793 91.0738 110.968L89.7934 109.432ZM86.0336 119.4H112.534V117.4H86.0336V119.4ZM113.522 118.245C112.955 114.631 111.38 111.703 108.774 109.532L107.493 111.068C109.687 112.897 111.046 115.369 111.546 118.555L113.522 118.245ZM108.786 109.542C106.187 107.304 103.015 106.2 99.3336 106.2V108.2C102.585 108.2 105.28 109.163 107.481 111.058L108.786 109.542ZM191.691 150H190.691V151H191.691V150ZM191.691 117.8H192.691V114.17L190.833 117.288L191.691 117.8ZM175.591 144.8V145.8H176.159L176.45 145.312L175.591 144.8ZM168.991 144.8L168.126 145.301L168.415 145.8H168.991V144.8ZM153.291 117.7L154.157 117.199L152.291 113.979V117.7H153.291ZM153.291 150V151H154.291V150H153.291ZM139.191 150H138.191V151H139.191V150ZM139.191 96.2V95.2H138.191V96.2H139.191ZM155.491 96.2L156.366 95.716L156.081 95.2H155.491V96.2ZM172.691 127.3L171.816 127.784L172.664 129.318L173.553 127.807L172.691 127.3ZM190.991 96.2V95.2H190.42L190.13 95.6929L190.991 96.2ZM205.591 96.2L206.591 96.1963L206.588 95.2H205.591V96.2ZM205.791 150V151H206.795L206.791 149.996L205.791 150ZM192.691 150V117.8H190.691V150H192.691ZM190.833 117.288L174.733 144.288L176.45 145.312L192.55 118.312L190.833 117.288ZM175.591 143.8H168.991V145.8H175.591V143.8ZM169.857 144.299L154.157 117.199L152.426 118.201L168.126 145.301L169.857 144.299ZM152.291 117.7V150H154.291V117.7H152.291ZM153.291 149H139.191V151H153.291V149ZM140.191 150V96.2H138.191V150H140.191ZM139.191 97.2H155.491V95.2H139.191V97.2ZM154.616 96.684L171.816 127.784L173.566 126.816L156.366 95.716L154.616 96.684ZM173.553 127.807L191.853 96.7071L190.13 95.6929L171.83 126.793L173.553 127.807ZM190.991 97.2H205.591V95.2H190.991V97.2ZM204.591 96.2037L204.791 150.004L206.791 149.996L206.591 96.1963L204.591 96.2037ZM205.791 149H191.691V151H205.791V149ZM230.634 147.3L230.161 148.181L230.169 148.185L230.177 148.189L230.634 147.3ZM220.134 137.4L219.278 137.916L220.134 137.4ZM220.134 108.8L219.278 108.284L220.134 108.8ZM230.634 99L231.097 99.8864L231.102 99.8838L230.634 99ZM261.134 99L260.661 99.881L260.671 99.8863L261.134 99ZM271.634 108.8L272.491 108.284L271.634 108.8ZM271.634 137.4L272.491 137.916L271.634 137.4ZM261.134 147.3L261.597 148.186L261.608 148.181L261.134 147.3ZM255.734 134L255.01 133.311L255.009 133.311L255.734 134ZM255.734 112.3L255.001 112.98L255.01 112.989L255.018 112.998L255.734 112.3ZM236.034 112.3L236.75 112.998L236.759 112.989L236.034 112.3ZM236.034 134L235.31 134.689L235.318 134.698L236.034 134ZM245.934 149.8C240.409 149.8 235.469 148.664 231.092 146.411L230.177 148.189C234.867 150.603 240.127 151.8 245.934 151.8V149.8ZM231.108 146.419C226.793 144.101 223.428 140.925 220.991 136.883L219.278 137.916C221.907 142.275 225.542 145.699 230.161 148.181L231.108 146.419ZM220.991 136.883C218.56 132.853 217.334 128.268 217.334 123.1H215.334C215.334 128.599 216.643 133.547 219.278 137.916L220.991 136.883ZM217.334 123.1C217.334 117.932 218.56 113.347 220.991 109.316L219.278 108.284C216.643 112.653 215.334 117.601 215.334 123.1H217.334ZM220.991 109.316C223.427 105.278 226.789 102.137 231.097 99.8863L230.171 98.1136C225.547 100.529 221.909 103.922 219.278 108.284L220.991 109.316ZM231.102 99.8838C235.477 97.5678 240.413 96.4 245.934 96.4V94.4C240.122 94.4 234.859 95.6321 230.166 98.1162L231.102 99.8838ZM245.934 96.4C251.456 96.4 256.356 97.5679 260.661 99.8809L261.608 98.1191C256.979 95.6321 251.746 94.4 245.934 94.4V96.4ZM260.671 99.8863C264.98 102.137 268.342 105.278 270.778 109.316L272.491 108.284C269.86 103.922 266.222 100.529 261.597 98.1136L260.671 99.8863ZM270.778 109.316C273.209 113.347 274.434 117.932 274.434 123.1H276.434C276.434 117.601 275.126 112.653 272.491 108.284L270.778 109.316ZM274.434 123.1C274.434 128.268 273.209 132.853 270.778 136.884L272.491 137.916C275.126 133.547 276.434 128.599 276.434 123.1H274.434ZM270.778 136.883C268.341 140.925 264.975 144.101 260.661 146.419L261.608 148.181C266.227 145.699 269.861 142.275 272.491 137.916L270.778 136.883ZM260.671 146.414C256.365 148.663 251.46 149.8 245.934 149.8V151.8C251.742 151.8 256.971 150.603 261.597 148.186L260.671 146.414ZM245.934 139C250.182 139 253.72 137.573 256.459 134.689L255.009 133.311C252.682 135.761 249.687 137 245.934 137V139ZM256.459 134.689C259.27 131.734 260.634 127.835 260.634 123.1H258.634C258.634 127.432 257.398 130.8 255.01 133.311L256.459 134.689ZM260.634 123.1C260.634 118.366 259.271 114.494 256.45 111.602L255.018 112.998C257.398 115.439 258.634 118.767 258.634 123.1H260.634ZM256.468 111.62C253.73 108.667 250.19 107.2 245.934 107.2V109.2C249.679 109.2 252.672 110.467 255.001 112.98L256.468 111.62ZM245.934 107.2C241.679 107.2 238.111 108.666 235.31 111.611L236.759 112.989C239.158 110.467 242.19 109.2 245.934 109.2V107.2ZM235.318 111.602C232.498 114.494 231.134 118.366 231.134 123.1H233.134C233.134 118.767 234.371 115.439 236.75 112.998L235.318 111.602ZM231.134 123.1C231.134 127.835 232.498 131.734 235.31 134.689L236.759 133.311C234.37 130.8 233.134 127.432 233.134 123.1H231.134ZM235.318 134.698C238.122 137.573 241.687 139 245.934 139V137C242.182 137 239.147 135.76 236.75 133.302L235.318 134.698ZM286.164 96.2V95.2H285.164V96.2H286.164ZM301.664 96.2H302.664V95.2H301.664V96.2ZM301.664 117.2H300.664V118.2H301.664V117.2ZM325.064 117.2V118.2H326.064V117.2H325.064ZM325.064 96.2V95.2H324.064V96.2H325.064ZM340.664 96.2H341.664V95.2H340.664V96.2ZM340.664 150V151H341.664V150H340.664ZM325.064 150H324.064V151H325.064V150ZM325.064 129.9H326.064V128.9H325.064V129.9ZM301.664 129.9V128.9H300.664V129.9H301.664ZM301.664 150V151H302.664V150H301.664ZM286.164 150H285.164V151H286.164V150ZM286.164 97.2H301.664V95.2H286.164V97.2ZM300.664 96.2V117.2H302.664V96.2H300.664ZM301.664 118.2H325.064V116.2H301.664V118.2ZM326.064 117.2V96.2H324.064V117.2H326.064ZM325.064 97.2H340.664V95.2H325.064V97.2ZM339.664 96.2V150H341.664V96.2H339.664ZM340.664 149H325.064V151H340.664V149ZM326.064 150V129.9H324.064V150H326.064ZM325.064 128.9H301.664V130.9H325.064V128.9ZM300.664 129.9V150H302.664V129.9H300.664ZM301.664 149H286.164V151H301.664V149ZM287.164 150V96.2H285.164V150H287.164ZM400.798 109V110H401.798V109H400.798ZM382.598 109V108H381.598V109H382.598ZM382.598 150V151H383.598V150H382.598ZM367.098 150H366.098V151H367.098V150ZM367.098 109H368.098V108H367.098V109ZM348.898 109H347.898V110H348.898V109ZM348.898 96.2V95.2H347.898V96.2H348.898ZM400.798 96.2H401.798V95.2H400.798V96.2ZM400.798 108H382.598V110H400.798V108ZM381.598 109V150H383.598V109H381.598ZM382.598 149H367.098V151H382.598V149ZM368.098 150V109H366.098V150H368.098ZM367.098 108H348.898V110H367.098V108ZM349.898 109V96.2H347.898V109H349.898ZM348.898 97.2H400.798V95.2H348.898V97.2ZM399.798 96.2V109H401.798V96.2H399.798ZM449.213 101.4L448.546 102.145L448.552 102.15L449.213 101.4ZM455.913 150V151H456.913V150H455.913ZM441.313 150H440.313V151H441.313V150ZM441.313 143.3H442.313V139.619L440.451 142.794L441.313 143.3ZM414.113 148.7L413.69 149.606L413.698 149.61L414.113 148.7ZM407.213 142.9L406.374 143.444L407.213 142.9ZM410.413 122.7L409.811 121.902L409.804 121.907L410.413 122.7ZM440.313 118.4V119.4H441.313V118.4H440.313ZM437.213 110.6L436.543 111.342L436.55 111.348L436.556 111.354L437.213 110.6ZM419.413 109.2L419.716 110.153L419.723 110.151L419.73 110.149L419.413 109.2ZM412.413 112.8L411.524 113.257L412.08 114.34L413.035 113.583L412.413 112.8ZM406.813 101.9L406.237 101.083L405.526 101.583L405.924 102.357L406.813 101.9ZM417.313 97.1L417.049 96.1356L417.045 96.1367L417.313 97.1ZM435.913 138.5L436.415 139.365L436.426 139.359L436.436 139.353L435.913 138.5ZM440.313 133L441.254 133.34L441.313 133.175V133H440.313ZM440.313 127.5H441.313V126.5H440.313V127.5ZM422.313 138.6L421.697 139.387L421.716 139.402L421.735 139.416L422.313 138.6ZM430.013 96.4C438.197 96.4 444.324 98.3636 448.546 102.145L449.88 100.655C445.17 96.4364 438.497 94.4 430.013 94.4V96.4ZM448.552 102.15C452.736 105.835 454.913 111.483 454.913 119.3H456.913C456.913 111.117 454.624 104.832 449.874 100.65L448.552 102.15ZM454.913 119.3V150H456.913V119.3H454.913ZM455.913 149H441.313V151H455.913V149ZM442.313 150V143.3H440.313V150H442.313ZM440.451 142.794C437.762 147.377 432.71 149.8 424.913 149.8V151.8C433.117 151.8 438.998 149.223 442.176 143.806L440.451 142.794ZM424.913 149.8C420.892 149.8 417.439 149.119 414.529 147.79L413.698 149.61C416.921 151.081 420.668 151.8 424.913 151.8V149.8ZM414.536 147.794C411.684 146.463 409.538 144.646 408.052 142.356L406.374 143.444C408.089 146.087 410.543 148.137 413.69 149.606L414.536 147.794ZM408.052 142.356C406.564 140.062 405.813 137.453 405.813 134.5H403.813C403.813 137.813 404.662 140.805 406.374 143.444L408.052 142.356ZM405.813 134.5C405.813 129.788 407.553 126.157 411.022 123.493L409.804 121.907C405.807 124.976 403.813 129.212 403.813 134.5H405.813ZM411.016 123.498C414.561 120.824 420.134 119.4 427.913 119.4V117.4C419.959 117.4 413.865 118.843 409.811 121.902L411.016 123.498ZM427.913 119.4H440.313V117.4H427.913V119.4ZM441.313 118.4C441.313 114.786 440.206 111.88 437.87 109.846L436.556 111.354C438.354 112.92 439.313 115.214 439.313 118.4H441.313ZM437.884 109.858C435.562 107.761 432.177 106.8 427.913 106.8V108.8C431.916 108.8 434.732 109.706 436.543 111.342L437.884 109.858ZM427.913 106.8C424.936 106.8 421.996 107.285 419.097 108.251L419.73 110.149C422.431 109.248 425.157 108.8 427.913 108.8V106.8ZM419.111 108.247C416.28 109.144 413.835 110.397 411.792 112.017L413.035 113.583C414.859 112.137 417.08 110.989 419.716 110.153L419.111 108.247ZM413.303 112.343L407.703 101.443L405.924 102.357L411.524 113.257L413.303 112.343ZM407.389 102.717C410.214 100.727 413.606 99.1712 417.582 98.0633L417.045 96.1367C412.887 97.2954 409.279 98.9396 406.237 101.083L407.389 102.717ZM417.578 98.0644C421.624 96.955 425.768 96.4 430.013 96.4V94.4C425.592 94.4 421.269 94.9784 417.049 96.1356L417.578 98.0644ZM428.813 141.3C431.635 141.3 434.179 140.663 436.415 139.365L435.411 137.635C433.514 138.737 431.324 139.3 428.813 139.3V141.3ZM436.436 139.353C438.707 137.961 440.314 135.941 441.254 133.34L439.373 132.66C438.579 134.859 437.253 136.506 435.391 137.647L436.436 139.353ZM441.313 133V127.5H439.313V133H441.313ZM440.313 126.5H429.613V128.5H440.313V126.5ZM429.613 126.5C426.336 126.5 423.704 127.032 421.865 128.239C419.952 129.494 419.013 131.402 419.013 133.8H421.013C421.013 131.998 421.675 130.756 422.962 129.911C424.323 129.018 426.491 128.5 429.613 128.5V126.5ZM419.013 133.8C419.013 136.098 419.914 137.992 421.697 139.387L422.93 137.812C421.646 136.808 421.013 135.502 421.013 133.8H419.013ZM421.735 139.416C423.559 140.708 425.952 141.3 428.813 141.3V139.3C426.208 139.3 424.267 138.759 422.891 137.784L421.735 139.416Z" fill="#8A8A8A"/>
</svg>
